G75*
%MOIN*%
%OFA0B0*%
%FSLAX24Y24*%
%IPPOS*%
%LPD*%
%AMOC8*
5,1,8,0,0,1.08239X$1,22.5*
%
%ADD10C,0.0000*%
D10*
X003651Y000200D02*
X003651Y060320D01*
X043643Y060320D01*
X043643Y000200D01*
X003651Y000200D01*
X005141Y002450D02*
X005143Y002505D01*
X005149Y002559D01*
X005159Y002613D01*
X005172Y002667D01*
X005190Y002719D01*
X005211Y002769D01*
X005236Y002818D01*
X005264Y002865D01*
X005296Y002910D01*
X005331Y002952D01*
X005368Y002992D01*
X005409Y003029D01*
X005452Y003063D01*
X005497Y003094D01*
X005545Y003121D01*
X005594Y003145D01*
X005645Y003166D01*
X005698Y003182D01*
X005751Y003195D01*
X005805Y003204D01*
X005860Y003209D01*
X005915Y003210D01*
X005970Y003207D01*
X006024Y003200D01*
X006078Y003189D01*
X006131Y003174D01*
X006182Y003156D01*
X006233Y003134D01*
X006281Y003108D01*
X006328Y003079D01*
X006372Y003047D01*
X006414Y003011D01*
X006453Y002973D01*
X006489Y002931D01*
X006522Y002888D01*
X006552Y002842D01*
X006579Y002794D01*
X006602Y002744D01*
X006621Y002693D01*
X006637Y002640D01*
X006649Y002586D01*
X006657Y002532D01*
X006661Y002477D01*
X006661Y002423D01*
X006657Y002368D01*
X006649Y002314D01*
X006637Y002260D01*
X006621Y002207D01*
X006602Y002156D01*
X006579Y002106D01*
X006552Y002058D01*
X006522Y002012D01*
X006489Y001969D01*
X006453Y001927D01*
X006414Y001889D01*
X006372Y001853D01*
X006328Y001821D01*
X006281Y001792D01*
X006233Y001766D01*
X006182Y001744D01*
X006131Y001726D01*
X006078Y001711D01*
X006024Y001700D01*
X005970Y001693D01*
X005915Y001690D01*
X005860Y001691D01*
X005805Y001696D01*
X005751Y001705D01*
X005698Y001718D01*
X005645Y001734D01*
X005594Y001755D01*
X005545Y001779D01*
X005497Y001806D01*
X005452Y001837D01*
X005409Y001871D01*
X005368Y001908D01*
X005331Y001948D01*
X005296Y001990D01*
X005264Y002035D01*
X005236Y002082D01*
X005211Y002131D01*
X005190Y002181D01*
X005172Y002233D01*
X005159Y002287D01*
X005149Y002341D01*
X005143Y002395D01*
X005141Y002450D01*
X040641Y002450D02*
X040643Y002505D01*
X040649Y002559D01*
X040659Y002613D01*
X040672Y002667D01*
X040690Y002719D01*
X040711Y002769D01*
X040736Y002818D01*
X040764Y002865D01*
X040796Y002910D01*
X040831Y002952D01*
X040868Y002992D01*
X040909Y003029D01*
X040952Y003063D01*
X040997Y003094D01*
X041045Y003121D01*
X041094Y003145D01*
X041145Y003166D01*
X041198Y003182D01*
X041251Y003195D01*
X041305Y003204D01*
X041360Y003209D01*
X041415Y003210D01*
X041470Y003207D01*
X041524Y003200D01*
X041578Y003189D01*
X041631Y003174D01*
X041682Y003156D01*
X041733Y003134D01*
X041781Y003108D01*
X041828Y003079D01*
X041872Y003047D01*
X041914Y003011D01*
X041953Y002973D01*
X041989Y002931D01*
X042022Y002888D01*
X042052Y002842D01*
X042079Y002794D01*
X042102Y002744D01*
X042121Y002693D01*
X042137Y002640D01*
X042149Y002586D01*
X042157Y002532D01*
X042161Y002477D01*
X042161Y002423D01*
X042157Y002368D01*
X042149Y002314D01*
X042137Y002260D01*
X042121Y002207D01*
X042102Y002156D01*
X042079Y002106D01*
X042052Y002058D01*
X042022Y002012D01*
X041989Y001969D01*
X041953Y001927D01*
X041914Y001889D01*
X041872Y001853D01*
X041828Y001821D01*
X041781Y001792D01*
X041733Y001766D01*
X041682Y001744D01*
X041631Y001726D01*
X041578Y001711D01*
X041524Y001700D01*
X041470Y001693D01*
X041415Y001690D01*
X041360Y001691D01*
X041305Y001696D01*
X041251Y001705D01*
X041198Y001718D01*
X041145Y001734D01*
X041094Y001755D01*
X041045Y001779D01*
X040997Y001806D01*
X040952Y001837D01*
X040909Y001871D01*
X040868Y001908D01*
X040831Y001948D01*
X040796Y001990D01*
X040764Y002035D01*
X040736Y002082D01*
X040711Y002131D01*
X040690Y002181D01*
X040672Y002233D01*
X040659Y002287D01*
X040649Y002341D01*
X040643Y002395D01*
X040641Y002450D01*
X040641Y057950D02*
X040643Y058005D01*
X040649Y058059D01*
X040659Y058113D01*
X040672Y058167D01*
X040690Y058219D01*
X040711Y058269D01*
X040736Y058318D01*
X040764Y058365D01*
X040796Y058410D01*
X040831Y058452D01*
X040868Y058492D01*
X040909Y058529D01*
X040952Y058563D01*
X040997Y058594D01*
X041045Y058621D01*
X041094Y058645D01*
X041145Y058666D01*
X041198Y058682D01*
X041251Y058695D01*
X041305Y058704D01*
X041360Y058709D01*
X041415Y058710D01*
X041470Y058707D01*
X041524Y058700D01*
X041578Y058689D01*
X041631Y058674D01*
X041682Y058656D01*
X041733Y058634D01*
X041781Y058608D01*
X041828Y058579D01*
X041872Y058547D01*
X041914Y058511D01*
X041953Y058473D01*
X041989Y058431D01*
X042022Y058388D01*
X042052Y058342D01*
X042079Y058294D01*
X042102Y058244D01*
X042121Y058193D01*
X042137Y058140D01*
X042149Y058086D01*
X042157Y058032D01*
X042161Y057977D01*
X042161Y057923D01*
X042157Y057868D01*
X042149Y057814D01*
X042137Y057760D01*
X042121Y057707D01*
X042102Y057656D01*
X042079Y057606D01*
X042052Y057558D01*
X042022Y057512D01*
X041989Y057469D01*
X041953Y057427D01*
X041914Y057389D01*
X041872Y057353D01*
X041828Y057321D01*
X041781Y057292D01*
X041733Y057266D01*
X041682Y057244D01*
X041631Y057226D01*
X041578Y057211D01*
X041524Y057200D01*
X041470Y057193D01*
X041415Y057190D01*
X041360Y057191D01*
X041305Y057196D01*
X041251Y057205D01*
X041198Y057218D01*
X041145Y057234D01*
X041094Y057255D01*
X041045Y057279D01*
X040997Y057306D01*
X040952Y057337D01*
X040909Y057371D01*
X040868Y057408D01*
X040831Y057448D01*
X040796Y057490D01*
X040764Y057535D01*
X040736Y057582D01*
X040711Y057631D01*
X040690Y057681D01*
X040672Y057733D01*
X040659Y057787D01*
X040649Y057841D01*
X040643Y057895D01*
X040641Y057950D01*
X005141Y057950D02*
X005143Y058005D01*
X005149Y058059D01*
X005159Y058113D01*
X005172Y058167D01*
X005190Y058219D01*
X005211Y058269D01*
X005236Y058318D01*
X005264Y058365D01*
X005296Y058410D01*
X005331Y058452D01*
X005368Y058492D01*
X005409Y058529D01*
X005452Y058563D01*
X005497Y058594D01*
X005545Y058621D01*
X005594Y058645D01*
X005645Y058666D01*
X005698Y058682D01*
X005751Y058695D01*
X005805Y058704D01*
X005860Y058709D01*
X005915Y058710D01*
X005970Y058707D01*
X006024Y058700D01*
X006078Y058689D01*
X006131Y058674D01*
X006182Y058656D01*
X006233Y058634D01*
X006281Y058608D01*
X006328Y058579D01*
X006372Y058547D01*
X006414Y058511D01*
X006453Y058473D01*
X006489Y058431D01*
X006522Y058388D01*
X006552Y058342D01*
X006579Y058294D01*
X006602Y058244D01*
X006621Y058193D01*
X006637Y058140D01*
X006649Y058086D01*
X006657Y058032D01*
X006661Y057977D01*
X006661Y057923D01*
X006657Y057868D01*
X006649Y057814D01*
X006637Y057760D01*
X006621Y057707D01*
X006602Y057656D01*
X006579Y057606D01*
X006552Y057558D01*
X006522Y057512D01*
X006489Y057469D01*
X006453Y057427D01*
X006414Y057389D01*
X006372Y057353D01*
X006328Y057321D01*
X006281Y057292D01*
X006233Y057266D01*
X006182Y057244D01*
X006131Y057226D01*
X006078Y057211D01*
X006024Y057200D01*
X005970Y057193D01*
X005915Y057190D01*
X005860Y057191D01*
X005805Y057196D01*
X005751Y057205D01*
X005698Y057218D01*
X005645Y057234D01*
X005594Y057255D01*
X005545Y057279D01*
X005497Y057306D01*
X005452Y057337D01*
X005409Y057371D01*
X005368Y057408D01*
X005331Y057448D01*
X005296Y057490D01*
X005264Y057535D01*
X005236Y057582D01*
X005211Y057631D01*
X005190Y057681D01*
X005172Y057733D01*
X005159Y057787D01*
X005149Y057841D01*
X005143Y057895D01*
X005141Y057950D01*
M02*
