G75*
%MOIN*%
%OFA0B0*%
%FSLAX24Y24*%
%IPPOS*%
%LPD*%
%AMOC8*
5,1,8,0,0,1.08239X$1,22.5*
%
%ADD10C,0.0000*%
%ADD11C,0.0050*%
D10*
X003651Y000200D02*
X003651Y060320D01*
X043643Y060320D01*
X043643Y000200D01*
X003651Y000200D01*
X005141Y002450D02*
X005143Y002505D01*
X005149Y002559D01*
X005159Y002613D01*
X005172Y002667D01*
X005190Y002719D01*
X005211Y002769D01*
X005236Y002818D01*
X005264Y002865D01*
X005296Y002910D01*
X005331Y002952D01*
X005368Y002992D01*
X005409Y003029D01*
X005452Y003063D01*
X005497Y003094D01*
X005545Y003121D01*
X005594Y003145D01*
X005645Y003166D01*
X005698Y003182D01*
X005751Y003195D01*
X005805Y003204D01*
X005860Y003209D01*
X005915Y003210D01*
X005970Y003207D01*
X006024Y003200D01*
X006078Y003189D01*
X006131Y003174D01*
X006182Y003156D01*
X006233Y003134D01*
X006281Y003108D01*
X006328Y003079D01*
X006372Y003047D01*
X006414Y003011D01*
X006453Y002973D01*
X006489Y002931D01*
X006522Y002888D01*
X006552Y002842D01*
X006579Y002794D01*
X006602Y002744D01*
X006621Y002693D01*
X006637Y002640D01*
X006649Y002586D01*
X006657Y002532D01*
X006661Y002477D01*
X006661Y002423D01*
X006657Y002368D01*
X006649Y002314D01*
X006637Y002260D01*
X006621Y002207D01*
X006602Y002156D01*
X006579Y002106D01*
X006552Y002058D01*
X006522Y002012D01*
X006489Y001969D01*
X006453Y001927D01*
X006414Y001889D01*
X006372Y001853D01*
X006328Y001821D01*
X006281Y001792D01*
X006233Y001766D01*
X006182Y001744D01*
X006131Y001726D01*
X006078Y001711D01*
X006024Y001700D01*
X005970Y001693D01*
X005915Y001690D01*
X005860Y001691D01*
X005805Y001696D01*
X005751Y001705D01*
X005698Y001718D01*
X005645Y001734D01*
X005594Y001755D01*
X005545Y001779D01*
X005497Y001806D01*
X005452Y001837D01*
X005409Y001871D01*
X005368Y001908D01*
X005331Y001948D01*
X005296Y001990D01*
X005264Y002035D01*
X005236Y002082D01*
X005211Y002131D01*
X005190Y002181D01*
X005172Y002233D01*
X005159Y002287D01*
X005149Y002341D01*
X005143Y002395D01*
X005141Y002450D01*
X040641Y002450D02*
X040643Y002505D01*
X040649Y002559D01*
X040659Y002613D01*
X040672Y002667D01*
X040690Y002719D01*
X040711Y002769D01*
X040736Y002818D01*
X040764Y002865D01*
X040796Y002910D01*
X040831Y002952D01*
X040868Y002992D01*
X040909Y003029D01*
X040952Y003063D01*
X040997Y003094D01*
X041045Y003121D01*
X041094Y003145D01*
X041145Y003166D01*
X041198Y003182D01*
X041251Y003195D01*
X041305Y003204D01*
X041360Y003209D01*
X041415Y003210D01*
X041470Y003207D01*
X041524Y003200D01*
X041578Y003189D01*
X041631Y003174D01*
X041682Y003156D01*
X041733Y003134D01*
X041781Y003108D01*
X041828Y003079D01*
X041872Y003047D01*
X041914Y003011D01*
X041953Y002973D01*
X041989Y002931D01*
X042022Y002888D01*
X042052Y002842D01*
X042079Y002794D01*
X042102Y002744D01*
X042121Y002693D01*
X042137Y002640D01*
X042149Y002586D01*
X042157Y002532D01*
X042161Y002477D01*
X042161Y002423D01*
X042157Y002368D01*
X042149Y002314D01*
X042137Y002260D01*
X042121Y002207D01*
X042102Y002156D01*
X042079Y002106D01*
X042052Y002058D01*
X042022Y002012D01*
X041989Y001969D01*
X041953Y001927D01*
X041914Y001889D01*
X041872Y001853D01*
X041828Y001821D01*
X041781Y001792D01*
X041733Y001766D01*
X041682Y001744D01*
X041631Y001726D01*
X041578Y001711D01*
X041524Y001700D01*
X041470Y001693D01*
X041415Y001690D01*
X041360Y001691D01*
X041305Y001696D01*
X041251Y001705D01*
X041198Y001718D01*
X041145Y001734D01*
X041094Y001755D01*
X041045Y001779D01*
X040997Y001806D01*
X040952Y001837D01*
X040909Y001871D01*
X040868Y001908D01*
X040831Y001948D01*
X040796Y001990D01*
X040764Y002035D01*
X040736Y002082D01*
X040711Y002131D01*
X040690Y002181D01*
X040672Y002233D01*
X040659Y002287D01*
X040649Y002341D01*
X040643Y002395D01*
X040641Y002450D01*
X040641Y057950D02*
X040643Y058005D01*
X040649Y058059D01*
X040659Y058113D01*
X040672Y058167D01*
X040690Y058219D01*
X040711Y058269D01*
X040736Y058318D01*
X040764Y058365D01*
X040796Y058410D01*
X040831Y058452D01*
X040868Y058492D01*
X040909Y058529D01*
X040952Y058563D01*
X040997Y058594D01*
X041045Y058621D01*
X041094Y058645D01*
X041145Y058666D01*
X041198Y058682D01*
X041251Y058695D01*
X041305Y058704D01*
X041360Y058709D01*
X041415Y058710D01*
X041470Y058707D01*
X041524Y058700D01*
X041578Y058689D01*
X041631Y058674D01*
X041682Y058656D01*
X041733Y058634D01*
X041781Y058608D01*
X041828Y058579D01*
X041872Y058547D01*
X041914Y058511D01*
X041953Y058473D01*
X041989Y058431D01*
X042022Y058388D01*
X042052Y058342D01*
X042079Y058294D01*
X042102Y058244D01*
X042121Y058193D01*
X042137Y058140D01*
X042149Y058086D01*
X042157Y058032D01*
X042161Y057977D01*
X042161Y057923D01*
X042157Y057868D01*
X042149Y057814D01*
X042137Y057760D01*
X042121Y057707D01*
X042102Y057656D01*
X042079Y057606D01*
X042052Y057558D01*
X042022Y057512D01*
X041989Y057469D01*
X041953Y057427D01*
X041914Y057389D01*
X041872Y057353D01*
X041828Y057321D01*
X041781Y057292D01*
X041733Y057266D01*
X041682Y057244D01*
X041631Y057226D01*
X041578Y057211D01*
X041524Y057200D01*
X041470Y057193D01*
X041415Y057190D01*
X041360Y057191D01*
X041305Y057196D01*
X041251Y057205D01*
X041198Y057218D01*
X041145Y057234D01*
X041094Y057255D01*
X041045Y057279D01*
X040997Y057306D01*
X040952Y057337D01*
X040909Y057371D01*
X040868Y057408D01*
X040831Y057448D01*
X040796Y057490D01*
X040764Y057535D01*
X040736Y057582D01*
X040711Y057631D01*
X040690Y057681D01*
X040672Y057733D01*
X040659Y057787D01*
X040649Y057841D01*
X040643Y057895D01*
X040641Y057950D01*
X005141Y057950D02*
X005143Y058005D01*
X005149Y058059D01*
X005159Y058113D01*
X005172Y058167D01*
X005190Y058219D01*
X005211Y058269D01*
X005236Y058318D01*
X005264Y058365D01*
X005296Y058410D01*
X005331Y058452D01*
X005368Y058492D01*
X005409Y058529D01*
X005452Y058563D01*
X005497Y058594D01*
X005545Y058621D01*
X005594Y058645D01*
X005645Y058666D01*
X005698Y058682D01*
X005751Y058695D01*
X005805Y058704D01*
X005860Y058709D01*
X005915Y058710D01*
X005970Y058707D01*
X006024Y058700D01*
X006078Y058689D01*
X006131Y058674D01*
X006182Y058656D01*
X006233Y058634D01*
X006281Y058608D01*
X006328Y058579D01*
X006372Y058547D01*
X006414Y058511D01*
X006453Y058473D01*
X006489Y058431D01*
X006522Y058388D01*
X006552Y058342D01*
X006579Y058294D01*
X006602Y058244D01*
X006621Y058193D01*
X006637Y058140D01*
X006649Y058086D01*
X006657Y058032D01*
X006661Y057977D01*
X006661Y057923D01*
X006657Y057868D01*
X006649Y057814D01*
X006637Y057760D01*
X006621Y057707D01*
X006602Y057656D01*
X006579Y057606D01*
X006552Y057558D01*
X006522Y057512D01*
X006489Y057469D01*
X006453Y057427D01*
X006414Y057389D01*
X006372Y057353D01*
X006328Y057321D01*
X006281Y057292D01*
X006233Y057266D01*
X006182Y057244D01*
X006131Y057226D01*
X006078Y057211D01*
X006024Y057200D01*
X005970Y057193D01*
X005915Y057190D01*
X005860Y057191D01*
X005805Y057196D01*
X005751Y057205D01*
X005698Y057218D01*
X005645Y057234D01*
X005594Y057255D01*
X005545Y057279D01*
X005497Y057306D01*
X005452Y057337D01*
X005409Y057371D01*
X005368Y057408D01*
X005331Y057448D01*
X005296Y057490D01*
X005264Y057535D01*
X005236Y057582D01*
X005211Y057631D01*
X005190Y057681D01*
X005172Y057733D01*
X005159Y057787D01*
X005149Y057841D01*
X005143Y057895D01*
X005141Y057950D01*
D11*
X003668Y055495D02*
X003225Y055495D01*
X002832Y055495D02*
X002389Y055495D01*
X001995Y055495D02*
X001552Y055495D01*
X001158Y055495D02*
X000716Y055495D01*
X000716Y055053D01*
X000716Y054659D02*
X000716Y054216D01*
X000716Y053822D02*
X000716Y053379D01*
X000716Y052986D02*
X000716Y052543D01*
X000716Y052141D01*
X000716Y051747D02*
X000716Y051346D01*
X000716Y050952D02*
X000716Y050551D01*
X000716Y050157D02*
X000716Y049755D01*
X000716Y049362D02*
X000716Y048960D01*
X000125Y048960D01*
X000125Y049362D01*
X000125Y049755D02*
X000125Y050157D01*
X000125Y050551D02*
X000125Y050952D01*
X000125Y051346D02*
X000125Y051747D01*
X000125Y052141D02*
X000125Y052543D01*
X000125Y052986D01*
X000125Y053379D02*
X000125Y053822D01*
X000125Y054216D02*
X000125Y054659D01*
X000125Y055053D02*
X000125Y055495D01*
X000716Y055495D01*
X001582Y054590D02*
X002645Y054590D01*
X001502Y054590D02*
X001504Y054640D01*
X001510Y054690D01*
X001520Y054739D01*
X001534Y054787D01*
X001551Y054834D01*
X001572Y054880D01*
X001597Y054923D01*
X001625Y054965D01*
X001657Y055004D01*
X001691Y055041D01*
X001728Y055074D01*
X001768Y055105D01*
X001810Y055132D01*
X001854Y055156D01*
X001900Y055177D01*
X001948Y055193D01*
X001996Y055206D01*
X002045Y055215D01*
X002095Y055220D01*
X002146Y055221D01*
X002196Y055218D01*
X002245Y055211D01*
X002294Y055200D01*
X002342Y055185D01*
X002389Y055167D01*
X002434Y055145D01*
X002477Y055119D01*
X002518Y055090D01*
X002556Y055058D01*
X002592Y055023D01*
X002625Y054985D01*
X002655Y054944D01*
X002682Y054902D01*
X002705Y054857D01*
X002724Y054811D01*
X002740Y054763D01*
X002752Y054715D01*
X002760Y054665D01*
X002764Y054615D01*
X002764Y054565D01*
X002760Y054515D01*
X002752Y054465D01*
X002740Y054417D01*
X002724Y054369D01*
X002705Y054323D01*
X002682Y054278D01*
X002655Y054236D01*
X002625Y054195D01*
X002592Y054157D01*
X002556Y054122D01*
X002518Y054090D01*
X002477Y054061D01*
X002434Y054035D01*
X002389Y054013D01*
X002342Y053995D01*
X002294Y053980D01*
X002245Y053969D01*
X002196Y053962D01*
X002146Y053959D01*
X002095Y053960D01*
X002045Y053965D01*
X001996Y053974D01*
X001948Y053987D01*
X001900Y054003D01*
X001854Y054024D01*
X001810Y054048D01*
X001768Y054075D01*
X001728Y054106D01*
X001691Y054139D01*
X001657Y054176D01*
X001625Y054215D01*
X001597Y054257D01*
X001572Y054300D01*
X001551Y054346D01*
X001534Y054393D01*
X001520Y054441D01*
X001510Y054490D01*
X001504Y054540D01*
X001502Y054590D01*
X001582Y053054D02*
X002645Y053054D01*
X001502Y053054D02*
X001504Y053104D01*
X001510Y053154D01*
X001520Y053203D01*
X001534Y053251D01*
X001551Y053298D01*
X001572Y053344D01*
X001597Y053387D01*
X001625Y053429D01*
X001657Y053468D01*
X001691Y053505D01*
X001728Y053538D01*
X001768Y053569D01*
X001810Y053596D01*
X001854Y053620D01*
X001900Y053641D01*
X001948Y053657D01*
X001996Y053670D01*
X002045Y053679D01*
X002095Y053684D01*
X002146Y053685D01*
X002196Y053682D01*
X002245Y053675D01*
X002294Y053664D01*
X002342Y053649D01*
X002389Y053631D01*
X002434Y053609D01*
X002477Y053583D01*
X002518Y053554D01*
X002556Y053522D01*
X002592Y053487D01*
X002625Y053449D01*
X002655Y053408D01*
X002682Y053366D01*
X002705Y053321D01*
X002724Y053275D01*
X002740Y053227D01*
X002752Y053179D01*
X002760Y053129D01*
X002764Y053079D01*
X002764Y053029D01*
X002760Y052979D01*
X002752Y052929D01*
X002740Y052881D01*
X002724Y052833D01*
X002705Y052787D01*
X002682Y052742D01*
X002655Y052700D01*
X002625Y052659D01*
X002592Y052621D01*
X002556Y052586D01*
X002518Y052554D01*
X002477Y052525D01*
X002434Y052499D01*
X002389Y052477D01*
X002342Y052459D01*
X002294Y052444D01*
X002245Y052433D01*
X002196Y052426D01*
X002146Y052423D01*
X002095Y052424D01*
X002045Y052429D01*
X001996Y052438D01*
X001948Y052451D01*
X001900Y052467D01*
X001854Y052488D01*
X001810Y052512D01*
X001768Y052539D01*
X001728Y052570D01*
X001691Y052603D01*
X001657Y052640D01*
X001625Y052679D01*
X001597Y052721D01*
X001572Y052764D01*
X001551Y052810D01*
X001534Y052857D01*
X001520Y052905D01*
X001510Y052954D01*
X001504Y053004D01*
X001502Y053054D01*
X001582Y051519D02*
X002645Y051519D01*
X001502Y051519D02*
X001504Y051569D01*
X001510Y051619D01*
X001520Y051668D01*
X001534Y051716D01*
X001551Y051763D01*
X001572Y051809D01*
X001597Y051852D01*
X001625Y051894D01*
X001657Y051933D01*
X001691Y051970D01*
X001728Y052003D01*
X001768Y052034D01*
X001810Y052061D01*
X001854Y052085D01*
X001900Y052106D01*
X001948Y052122D01*
X001996Y052135D01*
X002045Y052144D01*
X002095Y052149D01*
X002146Y052150D01*
X002196Y052147D01*
X002245Y052140D01*
X002294Y052129D01*
X002342Y052114D01*
X002389Y052096D01*
X002434Y052074D01*
X002477Y052048D01*
X002518Y052019D01*
X002556Y051987D01*
X002592Y051952D01*
X002625Y051914D01*
X002655Y051873D01*
X002682Y051831D01*
X002705Y051786D01*
X002724Y051740D01*
X002740Y051692D01*
X002752Y051644D01*
X002760Y051594D01*
X002764Y051544D01*
X002764Y051494D01*
X002760Y051444D01*
X002752Y051394D01*
X002740Y051346D01*
X002724Y051298D01*
X002705Y051252D01*
X002682Y051207D01*
X002655Y051165D01*
X002625Y051124D01*
X002592Y051086D01*
X002556Y051051D01*
X002518Y051019D01*
X002477Y050990D01*
X002434Y050964D01*
X002389Y050942D01*
X002342Y050924D01*
X002294Y050909D01*
X002245Y050898D01*
X002196Y050891D01*
X002146Y050888D01*
X002095Y050889D01*
X002045Y050894D01*
X001996Y050903D01*
X001948Y050916D01*
X001900Y050932D01*
X001854Y050953D01*
X001810Y050977D01*
X001768Y051004D01*
X001728Y051035D01*
X001691Y051068D01*
X001657Y051105D01*
X001625Y051144D01*
X001597Y051186D01*
X001572Y051229D01*
X001551Y051275D01*
X001534Y051322D01*
X001520Y051370D01*
X001510Y051419D01*
X001504Y051469D01*
X001502Y051519D01*
X001582Y049984D02*
X002645Y049984D01*
X001502Y049984D02*
X001504Y050034D01*
X001510Y050084D01*
X001520Y050133D01*
X001534Y050181D01*
X001551Y050228D01*
X001572Y050274D01*
X001597Y050317D01*
X001625Y050359D01*
X001657Y050398D01*
X001691Y050435D01*
X001728Y050468D01*
X001768Y050499D01*
X001810Y050526D01*
X001854Y050550D01*
X001900Y050571D01*
X001948Y050587D01*
X001996Y050600D01*
X002045Y050609D01*
X002095Y050614D01*
X002146Y050615D01*
X002196Y050612D01*
X002245Y050605D01*
X002294Y050594D01*
X002342Y050579D01*
X002389Y050561D01*
X002434Y050539D01*
X002477Y050513D01*
X002518Y050484D01*
X002556Y050452D01*
X002592Y050417D01*
X002625Y050379D01*
X002655Y050338D01*
X002682Y050296D01*
X002705Y050251D01*
X002724Y050205D01*
X002740Y050157D01*
X002752Y050109D01*
X002760Y050059D01*
X002764Y050009D01*
X002764Y049959D01*
X002760Y049909D01*
X002752Y049859D01*
X002740Y049811D01*
X002724Y049763D01*
X002705Y049717D01*
X002682Y049672D01*
X002655Y049630D01*
X002625Y049589D01*
X002592Y049551D01*
X002556Y049516D01*
X002518Y049484D01*
X002477Y049455D01*
X002434Y049429D01*
X002389Y049407D01*
X002342Y049389D01*
X002294Y049374D01*
X002245Y049363D01*
X002196Y049356D01*
X002146Y049353D01*
X002095Y049354D01*
X002045Y049359D01*
X001996Y049368D01*
X001948Y049381D01*
X001900Y049397D01*
X001854Y049418D01*
X001810Y049442D01*
X001768Y049469D01*
X001728Y049500D01*
X001691Y049533D01*
X001657Y049570D01*
X001625Y049609D01*
X001597Y049651D01*
X001572Y049694D01*
X001551Y049740D01*
X001534Y049787D01*
X001520Y049835D01*
X001510Y049884D01*
X001504Y049934D01*
X001502Y049984D01*
X001542Y048960D02*
X001975Y048960D01*
X002369Y048960D02*
X002802Y048960D01*
X003196Y048960D02*
X003629Y048960D01*
X001149Y048960D02*
X000716Y048960D01*
X000716Y044525D02*
X000125Y044525D01*
X000125Y044083D01*
X000125Y043689D02*
X000125Y043246D01*
X000125Y042852D02*
X000125Y042409D01*
X000125Y042016D02*
X000125Y041573D01*
X000125Y041171D01*
X000125Y040777D02*
X000125Y040376D01*
X000125Y039982D02*
X000125Y039581D01*
X000125Y039187D02*
X000125Y038785D01*
X000125Y038392D02*
X000125Y037990D01*
X000716Y037990D01*
X000716Y038392D01*
X000716Y038785D02*
X000716Y039187D01*
X000716Y039581D02*
X000716Y039982D01*
X000716Y040376D02*
X000716Y040777D01*
X000716Y041171D02*
X000716Y041573D01*
X000716Y042016D01*
X000716Y042409D02*
X000716Y042852D01*
X000716Y043246D02*
X000716Y043689D01*
X000716Y044083D02*
X000716Y044525D01*
X001158Y044525D01*
X001552Y044525D02*
X001995Y044525D01*
X002389Y044525D02*
X002832Y044525D01*
X003225Y044525D02*
X003668Y044525D01*
X002645Y043620D02*
X001582Y043620D01*
X001502Y043620D02*
X001504Y043670D01*
X001510Y043720D01*
X001520Y043769D01*
X001534Y043817D01*
X001551Y043864D01*
X001572Y043910D01*
X001597Y043953D01*
X001625Y043995D01*
X001657Y044034D01*
X001691Y044071D01*
X001728Y044104D01*
X001768Y044135D01*
X001810Y044162D01*
X001854Y044186D01*
X001900Y044207D01*
X001948Y044223D01*
X001996Y044236D01*
X002045Y044245D01*
X002095Y044250D01*
X002146Y044251D01*
X002196Y044248D01*
X002245Y044241D01*
X002294Y044230D01*
X002342Y044215D01*
X002389Y044197D01*
X002434Y044175D01*
X002477Y044149D01*
X002518Y044120D01*
X002556Y044088D01*
X002592Y044053D01*
X002625Y044015D01*
X002655Y043974D01*
X002682Y043932D01*
X002705Y043887D01*
X002724Y043841D01*
X002740Y043793D01*
X002752Y043745D01*
X002760Y043695D01*
X002764Y043645D01*
X002764Y043595D01*
X002760Y043545D01*
X002752Y043495D01*
X002740Y043447D01*
X002724Y043399D01*
X002705Y043353D01*
X002682Y043308D01*
X002655Y043266D01*
X002625Y043225D01*
X002592Y043187D01*
X002556Y043152D01*
X002518Y043120D01*
X002477Y043091D01*
X002434Y043065D01*
X002389Y043043D01*
X002342Y043025D01*
X002294Y043010D01*
X002245Y042999D01*
X002196Y042992D01*
X002146Y042989D01*
X002095Y042990D01*
X002045Y042995D01*
X001996Y043004D01*
X001948Y043017D01*
X001900Y043033D01*
X001854Y043054D01*
X001810Y043078D01*
X001768Y043105D01*
X001728Y043136D01*
X001691Y043169D01*
X001657Y043206D01*
X001625Y043245D01*
X001597Y043287D01*
X001572Y043330D01*
X001551Y043376D01*
X001534Y043423D01*
X001520Y043471D01*
X001510Y043520D01*
X001504Y043570D01*
X001502Y043620D01*
X001582Y042084D02*
X002645Y042084D01*
X001502Y042084D02*
X001504Y042134D01*
X001510Y042184D01*
X001520Y042233D01*
X001534Y042281D01*
X001551Y042328D01*
X001572Y042374D01*
X001597Y042417D01*
X001625Y042459D01*
X001657Y042498D01*
X001691Y042535D01*
X001728Y042568D01*
X001768Y042599D01*
X001810Y042626D01*
X001854Y042650D01*
X001900Y042671D01*
X001948Y042687D01*
X001996Y042700D01*
X002045Y042709D01*
X002095Y042714D01*
X002146Y042715D01*
X002196Y042712D01*
X002245Y042705D01*
X002294Y042694D01*
X002342Y042679D01*
X002389Y042661D01*
X002434Y042639D01*
X002477Y042613D01*
X002518Y042584D01*
X002556Y042552D01*
X002592Y042517D01*
X002625Y042479D01*
X002655Y042438D01*
X002682Y042396D01*
X002705Y042351D01*
X002724Y042305D01*
X002740Y042257D01*
X002752Y042209D01*
X002760Y042159D01*
X002764Y042109D01*
X002764Y042059D01*
X002760Y042009D01*
X002752Y041959D01*
X002740Y041911D01*
X002724Y041863D01*
X002705Y041817D01*
X002682Y041772D01*
X002655Y041730D01*
X002625Y041689D01*
X002592Y041651D01*
X002556Y041616D01*
X002518Y041584D01*
X002477Y041555D01*
X002434Y041529D01*
X002389Y041507D01*
X002342Y041489D01*
X002294Y041474D01*
X002245Y041463D01*
X002196Y041456D01*
X002146Y041453D01*
X002095Y041454D01*
X002045Y041459D01*
X001996Y041468D01*
X001948Y041481D01*
X001900Y041497D01*
X001854Y041518D01*
X001810Y041542D01*
X001768Y041569D01*
X001728Y041600D01*
X001691Y041633D01*
X001657Y041670D01*
X001625Y041709D01*
X001597Y041751D01*
X001572Y041794D01*
X001551Y041840D01*
X001534Y041887D01*
X001520Y041935D01*
X001510Y041984D01*
X001504Y042034D01*
X001502Y042084D01*
X001582Y040549D02*
X002645Y040549D01*
X001502Y040549D02*
X001504Y040599D01*
X001510Y040649D01*
X001520Y040698D01*
X001534Y040746D01*
X001551Y040793D01*
X001572Y040839D01*
X001597Y040882D01*
X001625Y040924D01*
X001657Y040963D01*
X001691Y041000D01*
X001728Y041033D01*
X001768Y041064D01*
X001810Y041091D01*
X001854Y041115D01*
X001900Y041136D01*
X001948Y041152D01*
X001996Y041165D01*
X002045Y041174D01*
X002095Y041179D01*
X002146Y041180D01*
X002196Y041177D01*
X002245Y041170D01*
X002294Y041159D01*
X002342Y041144D01*
X002389Y041126D01*
X002434Y041104D01*
X002477Y041078D01*
X002518Y041049D01*
X002556Y041017D01*
X002592Y040982D01*
X002625Y040944D01*
X002655Y040903D01*
X002682Y040861D01*
X002705Y040816D01*
X002724Y040770D01*
X002740Y040722D01*
X002752Y040674D01*
X002760Y040624D01*
X002764Y040574D01*
X002764Y040524D01*
X002760Y040474D01*
X002752Y040424D01*
X002740Y040376D01*
X002724Y040328D01*
X002705Y040282D01*
X002682Y040237D01*
X002655Y040195D01*
X002625Y040154D01*
X002592Y040116D01*
X002556Y040081D01*
X002518Y040049D01*
X002477Y040020D01*
X002434Y039994D01*
X002389Y039972D01*
X002342Y039954D01*
X002294Y039939D01*
X002245Y039928D01*
X002196Y039921D01*
X002146Y039918D01*
X002095Y039919D01*
X002045Y039924D01*
X001996Y039933D01*
X001948Y039946D01*
X001900Y039962D01*
X001854Y039983D01*
X001810Y040007D01*
X001768Y040034D01*
X001728Y040065D01*
X001691Y040098D01*
X001657Y040135D01*
X001625Y040174D01*
X001597Y040216D01*
X001572Y040259D01*
X001551Y040305D01*
X001534Y040352D01*
X001520Y040400D01*
X001510Y040449D01*
X001504Y040499D01*
X001502Y040549D01*
X001582Y039014D02*
X002645Y039014D01*
X001502Y039014D02*
X001504Y039064D01*
X001510Y039114D01*
X001520Y039163D01*
X001534Y039211D01*
X001551Y039258D01*
X001572Y039304D01*
X001597Y039347D01*
X001625Y039389D01*
X001657Y039428D01*
X001691Y039465D01*
X001728Y039498D01*
X001768Y039529D01*
X001810Y039556D01*
X001854Y039580D01*
X001900Y039601D01*
X001948Y039617D01*
X001996Y039630D01*
X002045Y039639D01*
X002095Y039644D01*
X002146Y039645D01*
X002196Y039642D01*
X002245Y039635D01*
X002294Y039624D01*
X002342Y039609D01*
X002389Y039591D01*
X002434Y039569D01*
X002477Y039543D01*
X002518Y039514D01*
X002556Y039482D01*
X002592Y039447D01*
X002625Y039409D01*
X002655Y039368D01*
X002682Y039326D01*
X002705Y039281D01*
X002724Y039235D01*
X002740Y039187D01*
X002752Y039139D01*
X002760Y039089D01*
X002764Y039039D01*
X002764Y038989D01*
X002760Y038939D01*
X002752Y038889D01*
X002740Y038841D01*
X002724Y038793D01*
X002705Y038747D01*
X002682Y038702D01*
X002655Y038660D01*
X002625Y038619D01*
X002592Y038581D01*
X002556Y038546D01*
X002518Y038514D01*
X002477Y038485D01*
X002434Y038459D01*
X002389Y038437D01*
X002342Y038419D01*
X002294Y038404D01*
X002245Y038393D01*
X002196Y038386D01*
X002146Y038383D01*
X002095Y038384D01*
X002045Y038389D01*
X001996Y038398D01*
X001948Y038411D01*
X001900Y038427D01*
X001854Y038448D01*
X001810Y038472D01*
X001768Y038499D01*
X001728Y038530D01*
X001691Y038563D01*
X001657Y038600D01*
X001625Y038639D01*
X001597Y038681D01*
X001572Y038724D01*
X001551Y038770D01*
X001534Y038817D01*
X001520Y038865D01*
X001510Y038914D01*
X001504Y038964D01*
X001502Y039014D01*
X001542Y037990D02*
X001975Y037990D01*
X002369Y037990D02*
X002802Y037990D01*
X003196Y037990D02*
X003629Y037990D01*
X001149Y037990D02*
X000716Y037990D01*
X043684Y038545D02*
X044127Y038545D01*
X044520Y038545D02*
X044963Y038545D01*
X045357Y038545D02*
X045800Y038545D01*
X046194Y038545D02*
X046636Y038545D01*
X046636Y038987D01*
X046636Y039381D02*
X046636Y039824D01*
X046636Y040218D02*
X046636Y040661D01*
X046636Y041054D02*
X046636Y041497D01*
X046636Y041899D01*
X046636Y042293D02*
X046636Y042694D01*
X046636Y043088D02*
X046636Y043489D01*
X046636Y043883D02*
X046636Y044285D01*
X046636Y044678D02*
X046636Y045080D01*
X047227Y045080D01*
X047227Y044678D01*
X047227Y044285D02*
X047227Y043883D01*
X047227Y043489D02*
X047227Y043088D01*
X047227Y042694D02*
X047227Y042293D01*
X047227Y041899D02*
X047227Y041497D01*
X047227Y041054D01*
X047227Y040661D02*
X047227Y040218D01*
X047227Y039824D02*
X047227Y039381D01*
X047227Y038987D02*
X047227Y038545D01*
X046636Y038545D01*
X045770Y039450D02*
X044707Y039450D01*
X044588Y039450D02*
X044590Y039500D01*
X044596Y039550D01*
X044606Y039599D01*
X044620Y039647D01*
X044637Y039694D01*
X044658Y039740D01*
X044683Y039783D01*
X044711Y039825D01*
X044743Y039864D01*
X044777Y039901D01*
X044814Y039934D01*
X044854Y039965D01*
X044896Y039992D01*
X044940Y040016D01*
X044986Y040037D01*
X045034Y040053D01*
X045082Y040066D01*
X045131Y040075D01*
X045181Y040080D01*
X045232Y040081D01*
X045282Y040078D01*
X045331Y040071D01*
X045380Y040060D01*
X045428Y040045D01*
X045475Y040027D01*
X045520Y040005D01*
X045563Y039979D01*
X045604Y039950D01*
X045642Y039918D01*
X045678Y039883D01*
X045711Y039845D01*
X045741Y039804D01*
X045768Y039762D01*
X045791Y039717D01*
X045810Y039671D01*
X045826Y039623D01*
X045838Y039575D01*
X045846Y039525D01*
X045850Y039475D01*
X045850Y039425D01*
X045846Y039375D01*
X045838Y039325D01*
X045826Y039277D01*
X045810Y039229D01*
X045791Y039183D01*
X045768Y039138D01*
X045741Y039096D01*
X045711Y039055D01*
X045678Y039017D01*
X045642Y038982D01*
X045604Y038950D01*
X045563Y038921D01*
X045520Y038895D01*
X045475Y038873D01*
X045428Y038855D01*
X045380Y038840D01*
X045331Y038829D01*
X045282Y038822D01*
X045232Y038819D01*
X045181Y038820D01*
X045131Y038825D01*
X045082Y038834D01*
X045034Y038847D01*
X044986Y038863D01*
X044940Y038884D01*
X044896Y038908D01*
X044854Y038935D01*
X044814Y038966D01*
X044777Y038999D01*
X044743Y039036D01*
X044711Y039075D01*
X044683Y039117D01*
X044658Y039160D01*
X044637Y039206D01*
X044620Y039253D01*
X044606Y039301D01*
X044596Y039350D01*
X044590Y039400D01*
X044588Y039450D01*
X044707Y040986D02*
X045770Y040986D01*
X044588Y040986D02*
X044590Y041036D01*
X044596Y041086D01*
X044606Y041135D01*
X044620Y041183D01*
X044637Y041230D01*
X044658Y041276D01*
X044683Y041319D01*
X044711Y041361D01*
X044743Y041400D01*
X044777Y041437D01*
X044814Y041470D01*
X044854Y041501D01*
X044896Y041528D01*
X044940Y041552D01*
X044986Y041573D01*
X045034Y041589D01*
X045082Y041602D01*
X045131Y041611D01*
X045181Y041616D01*
X045232Y041617D01*
X045282Y041614D01*
X045331Y041607D01*
X045380Y041596D01*
X045428Y041581D01*
X045475Y041563D01*
X045520Y041541D01*
X045563Y041515D01*
X045604Y041486D01*
X045642Y041454D01*
X045678Y041419D01*
X045711Y041381D01*
X045741Y041340D01*
X045768Y041298D01*
X045791Y041253D01*
X045810Y041207D01*
X045826Y041159D01*
X045838Y041111D01*
X045846Y041061D01*
X045850Y041011D01*
X045850Y040961D01*
X045846Y040911D01*
X045838Y040861D01*
X045826Y040813D01*
X045810Y040765D01*
X045791Y040719D01*
X045768Y040674D01*
X045741Y040632D01*
X045711Y040591D01*
X045678Y040553D01*
X045642Y040518D01*
X045604Y040486D01*
X045563Y040457D01*
X045520Y040431D01*
X045475Y040409D01*
X045428Y040391D01*
X045380Y040376D01*
X045331Y040365D01*
X045282Y040358D01*
X045232Y040355D01*
X045181Y040356D01*
X045131Y040361D01*
X045082Y040370D01*
X045034Y040383D01*
X044986Y040399D01*
X044940Y040420D01*
X044896Y040444D01*
X044854Y040471D01*
X044814Y040502D01*
X044777Y040535D01*
X044743Y040572D01*
X044711Y040611D01*
X044683Y040653D01*
X044658Y040696D01*
X044637Y040742D01*
X044620Y040789D01*
X044606Y040837D01*
X044596Y040886D01*
X044590Y040936D01*
X044588Y040986D01*
X044707Y042521D02*
X045770Y042521D01*
X044588Y042521D02*
X044590Y042571D01*
X044596Y042621D01*
X044606Y042670D01*
X044620Y042718D01*
X044637Y042765D01*
X044658Y042811D01*
X044683Y042854D01*
X044711Y042896D01*
X044743Y042935D01*
X044777Y042972D01*
X044814Y043005D01*
X044854Y043036D01*
X044896Y043063D01*
X044940Y043087D01*
X044986Y043108D01*
X045034Y043124D01*
X045082Y043137D01*
X045131Y043146D01*
X045181Y043151D01*
X045232Y043152D01*
X045282Y043149D01*
X045331Y043142D01*
X045380Y043131D01*
X045428Y043116D01*
X045475Y043098D01*
X045520Y043076D01*
X045563Y043050D01*
X045604Y043021D01*
X045642Y042989D01*
X045678Y042954D01*
X045711Y042916D01*
X045741Y042875D01*
X045768Y042833D01*
X045791Y042788D01*
X045810Y042742D01*
X045826Y042694D01*
X045838Y042646D01*
X045846Y042596D01*
X045850Y042546D01*
X045850Y042496D01*
X045846Y042446D01*
X045838Y042396D01*
X045826Y042348D01*
X045810Y042300D01*
X045791Y042254D01*
X045768Y042209D01*
X045741Y042167D01*
X045711Y042126D01*
X045678Y042088D01*
X045642Y042053D01*
X045604Y042021D01*
X045563Y041992D01*
X045520Y041966D01*
X045475Y041944D01*
X045428Y041926D01*
X045380Y041911D01*
X045331Y041900D01*
X045282Y041893D01*
X045232Y041890D01*
X045181Y041891D01*
X045131Y041896D01*
X045082Y041905D01*
X045034Y041918D01*
X044986Y041934D01*
X044940Y041955D01*
X044896Y041979D01*
X044854Y042006D01*
X044814Y042037D01*
X044777Y042070D01*
X044743Y042107D01*
X044711Y042146D01*
X044683Y042188D01*
X044658Y042231D01*
X044637Y042277D01*
X044620Y042324D01*
X044606Y042372D01*
X044596Y042421D01*
X044590Y042471D01*
X044588Y042521D01*
X044707Y044056D02*
X045770Y044056D01*
X044588Y044056D02*
X044590Y044106D01*
X044596Y044156D01*
X044606Y044205D01*
X044620Y044253D01*
X044637Y044300D01*
X044658Y044346D01*
X044683Y044389D01*
X044711Y044431D01*
X044743Y044470D01*
X044777Y044507D01*
X044814Y044540D01*
X044854Y044571D01*
X044896Y044598D01*
X044940Y044622D01*
X044986Y044643D01*
X045034Y044659D01*
X045082Y044672D01*
X045131Y044681D01*
X045181Y044686D01*
X045232Y044687D01*
X045282Y044684D01*
X045331Y044677D01*
X045380Y044666D01*
X045428Y044651D01*
X045475Y044633D01*
X045520Y044611D01*
X045563Y044585D01*
X045604Y044556D01*
X045642Y044524D01*
X045678Y044489D01*
X045711Y044451D01*
X045741Y044410D01*
X045768Y044368D01*
X045791Y044323D01*
X045810Y044277D01*
X045826Y044229D01*
X045838Y044181D01*
X045846Y044131D01*
X045850Y044081D01*
X045850Y044031D01*
X045846Y043981D01*
X045838Y043931D01*
X045826Y043883D01*
X045810Y043835D01*
X045791Y043789D01*
X045768Y043744D01*
X045741Y043702D01*
X045711Y043661D01*
X045678Y043623D01*
X045642Y043588D01*
X045604Y043556D01*
X045563Y043527D01*
X045520Y043501D01*
X045475Y043479D01*
X045428Y043461D01*
X045380Y043446D01*
X045331Y043435D01*
X045282Y043428D01*
X045232Y043425D01*
X045181Y043426D01*
X045131Y043431D01*
X045082Y043440D01*
X045034Y043453D01*
X044986Y043469D01*
X044940Y043490D01*
X044896Y043514D01*
X044854Y043541D01*
X044814Y043572D01*
X044777Y043605D01*
X044743Y043642D01*
X044711Y043681D01*
X044683Y043723D01*
X044658Y043766D01*
X044637Y043812D01*
X044620Y043859D01*
X044606Y043907D01*
X044596Y043956D01*
X044590Y044006D01*
X044588Y044056D01*
X044550Y045080D02*
X044983Y045080D01*
X045377Y045080D02*
X045810Y045080D01*
X046203Y045080D02*
X046636Y045080D01*
X044156Y045080D02*
X043723Y045080D01*
X043614Y048915D02*
X044057Y048915D01*
X044450Y048915D02*
X044893Y048915D01*
X045287Y048915D02*
X045730Y048915D01*
X046124Y048915D02*
X046566Y048915D01*
X046566Y049357D01*
X046566Y049751D02*
X046566Y050194D01*
X046566Y050588D02*
X046566Y051031D01*
X046566Y051424D02*
X046566Y051867D01*
X046566Y052269D01*
X046566Y052663D02*
X046566Y053064D01*
X046566Y053458D02*
X046566Y053859D01*
X046566Y054253D02*
X046566Y054655D01*
X046566Y055048D02*
X046566Y055450D01*
X047157Y055450D01*
X047157Y055048D01*
X047157Y054655D02*
X047157Y054253D01*
X047157Y053859D02*
X047157Y053458D01*
X047157Y053064D02*
X047157Y052663D01*
X047157Y052269D02*
X047157Y051867D01*
X047157Y051424D01*
X047157Y051031D02*
X047157Y050588D01*
X047157Y050194D02*
X047157Y049751D01*
X047157Y049357D02*
X047157Y048915D01*
X046566Y048915D01*
X045700Y049820D02*
X044637Y049820D01*
X044518Y049820D02*
X044520Y049870D01*
X044526Y049920D01*
X044536Y049969D01*
X044550Y050017D01*
X044567Y050064D01*
X044588Y050110D01*
X044613Y050153D01*
X044641Y050195D01*
X044673Y050234D01*
X044707Y050271D01*
X044744Y050304D01*
X044784Y050335D01*
X044826Y050362D01*
X044870Y050386D01*
X044916Y050407D01*
X044964Y050423D01*
X045012Y050436D01*
X045061Y050445D01*
X045111Y050450D01*
X045162Y050451D01*
X045212Y050448D01*
X045261Y050441D01*
X045310Y050430D01*
X045358Y050415D01*
X045405Y050397D01*
X045450Y050375D01*
X045493Y050349D01*
X045534Y050320D01*
X045572Y050288D01*
X045608Y050253D01*
X045641Y050215D01*
X045671Y050174D01*
X045698Y050132D01*
X045721Y050087D01*
X045740Y050041D01*
X045756Y049993D01*
X045768Y049945D01*
X045776Y049895D01*
X045780Y049845D01*
X045780Y049795D01*
X045776Y049745D01*
X045768Y049695D01*
X045756Y049647D01*
X045740Y049599D01*
X045721Y049553D01*
X045698Y049508D01*
X045671Y049466D01*
X045641Y049425D01*
X045608Y049387D01*
X045572Y049352D01*
X045534Y049320D01*
X045493Y049291D01*
X045450Y049265D01*
X045405Y049243D01*
X045358Y049225D01*
X045310Y049210D01*
X045261Y049199D01*
X045212Y049192D01*
X045162Y049189D01*
X045111Y049190D01*
X045061Y049195D01*
X045012Y049204D01*
X044964Y049217D01*
X044916Y049233D01*
X044870Y049254D01*
X044826Y049278D01*
X044784Y049305D01*
X044744Y049336D01*
X044707Y049369D01*
X044673Y049406D01*
X044641Y049445D01*
X044613Y049487D01*
X044588Y049530D01*
X044567Y049576D01*
X044550Y049623D01*
X044536Y049671D01*
X044526Y049720D01*
X044520Y049770D01*
X044518Y049820D01*
X044637Y051356D02*
X045700Y051356D01*
X044518Y051356D02*
X044520Y051406D01*
X044526Y051456D01*
X044536Y051505D01*
X044550Y051553D01*
X044567Y051600D01*
X044588Y051646D01*
X044613Y051689D01*
X044641Y051731D01*
X044673Y051770D01*
X044707Y051807D01*
X044744Y051840D01*
X044784Y051871D01*
X044826Y051898D01*
X044870Y051922D01*
X044916Y051943D01*
X044964Y051959D01*
X045012Y051972D01*
X045061Y051981D01*
X045111Y051986D01*
X045162Y051987D01*
X045212Y051984D01*
X045261Y051977D01*
X045310Y051966D01*
X045358Y051951D01*
X045405Y051933D01*
X045450Y051911D01*
X045493Y051885D01*
X045534Y051856D01*
X045572Y051824D01*
X045608Y051789D01*
X045641Y051751D01*
X045671Y051710D01*
X045698Y051668D01*
X045721Y051623D01*
X045740Y051577D01*
X045756Y051529D01*
X045768Y051481D01*
X045776Y051431D01*
X045780Y051381D01*
X045780Y051331D01*
X045776Y051281D01*
X045768Y051231D01*
X045756Y051183D01*
X045740Y051135D01*
X045721Y051089D01*
X045698Y051044D01*
X045671Y051002D01*
X045641Y050961D01*
X045608Y050923D01*
X045572Y050888D01*
X045534Y050856D01*
X045493Y050827D01*
X045450Y050801D01*
X045405Y050779D01*
X045358Y050761D01*
X045310Y050746D01*
X045261Y050735D01*
X045212Y050728D01*
X045162Y050725D01*
X045111Y050726D01*
X045061Y050731D01*
X045012Y050740D01*
X044964Y050753D01*
X044916Y050769D01*
X044870Y050790D01*
X044826Y050814D01*
X044784Y050841D01*
X044744Y050872D01*
X044707Y050905D01*
X044673Y050942D01*
X044641Y050981D01*
X044613Y051023D01*
X044588Y051066D01*
X044567Y051112D01*
X044550Y051159D01*
X044536Y051207D01*
X044526Y051256D01*
X044520Y051306D01*
X044518Y051356D01*
X044637Y052891D02*
X045700Y052891D01*
X044518Y052891D02*
X044520Y052941D01*
X044526Y052991D01*
X044536Y053040D01*
X044550Y053088D01*
X044567Y053135D01*
X044588Y053181D01*
X044613Y053224D01*
X044641Y053266D01*
X044673Y053305D01*
X044707Y053342D01*
X044744Y053375D01*
X044784Y053406D01*
X044826Y053433D01*
X044870Y053457D01*
X044916Y053478D01*
X044964Y053494D01*
X045012Y053507D01*
X045061Y053516D01*
X045111Y053521D01*
X045162Y053522D01*
X045212Y053519D01*
X045261Y053512D01*
X045310Y053501D01*
X045358Y053486D01*
X045405Y053468D01*
X045450Y053446D01*
X045493Y053420D01*
X045534Y053391D01*
X045572Y053359D01*
X045608Y053324D01*
X045641Y053286D01*
X045671Y053245D01*
X045698Y053203D01*
X045721Y053158D01*
X045740Y053112D01*
X045756Y053064D01*
X045768Y053016D01*
X045776Y052966D01*
X045780Y052916D01*
X045780Y052866D01*
X045776Y052816D01*
X045768Y052766D01*
X045756Y052718D01*
X045740Y052670D01*
X045721Y052624D01*
X045698Y052579D01*
X045671Y052537D01*
X045641Y052496D01*
X045608Y052458D01*
X045572Y052423D01*
X045534Y052391D01*
X045493Y052362D01*
X045450Y052336D01*
X045405Y052314D01*
X045358Y052296D01*
X045310Y052281D01*
X045261Y052270D01*
X045212Y052263D01*
X045162Y052260D01*
X045111Y052261D01*
X045061Y052266D01*
X045012Y052275D01*
X044964Y052288D01*
X044916Y052304D01*
X044870Y052325D01*
X044826Y052349D01*
X044784Y052376D01*
X044744Y052407D01*
X044707Y052440D01*
X044673Y052477D01*
X044641Y052516D01*
X044613Y052558D01*
X044588Y052601D01*
X044567Y052647D01*
X044550Y052694D01*
X044536Y052742D01*
X044526Y052791D01*
X044520Y052841D01*
X044518Y052891D01*
X044637Y054426D02*
X045700Y054426D01*
X044518Y054426D02*
X044520Y054476D01*
X044526Y054526D01*
X044536Y054575D01*
X044550Y054623D01*
X044567Y054670D01*
X044588Y054716D01*
X044613Y054759D01*
X044641Y054801D01*
X044673Y054840D01*
X044707Y054877D01*
X044744Y054910D01*
X044784Y054941D01*
X044826Y054968D01*
X044870Y054992D01*
X044916Y055013D01*
X044964Y055029D01*
X045012Y055042D01*
X045061Y055051D01*
X045111Y055056D01*
X045162Y055057D01*
X045212Y055054D01*
X045261Y055047D01*
X045310Y055036D01*
X045358Y055021D01*
X045405Y055003D01*
X045450Y054981D01*
X045493Y054955D01*
X045534Y054926D01*
X045572Y054894D01*
X045608Y054859D01*
X045641Y054821D01*
X045671Y054780D01*
X045698Y054738D01*
X045721Y054693D01*
X045740Y054647D01*
X045756Y054599D01*
X045768Y054551D01*
X045776Y054501D01*
X045780Y054451D01*
X045780Y054401D01*
X045776Y054351D01*
X045768Y054301D01*
X045756Y054253D01*
X045740Y054205D01*
X045721Y054159D01*
X045698Y054114D01*
X045671Y054072D01*
X045641Y054031D01*
X045608Y053993D01*
X045572Y053958D01*
X045534Y053926D01*
X045493Y053897D01*
X045450Y053871D01*
X045405Y053849D01*
X045358Y053831D01*
X045310Y053816D01*
X045261Y053805D01*
X045212Y053798D01*
X045162Y053795D01*
X045111Y053796D01*
X045061Y053801D01*
X045012Y053810D01*
X044964Y053823D01*
X044916Y053839D01*
X044870Y053860D01*
X044826Y053884D01*
X044784Y053911D01*
X044744Y053942D01*
X044707Y053975D01*
X044673Y054012D01*
X044641Y054051D01*
X044613Y054093D01*
X044588Y054136D01*
X044567Y054182D01*
X044550Y054229D01*
X044536Y054277D01*
X044526Y054326D01*
X044520Y054376D01*
X044518Y054426D01*
X044480Y055450D02*
X044913Y055450D01*
X045307Y055450D02*
X045740Y055450D01*
X046133Y055450D02*
X046566Y055450D01*
X044086Y055450D02*
X043653Y055450D01*
X043683Y037080D02*
X044116Y037080D01*
X044510Y037080D02*
X044943Y037080D01*
X045337Y037080D02*
X045770Y037080D01*
X046163Y037080D02*
X046596Y037080D01*
X046596Y036678D01*
X046596Y036285D02*
X046596Y035883D01*
X046596Y035489D02*
X046596Y035088D01*
X046596Y034694D02*
X046596Y034293D01*
X046596Y033899D02*
X046596Y033497D01*
X046163Y033497D01*
X045770Y033497D02*
X045337Y033497D01*
X044943Y033497D02*
X044510Y033497D01*
X044116Y033497D02*
X043683Y033497D01*
X044667Y034521D02*
X045730Y034521D01*
X044548Y034521D02*
X044550Y034571D01*
X044556Y034621D01*
X044566Y034670D01*
X044580Y034718D01*
X044597Y034765D01*
X044618Y034811D01*
X044643Y034854D01*
X044671Y034896D01*
X044703Y034935D01*
X044737Y034972D01*
X044774Y035005D01*
X044814Y035036D01*
X044856Y035063D01*
X044900Y035087D01*
X044946Y035108D01*
X044994Y035124D01*
X045042Y035137D01*
X045091Y035146D01*
X045141Y035151D01*
X045192Y035152D01*
X045242Y035149D01*
X045291Y035142D01*
X045340Y035131D01*
X045388Y035116D01*
X045435Y035098D01*
X045480Y035076D01*
X045523Y035050D01*
X045564Y035021D01*
X045602Y034989D01*
X045638Y034954D01*
X045671Y034916D01*
X045701Y034875D01*
X045728Y034833D01*
X045751Y034788D01*
X045770Y034742D01*
X045786Y034694D01*
X045798Y034646D01*
X045806Y034596D01*
X045810Y034546D01*
X045810Y034496D01*
X045806Y034446D01*
X045798Y034396D01*
X045786Y034348D01*
X045770Y034300D01*
X045751Y034254D01*
X045728Y034209D01*
X045701Y034167D01*
X045671Y034126D01*
X045638Y034088D01*
X045602Y034053D01*
X045564Y034021D01*
X045523Y033992D01*
X045480Y033966D01*
X045435Y033944D01*
X045388Y033926D01*
X045340Y033911D01*
X045291Y033900D01*
X045242Y033893D01*
X045192Y033890D01*
X045141Y033891D01*
X045091Y033896D01*
X045042Y033905D01*
X044994Y033918D01*
X044946Y033934D01*
X044900Y033955D01*
X044856Y033979D01*
X044814Y034006D01*
X044774Y034037D01*
X044737Y034070D01*
X044703Y034107D01*
X044671Y034146D01*
X044643Y034188D01*
X044618Y034231D01*
X044597Y034277D01*
X044580Y034324D01*
X044566Y034372D01*
X044556Y034421D01*
X044550Y034471D01*
X044548Y034521D01*
X044667Y036056D02*
X045730Y036056D01*
X044548Y036056D02*
X044550Y036106D01*
X044556Y036156D01*
X044566Y036205D01*
X044580Y036253D01*
X044597Y036300D01*
X044618Y036346D01*
X044643Y036389D01*
X044671Y036431D01*
X044703Y036470D01*
X044737Y036507D01*
X044774Y036540D01*
X044814Y036571D01*
X044856Y036598D01*
X044900Y036622D01*
X044946Y036643D01*
X044994Y036659D01*
X045042Y036672D01*
X045091Y036681D01*
X045141Y036686D01*
X045192Y036687D01*
X045242Y036684D01*
X045291Y036677D01*
X045340Y036666D01*
X045388Y036651D01*
X045435Y036633D01*
X045480Y036611D01*
X045523Y036585D01*
X045564Y036556D01*
X045602Y036524D01*
X045638Y036489D01*
X045671Y036451D01*
X045701Y036410D01*
X045728Y036368D01*
X045751Y036323D01*
X045770Y036277D01*
X045786Y036229D01*
X045798Y036181D01*
X045806Y036131D01*
X045810Y036081D01*
X045810Y036031D01*
X045806Y035981D01*
X045798Y035931D01*
X045786Y035883D01*
X045770Y035835D01*
X045751Y035789D01*
X045728Y035744D01*
X045701Y035702D01*
X045671Y035661D01*
X045638Y035623D01*
X045602Y035588D01*
X045564Y035556D01*
X045523Y035527D01*
X045480Y035501D01*
X045435Y035479D01*
X045388Y035461D01*
X045340Y035446D01*
X045291Y035435D01*
X045242Y035428D01*
X045192Y035425D01*
X045141Y035426D01*
X045091Y035431D01*
X045042Y035440D01*
X044994Y035453D01*
X044946Y035469D01*
X044900Y035490D01*
X044856Y035514D01*
X044814Y035541D01*
X044774Y035572D01*
X044737Y035605D01*
X044703Y035642D01*
X044671Y035681D01*
X044643Y035723D01*
X044618Y035766D01*
X044597Y035812D01*
X044580Y035859D01*
X044566Y035907D01*
X044556Y035956D01*
X044550Y036006D01*
X044548Y036056D01*
X046596Y037080D02*
X047187Y037080D01*
X047187Y036678D01*
X047187Y036285D02*
X047187Y035883D01*
X047187Y035489D02*
X047187Y035088D01*
X047187Y034694D02*
X047187Y034293D01*
X047187Y033899D02*
X047187Y033497D01*
X046596Y033497D01*
X046596Y032050D02*
X046163Y032050D01*
X045770Y032050D02*
X045337Y032050D01*
X044943Y032050D02*
X044510Y032050D01*
X044116Y032050D02*
X043683Y032050D01*
X044667Y031026D02*
X045730Y031026D01*
X044548Y031026D02*
X044550Y031076D01*
X044556Y031126D01*
X044566Y031175D01*
X044580Y031223D01*
X044597Y031270D01*
X044618Y031316D01*
X044643Y031359D01*
X044671Y031401D01*
X044703Y031440D01*
X044737Y031477D01*
X044774Y031510D01*
X044814Y031541D01*
X044856Y031568D01*
X044900Y031592D01*
X044946Y031613D01*
X044994Y031629D01*
X045042Y031642D01*
X045091Y031651D01*
X045141Y031656D01*
X045192Y031657D01*
X045242Y031654D01*
X045291Y031647D01*
X045340Y031636D01*
X045388Y031621D01*
X045435Y031603D01*
X045480Y031581D01*
X045523Y031555D01*
X045564Y031526D01*
X045602Y031494D01*
X045638Y031459D01*
X045671Y031421D01*
X045701Y031380D01*
X045728Y031338D01*
X045751Y031293D01*
X045770Y031247D01*
X045786Y031199D01*
X045798Y031151D01*
X045806Y031101D01*
X045810Y031051D01*
X045810Y031001D01*
X045806Y030951D01*
X045798Y030901D01*
X045786Y030853D01*
X045770Y030805D01*
X045751Y030759D01*
X045728Y030714D01*
X045701Y030672D01*
X045671Y030631D01*
X045638Y030593D01*
X045602Y030558D01*
X045564Y030526D01*
X045523Y030497D01*
X045480Y030471D01*
X045435Y030449D01*
X045388Y030431D01*
X045340Y030416D01*
X045291Y030405D01*
X045242Y030398D01*
X045192Y030395D01*
X045141Y030396D01*
X045091Y030401D01*
X045042Y030410D01*
X044994Y030423D01*
X044946Y030439D01*
X044900Y030460D01*
X044856Y030484D01*
X044814Y030511D01*
X044774Y030542D01*
X044737Y030575D01*
X044703Y030612D01*
X044671Y030651D01*
X044643Y030693D01*
X044618Y030736D01*
X044597Y030782D01*
X044580Y030829D01*
X044566Y030877D01*
X044556Y030926D01*
X044550Y030976D01*
X044548Y031026D01*
X044667Y029491D02*
X045730Y029491D01*
X044548Y029491D02*
X044550Y029541D01*
X044556Y029591D01*
X044566Y029640D01*
X044580Y029688D01*
X044597Y029735D01*
X044618Y029781D01*
X044643Y029824D01*
X044671Y029866D01*
X044703Y029905D01*
X044737Y029942D01*
X044774Y029975D01*
X044814Y030006D01*
X044856Y030033D01*
X044900Y030057D01*
X044946Y030078D01*
X044994Y030094D01*
X045042Y030107D01*
X045091Y030116D01*
X045141Y030121D01*
X045192Y030122D01*
X045242Y030119D01*
X045291Y030112D01*
X045340Y030101D01*
X045388Y030086D01*
X045435Y030068D01*
X045480Y030046D01*
X045523Y030020D01*
X045564Y029991D01*
X045602Y029959D01*
X045638Y029924D01*
X045671Y029886D01*
X045701Y029845D01*
X045728Y029803D01*
X045751Y029758D01*
X045770Y029712D01*
X045786Y029664D01*
X045798Y029616D01*
X045806Y029566D01*
X045810Y029516D01*
X045810Y029466D01*
X045806Y029416D01*
X045798Y029366D01*
X045786Y029318D01*
X045770Y029270D01*
X045751Y029224D01*
X045728Y029179D01*
X045701Y029137D01*
X045671Y029096D01*
X045638Y029058D01*
X045602Y029023D01*
X045564Y028991D01*
X045523Y028962D01*
X045480Y028936D01*
X045435Y028914D01*
X045388Y028896D01*
X045340Y028881D01*
X045291Y028870D01*
X045242Y028863D01*
X045192Y028860D01*
X045141Y028861D01*
X045091Y028866D01*
X045042Y028875D01*
X044994Y028888D01*
X044946Y028904D01*
X044900Y028925D01*
X044856Y028949D01*
X044814Y028976D01*
X044774Y029007D01*
X044737Y029040D01*
X044703Y029077D01*
X044671Y029116D01*
X044643Y029158D01*
X044618Y029201D01*
X044597Y029247D01*
X044580Y029294D01*
X044566Y029342D01*
X044556Y029391D01*
X044550Y029441D01*
X044548Y029491D01*
X044510Y028467D02*
X044943Y028467D01*
X045337Y028467D02*
X045770Y028467D01*
X046163Y028467D02*
X046596Y028467D01*
X046596Y028869D01*
X046596Y029263D02*
X046596Y029664D01*
X046596Y030058D02*
X046596Y030459D01*
X046596Y030853D02*
X046596Y031255D01*
X046596Y031648D02*
X046596Y032050D01*
X047187Y032050D01*
X047187Y031648D01*
X047187Y031255D02*
X047187Y030853D01*
X047187Y030459D02*
X047187Y030058D01*
X047187Y029664D02*
X047187Y029263D01*
X047187Y028869D02*
X047187Y028467D01*
X046596Y028467D01*
X046626Y027000D02*
X046193Y027000D01*
X045800Y027000D02*
X045367Y027000D01*
X044973Y027000D02*
X044540Y027000D01*
X044146Y027000D02*
X043713Y027000D01*
X044697Y025976D02*
X045760Y025976D01*
X044578Y025976D02*
X044580Y026026D01*
X044586Y026076D01*
X044596Y026125D01*
X044610Y026173D01*
X044627Y026220D01*
X044648Y026266D01*
X044673Y026309D01*
X044701Y026351D01*
X044733Y026390D01*
X044767Y026427D01*
X044804Y026460D01*
X044844Y026491D01*
X044886Y026518D01*
X044930Y026542D01*
X044976Y026563D01*
X045024Y026579D01*
X045072Y026592D01*
X045121Y026601D01*
X045171Y026606D01*
X045222Y026607D01*
X045272Y026604D01*
X045321Y026597D01*
X045370Y026586D01*
X045418Y026571D01*
X045465Y026553D01*
X045510Y026531D01*
X045553Y026505D01*
X045594Y026476D01*
X045632Y026444D01*
X045668Y026409D01*
X045701Y026371D01*
X045731Y026330D01*
X045758Y026288D01*
X045781Y026243D01*
X045800Y026197D01*
X045816Y026149D01*
X045828Y026101D01*
X045836Y026051D01*
X045840Y026001D01*
X045840Y025951D01*
X045836Y025901D01*
X045828Y025851D01*
X045816Y025803D01*
X045800Y025755D01*
X045781Y025709D01*
X045758Y025664D01*
X045731Y025622D01*
X045701Y025581D01*
X045668Y025543D01*
X045632Y025508D01*
X045594Y025476D01*
X045553Y025447D01*
X045510Y025421D01*
X045465Y025399D01*
X045418Y025381D01*
X045370Y025366D01*
X045321Y025355D01*
X045272Y025348D01*
X045222Y025345D01*
X045171Y025346D01*
X045121Y025351D01*
X045072Y025360D01*
X045024Y025373D01*
X044976Y025389D01*
X044930Y025410D01*
X044886Y025434D01*
X044844Y025461D01*
X044804Y025492D01*
X044767Y025525D01*
X044733Y025562D01*
X044701Y025601D01*
X044673Y025643D01*
X044648Y025686D01*
X044627Y025732D01*
X044610Y025779D01*
X044596Y025827D01*
X044586Y025876D01*
X044580Y025926D01*
X044578Y025976D01*
X044697Y024441D02*
X045760Y024441D01*
X044578Y024441D02*
X044580Y024491D01*
X044586Y024541D01*
X044596Y024590D01*
X044610Y024638D01*
X044627Y024685D01*
X044648Y024731D01*
X044673Y024774D01*
X044701Y024816D01*
X044733Y024855D01*
X044767Y024892D01*
X044804Y024925D01*
X044844Y024956D01*
X044886Y024983D01*
X044930Y025007D01*
X044976Y025028D01*
X045024Y025044D01*
X045072Y025057D01*
X045121Y025066D01*
X045171Y025071D01*
X045222Y025072D01*
X045272Y025069D01*
X045321Y025062D01*
X045370Y025051D01*
X045418Y025036D01*
X045465Y025018D01*
X045510Y024996D01*
X045553Y024970D01*
X045594Y024941D01*
X045632Y024909D01*
X045668Y024874D01*
X045701Y024836D01*
X045731Y024795D01*
X045758Y024753D01*
X045781Y024708D01*
X045800Y024662D01*
X045816Y024614D01*
X045828Y024566D01*
X045836Y024516D01*
X045840Y024466D01*
X045840Y024416D01*
X045836Y024366D01*
X045828Y024316D01*
X045816Y024268D01*
X045800Y024220D01*
X045781Y024174D01*
X045758Y024129D01*
X045731Y024087D01*
X045701Y024046D01*
X045668Y024008D01*
X045632Y023973D01*
X045594Y023941D01*
X045553Y023912D01*
X045510Y023886D01*
X045465Y023864D01*
X045418Y023846D01*
X045370Y023831D01*
X045321Y023820D01*
X045272Y023813D01*
X045222Y023810D01*
X045171Y023811D01*
X045121Y023816D01*
X045072Y023825D01*
X045024Y023838D01*
X044976Y023854D01*
X044930Y023875D01*
X044886Y023899D01*
X044844Y023926D01*
X044804Y023957D01*
X044767Y023990D01*
X044733Y024027D01*
X044701Y024066D01*
X044673Y024108D01*
X044648Y024151D01*
X044627Y024197D01*
X044610Y024244D01*
X044596Y024292D01*
X044586Y024341D01*
X044580Y024391D01*
X044578Y024441D01*
X044540Y023417D02*
X044973Y023417D01*
X045367Y023417D02*
X045800Y023417D01*
X046193Y023417D02*
X046626Y023417D01*
X046626Y023819D01*
X046626Y024213D02*
X046626Y024614D01*
X046626Y025008D02*
X046626Y025409D01*
X046626Y025803D02*
X046626Y026205D01*
X046626Y026598D02*
X046626Y027000D01*
X047217Y027000D01*
X047217Y026598D01*
X047217Y026205D02*
X047217Y025803D01*
X047217Y025409D02*
X047217Y025008D01*
X047217Y024614D02*
X047217Y024213D01*
X047217Y023819D02*
X047217Y023417D01*
X046626Y023417D01*
X046616Y021920D02*
X046183Y021920D01*
X045790Y021920D02*
X045357Y021920D01*
X044963Y021920D02*
X044530Y021920D01*
X044136Y021920D02*
X043703Y021920D01*
X044687Y020896D02*
X045750Y020896D01*
X044568Y020896D02*
X044570Y020946D01*
X044576Y020996D01*
X044586Y021045D01*
X044600Y021093D01*
X044617Y021140D01*
X044638Y021186D01*
X044663Y021229D01*
X044691Y021271D01*
X044723Y021310D01*
X044757Y021347D01*
X044794Y021380D01*
X044834Y021411D01*
X044876Y021438D01*
X044920Y021462D01*
X044966Y021483D01*
X045014Y021499D01*
X045062Y021512D01*
X045111Y021521D01*
X045161Y021526D01*
X045212Y021527D01*
X045262Y021524D01*
X045311Y021517D01*
X045360Y021506D01*
X045408Y021491D01*
X045455Y021473D01*
X045500Y021451D01*
X045543Y021425D01*
X045584Y021396D01*
X045622Y021364D01*
X045658Y021329D01*
X045691Y021291D01*
X045721Y021250D01*
X045748Y021208D01*
X045771Y021163D01*
X045790Y021117D01*
X045806Y021069D01*
X045818Y021021D01*
X045826Y020971D01*
X045830Y020921D01*
X045830Y020871D01*
X045826Y020821D01*
X045818Y020771D01*
X045806Y020723D01*
X045790Y020675D01*
X045771Y020629D01*
X045748Y020584D01*
X045721Y020542D01*
X045691Y020501D01*
X045658Y020463D01*
X045622Y020428D01*
X045584Y020396D01*
X045543Y020367D01*
X045500Y020341D01*
X045455Y020319D01*
X045408Y020301D01*
X045360Y020286D01*
X045311Y020275D01*
X045262Y020268D01*
X045212Y020265D01*
X045161Y020266D01*
X045111Y020271D01*
X045062Y020280D01*
X045014Y020293D01*
X044966Y020309D01*
X044920Y020330D01*
X044876Y020354D01*
X044834Y020381D01*
X044794Y020412D01*
X044757Y020445D01*
X044723Y020482D01*
X044691Y020521D01*
X044663Y020563D01*
X044638Y020606D01*
X044617Y020652D01*
X044600Y020699D01*
X044586Y020747D01*
X044576Y020796D01*
X044570Y020846D01*
X044568Y020896D01*
X044687Y019361D02*
X045750Y019361D01*
X044568Y019361D02*
X044570Y019411D01*
X044576Y019461D01*
X044586Y019510D01*
X044600Y019558D01*
X044617Y019605D01*
X044638Y019651D01*
X044663Y019694D01*
X044691Y019736D01*
X044723Y019775D01*
X044757Y019812D01*
X044794Y019845D01*
X044834Y019876D01*
X044876Y019903D01*
X044920Y019927D01*
X044966Y019948D01*
X045014Y019964D01*
X045062Y019977D01*
X045111Y019986D01*
X045161Y019991D01*
X045212Y019992D01*
X045262Y019989D01*
X045311Y019982D01*
X045360Y019971D01*
X045408Y019956D01*
X045455Y019938D01*
X045500Y019916D01*
X045543Y019890D01*
X045584Y019861D01*
X045622Y019829D01*
X045658Y019794D01*
X045691Y019756D01*
X045721Y019715D01*
X045748Y019673D01*
X045771Y019628D01*
X045790Y019582D01*
X045806Y019534D01*
X045818Y019486D01*
X045826Y019436D01*
X045830Y019386D01*
X045830Y019336D01*
X045826Y019286D01*
X045818Y019236D01*
X045806Y019188D01*
X045790Y019140D01*
X045771Y019094D01*
X045748Y019049D01*
X045721Y019007D01*
X045691Y018966D01*
X045658Y018928D01*
X045622Y018893D01*
X045584Y018861D01*
X045543Y018832D01*
X045500Y018806D01*
X045455Y018784D01*
X045408Y018766D01*
X045360Y018751D01*
X045311Y018740D01*
X045262Y018733D01*
X045212Y018730D01*
X045161Y018731D01*
X045111Y018736D01*
X045062Y018745D01*
X045014Y018758D01*
X044966Y018774D01*
X044920Y018795D01*
X044876Y018819D01*
X044834Y018846D01*
X044794Y018877D01*
X044757Y018910D01*
X044723Y018947D01*
X044691Y018986D01*
X044663Y019028D01*
X044638Y019071D01*
X044617Y019117D01*
X044600Y019164D01*
X044586Y019212D01*
X044576Y019261D01*
X044570Y019311D01*
X044568Y019361D01*
X044687Y017826D02*
X045750Y017826D01*
X044568Y017826D02*
X044570Y017876D01*
X044576Y017926D01*
X044586Y017975D01*
X044600Y018023D01*
X044617Y018070D01*
X044638Y018116D01*
X044663Y018159D01*
X044691Y018201D01*
X044723Y018240D01*
X044757Y018277D01*
X044794Y018310D01*
X044834Y018341D01*
X044876Y018368D01*
X044920Y018392D01*
X044966Y018413D01*
X045014Y018429D01*
X045062Y018442D01*
X045111Y018451D01*
X045161Y018456D01*
X045212Y018457D01*
X045262Y018454D01*
X045311Y018447D01*
X045360Y018436D01*
X045408Y018421D01*
X045455Y018403D01*
X045500Y018381D01*
X045543Y018355D01*
X045584Y018326D01*
X045622Y018294D01*
X045658Y018259D01*
X045691Y018221D01*
X045721Y018180D01*
X045748Y018138D01*
X045771Y018093D01*
X045790Y018047D01*
X045806Y017999D01*
X045818Y017951D01*
X045826Y017901D01*
X045830Y017851D01*
X045830Y017801D01*
X045826Y017751D01*
X045818Y017701D01*
X045806Y017653D01*
X045790Y017605D01*
X045771Y017559D01*
X045748Y017514D01*
X045721Y017472D01*
X045691Y017431D01*
X045658Y017393D01*
X045622Y017358D01*
X045584Y017326D01*
X045543Y017297D01*
X045500Y017271D01*
X045455Y017249D01*
X045408Y017231D01*
X045360Y017216D01*
X045311Y017205D01*
X045262Y017198D01*
X045212Y017195D01*
X045161Y017196D01*
X045111Y017201D01*
X045062Y017210D01*
X045014Y017223D01*
X044966Y017239D01*
X044920Y017260D01*
X044876Y017284D01*
X044834Y017311D01*
X044794Y017342D01*
X044757Y017375D01*
X044723Y017412D01*
X044691Y017451D01*
X044663Y017493D01*
X044638Y017536D01*
X044617Y017582D01*
X044600Y017629D01*
X044586Y017677D01*
X044576Y017726D01*
X044570Y017776D01*
X044568Y017826D01*
X044687Y016290D02*
X045750Y016290D01*
X044568Y016290D02*
X044570Y016340D01*
X044576Y016390D01*
X044586Y016439D01*
X044600Y016487D01*
X044617Y016534D01*
X044638Y016580D01*
X044663Y016623D01*
X044691Y016665D01*
X044723Y016704D01*
X044757Y016741D01*
X044794Y016774D01*
X044834Y016805D01*
X044876Y016832D01*
X044920Y016856D01*
X044966Y016877D01*
X045014Y016893D01*
X045062Y016906D01*
X045111Y016915D01*
X045161Y016920D01*
X045212Y016921D01*
X045262Y016918D01*
X045311Y016911D01*
X045360Y016900D01*
X045408Y016885D01*
X045455Y016867D01*
X045500Y016845D01*
X045543Y016819D01*
X045584Y016790D01*
X045622Y016758D01*
X045658Y016723D01*
X045691Y016685D01*
X045721Y016644D01*
X045748Y016602D01*
X045771Y016557D01*
X045790Y016511D01*
X045806Y016463D01*
X045818Y016415D01*
X045826Y016365D01*
X045830Y016315D01*
X045830Y016265D01*
X045826Y016215D01*
X045818Y016165D01*
X045806Y016117D01*
X045790Y016069D01*
X045771Y016023D01*
X045748Y015978D01*
X045721Y015936D01*
X045691Y015895D01*
X045658Y015857D01*
X045622Y015822D01*
X045584Y015790D01*
X045543Y015761D01*
X045500Y015735D01*
X045455Y015713D01*
X045408Y015695D01*
X045360Y015680D01*
X045311Y015669D01*
X045262Y015662D01*
X045212Y015659D01*
X045161Y015660D01*
X045111Y015665D01*
X045062Y015674D01*
X045014Y015687D01*
X044966Y015703D01*
X044920Y015724D01*
X044876Y015748D01*
X044834Y015775D01*
X044794Y015806D01*
X044757Y015839D01*
X044723Y015876D01*
X044691Y015915D01*
X044663Y015957D01*
X044638Y016000D01*
X044617Y016046D01*
X044600Y016093D01*
X044586Y016141D01*
X044576Y016190D01*
X044570Y016240D01*
X044568Y016290D01*
X044500Y015385D02*
X044943Y015385D01*
X045337Y015385D02*
X045780Y015385D01*
X046174Y015385D02*
X046616Y015385D01*
X046616Y015827D01*
X046616Y016221D02*
X046616Y016664D01*
X046616Y017058D02*
X046616Y017501D01*
X046616Y017894D02*
X046616Y018337D01*
X046616Y018739D01*
X046616Y019133D02*
X046616Y019534D01*
X046616Y019928D02*
X046616Y020329D01*
X046616Y020723D02*
X046616Y021125D01*
X046616Y021518D02*
X046616Y021920D01*
X047207Y021920D01*
X047207Y021518D01*
X047207Y021125D02*
X047207Y020723D01*
X047207Y020329D02*
X047207Y019928D01*
X047207Y019534D02*
X047207Y019133D01*
X047207Y018739D02*
X047207Y018337D01*
X047207Y017894D01*
X047207Y017501D02*
X047207Y017058D01*
X047207Y016664D02*
X047207Y016221D01*
X047207Y015827D02*
X047207Y015385D01*
X046616Y015385D01*
X044107Y015385D02*
X043664Y015385D01*
X043693Y011450D02*
X044126Y011450D01*
X044520Y011450D02*
X044953Y011450D01*
X045347Y011450D02*
X045780Y011450D01*
X046173Y011450D02*
X046606Y011450D01*
X046606Y011048D01*
X046606Y010655D02*
X046606Y010253D01*
X046606Y009859D02*
X046606Y009458D01*
X046606Y009064D02*
X046606Y008663D01*
X046606Y008269D02*
X046606Y007867D01*
X046606Y007424D01*
X046606Y007031D02*
X046606Y006588D01*
X046606Y006194D02*
X046606Y005751D01*
X046606Y005357D02*
X046606Y004915D01*
X047197Y004915D01*
X047197Y005357D01*
X047197Y005751D02*
X047197Y006194D01*
X047197Y006588D02*
X047197Y007031D01*
X047197Y007424D02*
X047197Y007867D01*
X047197Y008269D01*
X047197Y008663D02*
X047197Y009064D01*
X047197Y009458D02*
X047197Y009859D01*
X047197Y010253D02*
X047197Y010655D01*
X047197Y011048D02*
X047197Y011450D01*
X046606Y011450D01*
X045740Y010426D02*
X044677Y010426D01*
X044558Y010426D02*
X044560Y010476D01*
X044566Y010526D01*
X044576Y010575D01*
X044590Y010623D01*
X044607Y010670D01*
X044628Y010716D01*
X044653Y010759D01*
X044681Y010801D01*
X044713Y010840D01*
X044747Y010877D01*
X044784Y010910D01*
X044824Y010941D01*
X044866Y010968D01*
X044910Y010992D01*
X044956Y011013D01*
X045004Y011029D01*
X045052Y011042D01*
X045101Y011051D01*
X045151Y011056D01*
X045202Y011057D01*
X045252Y011054D01*
X045301Y011047D01*
X045350Y011036D01*
X045398Y011021D01*
X045445Y011003D01*
X045490Y010981D01*
X045533Y010955D01*
X045574Y010926D01*
X045612Y010894D01*
X045648Y010859D01*
X045681Y010821D01*
X045711Y010780D01*
X045738Y010738D01*
X045761Y010693D01*
X045780Y010647D01*
X045796Y010599D01*
X045808Y010551D01*
X045816Y010501D01*
X045820Y010451D01*
X045820Y010401D01*
X045816Y010351D01*
X045808Y010301D01*
X045796Y010253D01*
X045780Y010205D01*
X045761Y010159D01*
X045738Y010114D01*
X045711Y010072D01*
X045681Y010031D01*
X045648Y009993D01*
X045612Y009958D01*
X045574Y009926D01*
X045533Y009897D01*
X045490Y009871D01*
X045445Y009849D01*
X045398Y009831D01*
X045350Y009816D01*
X045301Y009805D01*
X045252Y009798D01*
X045202Y009795D01*
X045151Y009796D01*
X045101Y009801D01*
X045052Y009810D01*
X045004Y009823D01*
X044956Y009839D01*
X044910Y009860D01*
X044866Y009884D01*
X044824Y009911D01*
X044784Y009942D01*
X044747Y009975D01*
X044713Y010012D01*
X044681Y010051D01*
X044653Y010093D01*
X044628Y010136D01*
X044607Y010182D01*
X044590Y010229D01*
X044576Y010277D01*
X044566Y010326D01*
X044560Y010376D01*
X044558Y010426D01*
X044677Y008891D02*
X045740Y008891D01*
X044558Y008891D02*
X044560Y008941D01*
X044566Y008991D01*
X044576Y009040D01*
X044590Y009088D01*
X044607Y009135D01*
X044628Y009181D01*
X044653Y009224D01*
X044681Y009266D01*
X044713Y009305D01*
X044747Y009342D01*
X044784Y009375D01*
X044824Y009406D01*
X044866Y009433D01*
X044910Y009457D01*
X044956Y009478D01*
X045004Y009494D01*
X045052Y009507D01*
X045101Y009516D01*
X045151Y009521D01*
X045202Y009522D01*
X045252Y009519D01*
X045301Y009512D01*
X045350Y009501D01*
X045398Y009486D01*
X045445Y009468D01*
X045490Y009446D01*
X045533Y009420D01*
X045574Y009391D01*
X045612Y009359D01*
X045648Y009324D01*
X045681Y009286D01*
X045711Y009245D01*
X045738Y009203D01*
X045761Y009158D01*
X045780Y009112D01*
X045796Y009064D01*
X045808Y009016D01*
X045816Y008966D01*
X045820Y008916D01*
X045820Y008866D01*
X045816Y008816D01*
X045808Y008766D01*
X045796Y008718D01*
X045780Y008670D01*
X045761Y008624D01*
X045738Y008579D01*
X045711Y008537D01*
X045681Y008496D01*
X045648Y008458D01*
X045612Y008423D01*
X045574Y008391D01*
X045533Y008362D01*
X045490Y008336D01*
X045445Y008314D01*
X045398Y008296D01*
X045350Y008281D01*
X045301Y008270D01*
X045252Y008263D01*
X045202Y008260D01*
X045151Y008261D01*
X045101Y008266D01*
X045052Y008275D01*
X045004Y008288D01*
X044956Y008304D01*
X044910Y008325D01*
X044866Y008349D01*
X044824Y008376D01*
X044784Y008407D01*
X044747Y008440D01*
X044713Y008477D01*
X044681Y008516D01*
X044653Y008558D01*
X044628Y008601D01*
X044607Y008647D01*
X044590Y008694D01*
X044576Y008742D01*
X044566Y008791D01*
X044560Y008841D01*
X044558Y008891D01*
X044677Y007356D02*
X045740Y007356D01*
X044558Y007356D02*
X044560Y007406D01*
X044566Y007456D01*
X044576Y007505D01*
X044590Y007553D01*
X044607Y007600D01*
X044628Y007646D01*
X044653Y007689D01*
X044681Y007731D01*
X044713Y007770D01*
X044747Y007807D01*
X044784Y007840D01*
X044824Y007871D01*
X044866Y007898D01*
X044910Y007922D01*
X044956Y007943D01*
X045004Y007959D01*
X045052Y007972D01*
X045101Y007981D01*
X045151Y007986D01*
X045202Y007987D01*
X045252Y007984D01*
X045301Y007977D01*
X045350Y007966D01*
X045398Y007951D01*
X045445Y007933D01*
X045490Y007911D01*
X045533Y007885D01*
X045574Y007856D01*
X045612Y007824D01*
X045648Y007789D01*
X045681Y007751D01*
X045711Y007710D01*
X045738Y007668D01*
X045761Y007623D01*
X045780Y007577D01*
X045796Y007529D01*
X045808Y007481D01*
X045816Y007431D01*
X045820Y007381D01*
X045820Y007331D01*
X045816Y007281D01*
X045808Y007231D01*
X045796Y007183D01*
X045780Y007135D01*
X045761Y007089D01*
X045738Y007044D01*
X045711Y007002D01*
X045681Y006961D01*
X045648Y006923D01*
X045612Y006888D01*
X045574Y006856D01*
X045533Y006827D01*
X045490Y006801D01*
X045445Y006779D01*
X045398Y006761D01*
X045350Y006746D01*
X045301Y006735D01*
X045252Y006728D01*
X045202Y006725D01*
X045151Y006726D01*
X045101Y006731D01*
X045052Y006740D01*
X045004Y006753D01*
X044956Y006769D01*
X044910Y006790D01*
X044866Y006814D01*
X044824Y006841D01*
X044784Y006872D01*
X044747Y006905D01*
X044713Y006942D01*
X044681Y006981D01*
X044653Y007023D01*
X044628Y007066D01*
X044607Y007112D01*
X044590Y007159D01*
X044576Y007207D01*
X044566Y007256D01*
X044560Y007306D01*
X044558Y007356D01*
X044677Y005820D02*
X045740Y005820D01*
X044558Y005820D02*
X044560Y005870D01*
X044566Y005920D01*
X044576Y005969D01*
X044590Y006017D01*
X044607Y006064D01*
X044628Y006110D01*
X044653Y006153D01*
X044681Y006195D01*
X044713Y006234D01*
X044747Y006271D01*
X044784Y006304D01*
X044824Y006335D01*
X044866Y006362D01*
X044910Y006386D01*
X044956Y006407D01*
X045004Y006423D01*
X045052Y006436D01*
X045101Y006445D01*
X045151Y006450D01*
X045202Y006451D01*
X045252Y006448D01*
X045301Y006441D01*
X045350Y006430D01*
X045398Y006415D01*
X045445Y006397D01*
X045490Y006375D01*
X045533Y006349D01*
X045574Y006320D01*
X045612Y006288D01*
X045648Y006253D01*
X045681Y006215D01*
X045711Y006174D01*
X045738Y006132D01*
X045761Y006087D01*
X045780Y006041D01*
X045796Y005993D01*
X045808Y005945D01*
X045816Y005895D01*
X045820Y005845D01*
X045820Y005795D01*
X045816Y005745D01*
X045808Y005695D01*
X045796Y005647D01*
X045780Y005599D01*
X045761Y005553D01*
X045738Y005508D01*
X045711Y005466D01*
X045681Y005425D01*
X045648Y005387D01*
X045612Y005352D01*
X045574Y005320D01*
X045533Y005291D01*
X045490Y005265D01*
X045445Y005243D01*
X045398Y005225D01*
X045350Y005210D01*
X045301Y005199D01*
X045252Y005192D01*
X045202Y005189D01*
X045151Y005190D01*
X045101Y005195D01*
X045052Y005204D01*
X045004Y005217D01*
X044956Y005233D01*
X044910Y005254D01*
X044866Y005278D01*
X044824Y005305D01*
X044784Y005336D01*
X044747Y005369D01*
X044713Y005406D01*
X044681Y005445D01*
X044653Y005487D01*
X044628Y005530D01*
X044607Y005576D01*
X044590Y005623D01*
X044576Y005671D01*
X044566Y005720D01*
X044560Y005770D01*
X044558Y005820D01*
X044490Y004915D02*
X044933Y004915D01*
X045327Y004915D02*
X045770Y004915D01*
X046164Y004915D02*
X046606Y004915D01*
X044097Y004915D02*
X043654Y004915D01*
X043713Y023417D02*
X044146Y023417D01*
X044116Y028467D02*
X043683Y028467D01*
M02*
