G75*
%MOIN*%
%OFA0B0*%
%FSLAX24Y24*%
%IPPOS*%
%LPD*%
%AMOC8*
5,1,8,0,0,1.08239X$1,22.5*
%
%ADD10C,0.0000*%
%ADD11C,0.0070*%
%ADD12C,0.0060*%
%ADD13C,0.0050*%
%ADD14C,0.0080*%
%ADD15C,0.0040*%
%ADD16C,0.0030*%
%ADD17R,0.0059X0.0118*%
%ADD18R,0.0118X0.0118*%
%ADD19R,0.0500X0.2500*%
%ADD20C,0.0100*%
%ADD21R,0.0827X0.0118*%
%ADD22R,0.0900X0.0250*%
%ADD23C,0.0020*%
%ADD24R,0.0450X0.0250*%
%ADD25R,0.1600X0.0250*%
%ADD26R,0.0200X0.4000*%
%ADD27R,0.0050X0.1550*%
%ADD28R,0.0200X0.1900*%
D10*
X003651Y000200D02*
X003651Y060320D01*
X043643Y060320D01*
X043643Y000200D01*
X003651Y000200D01*
X005141Y002450D02*
X005143Y002505D01*
X005149Y002559D01*
X005159Y002613D01*
X005172Y002667D01*
X005190Y002719D01*
X005211Y002769D01*
X005236Y002818D01*
X005264Y002865D01*
X005296Y002910D01*
X005331Y002952D01*
X005368Y002992D01*
X005409Y003029D01*
X005452Y003063D01*
X005497Y003094D01*
X005545Y003121D01*
X005594Y003145D01*
X005645Y003166D01*
X005698Y003182D01*
X005751Y003195D01*
X005805Y003204D01*
X005860Y003209D01*
X005915Y003210D01*
X005970Y003207D01*
X006024Y003200D01*
X006078Y003189D01*
X006131Y003174D01*
X006182Y003156D01*
X006233Y003134D01*
X006281Y003108D01*
X006328Y003079D01*
X006372Y003047D01*
X006414Y003011D01*
X006453Y002973D01*
X006489Y002931D01*
X006522Y002888D01*
X006552Y002842D01*
X006579Y002794D01*
X006602Y002744D01*
X006621Y002693D01*
X006637Y002640D01*
X006649Y002586D01*
X006657Y002532D01*
X006661Y002477D01*
X006661Y002423D01*
X006657Y002368D01*
X006649Y002314D01*
X006637Y002260D01*
X006621Y002207D01*
X006602Y002156D01*
X006579Y002106D01*
X006552Y002058D01*
X006522Y002012D01*
X006489Y001969D01*
X006453Y001927D01*
X006414Y001889D01*
X006372Y001853D01*
X006328Y001821D01*
X006281Y001792D01*
X006233Y001766D01*
X006182Y001744D01*
X006131Y001726D01*
X006078Y001711D01*
X006024Y001700D01*
X005970Y001693D01*
X005915Y001690D01*
X005860Y001691D01*
X005805Y001696D01*
X005751Y001705D01*
X005698Y001718D01*
X005645Y001734D01*
X005594Y001755D01*
X005545Y001779D01*
X005497Y001806D01*
X005452Y001837D01*
X005409Y001871D01*
X005368Y001908D01*
X005331Y001948D01*
X005296Y001990D01*
X005264Y002035D01*
X005236Y002082D01*
X005211Y002131D01*
X005190Y002181D01*
X005172Y002233D01*
X005159Y002287D01*
X005149Y002341D01*
X005143Y002395D01*
X005141Y002450D01*
X040641Y002450D02*
X040643Y002505D01*
X040649Y002559D01*
X040659Y002613D01*
X040672Y002667D01*
X040690Y002719D01*
X040711Y002769D01*
X040736Y002818D01*
X040764Y002865D01*
X040796Y002910D01*
X040831Y002952D01*
X040868Y002992D01*
X040909Y003029D01*
X040952Y003063D01*
X040997Y003094D01*
X041045Y003121D01*
X041094Y003145D01*
X041145Y003166D01*
X041198Y003182D01*
X041251Y003195D01*
X041305Y003204D01*
X041360Y003209D01*
X041415Y003210D01*
X041470Y003207D01*
X041524Y003200D01*
X041578Y003189D01*
X041631Y003174D01*
X041682Y003156D01*
X041733Y003134D01*
X041781Y003108D01*
X041828Y003079D01*
X041872Y003047D01*
X041914Y003011D01*
X041953Y002973D01*
X041989Y002931D01*
X042022Y002888D01*
X042052Y002842D01*
X042079Y002794D01*
X042102Y002744D01*
X042121Y002693D01*
X042137Y002640D01*
X042149Y002586D01*
X042157Y002532D01*
X042161Y002477D01*
X042161Y002423D01*
X042157Y002368D01*
X042149Y002314D01*
X042137Y002260D01*
X042121Y002207D01*
X042102Y002156D01*
X042079Y002106D01*
X042052Y002058D01*
X042022Y002012D01*
X041989Y001969D01*
X041953Y001927D01*
X041914Y001889D01*
X041872Y001853D01*
X041828Y001821D01*
X041781Y001792D01*
X041733Y001766D01*
X041682Y001744D01*
X041631Y001726D01*
X041578Y001711D01*
X041524Y001700D01*
X041470Y001693D01*
X041415Y001690D01*
X041360Y001691D01*
X041305Y001696D01*
X041251Y001705D01*
X041198Y001718D01*
X041145Y001734D01*
X041094Y001755D01*
X041045Y001779D01*
X040997Y001806D01*
X040952Y001837D01*
X040909Y001871D01*
X040868Y001908D01*
X040831Y001948D01*
X040796Y001990D01*
X040764Y002035D01*
X040736Y002082D01*
X040711Y002131D01*
X040690Y002181D01*
X040672Y002233D01*
X040659Y002287D01*
X040649Y002341D01*
X040643Y002395D01*
X040641Y002450D01*
X040641Y057950D02*
X040643Y058005D01*
X040649Y058059D01*
X040659Y058113D01*
X040672Y058167D01*
X040690Y058219D01*
X040711Y058269D01*
X040736Y058318D01*
X040764Y058365D01*
X040796Y058410D01*
X040831Y058452D01*
X040868Y058492D01*
X040909Y058529D01*
X040952Y058563D01*
X040997Y058594D01*
X041045Y058621D01*
X041094Y058645D01*
X041145Y058666D01*
X041198Y058682D01*
X041251Y058695D01*
X041305Y058704D01*
X041360Y058709D01*
X041415Y058710D01*
X041470Y058707D01*
X041524Y058700D01*
X041578Y058689D01*
X041631Y058674D01*
X041682Y058656D01*
X041733Y058634D01*
X041781Y058608D01*
X041828Y058579D01*
X041872Y058547D01*
X041914Y058511D01*
X041953Y058473D01*
X041989Y058431D01*
X042022Y058388D01*
X042052Y058342D01*
X042079Y058294D01*
X042102Y058244D01*
X042121Y058193D01*
X042137Y058140D01*
X042149Y058086D01*
X042157Y058032D01*
X042161Y057977D01*
X042161Y057923D01*
X042157Y057868D01*
X042149Y057814D01*
X042137Y057760D01*
X042121Y057707D01*
X042102Y057656D01*
X042079Y057606D01*
X042052Y057558D01*
X042022Y057512D01*
X041989Y057469D01*
X041953Y057427D01*
X041914Y057389D01*
X041872Y057353D01*
X041828Y057321D01*
X041781Y057292D01*
X041733Y057266D01*
X041682Y057244D01*
X041631Y057226D01*
X041578Y057211D01*
X041524Y057200D01*
X041470Y057193D01*
X041415Y057190D01*
X041360Y057191D01*
X041305Y057196D01*
X041251Y057205D01*
X041198Y057218D01*
X041145Y057234D01*
X041094Y057255D01*
X041045Y057279D01*
X040997Y057306D01*
X040952Y057337D01*
X040909Y057371D01*
X040868Y057408D01*
X040831Y057448D01*
X040796Y057490D01*
X040764Y057535D01*
X040736Y057582D01*
X040711Y057631D01*
X040690Y057681D01*
X040672Y057733D01*
X040659Y057787D01*
X040649Y057841D01*
X040643Y057895D01*
X040641Y057950D01*
X005141Y057950D02*
X005143Y058005D01*
X005149Y058059D01*
X005159Y058113D01*
X005172Y058167D01*
X005190Y058219D01*
X005211Y058269D01*
X005236Y058318D01*
X005264Y058365D01*
X005296Y058410D01*
X005331Y058452D01*
X005368Y058492D01*
X005409Y058529D01*
X005452Y058563D01*
X005497Y058594D01*
X005545Y058621D01*
X005594Y058645D01*
X005645Y058666D01*
X005698Y058682D01*
X005751Y058695D01*
X005805Y058704D01*
X005860Y058709D01*
X005915Y058710D01*
X005970Y058707D01*
X006024Y058700D01*
X006078Y058689D01*
X006131Y058674D01*
X006182Y058656D01*
X006233Y058634D01*
X006281Y058608D01*
X006328Y058579D01*
X006372Y058547D01*
X006414Y058511D01*
X006453Y058473D01*
X006489Y058431D01*
X006522Y058388D01*
X006552Y058342D01*
X006579Y058294D01*
X006602Y058244D01*
X006621Y058193D01*
X006637Y058140D01*
X006649Y058086D01*
X006657Y058032D01*
X006661Y057977D01*
X006661Y057923D01*
X006657Y057868D01*
X006649Y057814D01*
X006637Y057760D01*
X006621Y057707D01*
X006602Y057656D01*
X006579Y057606D01*
X006552Y057558D01*
X006522Y057512D01*
X006489Y057469D01*
X006453Y057427D01*
X006414Y057389D01*
X006372Y057353D01*
X006328Y057321D01*
X006281Y057292D01*
X006233Y057266D01*
X006182Y057244D01*
X006131Y057226D01*
X006078Y057211D01*
X006024Y057200D01*
X005970Y057193D01*
X005915Y057190D01*
X005860Y057191D01*
X005805Y057196D01*
X005751Y057205D01*
X005698Y057218D01*
X005645Y057234D01*
X005594Y057255D01*
X005545Y057279D01*
X005497Y057306D01*
X005452Y057337D01*
X005409Y057371D01*
X005368Y057408D01*
X005331Y057448D01*
X005296Y057490D01*
X005264Y057535D01*
X005236Y057582D01*
X005211Y057631D01*
X005190Y057681D01*
X005172Y057733D01*
X005159Y057787D01*
X005149Y057841D01*
X005143Y057895D01*
X005141Y057950D01*
D11*
X008366Y053388D02*
X008366Y052861D01*
X008366Y053124D02*
X007575Y053124D01*
X007839Y052861D01*
X008102Y052596D02*
X007575Y052596D01*
X007575Y052069D02*
X008102Y052069D01*
X008366Y052332D01*
X008102Y052596D01*
X007971Y051804D02*
X008234Y051804D01*
X008366Y051672D01*
X008366Y051409D01*
X008234Y051277D01*
X007971Y051277D02*
X007839Y051540D01*
X007839Y051672D01*
X007971Y051804D01*
X007575Y051804D02*
X007575Y051277D01*
X007971Y051277D01*
X007971Y051012D02*
X007971Y050485D01*
X008234Y050749D02*
X007707Y050749D01*
X013361Y044660D02*
X013255Y044555D01*
X013255Y044345D01*
X013361Y044240D01*
X013255Y044015D02*
X013255Y043595D01*
X013886Y043595D01*
X013571Y043595D02*
X013571Y043805D01*
X013781Y044240D02*
X013886Y044345D01*
X013886Y044555D01*
X013781Y044660D01*
X013676Y044660D01*
X013571Y044555D01*
X013571Y044450D01*
X013571Y044555D02*
X013466Y044660D01*
X013361Y044660D01*
X008366Y041964D02*
X008366Y041569D01*
X007575Y041569D01*
X007575Y041964D01*
X007707Y042096D01*
X008234Y042096D01*
X008366Y041964D01*
X008366Y041304D02*
X007575Y041304D01*
X007575Y040777D02*
X008366Y041304D01*
X008366Y040777D02*
X007575Y040777D01*
X007707Y040512D02*
X007575Y040380D01*
X007575Y040117D01*
X007707Y039985D01*
X008234Y039985D01*
X008366Y040117D01*
X008366Y040380D01*
X008234Y040512D01*
X007971Y040512D01*
X007971Y040249D01*
X036635Y043535D02*
X036635Y043955D01*
X036741Y044180D02*
X036635Y044285D01*
X036635Y044495D01*
X036741Y044600D01*
X036846Y044600D01*
X037266Y044180D01*
X037266Y044600D01*
X036951Y043745D02*
X036951Y043535D01*
X037266Y043535D02*
X036635Y043535D01*
X039075Y042464D02*
X039075Y042069D01*
X039866Y042069D01*
X039866Y042464D01*
X039734Y042596D01*
X039207Y042596D01*
X039075Y042464D01*
X039075Y041804D02*
X039866Y041804D01*
X039075Y041277D01*
X039866Y041277D01*
X039734Y041012D02*
X039471Y041012D01*
X039471Y040749D01*
X039734Y041012D02*
X039866Y040880D01*
X039866Y040617D01*
X039734Y040485D01*
X039207Y040485D01*
X039075Y040617D01*
X039075Y040880D01*
X039207Y041012D01*
X039201Y050785D02*
X039201Y051312D01*
X039201Y051577D02*
X038805Y051577D01*
X038805Y052104D01*
X038805Y052369D02*
X039332Y052369D01*
X039596Y052632D01*
X039332Y052896D01*
X038805Y052896D01*
X038937Y053161D02*
X038805Y053292D01*
X038805Y053556D01*
X038937Y053688D01*
X039069Y053688D01*
X039596Y053161D01*
X039596Y053688D01*
X039464Y052104D02*
X039201Y052104D01*
X039069Y051972D01*
X039069Y051840D01*
X039201Y051577D01*
X039464Y051577D02*
X039596Y051709D01*
X039596Y051972D01*
X039464Y052104D01*
X039464Y051049D02*
X038937Y051049D01*
X039075Y019888D02*
X039602Y019888D01*
X039866Y019624D01*
X039602Y019361D01*
X039075Y019361D01*
X039207Y019096D02*
X039075Y018964D01*
X039075Y018701D01*
X039207Y018569D01*
X039207Y019096D02*
X039339Y019096D01*
X039866Y018569D01*
X039866Y019096D01*
X039866Y018304D02*
X039866Y017777D01*
X039866Y018040D02*
X039075Y018040D01*
X039339Y017777D01*
X039471Y017512D02*
X039471Y016985D01*
X039734Y017249D02*
X039207Y017249D01*
X037176Y012560D02*
X037176Y012140D01*
X037176Y012350D02*
X036545Y012350D01*
X036756Y012140D01*
X036545Y011915D02*
X036545Y011495D01*
X037176Y011495D01*
X036861Y011495D02*
X036861Y011705D01*
X039207Y009096D02*
X039075Y008964D01*
X039075Y008569D01*
X039866Y008569D01*
X039866Y008964D01*
X039734Y009096D01*
X039207Y009096D01*
X039075Y008304D02*
X039866Y008304D01*
X039075Y007777D01*
X039866Y007777D01*
X039734Y007512D02*
X039866Y007380D01*
X039866Y007117D01*
X039734Y006985D01*
X039207Y006985D01*
X039075Y007117D01*
X039075Y007380D01*
X039207Y007512D01*
X039471Y007512D02*
X039471Y007249D01*
X039471Y007512D02*
X039734Y007512D01*
D12*
X036361Y011510D02*
X035461Y011510D01*
X035611Y011960D02*
X036261Y011960D01*
X036261Y012210D01*
X036261Y014210D01*
X035811Y014210D01*
X035811Y012210D01*
X036061Y012210D01*
X036061Y012060D01*
X035611Y012060D01*
X036061Y012210D02*
X036261Y012210D01*
X036361Y011510D02*
X036361Y021410D01*
X035461Y021410D01*
X035811Y020710D02*
X035811Y018710D01*
X036261Y018710D01*
X036261Y020710D01*
X035811Y020710D01*
X034161Y021410D02*
X033261Y021410D01*
X033261Y011510D01*
X034161Y011510D01*
X033811Y012210D02*
X033811Y014210D01*
X033361Y014210D01*
X033361Y012210D01*
X033811Y012210D01*
X033811Y018710D02*
X033361Y018710D01*
X033361Y020710D01*
X033361Y020960D01*
X034011Y020960D01*
X034011Y020860D02*
X033561Y020860D01*
X033561Y020710D01*
X033811Y020710D01*
X033811Y018710D01*
X033561Y020710D02*
X033361Y020710D01*
X034311Y022730D02*
X034311Y023030D01*
X034161Y022880D02*
X034461Y022880D01*
X034811Y023930D02*
X034811Y024030D01*
X034361Y024030D01*
X034361Y024280D01*
X035261Y024280D01*
X035261Y024030D01*
X034811Y024030D01*
X032811Y024380D02*
X032813Y024469D01*
X032819Y024558D01*
X032829Y024647D01*
X032843Y024735D01*
X032860Y024822D01*
X032882Y024908D01*
X032908Y024994D01*
X032937Y025078D01*
X032970Y025161D01*
X033006Y025242D01*
X033047Y025322D01*
X033090Y025399D01*
X033137Y025475D01*
X033188Y025548D01*
X033241Y025619D01*
X033298Y025688D01*
X033358Y025754D01*
X033421Y025818D01*
X033486Y025878D01*
X033554Y025936D01*
X033625Y025990D01*
X033698Y026041D01*
X033773Y026089D01*
X033850Y026134D01*
X033929Y026175D01*
X034010Y026212D01*
X034092Y026246D01*
X034176Y026277D01*
X034261Y026303D01*
X034347Y026326D01*
X034434Y026344D01*
X034522Y026359D01*
X034611Y026370D01*
X034700Y026377D01*
X034789Y026380D01*
X034878Y026379D01*
X034967Y026374D01*
X035055Y026365D01*
X035144Y026352D01*
X035231Y026335D01*
X035318Y026315D01*
X035404Y026290D01*
X035488Y026262D01*
X035571Y026230D01*
X035653Y026194D01*
X035733Y026155D01*
X035811Y026112D01*
X035887Y026066D01*
X035961Y026016D01*
X036033Y025963D01*
X036102Y025907D01*
X036169Y025848D01*
X036233Y025786D01*
X036294Y025722D01*
X036353Y025654D01*
X036408Y025584D01*
X036460Y025512D01*
X036509Y025437D01*
X036554Y025361D01*
X036596Y025282D01*
X036634Y025202D01*
X036669Y025120D01*
X036700Y025036D01*
X036728Y024951D01*
X036751Y024865D01*
X036771Y024778D01*
X036787Y024691D01*
X036799Y024602D01*
X036807Y024514D01*
X036811Y024425D01*
X036811Y024335D01*
X036807Y024246D01*
X036799Y024158D01*
X036787Y024069D01*
X036771Y023982D01*
X036751Y023895D01*
X036728Y023809D01*
X036700Y023724D01*
X036669Y023640D01*
X036634Y023558D01*
X036596Y023478D01*
X036554Y023399D01*
X036509Y023323D01*
X036460Y023248D01*
X036408Y023176D01*
X036353Y023106D01*
X036294Y023038D01*
X036233Y022974D01*
X036169Y022912D01*
X036102Y022853D01*
X036033Y022797D01*
X035961Y022744D01*
X035887Y022694D01*
X035811Y022648D01*
X035733Y022605D01*
X035653Y022566D01*
X035571Y022530D01*
X035488Y022498D01*
X035404Y022470D01*
X035318Y022445D01*
X035231Y022425D01*
X035144Y022408D01*
X035055Y022395D01*
X034967Y022386D01*
X034878Y022381D01*
X034789Y022380D01*
X034700Y022383D01*
X034611Y022390D01*
X034522Y022401D01*
X034434Y022416D01*
X034347Y022434D01*
X034261Y022457D01*
X034176Y022483D01*
X034092Y022514D01*
X034010Y022548D01*
X033929Y022585D01*
X033850Y022626D01*
X033773Y022671D01*
X033698Y022719D01*
X033625Y022770D01*
X033554Y022824D01*
X033486Y022882D01*
X033421Y022942D01*
X033358Y023006D01*
X033298Y023072D01*
X033241Y023141D01*
X033188Y023212D01*
X033137Y023285D01*
X033090Y023361D01*
X033047Y023438D01*
X033006Y023518D01*
X032970Y023599D01*
X032937Y023682D01*
X032908Y023766D01*
X032882Y023852D01*
X032860Y023938D01*
X032843Y024025D01*
X032829Y024113D01*
X032819Y024202D01*
X032813Y024291D01*
X032811Y024380D01*
X034811Y024630D02*
X034811Y024830D01*
X038871Y024777D02*
X038871Y024610D01*
X038954Y024527D01*
X039037Y024527D01*
X039121Y024610D01*
X039121Y024777D01*
X039204Y024861D01*
X039288Y024861D01*
X039371Y024777D01*
X039371Y024610D01*
X039288Y024527D01*
X039371Y024345D02*
X038871Y024345D01*
X038871Y024011D02*
X039371Y024345D01*
X039371Y024011D02*
X038871Y024011D01*
X038871Y023829D02*
X038871Y023496D01*
X039371Y023496D01*
X039371Y023829D01*
X039121Y023662D02*
X039121Y023496D01*
X039204Y023314D02*
X039288Y023314D01*
X039371Y023230D01*
X039371Y023063D01*
X039288Y022980D01*
X039121Y023063D02*
X039037Y022980D01*
X038954Y022980D01*
X038871Y023063D01*
X038871Y023230D01*
X038954Y023314D01*
X039121Y023230D02*
X039204Y023314D01*
X039121Y023230D02*
X039121Y023063D01*
X038871Y024777D02*
X038954Y024861D01*
X038871Y025043D02*
X039371Y025043D01*
X039371Y025376D01*
X039121Y025209D02*
X039121Y025043D01*
X038871Y025043D02*
X038871Y025376D01*
X038954Y026074D02*
X039288Y026074D01*
X039371Y026157D01*
X039371Y026324D01*
X039288Y026407D01*
X038954Y026407D01*
X038871Y026324D01*
X038871Y026157D01*
X038954Y026074D01*
X038871Y026589D02*
X039288Y026589D01*
X039371Y026673D01*
X039371Y026840D01*
X039288Y026923D01*
X038871Y026923D01*
X038871Y027105D02*
X038871Y027439D01*
X038871Y027272D02*
X039371Y027272D01*
X039288Y028480D02*
X039371Y028563D01*
X039371Y028730D01*
X039288Y028814D01*
X039204Y028814D01*
X039121Y028730D01*
X039121Y028563D01*
X039037Y028480D01*
X038954Y028480D01*
X038871Y028563D01*
X038871Y028730D01*
X038954Y028814D01*
X038871Y028996D02*
X039371Y028996D01*
X039371Y029329D01*
X039371Y029511D02*
X038871Y029511D01*
X039371Y029845D01*
X038871Y029845D01*
X038954Y030027D02*
X039037Y030027D01*
X039121Y030110D01*
X039121Y030277D01*
X039204Y030361D01*
X039288Y030361D01*
X039371Y030277D01*
X039371Y030110D01*
X039288Y030027D01*
X038954Y030027D02*
X038871Y030110D01*
X038871Y030277D01*
X038954Y030361D01*
X038871Y030543D02*
X039371Y030543D01*
X039371Y030876D01*
X039121Y030709D02*
X039121Y030543D01*
X038871Y030543D02*
X038871Y030876D01*
X039121Y031574D02*
X039121Y031907D01*
X038954Y031741D02*
X039288Y031741D01*
X039288Y033480D02*
X039371Y033563D01*
X039371Y033730D01*
X039288Y033814D01*
X039204Y033814D01*
X039121Y033730D01*
X039121Y033563D01*
X039037Y033480D01*
X038954Y033480D01*
X038871Y033563D01*
X038871Y033730D01*
X038954Y033814D01*
X038871Y033996D02*
X039371Y033996D01*
X039371Y034329D01*
X039371Y034511D02*
X038871Y034511D01*
X039371Y034845D01*
X038871Y034845D01*
X038954Y035027D02*
X039037Y035027D01*
X039121Y035110D01*
X039121Y035277D01*
X039204Y035361D01*
X039288Y035361D01*
X039371Y035277D01*
X039371Y035110D01*
X039288Y035027D01*
X038954Y035027D02*
X038871Y035110D01*
X038871Y035277D01*
X038954Y035361D01*
X038871Y035543D02*
X039371Y035543D01*
X039371Y035876D01*
X039121Y035709D02*
X039121Y035543D01*
X038871Y035543D02*
X038871Y035876D01*
X039121Y036574D02*
X039121Y036907D01*
X038871Y034329D02*
X038871Y033996D01*
X039121Y033996D02*
X039121Y034162D01*
X038871Y029329D02*
X038871Y028996D01*
X039121Y028996D02*
X039121Y029162D01*
X036451Y043550D02*
X035551Y043550D01*
X035701Y044000D02*
X036351Y044000D01*
X036351Y044250D01*
X036351Y046250D01*
X035901Y046250D01*
X035901Y044250D01*
X036151Y044250D01*
X036151Y044100D01*
X035701Y044100D01*
X036151Y044250D02*
X036351Y044250D01*
X036451Y043550D02*
X036451Y053450D01*
X035551Y053450D01*
X035901Y052750D02*
X035901Y050750D01*
X036351Y050750D01*
X036351Y052750D01*
X035901Y052750D01*
X034251Y053450D02*
X033351Y053450D01*
X033351Y043550D01*
X034251Y043550D01*
X033901Y044250D02*
X033451Y044250D01*
X033451Y046250D01*
X033901Y046250D01*
X033901Y044250D01*
X033901Y050750D02*
X033451Y050750D01*
X033451Y052750D01*
X033451Y053000D01*
X034101Y053000D01*
X034101Y052900D02*
X033651Y052900D01*
X033651Y052750D01*
X033901Y052750D01*
X033901Y050750D01*
X033651Y052750D02*
X033451Y052750D01*
X034391Y055310D02*
X034391Y055610D01*
X034241Y055460D02*
X034541Y055460D01*
X034891Y056510D02*
X034891Y056610D01*
X034441Y056610D01*
X034441Y056860D01*
X035341Y056860D01*
X035341Y056610D01*
X034891Y056610D01*
X032891Y056960D02*
X032893Y057049D01*
X032899Y057138D01*
X032909Y057227D01*
X032923Y057315D01*
X032940Y057402D01*
X032962Y057488D01*
X032988Y057574D01*
X033017Y057658D01*
X033050Y057741D01*
X033086Y057822D01*
X033127Y057902D01*
X033170Y057979D01*
X033217Y058055D01*
X033268Y058128D01*
X033321Y058199D01*
X033378Y058268D01*
X033438Y058334D01*
X033501Y058398D01*
X033566Y058458D01*
X033634Y058516D01*
X033705Y058570D01*
X033778Y058621D01*
X033853Y058669D01*
X033930Y058714D01*
X034009Y058755D01*
X034090Y058792D01*
X034172Y058826D01*
X034256Y058857D01*
X034341Y058883D01*
X034427Y058906D01*
X034514Y058924D01*
X034602Y058939D01*
X034691Y058950D01*
X034780Y058957D01*
X034869Y058960D01*
X034958Y058959D01*
X035047Y058954D01*
X035135Y058945D01*
X035224Y058932D01*
X035311Y058915D01*
X035398Y058895D01*
X035484Y058870D01*
X035568Y058842D01*
X035651Y058810D01*
X035733Y058774D01*
X035813Y058735D01*
X035891Y058692D01*
X035967Y058646D01*
X036041Y058596D01*
X036113Y058543D01*
X036182Y058487D01*
X036249Y058428D01*
X036313Y058366D01*
X036374Y058302D01*
X036433Y058234D01*
X036488Y058164D01*
X036540Y058092D01*
X036589Y058017D01*
X036634Y057941D01*
X036676Y057862D01*
X036714Y057782D01*
X036749Y057700D01*
X036780Y057616D01*
X036808Y057531D01*
X036831Y057445D01*
X036851Y057358D01*
X036867Y057271D01*
X036879Y057182D01*
X036887Y057094D01*
X036891Y057005D01*
X036891Y056915D01*
X036887Y056826D01*
X036879Y056738D01*
X036867Y056649D01*
X036851Y056562D01*
X036831Y056475D01*
X036808Y056389D01*
X036780Y056304D01*
X036749Y056220D01*
X036714Y056138D01*
X036676Y056058D01*
X036634Y055979D01*
X036589Y055903D01*
X036540Y055828D01*
X036488Y055756D01*
X036433Y055686D01*
X036374Y055618D01*
X036313Y055554D01*
X036249Y055492D01*
X036182Y055433D01*
X036113Y055377D01*
X036041Y055324D01*
X035967Y055274D01*
X035891Y055228D01*
X035813Y055185D01*
X035733Y055146D01*
X035651Y055110D01*
X035568Y055078D01*
X035484Y055050D01*
X035398Y055025D01*
X035311Y055005D01*
X035224Y054988D01*
X035135Y054975D01*
X035047Y054966D01*
X034958Y054961D01*
X034869Y054960D01*
X034780Y054963D01*
X034691Y054970D01*
X034602Y054981D01*
X034514Y054996D01*
X034427Y055014D01*
X034341Y055037D01*
X034256Y055063D01*
X034172Y055094D01*
X034090Y055128D01*
X034009Y055165D01*
X033930Y055206D01*
X033853Y055251D01*
X033778Y055299D01*
X033705Y055350D01*
X033634Y055404D01*
X033566Y055462D01*
X033501Y055522D01*
X033438Y055586D01*
X033378Y055652D01*
X033321Y055721D01*
X033268Y055792D01*
X033217Y055865D01*
X033170Y055941D01*
X033127Y056018D01*
X033086Y056098D01*
X033050Y056179D01*
X033017Y056262D01*
X032988Y056346D01*
X032962Y056432D01*
X032940Y056518D01*
X032923Y056605D01*
X032909Y056693D01*
X032899Y056782D01*
X032893Y056871D01*
X032891Y056960D01*
X034891Y057210D02*
X034891Y057410D01*
X024701Y049950D02*
X024551Y049950D01*
X024551Y049800D01*
X024551Y049950D02*
X024401Y049950D01*
X024551Y049950D02*
X024551Y050100D01*
X022801Y050450D02*
X022803Y050516D01*
X022809Y050581D01*
X022819Y050646D01*
X022832Y050711D01*
X022850Y050774D01*
X022871Y050837D01*
X022896Y050897D01*
X022925Y050957D01*
X022957Y051014D01*
X022992Y051070D01*
X023031Y051123D01*
X023073Y051174D01*
X023117Y051222D01*
X023165Y051267D01*
X023215Y051310D01*
X023268Y051349D01*
X023323Y051386D01*
X023380Y051419D01*
X023439Y051448D01*
X023499Y051474D01*
X023561Y051496D01*
X023624Y051515D01*
X023688Y051529D01*
X023753Y051540D01*
X023819Y051547D01*
X023885Y051550D01*
X023950Y051549D01*
X024016Y051544D01*
X024081Y051535D01*
X024146Y051522D01*
X024209Y051506D01*
X024272Y051486D01*
X024333Y051461D01*
X024393Y051434D01*
X024451Y051403D01*
X024507Y051368D01*
X024561Y051330D01*
X024612Y051289D01*
X024661Y051245D01*
X024707Y051198D01*
X024751Y051149D01*
X024791Y051097D01*
X024828Y051042D01*
X024862Y050986D01*
X024892Y050927D01*
X024919Y050867D01*
X024942Y050806D01*
X024961Y050743D01*
X024977Y050679D01*
X024989Y050614D01*
X024997Y050549D01*
X025001Y050483D01*
X025001Y050417D01*
X024997Y050351D01*
X024989Y050286D01*
X024977Y050221D01*
X024961Y050157D01*
X024942Y050094D01*
X024919Y050033D01*
X024892Y049973D01*
X024862Y049914D01*
X024828Y049858D01*
X024791Y049803D01*
X024751Y049751D01*
X024707Y049702D01*
X024661Y049655D01*
X024612Y049611D01*
X024561Y049570D01*
X024507Y049532D01*
X024451Y049497D01*
X024393Y049466D01*
X024333Y049439D01*
X024272Y049414D01*
X024209Y049394D01*
X024146Y049378D01*
X024081Y049365D01*
X024016Y049356D01*
X023950Y049351D01*
X023885Y049350D01*
X023819Y049353D01*
X023753Y049360D01*
X023688Y049371D01*
X023624Y049385D01*
X023561Y049404D01*
X023499Y049426D01*
X023439Y049452D01*
X023380Y049481D01*
X023323Y049514D01*
X023268Y049551D01*
X023215Y049590D01*
X023165Y049633D01*
X023117Y049678D01*
X023073Y049726D01*
X023031Y049777D01*
X022992Y049830D01*
X022957Y049886D01*
X022925Y049943D01*
X022896Y050003D01*
X022871Y050063D01*
X022850Y050126D01*
X022832Y050189D01*
X022819Y050254D01*
X022809Y050319D01*
X022803Y050384D01*
X022801Y050450D01*
X023251Y047600D02*
X023251Y047450D01*
X023401Y047450D01*
X023251Y047450D02*
X023251Y047300D01*
X023251Y047450D02*
X023101Y047450D01*
X022801Y046950D02*
X022803Y047016D01*
X022809Y047081D01*
X022819Y047146D01*
X022832Y047211D01*
X022850Y047274D01*
X022871Y047337D01*
X022896Y047397D01*
X022925Y047457D01*
X022957Y047514D01*
X022992Y047570D01*
X023031Y047623D01*
X023073Y047674D01*
X023117Y047722D01*
X023165Y047767D01*
X023215Y047810D01*
X023268Y047849D01*
X023323Y047886D01*
X023380Y047919D01*
X023439Y047948D01*
X023499Y047974D01*
X023561Y047996D01*
X023624Y048015D01*
X023688Y048029D01*
X023753Y048040D01*
X023819Y048047D01*
X023885Y048050D01*
X023950Y048049D01*
X024016Y048044D01*
X024081Y048035D01*
X024146Y048022D01*
X024209Y048006D01*
X024272Y047986D01*
X024333Y047961D01*
X024393Y047934D01*
X024451Y047903D01*
X024507Y047868D01*
X024561Y047830D01*
X024612Y047789D01*
X024661Y047745D01*
X024707Y047698D01*
X024751Y047649D01*
X024791Y047597D01*
X024828Y047542D01*
X024862Y047486D01*
X024892Y047427D01*
X024919Y047367D01*
X024942Y047306D01*
X024961Y047243D01*
X024977Y047179D01*
X024989Y047114D01*
X024997Y047049D01*
X025001Y046983D01*
X025001Y046917D01*
X024997Y046851D01*
X024989Y046786D01*
X024977Y046721D01*
X024961Y046657D01*
X024942Y046594D01*
X024919Y046533D01*
X024892Y046473D01*
X024862Y046414D01*
X024828Y046358D01*
X024791Y046303D01*
X024751Y046251D01*
X024707Y046202D01*
X024661Y046155D01*
X024612Y046111D01*
X024561Y046070D01*
X024507Y046032D01*
X024451Y045997D01*
X024393Y045966D01*
X024333Y045939D01*
X024272Y045914D01*
X024209Y045894D01*
X024146Y045878D01*
X024081Y045865D01*
X024016Y045856D01*
X023950Y045851D01*
X023885Y045850D01*
X023819Y045853D01*
X023753Y045860D01*
X023688Y045871D01*
X023624Y045885D01*
X023561Y045904D01*
X023499Y045926D01*
X023439Y045952D01*
X023380Y045981D01*
X023323Y046014D01*
X023268Y046051D01*
X023215Y046090D01*
X023165Y046133D01*
X023117Y046178D01*
X023073Y046226D01*
X023031Y046277D01*
X022992Y046330D01*
X022957Y046386D01*
X022925Y046443D01*
X022896Y046503D01*
X022871Y046563D01*
X022850Y046626D01*
X022832Y046689D01*
X022819Y046754D01*
X022809Y046819D01*
X022803Y046884D01*
X022801Y046950D01*
X012971Y046310D02*
X012971Y044310D01*
X012971Y044060D01*
X012321Y044060D01*
X012321Y044160D02*
X012771Y044160D01*
X012771Y044310D01*
X012521Y044310D01*
X012521Y046310D01*
X012971Y046310D01*
X012971Y044310D02*
X012771Y044310D01*
X013071Y043610D02*
X012171Y043610D01*
X013071Y043610D02*
X013071Y053510D01*
X012171Y053510D01*
X012521Y052810D02*
X012521Y050810D01*
X012971Y050810D01*
X012971Y052810D01*
X012521Y052810D01*
X010871Y053510D02*
X009971Y053510D01*
X009971Y043610D01*
X010871Y043610D01*
X010521Y044310D02*
X010071Y044310D01*
X010071Y046310D01*
X010521Y046310D01*
X010521Y044310D01*
X010521Y050810D02*
X010071Y050810D01*
X010071Y052810D01*
X010071Y053060D01*
X010721Y053060D01*
X010721Y052960D02*
X010271Y052960D01*
X010271Y052810D01*
X010521Y052810D01*
X010521Y050810D01*
X010271Y052810D02*
X010071Y052810D01*
X011021Y055100D02*
X011021Y055400D01*
X010871Y055250D02*
X011171Y055250D01*
X011521Y056300D02*
X011521Y056400D01*
X011071Y056400D01*
X011071Y056650D01*
X011971Y056650D01*
X011971Y056400D01*
X011521Y056400D01*
X009521Y056750D02*
X009523Y056839D01*
X009529Y056928D01*
X009539Y057017D01*
X009553Y057105D01*
X009570Y057192D01*
X009592Y057278D01*
X009618Y057364D01*
X009647Y057448D01*
X009680Y057531D01*
X009716Y057612D01*
X009757Y057692D01*
X009800Y057769D01*
X009847Y057845D01*
X009898Y057918D01*
X009951Y057989D01*
X010008Y058058D01*
X010068Y058124D01*
X010131Y058188D01*
X010196Y058248D01*
X010264Y058306D01*
X010335Y058360D01*
X010408Y058411D01*
X010483Y058459D01*
X010560Y058504D01*
X010639Y058545D01*
X010720Y058582D01*
X010802Y058616D01*
X010886Y058647D01*
X010971Y058673D01*
X011057Y058696D01*
X011144Y058714D01*
X011232Y058729D01*
X011321Y058740D01*
X011410Y058747D01*
X011499Y058750D01*
X011588Y058749D01*
X011677Y058744D01*
X011765Y058735D01*
X011854Y058722D01*
X011941Y058705D01*
X012028Y058685D01*
X012114Y058660D01*
X012198Y058632D01*
X012281Y058600D01*
X012363Y058564D01*
X012443Y058525D01*
X012521Y058482D01*
X012597Y058436D01*
X012671Y058386D01*
X012743Y058333D01*
X012812Y058277D01*
X012879Y058218D01*
X012943Y058156D01*
X013004Y058092D01*
X013063Y058024D01*
X013118Y057954D01*
X013170Y057882D01*
X013219Y057807D01*
X013264Y057731D01*
X013306Y057652D01*
X013344Y057572D01*
X013379Y057490D01*
X013410Y057406D01*
X013438Y057321D01*
X013461Y057235D01*
X013481Y057148D01*
X013497Y057061D01*
X013509Y056972D01*
X013517Y056884D01*
X013521Y056795D01*
X013521Y056705D01*
X013517Y056616D01*
X013509Y056528D01*
X013497Y056439D01*
X013481Y056352D01*
X013461Y056265D01*
X013438Y056179D01*
X013410Y056094D01*
X013379Y056010D01*
X013344Y055928D01*
X013306Y055848D01*
X013264Y055769D01*
X013219Y055693D01*
X013170Y055618D01*
X013118Y055546D01*
X013063Y055476D01*
X013004Y055408D01*
X012943Y055344D01*
X012879Y055282D01*
X012812Y055223D01*
X012743Y055167D01*
X012671Y055114D01*
X012597Y055064D01*
X012521Y055018D01*
X012443Y054975D01*
X012363Y054936D01*
X012281Y054900D01*
X012198Y054868D01*
X012114Y054840D01*
X012028Y054815D01*
X011941Y054795D01*
X011854Y054778D01*
X011765Y054765D01*
X011677Y054756D01*
X011588Y054751D01*
X011499Y054750D01*
X011410Y054753D01*
X011321Y054760D01*
X011232Y054771D01*
X011144Y054786D01*
X011057Y054804D01*
X010971Y054827D01*
X010886Y054853D01*
X010802Y054884D01*
X010720Y054918D01*
X010639Y054955D01*
X010560Y054996D01*
X010483Y055041D01*
X010408Y055089D01*
X010335Y055140D01*
X010264Y055194D01*
X010196Y055252D01*
X010131Y055312D01*
X010068Y055376D01*
X010008Y055442D01*
X009951Y055511D01*
X009898Y055582D01*
X009847Y055655D01*
X009800Y055731D01*
X009757Y055808D01*
X009716Y055888D01*
X009680Y055969D01*
X009647Y056052D01*
X009618Y056136D01*
X009592Y056222D01*
X009570Y056308D01*
X009553Y056395D01*
X009539Y056483D01*
X009529Y056572D01*
X009523Y056661D01*
X009521Y056750D01*
X011521Y057000D02*
X011521Y057200D01*
X012431Y007181D02*
X012781Y007181D01*
X012898Y007064D01*
X012898Y006830D01*
X012781Y006714D01*
X012431Y006714D01*
X012431Y006480D02*
X012431Y007181D01*
X013131Y006830D02*
X013131Y006597D01*
X013248Y006480D01*
X013481Y006480D01*
X013598Y006597D01*
X013598Y006830D01*
X013481Y006947D01*
X013248Y006947D01*
X013131Y006830D01*
X013831Y006947D02*
X013831Y006597D01*
X013947Y006480D01*
X014064Y006597D01*
X014181Y006480D01*
X014298Y006597D01*
X014298Y006947D01*
X014530Y006830D02*
X014647Y006947D01*
X014881Y006947D01*
X014997Y006830D01*
X014997Y006714D01*
X014530Y006714D01*
X014530Y006830D02*
X014530Y006597D01*
X014647Y006480D01*
X014881Y006480D01*
X015230Y006480D02*
X015230Y006947D01*
X015230Y006714D02*
X015464Y006947D01*
X015580Y006947D01*
X016513Y006947D02*
X016630Y006830D01*
X016863Y006830D01*
X016980Y006714D01*
X016980Y006597D01*
X016863Y006480D01*
X016630Y006480D01*
X016513Y006597D01*
X016513Y006947D02*
X016513Y007064D01*
X016630Y007181D01*
X016863Y007181D01*
X016980Y007064D01*
X017213Y006947D02*
X017213Y006597D01*
X017330Y006480D01*
X017680Y006480D01*
X017680Y006947D01*
X017913Y006947D02*
X018263Y006947D01*
X018380Y006830D01*
X018380Y006597D01*
X018263Y006480D01*
X017913Y006480D01*
X017913Y006246D02*
X017913Y006947D01*
X018613Y006947D02*
X018613Y006246D01*
X018613Y006480D02*
X018963Y006480D01*
X019080Y006597D01*
X019080Y006830D01*
X018963Y006947D01*
X018613Y006947D01*
X019312Y007181D02*
X019429Y007181D01*
X019429Y006480D01*
X019312Y006480D02*
X019546Y006480D01*
X019779Y006597D02*
X019896Y006480D01*
X020246Y006480D01*
X020246Y006363D02*
X020129Y006246D01*
X020012Y006246D01*
X020246Y006363D02*
X020246Y006947D01*
X019779Y006947D02*
X019779Y006597D01*
X018552Y005121D02*
X018659Y005014D01*
X018232Y004587D01*
X018339Y004480D01*
X018552Y004480D01*
X018659Y004587D01*
X018659Y005014D01*
X018552Y005121D02*
X018339Y005121D01*
X018232Y005014D01*
X018232Y004587D01*
X018016Y004587D02*
X018016Y004480D01*
X017910Y004480D01*
X017910Y004587D01*
X018016Y004587D01*
X017692Y004480D02*
X017265Y004480D01*
X017479Y004480D02*
X017479Y005121D01*
X017265Y004907D01*
X016403Y004800D02*
X016403Y004480D01*
X016403Y004800D02*
X016296Y004907D01*
X015976Y004907D01*
X015976Y004480D01*
X015758Y004587D02*
X015758Y004800D01*
X015652Y004907D01*
X015438Y004907D01*
X015331Y004800D01*
X015331Y004587D01*
X015438Y004480D01*
X015652Y004480D01*
X015758Y004587D01*
X015759Y004121D02*
X015546Y004121D01*
X015439Y004014D01*
X015439Y003587D01*
X015546Y003480D01*
X015759Y003480D01*
X015866Y003587D01*
X016083Y003587D02*
X016190Y003480D01*
X016404Y003480D01*
X016510Y003587D01*
X016510Y003800D01*
X016404Y003907D01*
X016190Y003907D01*
X016083Y003800D01*
X016083Y003587D01*
X015866Y004014D02*
X015759Y004121D01*
X015329Y003121D02*
X015436Y003014D01*
X015436Y002800D01*
X015329Y002694D01*
X015009Y002694D01*
X015009Y002480D02*
X015009Y003121D01*
X015329Y003121D01*
X015654Y002907D02*
X015654Y002480D01*
X015654Y002694D02*
X015867Y002907D01*
X015974Y002907D01*
X016191Y002800D02*
X016191Y002587D01*
X016298Y002480D01*
X016511Y002480D01*
X016618Y002587D01*
X016618Y002800D01*
X016511Y002907D01*
X016298Y002907D01*
X016191Y002800D01*
X016835Y002266D02*
X016942Y002266D01*
X017049Y002373D01*
X017049Y002907D01*
X017049Y003121D02*
X017049Y003227D01*
X017155Y003480D02*
X017155Y003907D01*
X017373Y003907D02*
X017586Y003907D01*
X017479Y004014D02*
X017479Y003587D01*
X017586Y003480D01*
X017802Y003587D02*
X017909Y003480D01*
X018229Y003480D01*
X018229Y003907D01*
X018447Y003907D02*
X018447Y003480D01*
X018447Y003694D02*
X018660Y003907D01*
X018767Y003907D01*
X018984Y003800D02*
X018984Y003587D01*
X019091Y003480D01*
X019304Y003480D01*
X019411Y003694D02*
X018984Y003694D01*
X018984Y003800D02*
X019091Y003907D01*
X019304Y003907D01*
X019411Y003800D01*
X019411Y003694D01*
X019628Y002800D02*
X020055Y002800D01*
X020918Y002480D02*
X021131Y002694D01*
X021345Y002480D01*
X021345Y003121D01*
X021562Y002907D02*
X021669Y002907D01*
X021669Y002480D01*
X021562Y002480D02*
X021776Y002480D01*
X021992Y002480D02*
X021992Y002907D01*
X022312Y002907D01*
X022419Y002800D01*
X022419Y002480D01*
X022743Y002587D02*
X022850Y002480D01*
X022743Y002587D02*
X022743Y003014D01*
X022636Y002907D02*
X022850Y002907D01*
X023066Y002800D02*
X023173Y002907D01*
X023386Y002907D01*
X023493Y002800D01*
X023493Y002694D01*
X023066Y002694D01*
X023066Y002800D02*
X023066Y002587D01*
X023173Y002480D01*
X023386Y002480D01*
X023711Y002480D02*
X023711Y002907D01*
X023924Y002907D02*
X024031Y002907D01*
X023924Y002907D02*
X023711Y002694D01*
X023789Y001621D02*
X023789Y001087D01*
X023896Y000980D01*
X024109Y000980D01*
X024216Y001087D01*
X024216Y001621D01*
X024433Y001407D02*
X024754Y001407D01*
X024860Y001300D01*
X024860Y000980D01*
X025078Y000980D02*
X025291Y000980D01*
X025185Y000980D02*
X025185Y001407D01*
X025078Y001407D01*
X025185Y001621D02*
X025185Y001727D01*
X025508Y001407D02*
X025721Y000980D01*
X025935Y001407D01*
X026152Y001300D02*
X026152Y001087D01*
X026259Y000980D01*
X026472Y000980D01*
X026579Y001194D02*
X026152Y001194D01*
X026152Y001300D02*
X026259Y001407D01*
X026472Y001407D01*
X026579Y001300D01*
X026579Y001194D01*
X026797Y001194D02*
X027010Y001407D01*
X027117Y001407D01*
X027334Y001300D02*
X027441Y001407D01*
X027761Y001407D01*
X027978Y001407D02*
X028085Y001407D01*
X028085Y000980D01*
X027978Y000980D02*
X028192Y000980D01*
X028515Y001087D02*
X028515Y001514D01*
X028408Y001407D02*
X028622Y001407D01*
X028838Y001300D02*
X028945Y001407D01*
X029158Y001407D01*
X029265Y001300D01*
X029265Y001194D01*
X028838Y001194D01*
X028838Y001300D02*
X028838Y001087D01*
X028945Y000980D01*
X029158Y000980D01*
X028622Y000980D02*
X028515Y001087D01*
X028945Y001621D02*
X029158Y001727D01*
X030127Y001300D02*
X030127Y001087D01*
X030234Y000980D01*
X030554Y000980D01*
X030554Y001621D01*
X030554Y001407D02*
X030234Y001407D01*
X030127Y001300D01*
X030771Y001300D02*
X030771Y001087D01*
X030878Y000980D01*
X031092Y000980D01*
X031198Y001194D02*
X030771Y001194D01*
X030771Y001300D02*
X030878Y001407D01*
X031092Y001407D01*
X031198Y001300D01*
X031198Y001194D01*
X032061Y001087D02*
X032167Y000980D01*
X032381Y000980D01*
X032488Y001087D01*
X032488Y001194D01*
X032381Y001300D01*
X032167Y001300D01*
X032061Y001407D01*
X032061Y001514D01*
X032167Y001621D01*
X032381Y001621D01*
X032488Y001514D01*
X032705Y001621D02*
X032705Y000980D01*
X032705Y001300D02*
X032812Y001407D01*
X033025Y001407D01*
X033132Y001300D01*
X033132Y000980D01*
X033350Y001087D02*
X033350Y001300D01*
X033456Y001407D01*
X033670Y001407D01*
X033777Y001300D01*
X033777Y001194D01*
X033350Y001194D01*
X033350Y001087D02*
X033456Y000980D01*
X033670Y000980D01*
X033994Y000980D02*
X033994Y001407D01*
X033994Y001194D02*
X034208Y001407D01*
X034314Y001407D01*
X034531Y001407D02*
X034852Y001407D01*
X034958Y001300D01*
X034958Y001087D01*
X034852Y000980D01*
X034531Y000980D01*
X034531Y001621D01*
X035176Y001407D02*
X035176Y000980D01*
X035176Y001194D02*
X035389Y001407D01*
X035496Y001407D01*
X035713Y001300D02*
X035713Y001087D01*
X035820Y000980D01*
X036033Y000980D01*
X036140Y001087D01*
X036140Y001300D01*
X036033Y001407D01*
X035820Y001407D01*
X035713Y001300D01*
X036358Y001300D02*
X036358Y001087D01*
X036464Y000980D01*
X036678Y000980D01*
X036785Y001087D01*
X036785Y001300D01*
X036678Y001407D01*
X036464Y001407D01*
X036358Y001300D01*
X037002Y001194D02*
X037322Y001407D01*
X037539Y001300D02*
X037539Y001087D01*
X037646Y000980D01*
X037859Y000980D01*
X037966Y001194D02*
X037539Y001194D01*
X037539Y001300D02*
X037646Y001407D01*
X037859Y001407D01*
X037966Y001300D01*
X037966Y001194D01*
X037322Y000980D02*
X037002Y001194D01*
X037002Y000980D02*
X037002Y001621D01*
X028085Y001727D02*
X028085Y001621D01*
X027654Y001194D02*
X027441Y001194D01*
X027334Y001300D01*
X027334Y000980D02*
X027654Y000980D01*
X027761Y001087D01*
X027654Y001194D01*
X026797Y000980D02*
X026797Y001407D01*
X026608Y002480D02*
X026181Y002480D01*
X026395Y002480D02*
X026395Y003121D01*
X026181Y002907D01*
X025964Y003014D02*
X025857Y003121D01*
X025644Y003121D01*
X025537Y003014D01*
X025537Y002587D01*
X025964Y003014D01*
X025964Y002587D01*
X025857Y002480D01*
X025644Y002480D01*
X025537Y002587D01*
X025319Y002480D02*
X024892Y002480D01*
X025319Y002907D01*
X025319Y003014D01*
X025213Y003121D01*
X024999Y003121D01*
X024892Y003014D01*
X024433Y001407D02*
X024433Y000980D01*
X022927Y001621D02*
X022500Y000980D01*
X021638Y001194D02*
X021211Y001194D01*
X021211Y001300D02*
X021211Y001087D01*
X021317Y000980D01*
X021531Y000980D01*
X021638Y001194D02*
X021638Y001300D01*
X021531Y001407D01*
X021317Y001407D01*
X021211Y001300D01*
X020994Y001407D02*
X020673Y001194D01*
X020994Y000980D01*
X020673Y000980D02*
X020673Y001621D01*
X020456Y001300D02*
X020349Y001407D01*
X020136Y001407D01*
X020029Y001300D01*
X020029Y001087D01*
X020136Y000980D01*
X020349Y000980D01*
X020456Y001087D01*
X020456Y001300D01*
X019811Y001300D02*
X019811Y001087D01*
X019705Y000980D01*
X019491Y000980D01*
X019384Y001087D01*
X019384Y001300D01*
X019491Y001407D01*
X019705Y001407D01*
X019811Y001300D01*
X019168Y001407D02*
X019061Y001407D01*
X018847Y001194D01*
X018847Y001407D02*
X018847Y000980D01*
X018630Y001087D02*
X018630Y001300D01*
X018523Y001407D01*
X018203Y001407D01*
X018203Y001621D02*
X018203Y000980D01*
X018523Y000980D01*
X018630Y001087D01*
X017986Y001407D02*
X017879Y001407D01*
X017666Y001194D01*
X017666Y001407D02*
X017666Y000980D01*
X017448Y001194D02*
X017448Y001300D01*
X017341Y001407D01*
X017128Y001407D01*
X017021Y001300D01*
X017021Y001087D01*
X017128Y000980D01*
X017341Y000980D01*
X017448Y001194D02*
X017021Y001194D01*
X016804Y001300D02*
X016804Y000980D01*
X016804Y001300D02*
X016697Y001407D01*
X016483Y001407D01*
X016376Y001300D01*
X016159Y001194D02*
X016159Y001087D01*
X016052Y000980D01*
X015839Y000980D01*
X015732Y001087D01*
X015839Y001300D02*
X016052Y001300D01*
X016159Y001194D01*
X016376Y000980D02*
X016376Y001621D01*
X016159Y001514D02*
X016052Y001621D01*
X015839Y001621D01*
X015732Y001514D01*
X015732Y001407D01*
X015839Y001300D01*
X014870Y001300D02*
X014870Y001194D01*
X014443Y001194D01*
X014443Y001300D02*
X014443Y001087D01*
X014550Y000980D01*
X014763Y000980D01*
X014870Y001300D02*
X014763Y001407D01*
X014550Y001407D01*
X014443Y001300D01*
X014225Y001407D02*
X013905Y001407D01*
X013798Y001300D01*
X013798Y001087D01*
X013905Y000980D01*
X014225Y000980D01*
X014225Y001621D01*
X014040Y002480D02*
X014147Y002587D01*
X014147Y003014D01*
X014040Y003121D01*
X013827Y003121D01*
X013720Y003014D01*
X013720Y002587D01*
X013827Y002480D01*
X014040Y002480D01*
X013503Y002587D02*
X013396Y002480D01*
X013182Y002480D01*
X013076Y002587D01*
X013182Y002800D02*
X013396Y002800D01*
X013503Y002694D01*
X013503Y002587D01*
X013182Y002800D02*
X013076Y002907D01*
X013076Y003014D01*
X013182Y003121D01*
X013396Y003121D01*
X013503Y003014D01*
X013612Y003480D02*
X013505Y003587D01*
X013505Y003800D01*
X013612Y003907D01*
X013826Y003907D01*
X013932Y003800D01*
X013932Y003694D01*
X013505Y003694D01*
X013612Y003480D02*
X013826Y003480D01*
X014150Y003480D02*
X014577Y003907D01*
X014150Y003907D02*
X014577Y003480D01*
X014577Y004480D02*
X014684Y004587D01*
X014577Y004694D01*
X014364Y004694D01*
X014257Y004800D01*
X014364Y004907D01*
X014684Y004907D01*
X014902Y004907D02*
X015009Y004907D01*
X015009Y004480D01*
X015115Y004480D02*
X014902Y004480D01*
X014577Y004480D02*
X014257Y004480D01*
X014040Y004907D02*
X013934Y004907D01*
X013720Y004694D01*
X013720Y004907D02*
X013720Y004480D01*
X013503Y004694D02*
X013076Y004694D01*
X013076Y004800D02*
X013182Y004907D01*
X013396Y004907D01*
X013503Y004800D01*
X013503Y004694D01*
X013396Y004480D02*
X013182Y004480D01*
X013076Y004587D01*
X013076Y004800D01*
X012858Y004694D02*
X012858Y005121D01*
X012431Y005121D02*
X012431Y004694D01*
X012644Y004480D01*
X012858Y004694D01*
X012644Y004121D02*
X012858Y003907D01*
X012858Y003480D01*
X013076Y003480D02*
X013289Y003480D01*
X013182Y003480D02*
X013182Y004121D01*
X013076Y004121D01*
X012858Y003800D02*
X012431Y003800D01*
X012431Y003907D02*
X012644Y004121D01*
X012431Y003907D02*
X012431Y003480D01*
X012431Y003121D02*
X012858Y003121D01*
X012644Y003121D02*
X012644Y002480D01*
X012509Y001407D02*
X012829Y001407D01*
X012936Y001300D01*
X012936Y001087D01*
X012829Y000980D01*
X012509Y000980D01*
X012509Y000766D02*
X012509Y001407D01*
X012292Y001300D02*
X012292Y001194D01*
X011865Y001194D01*
X011865Y001300D02*
X011865Y001087D01*
X011971Y000980D01*
X012185Y000980D01*
X012292Y001300D02*
X012185Y001407D01*
X011971Y001407D01*
X011865Y001300D01*
X011647Y001407D02*
X011647Y000873D01*
X011540Y000766D01*
X011434Y000766D01*
X011327Y000980D02*
X011647Y000980D01*
X011327Y000980D02*
X011220Y001087D01*
X011220Y001300D01*
X011327Y001407D01*
X011647Y001407D01*
X011003Y001300D02*
X011003Y001194D01*
X010576Y001194D01*
X010576Y001300D02*
X010576Y001087D01*
X010682Y000980D01*
X010896Y000980D01*
X011003Y001300D02*
X010896Y001407D01*
X010682Y001407D01*
X010576Y001300D01*
X010358Y001087D02*
X010251Y000980D01*
X010038Y000980D01*
X009931Y001087D01*
X009931Y001514D01*
X010038Y001621D01*
X010251Y001621D01*
X010358Y001514D01*
X010682Y001621D02*
X010896Y001727D01*
X015009Y005121D02*
X015009Y005227D01*
X016728Y003907D02*
X016728Y003587D01*
X016835Y003480D01*
X017155Y003480D01*
X017372Y002907D02*
X017585Y002907D01*
X017692Y002800D01*
X017692Y002694D01*
X017265Y002694D01*
X017265Y002800D02*
X017372Y002907D01*
X017265Y002800D02*
X017265Y002587D01*
X017372Y002480D01*
X017585Y002480D01*
X017910Y002587D02*
X018016Y002480D01*
X018337Y002480D01*
X018661Y002587D02*
X018768Y002480D01*
X018661Y002587D02*
X018661Y003014D01*
X018554Y002907D02*
X018768Y002907D01*
X018337Y002907D02*
X018016Y002907D01*
X017910Y002800D01*
X017910Y002587D01*
X017802Y003587D02*
X017802Y003907D01*
X020918Y003121D02*
X020918Y002480D01*
X021669Y003121D02*
X021669Y003227D01*
X026826Y002800D02*
X027253Y002800D01*
X027146Y002480D02*
X027146Y003121D01*
X026826Y002800D01*
D13*
X022401Y012200D02*
X021401Y012200D01*
X020401Y012450D01*
X020401Y018350D01*
X021401Y018600D01*
X022401Y018600D01*
X022401Y012200D01*
X015411Y012190D02*
X014411Y012190D01*
X013411Y012440D01*
X013411Y018340D01*
X014411Y018590D01*
X015411Y018590D01*
X015411Y012190D01*
X010401Y013270D02*
X010401Y013630D01*
X008401Y013630D01*
X008401Y013270D01*
X004401Y013270D01*
X004401Y013630D01*
X008401Y013630D01*
X008401Y013270D02*
X010401Y013270D01*
X010401Y016270D02*
X008401Y016270D01*
X008401Y016450D01*
X008401Y016630D01*
X004401Y016630D01*
X004401Y016270D01*
X008401Y016270D01*
X008401Y016630D02*
X010401Y016630D01*
X010401Y016270D01*
X010401Y019270D02*
X008401Y019270D01*
X008401Y019630D01*
X004401Y019630D01*
X004401Y019270D01*
X008401Y019270D01*
X008401Y019630D02*
X010401Y019630D01*
X010401Y019270D01*
X010401Y022270D02*
X008401Y022270D01*
X008401Y022450D01*
X008401Y022630D01*
X004401Y022630D01*
X004401Y022270D01*
X008401Y022270D01*
X008401Y022630D02*
X010401Y022630D01*
X010401Y022270D01*
X010401Y026770D02*
X008401Y026770D01*
X008401Y027130D01*
X004401Y027130D01*
X004401Y026770D01*
X008401Y026770D01*
X008401Y027130D02*
X010401Y027130D01*
X010401Y026770D01*
X010401Y032270D02*
X008401Y032270D01*
X008401Y032450D01*
X008401Y032630D01*
X004401Y032630D01*
X004401Y032270D01*
X008401Y032270D01*
X008401Y032630D02*
X010401Y032630D01*
X010401Y032270D01*
X010401Y034770D02*
X008401Y034770D01*
X004401Y034770D01*
X004401Y035130D01*
X008401Y035130D01*
X008401Y034770D01*
X008401Y035130D02*
X010401Y035130D01*
X010401Y034770D01*
X007251Y037990D02*
X007251Y044537D01*
X003629Y044537D01*
X003629Y037990D01*
X007251Y037990D01*
X015551Y031450D02*
X015551Y028950D01*
X019251Y028950D01*
X019251Y031450D01*
X015551Y031450D01*
X017201Y036450D02*
X017201Y036879D01*
X017201Y037272D02*
X017201Y037701D01*
X017201Y038095D02*
X017201Y038524D01*
X017201Y038917D02*
X017201Y039346D01*
X017201Y039740D02*
X017201Y040169D01*
X017201Y040562D02*
X017201Y040991D01*
X017201Y041385D02*
X017201Y041813D01*
X017201Y042207D02*
X017201Y042636D01*
X017201Y043030D02*
X017201Y043458D01*
X017201Y043852D02*
X017201Y044281D01*
X017201Y044674D02*
X017201Y045103D01*
X017201Y045497D02*
X017201Y045926D01*
X017201Y046319D02*
X017201Y046748D01*
X017201Y047142D02*
X017201Y047570D01*
X017201Y047964D02*
X017201Y048393D01*
X017201Y048787D02*
X017201Y049215D01*
X017201Y049609D02*
X017201Y050038D01*
X017201Y050431D02*
X017201Y050860D01*
X017201Y051254D02*
X017201Y051683D01*
X017201Y052076D02*
X017201Y052505D01*
X017201Y052899D02*
X017201Y053328D01*
X017201Y053721D02*
X017201Y054150D01*
X017726Y054150D01*
X018120Y054150D02*
X018645Y054150D01*
X019038Y054150D02*
X019564Y054150D01*
X019957Y054150D02*
X020482Y054150D01*
X020876Y054150D02*
X021401Y054150D01*
X021401Y053721D01*
X021401Y053328D02*
X021401Y052899D01*
X021401Y052505D02*
X021401Y052076D01*
X021401Y051683D02*
X021401Y051254D01*
X021401Y050860D02*
X021401Y050431D01*
X021401Y050038D02*
X021401Y049609D01*
X021401Y049215D02*
X021401Y048787D01*
X021401Y048393D02*
X021401Y047964D01*
X021401Y047570D02*
X021401Y047142D01*
X021401Y046748D02*
X021401Y046319D01*
X021401Y045926D02*
X021401Y045497D01*
X021401Y045103D02*
X021401Y044674D01*
X021401Y044281D02*
X021401Y043852D01*
X021401Y043458D02*
X021401Y043030D01*
X021401Y042636D02*
X021401Y042207D01*
X021401Y041813D02*
X021401Y041385D01*
X021401Y040991D02*
X021401Y040562D01*
X021401Y040169D02*
X021401Y039740D01*
X021401Y039346D02*
X021401Y038917D01*
X021401Y038524D02*
X021401Y038095D01*
X021401Y037701D02*
X021401Y037272D01*
X021401Y036879D02*
X021401Y036450D01*
X020876Y036450D01*
X020482Y036450D02*
X019957Y036450D01*
X019564Y036450D02*
X019038Y036450D01*
X018645Y036450D02*
X018120Y036450D01*
X017726Y036450D02*
X017201Y036450D01*
X022421Y047685D02*
X022721Y047685D01*
X022796Y047760D01*
X022796Y047910D01*
X022721Y047985D01*
X022796Y048145D02*
X022796Y048446D01*
X022796Y048296D02*
X022346Y048296D01*
X022496Y048145D01*
X022421Y047985D02*
X022346Y047910D01*
X022346Y047760D01*
X022421Y047685D01*
X022391Y051114D02*
X022691Y051114D01*
X022766Y051189D01*
X022766Y051339D01*
X022691Y051414D01*
X022766Y051575D02*
X022466Y051875D01*
X022391Y051875D01*
X022316Y051800D01*
X022316Y051650D01*
X022391Y051575D01*
X022391Y051414D02*
X022316Y051339D01*
X022316Y051189D01*
X022391Y051114D01*
X022766Y051575D02*
X022766Y051875D01*
X026701Y051683D02*
X026701Y051254D01*
X026701Y050860D02*
X026701Y050431D01*
X026701Y050038D02*
X026701Y049609D01*
X026701Y049215D02*
X026701Y048787D01*
X026701Y048393D02*
X026701Y047964D01*
X026701Y047570D02*
X026701Y047142D01*
X026701Y046748D02*
X026701Y046319D01*
X026701Y045926D02*
X026701Y045497D01*
X026701Y045103D02*
X026701Y044674D01*
X026701Y044281D02*
X026701Y043852D01*
X026701Y043458D02*
X026701Y043030D01*
X026701Y042636D02*
X026701Y042207D01*
X026701Y041813D02*
X026701Y041385D01*
X026701Y040991D02*
X026701Y040562D01*
X026701Y040169D02*
X026701Y039740D01*
X026701Y039346D02*
X026701Y038917D01*
X026701Y038524D02*
X026701Y038095D01*
X026701Y037701D02*
X026701Y037272D01*
X026701Y036879D02*
X026701Y036450D01*
X027226Y036450D01*
X027620Y036450D02*
X028145Y036450D01*
X028538Y036450D02*
X029064Y036450D01*
X029457Y036450D02*
X029982Y036450D01*
X030376Y036450D02*
X030901Y036450D01*
X030901Y036879D01*
X030901Y037272D02*
X030901Y037701D01*
X030901Y038095D02*
X030901Y038524D01*
X030901Y038917D02*
X030901Y039346D01*
X030901Y039740D02*
X030901Y040169D01*
X030901Y040562D02*
X030901Y040991D01*
X030901Y041385D02*
X030901Y041813D01*
X030901Y042207D02*
X030901Y042636D01*
X030901Y043030D02*
X030901Y043458D01*
X030901Y043852D02*
X030901Y044281D01*
X030901Y044674D02*
X030901Y045103D01*
X030901Y045497D02*
X030901Y045926D01*
X030901Y046319D02*
X030901Y046748D01*
X030901Y047142D02*
X030901Y047570D01*
X030901Y047964D02*
X030901Y048393D01*
X030901Y048787D02*
X030901Y049215D01*
X030901Y049609D02*
X030901Y050038D01*
X030901Y050431D02*
X030901Y050860D01*
X030901Y051254D02*
X030901Y051683D01*
X030901Y052076D02*
X030901Y052505D01*
X030901Y052899D02*
X030901Y053328D01*
X030901Y053721D02*
X030901Y054150D01*
X030376Y054150D01*
X029982Y054150D02*
X029457Y054150D01*
X029064Y054150D02*
X028538Y054150D01*
X028145Y054150D02*
X027620Y054150D01*
X027226Y054150D02*
X026701Y054150D01*
X026701Y053721D01*
X026701Y053328D02*
X026701Y052899D01*
X026701Y052505D02*
X026701Y052076D01*
X033411Y058835D02*
X033711Y058835D01*
X033786Y058910D01*
X033786Y059060D01*
X033711Y059135D01*
X033561Y059295D02*
X033561Y059596D01*
X033786Y059521D02*
X033336Y059521D01*
X033561Y059295D01*
X033411Y059135D02*
X033336Y059060D01*
X033336Y058910D01*
X033411Y058835D01*
X040031Y055450D02*
X040031Y048903D01*
X043653Y048903D01*
X043653Y055450D01*
X040031Y055450D01*
X040101Y045080D02*
X040101Y038533D01*
X043723Y038533D01*
X043723Y045080D01*
X040101Y045080D01*
X040061Y037080D02*
X043683Y037080D01*
X043683Y033497D01*
X040061Y033497D01*
X040061Y037080D01*
X038376Y036387D02*
X037926Y036387D01*
X037926Y036237D02*
X037926Y036538D01*
X037926Y036077D02*
X038376Y036077D01*
X037926Y035777D01*
X038376Y035777D01*
X038376Y035617D02*
X038376Y035317D01*
X037926Y035317D01*
X037926Y035617D01*
X038151Y035467D02*
X038151Y035317D01*
X038151Y035156D02*
X038226Y035081D01*
X038226Y034856D01*
X038376Y034856D02*
X037926Y034856D01*
X037926Y035081D01*
X038001Y035156D01*
X038151Y035156D01*
X038226Y035006D02*
X038376Y035156D01*
X038376Y034696D02*
X038226Y034546D01*
X038226Y034621D02*
X038226Y034396D01*
X038376Y034396D02*
X037926Y034396D01*
X037926Y034621D01*
X038001Y034696D01*
X038151Y034696D01*
X038226Y034621D01*
X038301Y034236D02*
X037926Y034236D01*
X037926Y033935D02*
X038301Y033935D01*
X038376Y034010D01*
X038376Y034161D01*
X038301Y034236D01*
X038301Y033775D02*
X038376Y033700D01*
X038376Y033550D01*
X038301Y033475D01*
X038001Y033475D01*
X037926Y033550D01*
X037926Y033700D01*
X038001Y033775D01*
X036651Y033200D02*
X034901Y033200D01*
X034901Y031200D01*
X036651Y031200D01*
X036651Y033200D01*
X036301Y031450D02*
X036303Y031470D01*
X036309Y031488D01*
X036318Y031506D01*
X036330Y031521D01*
X036345Y031533D01*
X036363Y031542D01*
X036381Y031548D01*
X036401Y031550D01*
X036421Y031548D01*
X036439Y031542D01*
X036457Y031533D01*
X036472Y031521D01*
X036484Y031506D01*
X036493Y031488D01*
X036499Y031470D01*
X036501Y031450D01*
X036499Y031430D01*
X036493Y031412D01*
X036484Y031394D01*
X036472Y031379D01*
X036457Y031367D01*
X036439Y031358D01*
X036421Y031352D01*
X036401Y031350D01*
X036381Y031352D01*
X036363Y031358D01*
X036345Y031367D01*
X036330Y031379D01*
X036318Y031394D01*
X036309Y031412D01*
X036303Y031430D01*
X036301Y031450D01*
X037926Y031387D02*
X038376Y031387D01*
X038376Y031077D02*
X037926Y031077D01*
X037926Y031237D02*
X037926Y031538D01*
X038376Y031077D02*
X037926Y030777D01*
X038376Y030777D01*
X038376Y030617D02*
X038376Y030317D01*
X037926Y030317D01*
X037926Y030617D01*
X038151Y030467D02*
X038151Y030317D01*
X038151Y030156D02*
X038226Y030081D01*
X038226Y029856D01*
X038376Y029856D02*
X037926Y029856D01*
X037926Y030081D01*
X038001Y030156D01*
X038151Y030156D01*
X038226Y030006D02*
X038376Y030156D01*
X038376Y029696D02*
X038226Y029546D01*
X038226Y029621D02*
X038226Y029396D01*
X038376Y029396D02*
X037926Y029396D01*
X037926Y029621D01*
X038001Y029696D01*
X038151Y029696D01*
X038226Y029621D01*
X038301Y029236D02*
X037926Y029236D01*
X037926Y028935D02*
X038301Y028935D01*
X038376Y029010D01*
X038376Y029161D01*
X038301Y029236D01*
X038301Y028775D02*
X038376Y028700D01*
X038376Y028550D01*
X038301Y028475D01*
X038001Y028475D01*
X037926Y028550D01*
X037926Y028700D01*
X038001Y028775D01*
X040061Y028467D02*
X043683Y028467D01*
X043683Y032050D01*
X040061Y032050D01*
X040061Y028467D01*
X040091Y027000D02*
X043713Y027000D01*
X043713Y023417D01*
X040091Y023417D01*
X040091Y027000D01*
X038376Y025887D02*
X037926Y025887D01*
X037926Y025737D02*
X037926Y026038D01*
X037926Y025577D02*
X038376Y025577D01*
X037926Y025277D01*
X038376Y025277D01*
X038376Y025117D02*
X038376Y024817D01*
X037926Y024817D01*
X037926Y025117D01*
X038151Y024967D02*
X038151Y024817D01*
X038151Y024656D02*
X038226Y024581D01*
X038226Y024356D01*
X038376Y024356D02*
X037926Y024356D01*
X037926Y024581D01*
X038001Y024656D01*
X038151Y024656D01*
X038226Y024506D02*
X038376Y024656D01*
X038376Y024196D02*
X038226Y024046D01*
X038226Y024121D02*
X038226Y023896D01*
X038376Y023896D02*
X037926Y023896D01*
X037926Y024121D01*
X038001Y024196D01*
X038151Y024196D01*
X038226Y024121D01*
X038301Y023736D02*
X037926Y023736D01*
X037926Y023435D02*
X038301Y023435D01*
X038376Y023510D01*
X038376Y023661D01*
X038301Y023736D01*
X038301Y023275D02*
X038376Y023200D01*
X038376Y023050D01*
X038301Y022975D01*
X038001Y022975D01*
X037926Y023050D01*
X037926Y023200D01*
X038001Y023275D01*
X040081Y021920D02*
X040081Y015373D01*
X043703Y015373D01*
X043703Y021920D01*
X040081Y021920D01*
X033706Y026330D02*
X033706Y026480D01*
X033631Y026555D01*
X033631Y026715D02*
X033706Y026790D01*
X033706Y026941D01*
X033631Y027016D01*
X033556Y027016D01*
X033481Y026941D01*
X033481Y026866D01*
X033481Y026941D02*
X033406Y027016D01*
X033331Y027016D01*
X033256Y026941D01*
X033256Y026790D01*
X033331Y026715D01*
X033331Y026555D02*
X033256Y026480D01*
X033256Y026330D01*
X033331Y026255D01*
X033631Y026255D01*
X033706Y026330D01*
X031251Y028950D02*
X027551Y028950D01*
X027551Y031450D01*
X031251Y031450D01*
X031251Y028950D01*
X040071Y011450D02*
X040071Y004903D01*
X043693Y004903D01*
X043693Y011450D01*
X040071Y011450D01*
X010401Y009630D02*
X010401Y009270D01*
X008401Y009270D01*
X008401Y009630D01*
X004401Y009630D01*
X004401Y009270D01*
X008401Y009270D01*
X008401Y009630D02*
X010401Y009630D01*
X010401Y005130D02*
X008401Y005130D01*
X008401Y004770D01*
X004401Y004770D01*
X004401Y005130D01*
X008401Y005130D01*
X008401Y004770D02*
X010401Y004770D01*
X010401Y005130D01*
X007251Y048960D02*
X003629Y048960D01*
X003629Y055507D01*
X007251Y055507D01*
X007251Y048960D01*
X010041Y058625D02*
X010341Y058625D01*
X010416Y058700D01*
X010416Y058850D01*
X010341Y058925D01*
X010341Y059085D02*
X010416Y059160D01*
X010416Y059311D01*
X010341Y059386D01*
X010191Y059386D01*
X010116Y059311D01*
X010116Y059236D01*
X010191Y059085D01*
X009966Y059085D01*
X009966Y059386D01*
X010041Y058925D02*
X009966Y058850D01*
X009966Y058700D01*
X010041Y058625D01*
D14*
X013680Y050443D02*
X014361Y049989D01*
X014361Y049743D02*
X013907Y049743D01*
X013680Y049516D01*
X013907Y049289D01*
X014361Y049289D01*
X014361Y049043D02*
X013680Y049043D01*
X013907Y048816D01*
X013680Y048589D01*
X014361Y048589D01*
X014021Y049289D02*
X014021Y049743D01*
X013680Y049989D02*
X014361Y050443D01*
X014361Y047644D02*
X013907Y047644D01*
X013680Y047417D01*
X013907Y047190D01*
X014361Y047190D01*
X014248Y046944D02*
X014134Y046944D01*
X014021Y046830D01*
X014021Y046490D01*
X014248Y046490D01*
X014361Y046603D01*
X014361Y046830D01*
X014248Y046944D01*
X014021Y047190D02*
X014021Y047644D01*
X013680Y046944D02*
X013794Y046717D01*
X014021Y046490D01*
X036680Y046944D02*
X036794Y046717D01*
X037021Y046490D01*
X037021Y046830D01*
X037134Y046944D01*
X037248Y046944D01*
X037361Y046830D01*
X037361Y046603D01*
X037248Y046490D01*
X037021Y046490D01*
X037021Y047190D02*
X037021Y047644D01*
X036907Y047644D02*
X037361Y047644D01*
X036907Y047644D02*
X036680Y047417D01*
X036907Y047190D01*
X037361Y047190D01*
X037361Y048589D02*
X036680Y048589D01*
X036907Y048816D01*
X036680Y049043D01*
X037361Y049043D01*
X037361Y049289D02*
X036907Y049289D01*
X036680Y049516D01*
X036907Y049743D01*
X037361Y049743D01*
X037361Y049989D02*
X036680Y050443D01*
X036680Y049989D02*
X037361Y050443D01*
X037021Y049743D02*
X037021Y049289D01*
X037361Y018643D02*
X036680Y018189D01*
X036907Y017943D02*
X037361Y017943D01*
X037361Y018189D02*
X036680Y018643D01*
X036907Y017943D02*
X036680Y017716D01*
X036907Y017489D01*
X037361Y017489D01*
X037361Y017243D02*
X036680Y017243D01*
X036907Y017016D01*
X036680Y016789D01*
X037361Y016789D01*
X037021Y017489D02*
X037021Y017943D01*
X037021Y015843D02*
X037021Y015390D01*
X036907Y015390D02*
X037361Y015390D01*
X037248Y015144D02*
X037361Y015030D01*
X037361Y014803D01*
X037248Y014690D01*
X036794Y015144D01*
X037248Y015144D01*
X036907Y015390D02*
X036680Y015616D01*
X036907Y015843D01*
X037361Y015843D01*
X036794Y015144D02*
X036680Y015030D01*
X036680Y014803D01*
X036794Y014690D01*
X037248Y014690D01*
X037361Y014444D02*
X037361Y013990D01*
X037361Y014217D02*
X036680Y014217D01*
X036907Y013990D01*
X029463Y006171D02*
X029690Y005944D01*
X029690Y005490D01*
X029690Y005830D02*
X029236Y005830D01*
X029236Y005944D02*
X029463Y006171D01*
X029236Y005944D02*
X029236Y005490D01*
X028990Y005603D02*
X028990Y005717D01*
X028877Y005830D01*
X028536Y005830D01*
X028536Y005603D01*
X028650Y005490D01*
X028877Y005490D01*
X028990Y005603D01*
X028763Y006057D02*
X028536Y005830D01*
X028763Y006057D02*
X028990Y006171D01*
X027590Y005944D02*
X027137Y005490D01*
X027590Y005490D02*
X027137Y005944D01*
X026191Y005944D02*
X026191Y006057D01*
X026077Y006171D01*
X025851Y006171D01*
X025737Y006057D01*
X026191Y005944D02*
X025737Y005490D01*
X026191Y005490D01*
X024791Y005603D02*
X024678Y005490D01*
X024451Y005490D01*
X024338Y005603D01*
X024338Y006057D01*
X024451Y006171D01*
X024678Y006171D01*
X024791Y006057D01*
X024791Y005830D01*
X024678Y005717D01*
X024678Y005944D01*
X024451Y005944D01*
X024451Y005717D01*
X024678Y005717D01*
X023392Y005717D02*
X023392Y006171D01*
X022938Y006171D02*
X022938Y005717D01*
X023165Y005490D01*
X023392Y005717D01*
X022692Y005830D02*
X022692Y005603D01*
X022578Y005490D01*
X022352Y005490D01*
X022238Y005603D01*
X022238Y005830D02*
X022465Y005944D01*
X022578Y005944D01*
X022692Y005830D01*
X022692Y006171D02*
X022238Y006171D01*
X022238Y005830D01*
X021992Y005830D02*
X021538Y005830D01*
X021765Y006057D02*
X021765Y005603D01*
X020592Y006171D02*
X020139Y005490D01*
X019193Y005490D02*
X019193Y005944D01*
X018966Y006171D01*
X018739Y005944D01*
X018739Y005490D01*
X018493Y005603D02*
X018380Y005490D01*
X018153Y005490D01*
X018039Y005603D01*
X018493Y006057D01*
X018493Y005603D01*
X018739Y005830D02*
X019193Y005830D01*
X018493Y006057D02*
X018380Y006171D01*
X018153Y006171D01*
X018039Y006057D01*
X018039Y005603D01*
X017793Y005490D02*
X017340Y005490D01*
X017566Y005490D02*
X017566Y006171D01*
X017340Y005944D01*
X016394Y006057D02*
X016394Y005830D01*
X016280Y005717D01*
X016280Y005944D01*
X016053Y005944D01*
X016053Y005717D01*
X016280Y005717D01*
X016394Y005603D02*
X016280Y005490D01*
X016053Y005490D01*
X015940Y005603D01*
X015940Y006057D01*
X016053Y006171D01*
X016280Y006171D01*
X016394Y006057D01*
X014994Y006171D02*
X014994Y005717D01*
X014767Y005490D01*
X014540Y005717D01*
X014540Y006171D01*
X014294Y006057D02*
X014181Y006171D01*
X013954Y006171D01*
X013841Y006057D01*
X014294Y006057D02*
X014294Y005944D01*
X013841Y005490D01*
X014294Y005490D01*
X013595Y005490D02*
X013141Y005490D01*
X013368Y005490D02*
X013368Y006171D01*
X013141Y005944D01*
X012895Y005830D02*
X012441Y005830D01*
X012668Y006057D02*
X012668Y005603D01*
D15*
X011268Y004430D02*
X010961Y004430D01*
X011114Y004430D02*
X011114Y003970D01*
X010807Y004047D02*
X010807Y004430D01*
X010500Y004430D02*
X010500Y004047D01*
X010577Y003970D01*
X010730Y003970D01*
X010807Y004047D01*
X010347Y004047D02*
X010347Y004354D01*
X010270Y004430D01*
X010117Y004430D01*
X010040Y004354D01*
X010040Y004047D01*
X010117Y003970D01*
X010270Y003970D01*
X010347Y004047D01*
X009886Y003893D02*
X009579Y003893D01*
X009426Y003970D02*
X009426Y004277D01*
X009272Y004430D01*
X009119Y004277D01*
X009119Y003970D01*
X008966Y004047D02*
X008889Y003970D01*
X008735Y003970D01*
X008659Y004047D01*
X008659Y004200D02*
X008812Y004277D01*
X008889Y004277D01*
X008966Y004200D01*
X008966Y004047D01*
X009119Y004200D02*
X009426Y004200D01*
X008966Y004430D02*
X008659Y004430D01*
X008659Y004200D01*
X008505Y004277D02*
X008505Y004354D01*
X008428Y004430D01*
X008275Y004430D01*
X008198Y004354D01*
X008505Y004277D02*
X008198Y003970D01*
X008505Y003970D01*
X008045Y003893D02*
X007738Y003893D01*
X007584Y003970D02*
X007431Y004123D01*
X007508Y004123D02*
X007277Y004123D01*
X007277Y003970D02*
X007277Y004430D01*
X007508Y004430D01*
X007584Y004354D01*
X007584Y004200D01*
X007508Y004123D01*
X007124Y003970D02*
X006817Y003970D01*
X006817Y004430D01*
X007124Y004430D01*
X006971Y004200D02*
X006817Y004200D01*
X006664Y003970D02*
X006433Y004200D01*
X006357Y004123D02*
X006664Y004430D01*
X006357Y004430D02*
X006357Y003970D01*
X006203Y003970D02*
X006203Y004277D01*
X006050Y004430D01*
X005896Y004277D01*
X005896Y003970D01*
X005743Y003970D02*
X005436Y003970D01*
X005436Y004430D01*
X005743Y004430D01*
X005896Y004200D02*
X006203Y004200D01*
X005589Y004200D02*
X005436Y004200D01*
X005282Y004200D02*
X005206Y004123D01*
X004975Y004123D01*
X004822Y004123D02*
X004822Y004047D01*
X004745Y003970D01*
X004515Y003970D01*
X004515Y004430D01*
X004745Y004430D01*
X004822Y004354D01*
X004822Y004277D01*
X004745Y004200D01*
X004515Y004200D01*
X004745Y004200D02*
X004822Y004123D01*
X004975Y003970D02*
X004975Y004430D01*
X005206Y004430D01*
X005282Y004354D01*
X005282Y004200D01*
X005129Y004123D02*
X005282Y003970D01*
X005396Y008470D02*
X005243Y008623D01*
X005320Y008623D02*
X005089Y008623D01*
X005089Y008470D02*
X005089Y008930D01*
X005320Y008930D01*
X005396Y008854D01*
X005396Y008700D01*
X005320Y008623D01*
X005550Y008700D02*
X005703Y008700D01*
X005550Y008470D02*
X005857Y008470D01*
X006010Y008470D02*
X006010Y008777D01*
X006164Y008930D01*
X006317Y008777D01*
X006317Y008470D01*
X006471Y008470D02*
X006471Y008930D01*
X006547Y008700D02*
X006777Y008470D01*
X006931Y008470D02*
X007238Y008470D01*
X007391Y008470D02*
X007391Y008930D01*
X007621Y008930D01*
X007698Y008854D01*
X007698Y008700D01*
X007621Y008623D01*
X007391Y008623D01*
X007545Y008623D02*
X007698Y008470D01*
X007852Y008393D02*
X008159Y008393D01*
X008312Y008470D02*
X008619Y008777D01*
X008619Y008854D01*
X008542Y008930D01*
X008389Y008930D01*
X008312Y008854D01*
X008312Y008470D02*
X008619Y008470D01*
X008772Y008547D02*
X008849Y008470D01*
X009003Y008470D01*
X009079Y008547D01*
X009079Y008700D01*
X009003Y008777D01*
X008926Y008777D01*
X008772Y008700D01*
X008772Y008930D01*
X009079Y008930D01*
X009233Y008777D02*
X009386Y008930D01*
X009540Y008777D01*
X009540Y008470D01*
X009693Y008393D02*
X010000Y008393D01*
X010154Y008470D02*
X010307Y008470D01*
X010230Y008470D02*
X010230Y008930D01*
X010154Y008930D02*
X010307Y008930D01*
X010461Y008930D02*
X010768Y008470D01*
X010768Y008930D01*
X010461Y008930D02*
X010461Y008470D01*
X009540Y008700D02*
X009233Y008700D01*
X009233Y008777D02*
X009233Y008470D01*
X007238Y008930D02*
X006931Y008930D01*
X006931Y008470D01*
X006931Y008700D02*
X007084Y008700D01*
X006777Y008930D02*
X006471Y008623D01*
X006317Y008700D02*
X006010Y008700D01*
X005857Y008930D02*
X005550Y008930D01*
X005550Y008470D01*
X004936Y008547D02*
X004859Y008470D01*
X004629Y008470D01*
X004629Y008930D01*
X004859Y008930D01*
X004936Y008854D01*
X004936Y008777D01*
X004859Y008700D01*
X004629Y008700D01*
X004859Y008700D02*
X004936Y008623D01*
X004936Y008547D01*
X005971Y012547D02*
X005971Y012854D01*
X005817Y012700D02*
X006124Y012700D01*
X006277Y012777D02*
X006431Y012930D01*
X006431Y012470D01*
X006584Y012470D02*
X006277Y012470D01*
X006738Y012470D02*
X007045Y012777D01*
X007045Y012854D01*
X006968Y012930D01*
X006815Y012930D01*
X006738Y012854D01*
X006738Y012470D02*
X007045Y012470D01*
X007198Y012623D02*
X007198Y012930D01*
X007198Y012623D02*
X007352Y012470D01*
X007505Y012623D01*
X007505Y012930D01*
X007659Y012393D02*
X007966Y012393D01*
X008119Y012470D02*
X008119Y012930D01*
X008349Y012930D01*
X008426Y012854D01*
X008426Y012777D01*
X008349Y012700D01*
X008119Y012700D01*
X008119Y012470D02*
X008349Y012470D01*
X008426Y012547D01*
X008426Y012623D01*
X008349Y012700D01*
X008579Y012700D02*
X008886Y012700D01*
X008886Y012777D02*
X008886Y012470D01*
X008579Y012470D02*
X008579Y012777D01*
X008733Y012930D01*
X008886Y012777D01*
X009040Y012930D02*
X009347Y012930D01*
X009500Y012930D02*
X009807Y012930D01*
X009654Y012930D02*
X009654Y012470D01*
X009961Y012470D02*
X010268Y012470D01*
X010114Y012470D02*
X010114Y012930D01*
X009961Y012777D01*
X009193Y012930D02*
X009193Y012470D01*
X009193Y015470D02*
X009193Y015930D01*
X009040Y015930D02*
X009347Y015930D01*
X009500Y015930D02*
X009807Y015930D01*
X009654Y015930D02*
X009654Y015470D01*
X009961Y015470D02*
X010268Y015470D01*
X010114Y015470D02*
X010114Y015930D01*
X009961Y015777D01*
X008886Y015777D02*
X008886Y015470D01*
X008886Y015700D02*
X008579Y015700D01*
X008579Y015777D02*
X008579Y015470D01*
X008426Y015547D02*
X008349Y015470D01*
X008119Y015470D01*
X008119Y015930D01*
X008349Y015930D01*
X008426Y015854D01*
X008426Y015777D01*
X008349Y015700D01*
X008119Y015700D01*
X008349Y015700D02*
X008426Y015623D01*
X008426Y015547D01*
X008579Y015777D02*
X008733Y015930D01*
X008886Y015777D01*
X007966Y015393D02*
X007659Y015393D01*
X007505Y015547D02*
X007505Y015854D01*
X007428Y015930D01*
X007198Y015930D01*
X007198Y015470D01*
X007428Y015470D01*
X007505Y015547D01*
X007045Y015470D02*
X007045Y015930D01*
X006738Y015930D02*
X007045Y015470D01*
X006738Y015470D02*
X006738Y015930D01*
X006584Y015854D02*
X006508Y015930D01*
X006354Y015930D01*
X006277Y015854D01*
X006277Y015547D01*
X006354Y015470D01*
X006508Y015470D01*
X006584Y015547D01*
X006584Y015700D01*
X006431Y015700D01*
X006431Y018470D02*
X006431Y018930D01*
X006277Y018777D01*
X006124Y018700D02*
X005817Y018700D01*
X005971Y018854D02*
X005971Y018547D01*
X006277Y018470D02*
X006584Y018470D01*
X006738Y018470D02*
X007045Y018777D01*
X007045Y018854D01*
X006968Y018930D01*
X006815Y018930D01*
X006738Y018854D01*
X006738Y018470D02*
X007045Y018470D01*
X007198Y018623D02*
X007198Y018930D01*
X007198Y018623D02*
X007352Y018470D01*
X007505Y018623D01*
X007505Y018930D01*
X007659Y018393D02*
X007966Y018393D01*
X008119Y018470D02*
X008119Y018930D01*
X008349Y018930D01*
X008426Y018854D01*
X008426Y018777D01*
X008349Y018700D01*
X008119Y018700D01*
X008119Y018470D02*
X008349Y018470D01*
X008426Y018547D01*
X008426Y018623D01*
X008349Y018700D01*
X008579Y018700D02*
X008886Y018700D01*
X008886Y018777D02*
X008886Y018470D01*
X008579Y018470D02*
X008579Y018777D01*
X008733Y018930D01*
X008886Y018777D01*
X009040Y018930D02*
X009347Y018930D01*
X009500Y018930D02*
X009807Y018930D01*
X009654Y018930D02*
X009654Y018470D01*
X009961Y018470D02*
X010268Y018777D01*
X010268Y018854D01*
X010191Y018930D01*
X010037Y018930D01*
X009961Y018854D01*
X009961Y018470D02*
X010268Y018470D01*
X009193Y018470D02*
X009193Y018930D01*
X009193Y021470D02*
X009193Y021930D01*
X009040Y021930D02*
X009347Y021930D01*
X009500Y021930D02*
X009807Y021930D01*
X009654Y021930D02*
X009654Y021470D01*
X009961Y021470D02*
X010268Y021777D01*
X010268Y021854D01*
X010191Y021930D01*
X010037Y021930D01*
X009961Y021854D01*
X009961Y021470D02*
X010268Y021470D01*
X008886Y021470D02*
X008886Y021777D01*
X008733Y021930D01*
X008579Y021777D01*
X008579Y021470D01*
X008426Y021547D02*
X008349Y021470D01*
X008119Y021470D01*
X008119Y021930D01*
X008349Y021930D01*
X008426Y021854D01*
X008426Y021777D01*
X008349Y021700D01*
X008119Y021700D01*
X008349Y021700D02*
X008426Y021623D01*
X008426Y021547D01*
X008579Y021700D02*
X008886Y021700D01*
X007966Y021393D02*
X007659Y021393D01*
X007505Y021547D02*
X007505Y021854D01*
X007428Y021930D01*
X007198Y021930D01*
X007198Y021470D01*
X007428Y021470D01*
X007505Y021547D01*
X007045Y021470D02*
X007045Y021930D01*
X006738Y021930D02*
X007045Y021470D01*
X006738Y021470D02*
X006738Y021930D01*
X006584Y021854D02*
X006508Y021930D01*
X006354Y021930D01*
X006277Y021854D01*
X006277Y021547D01*
X006354Y021470D01*
X006508Y021470D01*
X006584Y021547D01*
X006584Y021700D01*
X006431Y021700D01*
X006738Y025893D02*
X007045Y025893D01*
X007198Y025970D02*
X007198Y026430D01*
X007505Y026430D01*
X007659Y026430D02*
X007966Y025970D01*
X008272Y025970D02*
X008272Y026430D01*
X008119Y026430D02*
X008426Y026430D01*
X007966Y026430D02*
X007659Y025970D01*
X007505Y025970D02*
X007198Y025970D01*
X007198Y026200D02*
X007352Y026200D01*
X006584Y026123D02*
X006431Y025970D01*
X006277Y026123D01*
X006277Y026430D01*
X006124Y026354D02*
X006047Y026430D01*
X005894Y026430D01*
X005817Y026354D01*
X006124Y026354D02*
X006124Y026277D01*
X005817Y025970D01*
X006124Y025970D01*
X005664Y025970D02*
X005357Y025970D01*
X005510Y025970D02*
X005510Y026430D01*
X005357Y026277D01*
X005203Y026200D02*
X004896Y026200D01*
X005050Y026354D02*
X005050Y026047D01*
X006584Y026123D02*
X006584Y026430D01*
X007421Y028620D02*
X007881Y028620D01*
X007881Y028927D01*
X007881Y029080D02*
X007421Y029080D01*
X007421Y029387D01*
X007421Y029541D02*
X007421Y029771D01*
X007497Y029848D01*
X007804Y029848D01*
X007881Y029771D01*
X007881Y029541D01*
X007421Y029541D01*
X007651Y029234D02*
X007651Y029080D01*
X007881Y029080D02*
X007881Y029387D01*
X007651Y030001D02*
X007421Y030231D01*
X007881Y030231D01*
X007651Y030308D02*
X007651Y030001D01*
X007659Y031470D02*
X007966Y031930D01*
X008119Y031930D02*
X008426Y031930D01*
X008272Y031930D02*
X008272Y031470D01*
X007966Y031470D02*
X007659Y031930D01*
X007505Y031930D02*
X007198Y031930D01*
X007198Y031470D01*
X007505Y031470D01*
X007352Y031700D02*
X007198Y031700D01*
X007045Y031393D02*
X006738Y031393D01*
X006584Y031547D02*
X006584Y031854D01*
X006508Y031930D01*
X006277Y031930D01*
X006277Y031470D01*
X006508Y031470D01*
X006584Y031547D01*
X006124Y031470D02*
X006124Y031930D01*
X005817Y031930D02*
X006124Y031470D01*
X005817Y031470D02*
X005817Y031930D01*
X005664Y031854D02*
X005587Y031930D01*
X005433Y031930D01*
X005357Y031854D01*
X005357Y031547D01*
X005433Y031470D01*
X005587Y031470D01*
X005664Y031547D01*
X005664Y031700D01*
X005510Y031700D01*
X007428Y033970D02*
X007582Y033970D01*
X007659Y034047D01*
X007812Y033970D02*
X007812Y034430D01*
X007659Y034354D02*
X007582Y034430D01*
X007428Y034430D01*
X007352Y034354D01*
X007352Y034047D01*
X007428Y033970D01*
X007812Y034200D02*
X008119Y034200D01*
X008272Y034200D02*
X008579Y034200D01*
X008579Y034277D02*
X008579Y033970D01*
X008733Y034047D02*
X008810Y033970D01*
X008963Y033970D01*
X009040Y034047D01*
X009040Y034123D01*
X008963Y034200D01*
X008810Y034200D01*
X008733Y034277D01*
X008733Y034354D01*
X008810Y034430D01*
X008963Y034430D01*
X009040Y034354D01*
X009193Y034354D02*
X009193Y034277D01*
X009270Y034200D01*
X009423Y034200D01*
X009500Y034123D01*
X009500Y034047D01*
X009423Y033970D01*
X009270Y033970D01*
X009193Y034047D01*
X009193Y034354D02*
X009270Y034430D01*
X009423Y034430D01*
X009500Y034354D01*
X009654Y034430D02*
X009807Y034430D01*
X009730Y034430D02*
X009730Y033970D01*
X009654Y033970D02*
X009807Y033970D01*
X009961Y034047D02*
X010037Y033970D01*
X010191Y033970D01*
X010268Y034047D01*
X010268Y034123D01*
X010191Y034200D01*
X010037Y034200D01*
X009961Y034277D01*
X009961Y034354D01*
X010037Y034430D01*
X010191Y034430D01*
X010268Y034354D01*
X008579Y034277D02*
X008426Y034430D01*
X008272Y034277D01*
X008272Y033970D01*
X008119Y033970D02*
X008119Y034430D01*
X009040Y031930D02*
X009270Y031930D01*
X009347Y031854D01*
X009347Y031700D01*
X009270Y031623D01*
X009040Y031623D01*
X009040Y031470D02*
X009040Y031930D01*
X009500Y031854D02*
X009500Y031777D01*
X009577Y031700D01*
X009730Y031700D01*
X009807Y031623D01*
X009807Y031547D01*
X009730Y031470D01*
X009577Y031470D01*
X009500Y031547D01*
X009500Y031854D02*
X009577Y031930D01*
X009730Y031930D01*
X009807Y031854D01*
X009961Y031930D02*
X009961Y031547D01*
X010037Y031470D01*
X010191Y031470D01*
X010268Y031547D01*
X010268Y031930D01*
X008886Y031393D02*
X008579Y031393D01*
X010821Y029770D02*
X011051Y029540D01*
X011051Y029847D01*
X011281Y029770D02*
X010821Y029770D01*
X010897Y029386D02*
X010821Y029309D01*
X010821Y029079D01*
X011281Y029079D01*
X011128Y029079D02*
X011128Y029309D01*
X011051Y029386D01*
X010897Y029386D01*
X011128Y029233D02*
X011281Y029386D01*
X010268Y026430D02*
X010268Y026047D01*
X010191Y025970D01*
X010037Y025970D01*
X009961Y026047D01*
X009961Y026430D01*
X009807Y026354D02*
X009730Y026430D01*
X009577Y026430D01*
X009500Y026354D01*
X009500Y026277D01*
X009577Y026200D01*
X009730Y026200D01*
X009807Y026123D01*
X009807Y026047D01*
X009730Y025970D01*
X009577Y025970D01*
X009500Y026047D01*
X009347Y026200D02*
X009270Y026123D01*
X009040Y026123D01*
X009040Y025970D02*
X009040Y026430D01*
X009270Y026430D01*
X009347Y026354D01*
X009347Y026200D01*
X008886Y025893D02*
X008579Y025893D01*
X013511Y022880D02*
X013587Y022957D01*
X013894Y022650D01*
X013971Y022726D01*
X013971Y022880D01*
X013894Y022957D01*
X013587Y022957D01*
X013511Y022880D02*
X013511Y022726D01*
X013587Y022650D01*
X013894Y022650D01*
X013971Y022496D02*
X013971Y022189D01*
X013971Y022036D02*
X013818Y021882D01*
X013818Y021959D02*
X013818Y021729D01*
X013971Y021729D02*
X013511Y021729D01*
X013511Y021959D01*
X013587Y022036D01*
X013741Y022036D01*
X013818Y021959D01*
X013664Y022189D02*
X013511Y022343D01*
X013971Y022343D01*
X013924Y021107D02*
X013617Y021107D01*
X013541Y021030D01*
X013541Y020876D01*
X013617Y020800D01*
X013694Y020800D01*
X013771Y020876D01*
X013771Y021107D01*
X013924Y021107D02*
X014001Y021030D01*
X014001Y020876D01*
X013924Y020800D01*
X014001Y020646D02*
X013848Y020493D01*
X013848Y020569D02*
X013848Y020339D01*
X014001Y020339D02*
X013541Y020339D01*
X013541Y020569D01*
X013617Y020646D01*
X013771Y020646D01*
X013848Y020569D01*
X015931Y018153D02*
X016391Y018153D01*
X016391Y018000D02*
X016391Y018307D01*
X016084Y018000D02*
X015931Y018153D01*
X016007Y017846D02*
X015931Y017769D01*
X015931Y017539D01*
X016391Y017539D01*
X016391Y017769D01*
X016314Y017846D01*
X016007Y017846D01*
X019421Y019287D02*
X019421Y019467D01*
X019481Y019527D01*
X019541Y019527D01*
X019601Y019467D01*
X019601Y019287D01*
X019781Y019287D02*
X019781Y019467D01*
X019721Y019527D01*
X019661Y019527D01*
X019601Y019467D01*
X019601Y019655D02*
X019601Y019895D01*
X019541Y019895D02*
X019781Y019895D01*
X019781Y019655D02*
X019541Y019655D01*
X019421Y019775D01*
X019541Y019895D01*
X019421Y020023D02*
X019421Y020264D01*
X019421Y020144D02*
X019781Y020144D01*
X019781Y020512D02*
X019421Y020512D01*
X019421Y020392D02*
X019421Y020632D01*
X019841Y020760D02*
X019841Y021000D01*
X019721Y021128D02*
X019781Y021188D01*
X019781Y021309D01*
X019721Y021369D01*
X019661Y021369D01*
X019601Y021309D01*
X019601Y021188D01*
X019541Y021128D01*
X019481Y021128D01*
X019421Y021188D01*
X019421Y021309D01*
X019481Y021369D01*
X019421Y021497D02*
X019781Y021497D01*
X019781Y021737D01*
X019781Y021865D02*
X019421Y021865D01*
X019781Y022105D01*
X019421Y022105D01*
X019481Y022233D02*
X019541Y022233D01*
X019601Y022293D01*
X019601Y022414D01*
X019661Y022474D01*
X019721Y022474D01*
X019781Y022414D01*
X019781Y022293D01*
X019721Y022233D01*
X019481Y022233D02*
X019421Y022293D01*
X019421Y022414D01*
X019481Y022474D01*
X019421Y022602D02*
X019781Y022602D01*
X019781Y022842D01*
X019601Y022722D02*
X019601Y022602D01*
X019421Y022602D02*
X019421Y022842D01*
X019421Y021737D02*
X019421Y021497D01*
X019601Y021497D02*
X019601Y021617D01*
X019781Y019287D02*
X019421Y019287D01*
X022921Y018240D02*
X022921Y018086D01*
X022997Y018010D01*
X022997Y017856D02*
X022921Y017779D01*
X022921Y017549D01*
X023381Y017549D01*
X023381Y017779D01*
X023304Y017856D01*
X022997Y017856D01*
X022921Y018240D02*
X022997Y018317D01*
X023074Y018317D01*
X023381Y018010D01*
X023381Y018317D01*
X020981Y011898D02*
X020981Y011591D01*
X020981Y011744D02*
X020521Y011744D01*
X020674Y011591D01*
X020981Y011437D02*
X020981Y011130D01*
X020981Y010977D02*
X020828Y010823D01*
X020828Y010900D02*
X020828Y010670D01*
X020981Y010670D02*
X020521Y010670D01*
X020521Y010900D01*
X020597Y010977D01*
X020751Y010977D01*
X020828Y010900D01*
X020674Y011130D02*
X020521Y011284D01*
X020981Y011284D01*
X020981Y009898D02*
X020981Y009591D01*
X020674Y009898D01*
X020597Y009898D01*
X020521Y009821D01*
X020521Y009668D01*
X020597Y009591D01*
X020521Y009284D02*
X020981Y009284D01*
X020981Y009437D02*
X020981Y009130D01*
X020981Y008977D02*
X020828Y008823D01*
X020828Y008900D02*
X020828Y008670D01*
X020981Y008670D02*
X020521Y008670D01*
X020521Y008900D01*
X020597Y008977D01*
X020751Y008977D01*
X020828Y008900D01*
X020674Y009130D02*
X020521Y009284D01*
X013981Y009361D02*
X013981Y009207D01*
X013904Y009130D01*
X013828Y009130D01*
X013751Y009207D01*
X013751Y009361D01*
X013828Y009437D01*
X013904Y009437D01*
X013981Y009361D01*
X013751Y009361D02*
X013674Y009437D01*
X013597Y009437D01*
X013521Y009361D01*
X013521Y009207D01*
X013597Y009130D01*
X013674Y009130D01*
X013751Y009207D01*
X013751Y008977D02*
X013597Y008977D01*
X013521Y008900D01*
X013521Y008670D01*
X013981Y008670D01*
X013828Y008670D02*
X013828Y008900D01*
X013751Y008977D01*
X013828Y008823D02*
X013981Y008977D01*
X013981Y010670D02*
X013521Y010670D01*
X013521Y010900D01*
X013597Y010977D01*
X013751Y010977D01*
X013828Y010900D01*
X013828Y010670D01*
X013828Y010823D02*
X013981Y010977D01*
X013981Y011130D02*
X013904Y011130D01*
X013597Y011437D01*
X013521Y011437D01*
X013521Y011130D01*
X028921Y019182D02*
X029281Y019182D01*
X029281Y019422D01*
X029281Y019550D02*
X028921Y019790D01*
X028921Y019919D02*
X028921Y020159D01*
X028921Y020039D02*
X029281Y020039D01*
X029281Y019790D02*
X028921Y019550D01*
X028921Y019422D02*
X028921Y019182D01*
X029101Y019182D02*
X029101Y019302D01*
X029341Y020287D02*
X029341Y020527D01*
X029281Y020655D02*
X028921Y020655D01*
X028921Y020835D01*
X028981Y020895D01*
X029101Y020895D01*
X029161Y020835D01*
X029161Y020655D01*
X029221Y021023D02*
X029281Y021084D01*
X029281Y021204D01*
X029221Y021264D01*
X029161Y021264D01*
X029101Y021204D01*
X029101Y021084D01*
X029041Y021023D01*
X028981Y021023D01*
X028921Y021084D01*
X028921Y021204D01*
X028981Y021264D01*
X028921Y021392D02*
X029221Y021392D01*
X029281Y021452D01*
X029281Y021572D01*
X029221Y021632D01*
X028921Y021632D01*
X029341Y021760D02*
X029341Y022000D01*
X029221Y022128D02*
X029281Y022188D01*
X029281Y022309D01*
X029221Y022369D01*
X029161Y022369D01*
X029101Y022309D01*
X029101Y022188D01*
X029041Y022128D01*
X028981Y022128D01*
X028921Y022188D01*
X028921Y022309D01*
X028981Y022369D01*
X028921Y022497D02*
X029281Y022497D01*
X029281Y022737D01*
X029281Y022865D02*
X028921Y022865D01*
X029281Y023105D01*
X028921Y023105D01*
X028981Y023233D02*
X029041Y023233D01*
X029101Y023293D01*
X029101Y023414D01*
X029161Y023474D01*
X029221Y023474D01*
X029281Y023414D01*
X029281Y023293D01*
X029221Y023233D01*
X028981Y023233D02*
X028921Y023293D01*
X028921Y023414D01*
X028981Y023474D01*
X028921Y023602D02*
X029281Y023602D01*
X029281Y023842D01*
X029101Y023722D02*
X029101Y023602D01*
X028921Y023602D02*
X028921Y023842D01*
X028921Y022737D02*
X028921Y022497D01*
X029101Y022497D02*
X029101Y022617D01*
X033421Y030970D02*
X033804Y030970D01*
X033881Y031047D01*
X033881Y031200D01*
X033804Y031277D01*
X033421Y031277D01*
X033497Y031430D02*
X033421Y031507D01*
X033421Y031661D01*
X033497Y031737D01*
X033574Y031737D01*
X033651Y031661D01*
X033728Y031737D01*
X033804Y031737D01*
X033881Y031661D01*
X033881Y031507D01*
X033804Y031430D01*
X033651Y031584D02*
X033651Y031661D01*
X033547Y034660D02*
X033854Y034660D01*
X033931Y034737D01*
X033931Y034890D01*
X033854Y034967D01*
X033854Y035120D02*
X033547Y035427D01*
X033471Y035427D01*
X033471Y035120D01*
X033547Y034967D02*
X033471Y034890D01*
X033471Y034737D01*
X033547Y034660D01*
X033854Y035120D02*
X033931Y035120D01*
X034267Y035989D02*
X034574Y035989D01*
X034651Y036066D01*
X034651Y036219D01*
X034574Y036296D01*
X034574Y036450D02*
X034421Y036450D01*
X034421Y036680D01*
X034498Y036757D01*
X034574Y036757D01*
X034651Y036680D01*
X034651Y036526D01*
X034574Y036450D01*
X034421Y036450D02*
X034267Y036603D01*
X034191Y036757D01*
X034267Y036296D02*
X034191Y036219D01*
X034191Y036066D01*
X034267Y035989D01*
X028191Y032430D02*
X028191Y031970D01*
X028268Y032200D02*
X027961Y032200D01*
X028191Y032430D01*
X027807Y032354D02*
X027807Y032047D01*
X027730Y031970D01*
X027500Y031970D01*
X027500Y032430D01*
X027730Y032430D01*
X027807Y032354D01*
X016188Y032354D02*
X016188Y032277D01*
X016112Y032200D01*
X016188Y032123D01*
X016188Y032047D01*
X016112Y031970D01*
X015958Y031970D01*
X015881Y032047D01*
X015728Y032047D02*
X015728Y032354D01*
X015651Y032430D01*
X015421Y032430D01*
X015421Y031970D01*
X015651Y031970D01*
X015728Y032047D01*
X015881Y032354D02*
X015958Y032430D01*
X016112Y032430D01*
X016188Y032354D01*
X016112Y032200D02*
X016035Y032200D01*
X016421Y053470D02*
X016804Y053470D01*
X016881Y053547D01*
X016881Y053700D01*
X016804Y053777D01*
X016421Y053777D01*
X016574Y053930D02*
X016421Y054084D01*
X016881Y054084D01*
X016881Y054237D02*
X016881Y053930D01*
X016964Y055321D02*
X016964Y055551D01*
X017041Y055628D01*
X017194Y055628D01*
X017271Y055551D01*
X017271Y055321D01*
X017424Y055321D02*
X016964Y055321D01*
X017271Y055474D02*
X017424Y055628D01*
X017348Y055781D02*
X017424Y055858D01*
X017424Y056011D01*
X017348Y056088D01*
X017194Y056088D01*
X017117Y056011D01*
X017117Y055935D01*
X017194Y055781D01*
X016964Y055781D01*
X016964Y056088D01*
X025921Y054161D02*
X025921Y054007D01*
X025997Y053930D01*
X025921Y053777D02*
X026304Y053777D01*
X026381Y053700D01*
X026381Y053547D01*
X026304Y053470D01*
X025921Y053470D01*
X026381Y053930D02*
X026074Y054237D01*
X025997Y054237D01*
X025921Y054161D01*
X026381Y054237D02*
X026381Y053930D01*
X026464Y055321D02*
X026464Y055551D01*
X026541Y055628D01*
X026694Y055628D01*
X026771Y055551D01*
X026771Y055321D01*
X026924Y055321D02*
X026464Y055321D01*
X026771Y055474D02*
X026924Y055628D01*
X026848Y055781D02*
X026924Y055858D01*
X026924Y056011D01*
X026848Y056088D01*
X026771Y056088D01*
X026694Y056011D01*
X026694Y055781D01*
X026848Y055781D01*
X026694Y055781D02*
X026541Y055935D01*
X026464Y056088D01*
X039621Y047151D02*
X039621Y046997D01*
X039697Y046920D01*
X039697Y046767D02*
X039851Y046767D01*
X039928Y046690D01*
X039928Y046460D01*
X040081Y046460D02*
X039621Y046460D01*
X039621Y046690D01*
X039697Y046767D01*
X039928Y046613D02*
X040081Y046767D01*
X040081Y046920D02*
X039774Y047227D01*
X039697Y047227D01*
X039621Y047151D01*
X040081Y047227D02*
X040081Y046920D01*
X042921Y046779D02*
X042921Y046549D01*
X043381Y046549D01*
X043381Y046779D01*
X043304Y046856D01*
X042997Y046856D01*
X042921Y046779D01*
X042997Y047010D02*
X042921Y047086D01*
X042921Y047240D01*
X042997Y047317D01*
X043074Y047317D01*
X043381Y047010D01*
X043381Y047317D01*
X043381Y046396D02*
X043381Y046089D01*
X042921Y046089D01*
X042921Y046396D01*
X043151Y046242D02*
X043151Y046089D01*
X043381Y045935D02*
X043381Y045628D01*
X042921Y045628D01*
X043381Y014317D02*
X043381Y014010D01*
X043381Y014163D02*
X042921Y014163D01*
X043074Y014010D01*
X042997Y013856D02*
X042921Y013779D01*
X042921Y013549D01*
X043381Y013549D01*
X043381Y013779D01*
X043304Y013856D01*
X042997Y013856D01*
X042921Y013396D02*
X042921Y013089D01*
X043381Y013089D01*
X043381Y013396D01*
X043151Y013242D02*
X043151Y013089D01*
X043381Y012935D02*
X043381Y012628D01*
X042921Y012628D01*
X040121Y013140D02*
X039661Y013140D01*
X039661Y013370D01*
X039737Y013447D01*
X039891Y013447D01*
X039968Y013370D01*
X039968Y013140D01*
X039968Y013293D02*
X040121Y013447D01*
X040121Y013600D02*
X040121Y013907D01*
X040121Y013754D02*
X039661Y013754D01*
X039814Y013600D01*
X038381Y006788D02*
X038381Y006548D01*
X038141Y006788D01*
X038081Y006788D01*
X038021Y006728D01*
X038021Y006608D01*
X038081Y006548D01*
X038021Y006420D02*
X038381Y006420D01*
X038021Y006180D01*
X038381Y006180D01*
X038381Y006052D02*
X038141Y006052D01*
X038021Y005932D01*
X038141Y005812D01*
X038381Y005812D01*
X038201Y005812D02*
X038201Y006052D01*
X038021Y005683D02*
X038021Y005443D01*
X038381Y005443D01*
X038441Y005315D02*
X038441Y005075D01*
X038321Y004947D02*
X038381Y004887D01*
X038381Y004767D01*
X038321Y004707D01*
X038201Y004767D02*
X038201Y004887D01*
X038261Y004947D01*
X038321Y004947D01*
X038201Y004767D02*
X038141Y004707D01*
X038081Y004707D01*
X038021Y004767D01*
X038021Y004887D01*
X038081Y004947D01*
X038081Y004579D02*
X038021Y004579D01*
X038081Y004579D02*
X038201Y004458D01*
X038381Y004458D01*
X038201Y004458D02*
X038081Y004338D01*
X038021Y004338D01*
X038081Y004210D02*
X038021Y004150D01*
X038021Y004030D01*
X038081Y003970D01*
X038141Y003970D01*
X038201Y004030D01*
X038201Y004150D01*
X038261Y004210D01*
X038321Y004210D01*
X038381Y004150D01*
X038381Y004030D01*
X038321Y003970D01*
X038201Y005443D02*
X038201Y005563D01*
X033941Y005315D02*
X033941Y005075D01*
X033821Y004947D02*
X033881Y004887D01*
X033881Y004767D01*
X033821Y004707D01*
X033701Y004767D02*
X033701Y004887D01*
X033761Y004947D01*
X033821Y004947D01*
X033701Y004767D02*
X033641Y004707D01*
X033581Y004707D01*
X033521Y004767D01*
X033521Y004887D01*
X033581Y004947D01*
X033581Y004579D02*
X033521Y004579D01*
X033581Y004579D02*
X033701Y004458D01*
X033881Y004458D01*
X033701Y004458D02*
X033581Y004338D01*
X033521Y004338D01*
X033581Y004210D02*
X033521Y004150D01*
X033521Y004030D01*
X033581Y003970D01*
X033641Y003970D01*
X033701Y004030D01*
X033701Y004150D01*
X033761Y004210D01*
X033821Y004210D01*
X033881Y004150D01*
X033881Y004030D01*
X033821Y003970D01*
X033881Y005443D02*
X033521Y005443D01*
X033521Y005683D01*
X033641Y005812D02*
X033521Y005932D01*
X033641Y006052D01*
X033881Y006052D01*
X033881Y006180D02*
X033521Y006180D01*
X033881Y006420D01*
X033521Y006420D01*
X033641Y006548D02*
X033521Y006668D01*
X033881Y006668D01*
X033881Y006548D02*
X033881Y006788D01*
X033701Y006052D02*
X033701Y005812D01*
X033641Y005812D02*
X033881Y005812D01*
X033701Y005563D02*
X033701Y005443D01*
D16*
X042548Y014250D02*
X042795Y014250D01*
X042671Y014127D02*
X042671Y014374D01*
X042671Y047627D02*
X042671Y047874D01*
X042548Y047750D02*
X042795Y047750D01*
X008163Y028800D02*
X007916Y028800D01*
X008039Y028677D02*
X008039Y028924D01*
X004536Y046245D02*
X004166Y046245D01*
X004166Y046613D02*
X004536Y046613D01*
X004536Y046860D01*
X004536Y046982D02*
X004536Y047167D01*
X004474Y047229D01*
X004227Y047229D01*
X004166Y047167D01*
X004166Y046982D01*
X004536Y046982D01*
X004351Y046737D02*
X004351Y046613D01*
X004166Y046613D02*
X004166Y046860D01*
X004227Y047350D02*
X004166Y047412D01*
X004166Y047535D01*
X004227Y047597D01*
X004289Y047597D01*
X004351Y047535D01*
X004413Y047597D01*
X004474Y047597D01*
X004536Y047535D01*
X004536Y047412D01*
X004474Y047350D01*
X004351Y047473D02*
X004351Y047535D01*
X005058Y047760D02*
X005305Y047760D01*
X005181Y047637D02*
X005181Y047884D01*
X005986Y047218D02*
X005986Y047095D01*
X006047Y047033D01*
X006047Y046912D02*
X006171Y046912D01*
X006233Y046850D01*
X006233Y046665D01*
X006356Y046665D02*
X005986Y046665D01*
X005986Y046850D01*
X006047Y046912D01*
X006233Y046788D02*
X006356Y046912D01*
X006294Y047033D02*
X006356Y047095D01*
X006356Y047218D01*
X006294Y047280D01*
X006233Y047280D01*
X006171Y047218D01*
X006171Y047157D01*
X006171Y047218D02*
X006109Y047280D01*
X006047Y047280D01*
X005986Y047218D01*
X004536Y046492D02*
X004536Y046245D01*
D17*
X004675Y046901D03*
X005147Y046901D03*
X008165Y029659D03*
X008637Y029659D03*
X042165Y013391D03*
X042637Y013391D03*
X042637Y046891D03*
X042165Y046891D03*
D18*
X042401Y046891D03*
X042401Y013391D03*
X008401Y029659D03*
X004911Y046901D03*
D19*
X016151Y030200D03*
X030651Y030200D03*
D20*
X028651Y022450D02*
X026901Y022450D01*
X026901Y020450D01*
X026151Y020450D01*
X026151Y022450D01*
X026901Y022450D01*
X028651Y022450D02*
X028651Y020450D01*
X026901Y020450D01*
X019151Y020450D02*
X017401Y020450D01*
X017401Y022450D01*
X019151Y022450D01*
X019151Y020450D01*
X017401Y020450D02*
X016651Y020450D01*
X016651Y022450D01*
X017401Y022450D01*
X030651Y006950D02*
X031401Y006950D01*
X031401Y003950D01*
X030651Y003950D01*
X030651Y006950D01*
X031401Y006950D02*
X033151Y006950D01*
X033151Y003950D01*
X031401Y003950D01*
X035151Y003950D02*
X035901Y003950D01*
X035901Y006950D01*
X037651Y006950D01*
X037651Y003950D01*
X035901Y003950D01*
X035151Y003950D02*
X035151Y006950D01*
X035901Y006950D01*
X030614Y055564D02*
X027188Y055564D01*
X027188Y057336D01*
X030614Y057336D01*
X030614Y055564D01*
X021114Y055564D02*
X017688Y055564D01*
X017688Y057336D01*
X021114Y057336D01*
X021114Y055564D01*
D21*
X020405Y056450D03*
X029905Y056450D03*
D22*
X034891Y057185D03*
X011521Y056975D03*
X034811Y024605D03*
D23*
X034811Y018510D02*
X034811Y014410D01*
X035961Y014460D02*
X035961Y018460D01*
X033661Y018460D02*
X033661Y014460D01*
X034901Y046450D02*
X034901Y050550D01*
X033751Y050500D02*
X033751Y046500D01*
X036051Y046500D02*
X036051Y050500D01*
X012671Y050560D02*
X012671Y046560D01*
X011521Y046510D02*
X011521Y050610D01*
X010371Y050560D02*
X010371Y046560D01*
D24*
X010496Y046435D03*
X012546Y046435D03*
X012546Y050685D03*
X010496Y050685D03*
X033876Y050625D03*
X035926Y050625D03*
X035926Y046375D03*
X033876Y046375D03*
X033786Y018585D03*
X035836Y018585D03*
X035836Y014335D03*
X033786Y014335D03*
D25*
X034811Y014335D03*
X034811Y018585D03*
X034901Y046375D03*
X034901Y050625D03*
X011521Y050685D03*
X011521Y046435D03*
D26*
X012471Y048560D03*
X010571Y048560D03*
X033951Y048500D03*
X035851Y048500D03*
X035761Y016460D03*
X033861Y016460D03*
D27*
X034036Y013435D03*
X035586Y013435D03*
X035586Y019485D03*
X034036Y019485D03*
X034126Y045475D03*
X035676Y045475D03*
X035676Y051525D03*
X034126Y051525D03*
X012296Y051585D03*
X010746Y051585D03*
X010746Y045535D03*
X012296Y045535D03*
D28*
X012421Y045360D03*
X010621Y045360D03*
X010621Y051760D03*
X012421Y051760D03*
X034001Y051700D03*
X035801Y051700D03*
X035801Y045300D03*
X034001Y045300D03*
X033911Y019660D03*
X035711Y019660D03*
X035711Y013260D03*
X033911Y013260D03*
M02*
