%
M48
M72
T01C0.0280
T02C0.0350
T03C0.0420
T04C0.0520
T05C0.0600
T06C0.1520
%
T01
X17601Y38800
X17601Y39800
X17601Y40800
X17601Y41800
X17601Y42800
X17601Y43800
X17601Y44800
X17601Y45800
X17601Y46800
X17601Y47800
X17601Y48800
X17601Y49800
X17601Y50800
X17601Y51800
X19401Y55950
X18401Y56950
X20401Y56950
X27101Y51800
X27101Y50800
X27101Y49800
X27101Y48800
X27101Y47800
X27101Y46800
X27101Y45800
X27101Y44800
X27101Y43800
X27101Y42800
X27101Y41800
X27101Y40800
X27101Y39800
X27101Y38800
X28901Y55950
X29901Y56950
X27901Y56950
T02
X24401Y50450
X23401Y50450
X23401Y46950
X24401Y46950
T03
X34891Y55960
X34891Y57960
X11521Y57750
X11521Y55750
X34811Y25380
X34811Y23380
X27401Y21950
X27401Y20950
X17901Y20950
X17901Y21950
X31901Y6450
X31901Y5450
X31901Y4450
X36401Y4450
X36401Y5450
X36401Y6450
T04
X40543Y5926
X40543Y7426
X40543Y8926
X40543Y10426
X40553Y16396
X40553Y17896
X40553Y19396
X40553Y20896
X40563Y24476
X40563Y25976
X40533Y29526
X40533Y31026
X40533Y34556
X40533Y36056
X40573Y39556
X40573Y41056
X40573Y42556
X40573Y44056
X40503Y49926
X40503Y51426
X40503Y52926
X40503Y54426
X6779Y54484
X6779Y52984
X6779Y51484
X6779Y49984
X6779Y43514
X6779Y42014
X6779Y40514
X6779Y39014
T05
X8401Y34950
X10401Y34950
X10401Y32450
X8401Y32450
X8401Y26950
X10401Y26950
X13401Y30200
X10401Y22450
X8401Y22450
X8401Y19450
X10401Y19450
X10401Y16450
X8401Y16450
X8401Y13450
X10401Y13450
X10401Y9450
X8401Y9450
X8401Y4950
X10401Y4950
X14411Y13340
X14411Y15390
X14411Y17440
X21401Y17450
X21401Y15400
X21401Y13350
X21401Y30200
X25401Y30200
X33401Y30200
X34811Y20890
X34811Y12030
X34901Y44070
X34901Y52930
X11521Y52990
X11521Y44130
T06
X5901Y2450
X41401Y2450
X41401Y57950
X5901Y57950
M30
