G75*
G70*
%OFA0B0*%
%FSLAX24Y24*%
%IPPOS*%
%LPD*%
%AMOC8*
5,1,8,0,0,1.08239X$1,22.5*
%
%ADD10R,0.0433X0.0551*%
%ADD11R,0.0551X0.0433*%
%ADD12R,0.0551X0.0866*%
%ADD13R,0.0800X0.0260*%
%ADD14R,0.0780X0.0210*%
%ADD15R,0.1205X0.0350*%
%ADD16R,0.3362X0.2106*%
%ADD17R,0.0512X0.0591*%
%ADD18R,0.0591X0.0512*%
%ADD19R,0.0551X0.1181*%
%ADD20R,0.1181X0.1417*%
%ADD21R,0.0354X0.0472*%
%ADD22R,0.0472X0.0472*%
D10*
X023860Y029136D03*
X024648Y029136D03*
X024638Y030502D03*
X023850Y030502D03*
X034141Y027201D03*
X034929Y027201D03*
X036353Y034966D03*
X037140Y034966D03*
X037140Y039376D03*
X036353Y039376D03*
X040643Y039406D03*
X041430Y039406D03*
X049133Y041236D03*
X049920Y041236D03*
X049830Y036226D03*
X049890Y035176D03*
X049103Y035176D03*
X049043Y036226D03*
X049272Y029147D03*
X050060Y029147D03*
X048530Y029143D03*
X047742Y029143D03*
X047733Y027157D03*
X048520Y027157D03*
X049243Y027171D03*
X050030Y027171D03*
D11*
X047474Y031655D03*
X047474Y032442D03*
X047258Y039560D03*
X047258Y040347D03*
X039747Y037400D03*
X039747Y036612D03*
X035367Y036612D03*
X035367Y037400D03*
X035367Y033020D03*
X035367Y032232D03*
X021117Y041412D03*
X021117Y042200D03*
D12*
X049870Y050061D03*
X049870Y051321D03*
X051902Y049858D03*
X051902Y048598D03*
D13*
X045713Y040603D03*
X045713Y040103D03*
X045713Y039603D03*
X045713Y039103D03*
X045713Y038603D03*
X045713Y038103D03*
X045713Y037603D03*
X045713Y037103D03*
X043293Y037103D03*
X043293Y037603D03*
X043293Y038103D03*
X043293Y038603D03*
X043293Y039103D03*
X043293Y039603D03*
X043293Y040103D03*
X043293Y040603D03*
D14*
X042573Y034838D03*
X042573Y034338D03*
X042573Y033838D03*
X042573Y033338D03*
X042573Y032838D03*
X042573Y032338D03*
X042573Y031838D03*
X042573Y031338D03*
X046273Y031338D03*
X046273Y031838D03*
X046273Y032338D03*
X046273Y032838D03*
X046273Y033338D03*
X046273Y033838D03*
X046273Y034338D03*
X046273Y034838D03*
D15*
X025546Y054889D03*
X025546Y055385D03*
X025546Y055881D03*
X025546Y056377D03*
X025546Y056873D03*
X025546Y057369D03*
X025546Y057865D03*
D16*
X022672Y056420D03*
D17*
X050198Y052533D03*
X050946Y052533D03*
D18*
X028132Y053081D03*
X028132Y053829D03*
D19*
X047477Y052086D03*
X047477Y050196D03*
D20*
X032912Y051486D03*
X029368Y051486D03*
D21*
X037257Y037658D03*
X037631Y036714D03*
X036883Y036714D03*
X037167Y033158D03*
X037541Y032214D03*
X036793Y032214D03*
X041053Y036744D03*
X041801Y036744D03*
X041427Y037688D03*
D22*
X021867Y041423D03*
X021867Y042249D03*
M02*
