%
M48
M72
T01C0.0236
T02C0.0315
T03C0.0320
T04C0.0354
T05C0.0360
T06C0.0394
T07C0.0400
T08C0.0560
T09C0.0590
T10C0.0787
T11C0.1102
%
T01
X30927Y26536
X34137Y25936
X34917Y28066
X34107Y29446
X34137Y33466
X34917Y34546
X38367Y34906
X39807Y34156
X39747Y37966
X38787Y39766
X35637Y40696
X34857Y38956
X35427Y38116
X30897Y40696
X33177Y45646
X42237Y47236
X47127Y46246
X49077Y45616
X49917Y44626
X49077Y42526
X47967Y40996
X44937Y39616
X44307Y38776
X44247Y37096
X43437Y36436
X43407Y34816
X45357Y34846
X44727Y32326
X47097Y28396
X48327Y28396
X47037Y27136
X47007Y25996
X45747Y25966
X49947Y34186
X49827Y37606
X42237Y40606
X30567Y33646
X24027Y39556
X23337Y40396
X21387Y38896
X21627Y42856
X20487Y46306
X27477Y56026
X26607Y57406
X36327Y25186
X34467Y22666
X36237Y22516
T02
X29586Y22516
X29586Y23516
X29586Y24516
X29586Y29376
X29586Y30376
X29586Y31376
X29556Y36057
X29556Y37057
X29556Y38057
X22493Y38057
X22493Y37070
X22493Y36057
X22523Y31376
X22523Y30390
X22523Y29376
X22523Y24516
X22523Y23530
X22523Y22516
X18633Y46996
X18633Y47996
X18633Y48996
X18633Y49996
T03
X26907Y44656
X27907Y44656
X28907Y44656
X29907Y44656
X29907Y41656
X28907Y41656
X27907Y41656
X26907Y41656
T04
X20964Y37051
X20964Y36051
X20964Y30340
X20964Y29340
X20934Y23510
X20934Y22510
T05
X22997Y41716
X23997Y41716
X24997Y41716
T06
X32156Y42190
X32156Y43190
X32156Y44190
X33156Y44190
X33156Y43190
X33156Y42190
X33156Y41190
X32156Y41190
X32156Y40190
X32156Y39190
X32156Y38190
X32156Y37190
X32156Y36190
X32156Y35190
X32156Y34190
X32156Y33190
X32156Y32190
X32156Y31190
X32156Y30190
X32156Y29190
X32156Y28190
X32156Y27190
X32156Y26190
X32156Y25190
X32156Y24190
X32156Y23190
X32156Y22190
X33156Y22190
X33156Y23190
X33156Y24190
X33156Y25190
X33156Y26190
X33156Y27190
X33156Y28190
X33156Y29190
X33156Y30190
X33156Y31190
X33156Y32190
X33156Y33190
X33156Y34190
X33156Y35190
X33156Y36190
X33156Y37190
X33156Y38190
X33156Y39190
X33156Y40190
X51156Y40190
X51156Y41190
X51156Y42190
X51156Y43190
X51156Y44190
X52156Y44190
X52156Y43190
X52156Y42190
X52156Y41190
X52156Y40190
X52156Y39190
X52156Y38190
X51156Y38190
X51156Y39190
X51156Y37190
X51156Y36190
X51156Y35190
X51156Y34190
X51156Y33190
X51156Y32190
X51156Y31190
X51156Y30190
X51156Y29190
X51156Y28190
X51156Y27190
X51156Y26190
X51156Y25190
X51156Y24190
X51156Y23190
X51156Y22190
X52156Y22190
X52156Y23190
X52156Y24190
X52156Y25190
X52156Y26190
X52156Y27190
X52156Y28190
X52156Y29190
X52156Y30190
X52156Y31190
X52156Y32190
X52156Y33190
X52156Y34190
X52156Y35190
X52156Y36190
X52156Y37190
T07
X24047Y43932
X24047Y45712
X21487Y45712
X21487Y43932
X18717Y41796
X18717Y40796
X18636Y43169
X18636Y44169
X18636Y45169
X18645Y51957
X18645Y52957
X18645Y53957
X18645Y54957
X18645Y55957
T08
X46558Y56476
X47936Y56476
X50218Y56476
X51596Y56476
T09
X44351Y55094
X44321Y57607
X38321Y57607
X38351Y55094
X34077Y55096
X34091Y57596
X28091Y57596
X28077Y55096
T10
X18934Y21510
X18934Y25510
X18964Y28340
X18964Y32340
X18964Y35051
X18964Y39051
T11
X24267Y25756
X43917Y51376
X17487Y58246
X49617Y21466
M30
