G75*
G70*
%OFA0B0*%
%FSLAX24Y24*%
%IPPOS*%
%LPD*%
%AMOC8*
5,1,8,0,0,1.08239X$1,22.5*
%
%ADD10C,0.1162*%
%ADD11OC8,0.0532*%
%ADD12C,0.0532*%
%ADD13R,0.0651X0.0651*%
%ADD14C,0.0651*%
%ADD15C,0.0591*%
%ADD16C,0.0847*%
%ADD17R,0.0532X0.0532*%
%ADD18C,0.0660*%
%ADD19C,0.0945*%
%ADD20C,0.0900*%
%ADD21C,0.0540*%
%ADD22C,0.0600*%
%ADD23R,0.0436X0.0436*%
D10*
X024297Y023536D03*
X049617Y021466D03*
X049527Y053986D03*
X017487Y058246D03*
D11*
X018633Y049996D03*
D12*
X018633Y048996D03*
X018633Y047996D03*
X018633Y046996D03*
X022493Y038057D03*
X022493Y037070D03*
X022523Y031376D03*
X022523Y030390D03*
X022523Y024516D03*
X022523Y023530D03*
X029586Y023516D03*
X029586Y022516D03*
X029586Y029376D03*
X029586Y030376D03*
X029556Y036057D03*
X029556Y037057D03*
D13*
X032156Y022190D03*
X051156Y022190D03*
D14*
X051156Y023190D03*
X051156Y024190D03*
X051156Y025190D03*
X051156Y026190D03*
X051156Y027190D03*
X051156Y028190D03*
X051156Y029190D03*
X051156Y030190D03*
X051156Y031190D03*
X051156Y032190D03*
X051156Y033190D03*
X051156Y034190D03*
X051156Y035190D03*
X051156Y036190D03*
X051156Y037190D03*
X051156Y038190D03*
X051156Y039190D03*
X051156Y040190D03*
X051156Y041190D03*
X051156Y042190D03*
X051156Y043190D03*
X051156Y044190D03*
X052156Y044190D03*
X052156Y043190D03*
X052156Y042190D03*
X052156Y041190D03*
X052156Y040190D03*
X052156Y039190D03*
X052156Y038190D03*
X052156Y037190D03*
X052156Y036190D03*
X052156Y035190D03*
X052156Y034190D03*
X052156Y033190D03*
X052156Y032190D03*
X052156Y031190D03*
X052156Y030190D03*
X052156Y029190D03*
X052156Y028190D03*
X052156Y027190D03*
X052156Y026190D03*
X052156Y025190D03*
X052156Y024190D03*
X052156Y023190D03*
X052156Y022190D03*
X033156Y022190D03*
X033156Y023190D03*
X033156Y024190D03*
X032156Y024190D03*
X032156Y023190D03*
X032156Y025190D03*
X032156Y026190D03*
X032156Y027190D03*
X032156Y028190D03*
X032156Y029190D03*
X032156Y030190D03*
X032156Y031190D03*
X032156Y032190D03*
X032156Y033190D03*
X032156Y034190D03*
X032156Y035190D03*
X032156Y036190D03*
X032156Y037190D03*
X032156Y038190D03*
X032156Y039190D03*
X032156Y040190D03*
X032156Y041190D03*
X032156Y042190D03*
X032156Y043190D03*
X032156Y044190D03*
X033156Y044190D03*
X033156Y043190D03*
X033156Y042190D03*
X033156Y041190D03*
X033156Y040190D03*
X033156Y039190D03*
X033156Y038190D03*
X033156Y037190D03*
X033156Y036190D03*
X033156Y035190D03*
X033156Y034190D03*
X033156Y033190D03*
X033156Y032190D03*
X033156Y031190D03*
X033156Y030190D03*
X033156Y029190D03*
X033156Y028190D03*
X033156Y027190D03*
X033156Y026190D03*
X033156Y025190D03*
D15*
X020934Y023510D03*
X020934Y022510D03*
X020964Y029340D03*
X020964Y030340D03*
X020964Y036051D03*
X020964Y037051D03*
D16*
X018934Y021510D03*
X018934Y025510D03*
X018964Y028340D03*
X018964Y032340D03*
X018964Y035051D03*
X018964Y039051D03*
D17*
X022493Y036057D03*
X022523Y029376D03*
X022523Y022516D03*
X029586Y024516D03*
X029586Y031376D03*
X029556Y038057D03*
D18*
X024347Y043932D02*
X023747Y043932D01*
X023747Y045712D02*
X024347Y045712D01*
X021787Y045712D02*
X021187Y045712D01*
X021187Y043932D02*
X021787Y043932D01*
X018936Y044169D02*
X018336Y044169D01*
X018336Y045169D02*
X018936Y045169D01*
X018936Y043169D02*
X018336Y043169D01*
X018417Y041796D02*
X019017Y041796D01*
X019017Y040796D02*
X018417Y040796D01*
X018345Y051957D02*
X018945Y051957D01*
X018945Y052957D02*
X018345Y052957D01*
X018345Y053957D02*
X018945Y053957D01*
X018945Y054957D02*
X018345Y054957D01*
X018345Y055957D02*
X018945Y055957D01*
D19*
X027634Y055096D02*
X028519Y055096D01*
X028534Y057596D02*
X027649Y057596D01*
X033634Y055096D02*
X034519Y055096D01*
X034534Y057596D02*
X033649Y057596D01*
X037879Y057607D02*
X038764Y057607D01*
X038794Y055094D02*
X037909Y055094D01*
X043909Y055094D02*
X044794Y055094D01*
X044764Y057607D02*
X043879Y057607D01*
D20*
X046558Y056896D02*
X046558Y056056D01*
X047936Y056056D02*
X047936Y056896D01*
X050218Y056896D02*
X050218Y056056D01*
X051596Y056056D02*
X051596Y056896D01*
D21*
X029907Y044896D02*
X029907Y044416D01*
X028907Y044416D02*
X028907Y044896D01*
X027907Y044896D02*
X027907Y044416D01*
X026907Y044416D02*
X026907Y044896D01*
X026907Y041896D02*
X026907Y041416D01*
X027907Y041416D02*
X027907Y041896D01*
X028907Y041896D02*
X028907Y041416D01*
X029907Y041416D02*
X029907Y041896D01*
D22*
X024997Y041986D02*
X024997Y041446D01*
X023997Y041446D02*
X023997Y041986D01*
X022997Y041986D02*
X022997Y041446D01*
D23*
X023337Y040396D03*
X024027Y039556D03*
X021387Y038896D03*
X021627Y042856D03*
X020487Y046306D03*
X027477Y056026D03*
X026607Y057406D03*
X033177Y045646D03*
X030897Y040696D03*
X034857Y038956D03*
X035427Y038116D03*
X035637Y040696D03*
X038787Y039766D03*
X039747Y037966D03*
X038367Y034906D03*
X039807Y034156D03*
X043407Y034816D03*
X043437Y036436D03*
X044247Y037096D03*
X044307Y038776D03*
X044937Y039616D03*
X042237Y040606D03*
X047127Y046246D03*
X049077Y045616D03*
X049917Y044626D03*
X049077Y042526D03*
X047967Y040996D03*
X049827Y037606D03*
X049947Y034186D03*
X045357Y034846D03*
X044727Y032326D03*
X047097Y028396D03*
X048327Y028396D03*
X047037Y027136D03*
X047007Y025996D03*
X045747Y025966D03*
X036327Y025186D03*
X034467Y022666D03*
X036237Y022516D03*
X034137Y025936D03*
X034917Y028066D03*
X034107Y029446D03*
X030927Y026536D03*
X034137Y033466D03*
X034917Y034546D03*
X042237Y047236D03*
M02*
