G75*
G70*
%OFA0B0*%
%FSLAX24Y24*%
%IPPOS*%
%LPD*%
%AMOC8*
5,1,8,0,0,1.08239X$1,22.5*
%
%ADD10C,0.0050*%
D10*
X031406Y017190D02*
X031406Y017707D01*
X031406Y018101D02*
X031406Y018618D01*
X031406Y019012D02*
X031406Y019529D01*
X031406Y019923D02*
X031406Y020440D01*
X031554Y016343D02*
X031596Y016233D01*
X031644Y016126D01*
X031696Y016021D01*
X031754Y015918D01*
X033906Y014690D02*
X034317Y014690D01*
X034710Y014690D02*
X035121Y014690D01*
X035515Y014690D02*
X035926Y014690D01*
X036319Y014690D02*
X036730Y014690D01*
X037124Y014690D02*
X037535Y014690D01*
X037928Y014690D02*
X038339Y014690D01*
X038733Y014690D02*
X039144Y014690D01*
X039537Y014690D02*
X039948Y014690D01*
X040342Y014690D02*
X040752Y014690D01*
X041146Y014690D02*
X041557Y014690D01*
X041951Y014690D02*
X042361Y014690D01*
X042755Y014690D02*
X043166Y014690D01*
X043560Y014690D02*
X043970Y014690D01*
X044364Y014690D02*
X044775Y014690D01*
X045168Y014690D02*
X045579Y014690D01*
X045973Y014690D02*
X046384Y014690D01*
X046777Y014690D02*
X047188Y014690D01*
X047582Y014690D02*
X047993Y014690D01*
X048386Y014690D02*
X048797Y014690D01*
X049191Y014690D02*
X049602Y014690D01*
X049995Y014690D02*
X050406Y014690D01*
X052862Y016722D02*
X052881Y016838D01*
X052895Y016955D01*
X052903Y017072D01*
X052906Y017190D01*
X052906Y017707D01*
X052906Y018101D02*
X052906Y018618D01*
X052906Y019012D02*
X052906Y019529D01*
X052906Y019923D02*
X052906Y020440D01*
X052758Y016343D02*
X052716Y016233D01*
X052668Y016126D01*
X052616Y016021D01*
X052558Y015918D01*
X050874Y014734D02*
X050758Y014715D01*
X050641Y014701D01*
X050524Y014693D01*
X050406Y014690D01*
X051253Y014838D02*
X051363Y014880D01*
X051470Y014928D01*
X051575Y014980D01*
X051678Y015038D01*
X052000Y015264D02*
X052089Y015341D01*
X052174Y015422D01*
X052255Y015507D01*
X052332Y015596D01*
X033059Y014838D02*
X032949Y014880D01*
X032842Y014928D01*
X032737Y014980D01*
X032634Y015038D01*
X031450Y016722D02*
X031431Y016838D01*
X031417Y016955D01*
X031409Y017072D01*
X031406Y017190D01*
X033438Y014734D02*
X033554Y014715D01*
X033671Y014701D01*
X033788Y014693D01*
X033906Y014690D01*
X032312Y015264D02*
X032223Y015341D01*
X032138Y015422D01*
X032057Y015507D01*
X031980Y015596D01*
M02*
