G75*
G70*
%OFA0B0*%
%FSLAX24Y24*%
%IPPOS*%
%LPD*%
%AMOC8*
5,1,8,0,0,1.08239X$1,22.5*
%
%ADD10C,0.0100*%
%ADD11C,0.0000*%
%ADD12C,0.0120*%
%ADD13OC8,0.0472*%
%ADD14C,0.0472*%
%ADD15R,0.0433X0.0551*%
%ADD16R,0.0591X0.0591*%
%ADD17C,0.0591*%
%ADD18C,0.0531*%
%ADD19R,0.0472X0.0472*%
%ADD20C,0.0600*%
%ADD21R,0.0551X0.0433*%
%ADD22R,0.0551X0.0866*%
%ADD23R,0.0800X0.0260*%
%ADD24R,0.0780X0.0210*%
%ADD25R,0.1205X0.0350*%
%ADD26R,0.3362X0.2106*%
%ADD27C,0.0885*%
%ADD28R,0.0512X0.0591*%
%ADD29R,0.0591X0.0512*%
%ADD30R,0.0551X0.1181*%
%ADD31R,0.1181X0.1417*%
%ADD32C,0.0840*%
%ADD33C,0.0480*%
%ADD34R,0.0354X0.0472*%
%ADD35C,0.0540*%
%ADD36C,0.0320*%
%ADD37R,0.0376X0.0376*%
%ADD38C,0.0240*%
%ADD39C,0.0160*%
%ADD40C,0.0500*%
%ADD41C,0.0400*%
%ADD42C,0.0560*%
D10*
X016482Y020232D02*
X016482Y059272D01*
X052986Y059242D01*
X052986Y020202D01*
D11*
X049066Y021466D02*
X049068Y021513D01*
X049074Y021559D01*
X049084Y021605D01*
X049097Y021650D01*
X049115Y021693D01*
X049136Y021735D01*
X049160Y021775D01*
X049188Y021812D01*
X049219Y021847D01*
X049253Y021880D01*
X049289Y021909D01*
X049328Y021935D01*
X049369Y021958D01*
X049412Y021977D01*
X049456Y021993D01*
X049501Y022005D01*
X049547Y022013D01*
X049594Y022017D01*
X049640Y022017D01*
X049687Y022013D01*
X049733Y022005D01*
X049778Y021993D01*
X049822Y021977D01*
X049865Y021958D01*
X049906Y021935D01*
X049945Y021909D01*
X049981Y021880D01*
X050015Y021847D01*
X050046Y021812D01*
X050074Y021775D01*
X050098Y021735D01*
X050119Y021693D01*
X050137Y021650D01*
X050150Y021605D01*
X050160Y021559D01*
X050166Y021513D01*
X050168Y021466D01*
X050166Y021419D01*
X050160Y021373D01*
X050150Y021327D01*
X050137Y021282D01*
X050119Y021239D01*
X050098Y021197D01*
X050074Y021157D01*
X050046Y021120D01*
X050015Y021085D01*
X049981Y021052D01*
X049945Y021023D01*
X049906Y020997D01*
X049865Y020974D01*
X049822Y020955D01*
X049778Y020939D01*
X049733Y020927D01*
X049687Y020919D01*
X049640Y020915D01*
X049594Y020915D01*
X049547Y020919D01*
X049501Y020927D01*
X049456Y020939D01*
X049412Y020955D01*
X049369Y020974D01*
X049328Y020997D01*
X049289Y021023D01*
X049253Y021052D01*
X049219Y021085D01*
X049188Y021120D01*
X049160Y021157D01*
X049136Y021197D01*
X049115Y021239D01*
X049097Y021282D01*
X049084Y021327D01*
X049074Y021373D01*
X049068Y021419D01*
X049066Y021466D01*
X023746Y023536D02*
X023748Y023583D01*
X023754Y023629D01*
X023764Y023675D01*
X023777Y023720D01*
X023795Y023763D01*
X023816Y023805D01*
X023840Y023845D01*
X023868Y023882D01*
X023899Y023917D01*
X023933Y023950D01*
X023969Y023979D01*
X024008Y024005D01*
X024049Y024028D01*
X024092Y024047D01*
X024136Y024063D01*
X024181Y024075D01*
X024227Y024083D01*
X024274Y024087D01*
X024320Y024087D01*
X024367Y024083D01*
X024413Y024075D01*
X024458Y024063D01*
X024502Y024047D01*
X024545Y024028D01*
X024586Y024005D01*
X024625Y023979D01*
X024661Y023950D01*
X024695Y023917D01*
X024726Y023882D01*
X024754Y023845D01*
X024778Y023805D01*
X024799Y023763D01*
X024817Y023720D01*
X024830Y023675D01*
X024840Y023629D01*
X024846Y023583D01*
X024848Y023536D01*
X024846Y023489D01*
X024840Y023443D01*
X024830Y023397D01*
X024817Y023352D01*
X024799Y023309D01*
X024778Y023267D01*
X024754Y023227D01*
X024726Y023190D01*
X024695Y023155D01*
X024661Y023122D01*
X024625Y023093D01*
X024586Y023067D01*
X024545Y023044D01*
X024502Y023025D01*
X024458Y023009D01*
X024413Y022997D01*
X024367Y022989D01*
X024320Y022985D01*
X024274Y022985D01*
X024227Y022989D01*
X024181Y022997D01*
X024136Y023009D01*
X024092Y023025D01*
X024049Y023044D01*
X024008Y023067D01*
X023969Y023093D01*
X023933Y023122D01*
X023899Y023155D01*
X023868Y023190D01*
X023840Y023227D01*
X023816Y023267D01*
X023795Y023309D01*
X023777Y023352D01*
X023764Y023397D01*
X023754Y023443D01*
X023748Y023489D01*
X023746Y023536D01*
X018540Y025510D02*
X018542Y025549D01*
X018548Y025588D01*
X018558Y025626D01*
X018571Y025663D01*
X018588Y025698D01*
X018608Y025732D01*
X018632Y025763D01*
X018659Y025792D01*
X018688Y025818D01*
X018720Y025841D01*
X018754Y025861D01*
X018790Y025877D01*
X018827Y025889D01*
X018866Y025898D01*
X018905Y025903D01*
X018944Y025904D01*
X018983Y025901D01*
X019022Y025894D01*
X019059Y025883D01*
X019096Y025869D01*
X019131Y025851D01*
X019164Y025830D01*
X019195Y025805D01*
X019223Y025778D01*
X019248Y025748D01*
X019270Y025715D01*
X019289Y025681D01*
X019304Y025645D01*
X019316Y025607D01*
X019324Y025569D01*
X019328Y025530D01*
X019328Y025490D01*
X019324Y025451D01*
X019316Y025413D01*
X019304Y025375D01*
X019289Y025339D01*
X019270Y025305D01*
X019248Y025272D01*
X019223Y025242D01*
X019195Y025215D01*
X019164Y025190D01*
X019131Y025169D01*
X019096Y025151D01*
X019059Y025137D01*
X019022Y025126D01*
X018983Y025119D01*
X018944Y025116D01*
X018905Y025117D01*
X018866Y025122D01*
X018827Y025131D01*
X018790Y025143D01*
X018754Y025159D01*
X018720Y025179D01*
X018688Y025202D01*
X018659Y025228D01*
X018632Y025257D01*
X018608Y025288D01*
X018588Y025322D01*
X018571Y025357D01*
X018558Y025394D01*
X018548Y025432D01*
X018542Y025471D01*
X018540Y025510D01*
X018570Y028340D02*
X018572Y028379D01*
X018578Y028418D01*
X018588Y028456D01*
X018601Y028493D01*
X018618Y028528D01*
X018638Y028562D01*
X018662Y028593D01*
X018689Y028622D01*
X018718Y028648D01*
X018750Y028671D01*
X018784Y028691D01*
X018820Y028707D01*
X018857Y028719D01*
X018896Y028728D01*
X018935Y028733D01*
X018974Y028734D01*
X019013Y028731D01*
X019052Y028724D01*
X019089Y028713D01*
X019126Y028699D01*
X019161Y028681D01*
X019194Y028660D01*
X019225Y028635D01*
X019253Y028608D01*
X019278Y028578D01*
X019300Y028545D01*
X019319Y028511D01*
X019334Y028475D01*
X019346Y028437D01*
X019354Y028399D01*
X019358Y028360D01*
X019358Y028320D01*
X019354Y028281D01*
X019346Y028243D01*
X019334Y028205D01*
X019319Y028169D01*
X019300Y028135D01*
X019278Y028102D01*
X019253Y028072D01*
X019225Y028045D01*
X019194Y028020D01*
X019161Y027999D01*
X019126Y027981D01*
X019089Y027967D01*
X019052Y027956D01*
X019013Y027949D01*
X018974Y027946D01*
X018935Y027947D01*
X018896Y027952D01*
X018857Y027961D01*
X018820Y027973D01*
X018784Y027989D01*
X018750Y028009D01*
X018718Y028032D01*
X018689Y028058D01*
X018662Y028087D01*
X018638Y028118D01*
X018618Y028152D01*
X018601Y028187D01*
X018588Y028224D01*
X018578Y028262D01*
X018572Y028301D01*
X018570Y028340D01*
X018570Y032340D02*
X018572Y032379D01*
X018578Y032418D01*
X018588Y032456D01*
X018601Y032493D01*
X018618Y032528D01*
X018638Y032562D01*
X018662Y032593D01*
X018689Y032622D01*
X018718Y032648D01*
X018750Y032671D01*
X018784Y032691D01*
X018820Y032707D01*
X018857Y032719D01*
X018896Y032728D01*
X018935Y032733D01*
X018974Y032734D01*
X019013Y032731D01*
X019052Y032724D01*
X019089Y032713D01*
X019126Y032699D01*
X019161Y032681D01*
X019194Y032660D01*
X019225Y032635D01*
X019253Y032608D01*
X019278Y032578D01*
X019300Y032545D01*
X019319Y032511D01*
X019334Y032475D01*
X019346Y032437D01*
X019354Y032399D01*
X019358Y032360D01*
X019358Y032320D01*
X019354Y032281D01*
X019346Y032243D01*
X019334Y032205D01*
X019319Y032169D01*
X019300Y032135D01*
X019278Y032102D01*
X019253Y032072D01*
X019225Y032045D01*
X019194Y032020D01*
X019161Y031999D01*
X019126Y031981D01*
X019089Y031967D01*
X019052Y031956D01*
X019013Y031949D01*
X018974Y031946D01*
X018935Y031947D01*
X018896Y031952D01*
X018857Y031961D01*
X018820Y031973D01*
X018784Y031989D01*
X018750Y032009D01*
X018718Y032032D01*
X018689Y032058D01*
X018662Y032087D01*
X018638Y032118D01*
X018618Y032152D01*
X018601Y032187D01*
X018588Y032224D01*
X018578Y032262D01*
X018572Y032301D01*
X018570Y032340D01*
X018570Y035051D02*
X018572Y035090D01*
X018578Y035129D01*
X018588Y035167D01*
X018601Y035204D01*
X018618Y035239D01*
X018638Y035273D01*
X018662Y035304D01*
X018689Y035333D01*
X018718Y035359D01*
X018750Y035382D01*
X018784Y035402D01*
X018820Y035418D01*
X018857Y035430D01*
X018896Y035439D01*
X018935Y035444D01*
X018974Y035445D01*
X019013Y035442D01*
X019052Y035435D01*
X019089Y035424D01*
X019126Y035410D01*
X019161Y035392D01*
X019194Y035371D01*
X019225Y035346D01*
X019253Y035319D01*
X019278Y035289D01*
X019300Y035256D01*
X019319Y035222D01*
X019334Y035186D01*
X019346Y035148D01*
X019354Y035110D01*
X019358Y035071D01*
X019358Y035031D01*
X019354Y034992D01*
X019346Y034954D01*
X019334Y034916D01*
X019319Y034880D01*
X019300Y034846D01*
X019278Y034813D01*
X019253Y034783D01*
X019225Y034756D01*
X019194Y034731D01*
X019161Y034710D01*
X019126Y034692D01*
X019089Y034678D01*
X019052Y034667D01*
X019013Y034660D01*
X018974Y034657D01*
X018935Y034658D01*
X018896Y034663D01*
X018857Y034672D01*
X018820Y034684D01*
X018784Y034700D01*
X018750Y034720D01*
X018718Y034743D01*
X018689Y034769D01*
X018662Y034798D01*
X018638Y034829D01*
X018618Y034863D01*
X018601Y034898D01*
X018588Y034935D01*
X018578Y034973D01*
X018572Y035012D01*
X018570Y035051D01*
X018570Y039051D02*
X018572Y039090D01*
X018578Y039129D01*
X018588Y039167D01*
X018601Y039204D01*
X018618Y039239D01*
X018638Y039273D01*
X018662Y039304D01*
X018689Y039333D01*
X018718Y039359D01*
X018750Y039382D01*
X018784Y039402D01*
X018820Y039418D01*
X018857Y039430D01*
X018896Y039439D01*
X018935Y039444D01*
X018974Y039445D01*
X019013Y039442D01*
X019052Y039435D01*
X019089Y039424D01*
X019126Y039410D01*
X019161Y039392D01*
X019194Y039371D01*
X019225Y039346D01*
X019253Y039319D01*
X019278Y039289D01*
X019300Y039256D01*
X019319Y039222D01*
X019334Y039186D01*
X019346Y039148D01*
X019354Y039110D01*
X019358Y039071D01*
X019358Y039031D01*
X019354Y038992D01*
X019346Y038954D01*
X019334Y038916D01*
X019319Y038880D01*
X019300Y038846D01*
X019278Y038813D01*
X019253Y038783D01*
X019225Y038756D01*
X019194Y038731D01*
X019161Y038710D01*
X019126Y038692D01*
X019089Y038678D01*
X019052Y038667D01*
X019013Y038660D01*
X018974Y038657D01*
X018935Y038658D01*
X018896Y038663D01*
X018857Y038672D01*
X018820Y038684D01*
X018784Y038700D01*
X018750Y038720D01*
X018718Y038743D01*
X018689Y038769D01*
X018662Y038798D01*
X018638Y038829D01*
X018618Y038863D01*
X018601Y038898D01*
X018588Y038935D01*
X018578Y038973D01*
X018572Y039012D01*
X018570Y039051D01*
X018540Y021510D02*
X018542Y021549D01*
X018548Y021588D01*
X018558Y021626D01*
X018571Y021663D01*
X018588Y021698D01*
X018608Y021732D01*
X018632Y021763D01*
X018659Y021792D01*
X018688Y021818D01*
X018720Y021841D01*
X018754Y021861D01*
X018790Y021877D01*
X018827Y021889D01*
X018866Y021898D01*
X018905Y021903D01*
X018944Y021904D01*
X018983Y021901D01*
X019022Y021894D01*
X019059Y021883D01*
X019096Y021869D01*
X019131Y021851D01*
X019164Y021830D01*
X019195Y021805D01*
X019223Y021778D01*
X019248Y021748D01*
X019270Y021715D01*
X019289Y021681D01*
X019304Y021645D01*
X019316Y021607D01*
X019324Y021569D01*
X019328Y021530D01*
X019328Y021490D01*
X019324Y021451D01*
X019316Y021413D01*
X019304Y021375D01*
X019289Y021339D01*
X019270Y021305D01*
X019248Y021272D01*
X019223Y021242D01*
X019195Y021215D01*
X019164Y021190D01*
X019131Y021169D01*
X019096Y021151D01*
X019059Y021137D01*
X019022Y021126D01*
X018983Y021119D01*
X018944Y021116D01*
X018905Y021117D01*
X018866Y021122D01*
X018827Y021131D01*
X018790Y021143D01*
X018754Y021159D01*
X018720Y021179D01*
X018688Y021202D01*
X018659Y021228D01*
X018632Y021257D01*
X018608Y021288D01*
X018588Y021322D01*
X018571Y021357D01*
X018558Y021394D01*
X018548Y021432D01*
X018542Y021471D01*
X018540Y021510D01*
X048976Y053986D02*
X048978Y054033D01*
X048984Y054079D01*
X048994Y054125D01*
X049007Y054170D01*
X049025Y054213D01*
X049046Y054255D01*
X049070Y054295D01*
X049098Y054332D01*
X049129Y054367D01*
X049163Y054400D01*
X049199Y054429D01*
X049238Y054455D01*
X049279Y054478D01*
X049322Y054497D01*
X049366Y054513D01*
X049411Y054525D01*
X049457Y054533D01*
X049504Y054537D01*
X049550Y054537D01*
X049597Y054533D01*
X049643Y054525D01*
X049688Y054513D01*
X049732Y054497D01*
X049775Y054478D01*
X049816Y054455D01*
X049855Y054429D01*
X049891Y054400D01*
X049925Y054367D01*
X049956Y054332D01*
X049984Y054295D01*
X050008Y054255D01*
X050029Y054213D01*
X050047Y054170D01*
X050060Y054125D01*
X050070Y054079D01*
X050076Y054033D01*
X050078Y053986D01*
X050076Y053939D01*
X050070Y053893D01*
X050060Y053847D01*
X050047Y053802D01*
X050029Y053759D01*
X050008Y053717D01*
X049984Y053677D01*
X049956Y053640D01*
X049925Y053605D01*
X049891Y053572D01*
X049855Y053543D01*
X049816Y053517D01*
X049775Y053494D01*
X049732Y053475D01*
X049688Y053459D01*
X049643Y053447D01*
X049597Y053439D01*
X049550Y053435D01*
X049504Y053435D01*
X049457Y053439D01*
X049411Y053447D01*
X049366Y053459D01*
X049322Y053475D01*
X049279Y053494D01*
X049238Y053517D01*
X049199Y053543D01*
X049163Y053572D01*
X049129Y053605D01*
X049098Y053640D01*
X049070Y053677D01*
X049046Y053717D01*
X049025Y053759D01*
X049007Y053802D01*
X048994Y053847D01*
X048984Y053893D01*
X048978Y053939D01*
X048976Y053986D01*
X016936Y058246D02*
X016938Y058293D01*
X016944Y058339D01*
X016954Y058385D01*
X016967Y058430D01*
X016985Y058473D01*
X017006Y058515D01*
X017030Y058555D01*
X017058Y058592D01*
X017089Y058627D01*
X017123Y058660D01*
X017159Y058689D01*
X017198Y058715D01*
X017239Y058738D01*
X017282Y058757D01*
X017326Y058773D01*
X017371Y058785D01*
X017417Y058793D01*
X017464Y058797D01*
X017510Y058797D01*
X017557Y058793D01*
X017603Y058785D01*
X017648Y058773D01*
X017692Y058757D01*
X017735Y058738D01*
X017776Y058715D01*
X017815Y058689D01*
X017851Y058660D01*
X017885Y058627D01*
X017916Y058592D01*
X017944Y058555D01*
X017968Y058515D01*
X017989Y058473D01*
X018007Y058430D01*
X018020Y058385D01*
X018030Y058339D01*
X018036Y058293D01*
X018038Y058246D01*
X018036Y058199D01*
X018030Y058153D01*
X018020Y058107D01*
X018007Y058062D01*
X017989Y058019D01*
X017968Y057977D01*
X017944Y057937D01*
X017916Y057900D01*
X017885Y057865D01*
X017851Y057832D01*
X017815Y057803D01*
X017776Y057777D01*
X017735Y057754D01*
X017692Y057735D01*
X017648Y057719D01*
X017603Y057707D01*
X017557Y057699D01*
X017510Y057695D01*
X017464Y057695D01*
X017417Y057699D01*
X017371Y057707D01*
X017326Y057719D01*
X017282Y057735D01*
X017239Y057754D01*
X017198Y057777D01*
X017159Y057803D01*
X017123Y057832D01*
X017089Y057865D01*
X017058Y057900D01*
X017030Y057937D01*
X017006Y057977D01*
X016985Y058019D01*
X016967Y058062D01*
X016954Y058107D01*
X016944Y058153D01*
X016938Y058199D01*
X016936Y058246D01*
D12*
X038607Y022696D02*
X045747Y022696D01*
X045853Y022693D01*
X045958Y022686D01*
X046063Y022673D01*
X046167Y022656D01*
X046270Y022633D01*
X046372Y022606D01*
X046473Y022574D01*
X046572Y022537D01*
X046669Y022495D01*
X046764Y022449D01*
X046857Y022399D01*
X046947Y022344D01*
X047035Y022284D01*
X047119Y022221D01*
X047201Y022154D01*
X047279Y022083D01*
X047354Y022008D01*
X047425Y021930D01*
X047492Y021848D01*
X047555Y021764D01*
X047615Y021676D01*
X047670Y021586D01*
X047720Y021493D01*
X047766Y021398D01*
X047808Y021301D01*
X047845Y021202D01*
X047877Y021101D01*
X047904Y020999D01*
X047927Y020896D01*
X047944Y020792D01*
X047957Y020687D01*
X047964Y020582D01*
X047967Y020476D01*
X047967Y020206D01*
X052977Y020206D01*
X038607Y022696D02*
X038501Y022693D01*
X038396Y022686D01*
X038291Y022673D01*
X038187Y022656D01*
X038084Y022633D01*
X037982Y022606D01*
X037881Y022574D01*
X037782Y022537D01*
X037685Y022495D01*
X037590Y022449D01*
X037497Y022399D01*
X037407Y022344D01*
X037319Y022284D01*
X037235Y022221D01*
X037153Y022154D01*
X037075Y022083D01*
X037000Y022008D01*
X036929Y021930D01*
X036862Y021848D01*
X036799Y021764D01*
X036739Y021676D01*
X036684Y021586D01*
X036634Y021493D01*
X036588Y021398D01*
X036546Y021301D01*
X036509Y021202D01*
X036477Y021101D01*
X036450Y020999D01*
X036427Y020896D01*
X036410Y020792D01*
X036397Y020687D01*
X036390Y020582D01*
X036387Y020476D01*
X036387Y020236D01*
X016497Y020236D01*
D13*
X018633Y049996D03*
D14*
X018633Y048996D03*
X018633Y047996D03*
X018633Y046996D03*
X022493Y038057D03*
X022493Y037070D03*
X022523Y031376D03*
X022523Y030390D03*
X022523Y024516D03*
X022523Y023530D03*
X029586Y023516D03*
X029586Y022516D03*
X029586Y029376D03*
X029586Y030376D03*
X029556Y036057D03*
X029556Y037057D03*
D15*
X024638Y030502D03*
X023850Y030502D03*
X023860Y029136D03*
X024648Y029136D03*
X034141Y027201D03*
X034929Y027201D03*
X036353Y034966D03*
X037140Y034966D03*
X037140Y039376D03*
X036353Y039376D03*
X040643Y039406D03*
X041430Y039406D03*
X049133Y041236D03*
X049920Y041236D03*
X049830Y036226D03*
X049890Y035176D03*
X049103Y035176D03*
X049043Y036226D03*
X049272Y029147D03*
X050060Y029147D03*
X048530Y029143D03*
X047742Y029143D03*
X047733Y027157D03*
X048520Y027157D03*
X049243Y027171D03*
X050030Y027171D03*
D16*
X051156Y022190D03*
X032156Y022190D03*
D17*
X032156Y023190D03*
X032156Y024190D03*
X032156Y025190D03*
X032156Y026190D03*
X032156Y027190D03*
X032156Y028190D03*
X032156Y029190D03*
X032156Y030190D03*
X032156Y031190D03*
X032156Y032190D03*
X032156Y033190D03*
X032156Y034190D03*
X032156Y035190D03*
X032156Y036190D03*
X032156Y037190D03*
X032156Y038190D03*
X032156Y039190D03*
X032156Y040190D03*
X032156Y041190D03*
X032156Y042190D03*
X032156Y043190D03*
X032156Y044190D03*
X033156Y044190D03*
X033156Y043190D03*
X033156Y042190D03*
X033156Y041190D03*
X033156Y040190D03*
X033156Y039190D03*
X033156Y038190D03*
X033156Y037190D03*
X033156Y036190D03*
X033156Y035190D03*
X033156Y034190D03*
X033156Y033190D03*
X033156Y032190D03*
X033156Y031190D03*
X033156Y030190D03*
X033156Y029190D03*
X033156Y028190D03*
X033156Y027190D03*
X033156Y026190D03*
X033156Y025190D03*
X033156Y024190D03*
X033156Y023190D03*
X033156Y022190D03*
X051156Y023190D03*
X051156Y024190D03*
X051156Y025190D03*
X051156Y026190D03*
X051156Y027190D03*
X051156Y028190D03*
X051156Y029190D03*
X051156Y030190D03*
X051156Y031190D03*
X051156Y032190D03*
X051156Y033190D03*
X051156Y034190D03*
X051156Y035190D03*
X051156Y036190D03*
X051156Y037190D03*
X051156Y038190D03*
X051156Y039190D03*
X051156Y040190D03*
X051156Y041190D03*
X051156Y042190D03*
X051156Y043190D03*
X051156Y044190D03*
X052156Y044190D03*
X052156Y043190D03*
X052156Y042190D03*
X052156Y041190D03*
X052156Y040190D03*
X052156Y039190D03*
X052156Y038190D03*
X052156Y037190D03*
X052156Y036190D03*
X052156Y035190D03*
X052156Y034190D03*
X052156Y033190D03*
X052156Y032190D03*
X052156Y031190D03*
X052156Y030190D03*
X052156Y029190D03*
X052156Y028190D03*
X052156Y027190D03*
X052156Y026190D03*
X052156Y025190D03*
X052156Y024190D03*
X052156Y023190D03*
X052156Y022190D03*
D18*
X020934Y022510D03*
X020934Y023510D03*
X020964Y029340D03*
X020964Y030340D03*
X020964Y036051D03*
X020964Y037051D03*
D19*
X022493Y036057D03*
X021867Y041423D03*
X021867Y042249D03*
X029556Y038057D03*
X029586Y031376D03*
X029586Y024516D03*
X022523Y022516D03*
X022523Y029376D03*
D20*
X019017Y040796D02*
X018417Y040796D01*
X018417Y041796D02*
X019017Y041796D01*
X018936Y043169D02*
X018336Y043169D01*
X018336Y044169D02*
X018936Y044169D01*
X018936Y045169D02*
X018336Y045169D01*
X021187Y045712D02*
X021787Y045712D01*
X021787Y043932D02*
X021187Y043932D01*
X023747Y043932D02*
X024347Y043932D01*
X024347Y045712D02*
X023747Y045712D01*
X018945Y051957D02*
X018345Y051957D01*
X018345Y052957D02*
X018945Y052957D01*
X018945Y053957D02*
X018345Y053957D01*
X018345Y054957D02*
X018945Y054957D01*
X018945Y055957D02*
X018345Y055957D01*
D21*
X021117Y042200D03*
X021117Y041412D03*
X035367Y037400D03*
X035367Y036612D03*
X035367Y033020D03*
X035367Y032232D03*
X039747Y036612D03*
X039747Y037400D03*
X047258Y039560D03*
X047258Y040347D03*
X047474Y032442D03*
X047474Y031655D03*
D22*
X051902Y048598D03*
X051902Y049858D03*
X049870Y050061D03*
X049870Y051321D03*
D23*
X045713Y040603D03*
X045713Y040103D03*
X045713Y039603D03*
X045713Y039103D03*
X045713Y038603D03*
X045713Y038103D03*
X045713Y037603D03*
X045713Y037103D03*
X043293Y037103D03*
X043293Y037603D03*
X043293Y038103D03*
X043293Y038603D03*
X043293Y039103D03*
X043293Y039603D03*
X043293Y040103D03*
X043293Y040603D03*
D24*
X042573Y034838D03*
X042573Y034338D03*
X042573Y033838D03*
X042573Y033338D03*
X042573Y032838D03*
X042573Y032338D03*
X042573Y031838D03*
X042573Y031338D03*
X046273Y031338D03*
X046273Y031838D03*
X046273Y032338D03*
X046273Y032838D03*
X046273Y033338D03*
X046273Y033838D03*
X046273Y034338D03*
X046273Y034838D03*
D25*
X025546Y054889D03*
X025546Y055385D03*
X025546Y055881D03*
X025546Y056377D03*
X025546Y056873D03*
X025546Y057369D03*
X025546Y057865D03*
D26*
X022672Y056420D03*
D27*
X027649Y057596D02*
X028534Y057596D01*
X028519Y055096D02*
X027634Y055096D01*
X033634Y055096D02*
X034519Y055096D01*
X034534Y057596D02*
X033649Y057596D01*
X037879Y057607D02*
X038764Y057607D01*
X038794Y055094D02*
X037909Y055094D01*
X043909Y055094D02*
X044794Y055094D01*
X044764Y057607D02*
X043879Y057607D01*
D28*
X050198Y052533D03*
X050946Y052533D03*
D29*
X028132Y053081D03*
X028132Y053829D03*
D30*
X047477Y052086D03*
X047477Y050196D03*
D31*
X032912Y051486D03*
X029368Y051486D03*
D32*
X046558Y056056D02*
X046558Y056896D01*
X047936Y056896D02*
X047936Y056056D01*
X050218Y056056D02*
X050218Y056896D01*
X051596Y056896D02*
X051596Y056056D01*
D33*
X029907Y044896D02*
X029907Y044416D01*
X028907Y044416D02*
X028907Y044896D01*
X027907Y044896D02*
X027907Y044416D01*
X026907Y044416D02*
X026907Y044896D01*
X026907Y041896D02*
X026907Y041416D01*
X027907Y041416D02*
X027907Y041896D01*
X028907Y041896D02*
X028907Y041416D01*
X029907Y041416D02*
X029907Y041896D01*
D34*
X037257Y037658D03*
X037631Y036714D03*
X036883Y036714D03*
X037167Y033158D03*
X037541Y032214D03*
X036793Y032214D03*
X041053Y036744D03*
X041801Y036744D03*
X041427Y037688D03*
D35*
X024997Y041446D02*
X024997Y041986D01*
X023997Y041986D02*
X023997Y041446D01*
X022997Y041446D02*
X022997Y041986D01*
D36*
X023997Y041716D02*
X023997Y041026D01*
X024387Y040696D01*
X030897Y040696D01*
X030777Y042856D02*
X028557Y042856D01*
X027907Y041996D01*
X027907Y041656D01*
X030777Y042856D02*
X031137Y043216D01*
X031137Y044656D01*
X032127Y045646D01*
X033177Y045646D01*
X035637Y040696D02*
X036079Y040696D01*
X036353Y040422D01*
X038247Y040426D01*
X038247Y036136D01*
X037677Y035566D01*
X036537Y035566D01*
X036353Y035382D01*
X036353Y034966D01*
X037140Y034966D02*
X037167Y034940D01*
X037167Y033158D01*
X037541Y032214D02*
X037143Y031696D01*
X035847Y031696D01*
X035430Y032232D01*
X035367Y032232D01*
X035310Y032176D01*
X034467Y032176D01*
X033453Y033190D01*
X033156Y033190D01*
X034137Y033466D02*
X034917Y033466D01*
X034917Y034546D01*
X034407Y034576D02*
X034017Y034186D01*
X033160Y034186D01*
X033156Y034190D01*
X034407Y034576D02*
X034407Y036226D01*
X034737Y036556D01*
X035367Y036556D01*
X035847Y036076D01*
X037467Y036076D01*
X037647Y036256D01*
X037647Y036698D01*
X037631Y036714D01*
X036883Y036714D02*
X036845Y036676D01*
X036267Y036676D01*
X035543Y037400D01*
X035367Y037400D01*
X035427Y037460D01*
X035427Y038116D01*
X036353Y039376D02*
X036353Y040422D01*
X038247Y040426D02*
X039593Y040426D01*
X040103Y039946D01*
X040643Y039406D01*
X041427Y039402D02*
X041430Y039406D01*
X041427Y039402D02*
X041427Y037688D01*
X041801Y036744D02*
X041817Y036728D01*
X041817Y036286D01*
X041577Y036046D01*
X040167Y036046D01*
X039747Y036466D01*
X039747Y036612D01*
X038787Y036972D01*
X038787Y039766D01*
X039747Y037966D02*
X039747Y037400D01*
X039983Y037400D01*
X040497Y036886D01*
X040497Y036856D01*
X040677Y036676D01*
X040985Y036676D01*
X041053Y036744D01*
X042573Y034838D02*
X042595Y034816D01*
X043407Y034816D01*
X042573Y034838D02*
X042573Y034338D01*
X042573Y033838D01*
X042573Y033338D01*
X042573Y032838D01*
X042573Y032338D01*
X042573Y031838D02*
X042521Y031786D01*
X041037Y031786D01*
X040441Y031190D01*
X033156Y031190D01*
X033777Y030676D02*
X040737Y030676D01*
X041367Y031306D01*
X042541Y031306D01*
X042573Y031338D01*
X045365Y034838D02*
X045357Y034846D01*
X045365Y034838D02*
X046273Y034838D01*
X046273Y034338D01*
X046273Y033838D01*
X046273Y033338D01*
X046291Y032356D02*
X046273Y032338D01*
X046291Y032356D02*
X046917Y032356D01*
X047003Y032442D01*
X047474Y032442D01*
X047474Y031655D02*
X047425Y031606D01*
X047007Y031606D01*
X046775Y031838D01*
X046273Y031838D01*
X048027Y029866D02*
X048747Y029866D01*
X049047Y030166D01*
X049047Y035120D01*
X049103Y035176D01*
X049103Y036166D01*
X049043Y036226D01*
X049827Y036230D02*
X049830Y036226D01*
X049827Y036230D02*
X049827Y037606D01*
X048120Y039560D02*
X048447Y039886D01*
X048447Y047536D01*
X049437Y048526D01*
X051895Y048526D01*
X051902Y048598D01*
X049077Y045616D02*
X049077Y042526D01*
X049917Y041240D02*
X049920Y041236D01*
X049917Y041240D02*
X049917Y044626D01*
X047967Y045856D02*
X047967Y040996D01*
X047258Y040347D02*
X047002Y040603D01*
X045713Y040603D01*
X045713Y040103D02*
X045780Y040036D01*
X046377Y040036D01*
X046853Y039560D01*
X047258Y039560D01*
X048120Y039560D01*
X049890Y035176D02*
X049947Y035120D01*
X049947Y034186D01*
X048027Y029866D02*
X047742Y029582D01*
X047742Y029143D01*
X047742Y027166D01*
X047733Y027157D01*
X047037Y027157D01*
X047037Y027136D01*
X047007Y025996D02*
X048087Y025996D01*
X048520Y026430D01*
X048520Y027157D01*
X048534Y027171D01*
X049243Y027171D01*
X050030Y027171D02*
X051137Y027171D01*
X051156Y027190D01*
X050667Y028696D02*
X050216Y029147D01*
X050060Y029147D01*
X049272Y029147D02*
X049268Y029143D01*
X048530Y029143D01*
X048530Y028599D01*
X048327Y028396D01*
X047097Y028396D02*
X046617Y028396D01*
X046407Y028186D01*
X046407Y023596D01*
X046017Y023206D01*
X035997Y023236D01*
X034047Y021286D01*
X020847Y021346D01*
X019947Y022156D01*
X019947Y048316D01*
X019377Y049006D01*
X018643Y049006D01*
X018633Y048996D01*
X018633Y049996D02*
X018633Y049996D01*
X019677Y049996D01*
X020487Y049186D01*
X020487Y046306D01*
X020487Y038956D01*
X021387Y038056D01*
X021742Y038056D01*
X022493Y038057D01*
X023217Y037333D01*
X023217Y035806D01*
X022523Y035112D01*
X022523Y031376D01*
X023367Y030532D01*
X023367Y030496D01*
X023762Y030502D01*
X023850Y030502D01*
X023367Y030496D02*
X023367Y029146D01*
X023727Y029136D01*
X023860Y029136D01*
X023367Y029146D02*
X022523Y028302D01*
X022523Y024516D01*
X023217Y023823D01*
X023217Y022306D01*
X023997Y021826D01*
X030657Y021826D01*
X031197Y022126D01*
X031197Y022696D01*
X031691Y023190D01*
X032156Y023190D01*
X033156Y023190D01*
X034467Y022666D02*
X035457Y023716D01*
X044967Y023716D01*
X045777Y024286D01*
X045747Y025966D01*
X036793Y032214D02*
X036755Y032176D01*
X036357Y032176D01*
X036237Y032296D01*
X036237Y032626D01*
X035843Y033020D01*
X035367Y033020D01*
X035303Y032956D01*
X034917Y033466D01*
X035367Y036556D02*
X035367Y036612D01*
X032156Y031190D02*
X032122Y031156D01*
X031527Y031156D01*
X030747Y030376D01*
X029586Y030376D01*
X028586Y030526D01*
X027861Y030502D01*
X024638Y030502D01*
X024648Y029136D02*
X025027Y028666D01*
X025027Y025386D01*
X027256Y022516D01*
X029586Y022516D01*
X030237Y023167D01*
X030237Y028726D01*
X029586Y029376D01*
X029586Y029376D01*
X028587Y029986D02*
X028586Y030526D01*
X028587Y029986D02*
X028587Y024426D01*
X029586Y023516D01*
X034137Y025936D02*
X034929Y026728D01*
X034929Y027201D01*
X034917Y028066D02*
X034917Y028186D01*
X034107Y028996D01*
X034107Y029446D01*
X042237Y040606D02*
X042237Y047236D01*
X047127Y046246D02*
X047577Y046246D01*
X047967Y045856D01*
X027477Y056026D02*
X026386Y055385D01*
X025546Y055385D01*
X025551Y055876D02*
X025546Y055881D01*
X025551Y055876D02*
X026247Y055876D01*
X026397Y056086D01*
X026577Y056326D01*
X026214Y054889D02*
X025546Y054889D01*
X026187Y054826D02*
X026214Y054889D01*
X022827Y047775D02*
X018645Y051957D01*
X022827Y047775D02*
X022827Y043486D01*
X023427Y042886D01*
X024537Y042886D01*
X024997Y042426D01*
X024997Y041716D01*
D37*
X023337Y040396D03*
X024027Y039556D03*
X021387Y038896D03*
X021627Y042856D03*
X020487Y046306D03*
X027477Y056026D03*
X026607Y057406D03*
X033177Y045646D03*
X030897Y040696D03*
X034857Y038956D03*
X035427Y038116D03*
X035637Y040696D03*
X038787Y039766D03*
X039747Y037966D03*
X038367Y034906D03*
X039807Y034156D03*
X043407Y034816D03*
X043437Y036436D03*
X044247Y037096D03*
X044307Y038776D03*
X044937Y039616D03*
X042237Y040606D03*
X047127Y046246D03*
X049077Y045616D03*
X049917Y044626D03*
X049077Y042526D03*
X047967Y040996D03*
X049827Y037606D03*
X049947Y034186D03*
X045357Y034846D03*
X044727Y032326D03*
X047097Y028396D03*
X048327Y028396D03*
X047037Y027136D03*
X047007Y025996D03*
X045747Y025966D03*
X036327Y025186D03*
X034467Y022666D03*
X036237Y022516D03*
X034137Y025936D03*
X034917Y028066D03*
X034107Y029446D03*
X030927Y026536D03*
X034137Y033466D03*
X034917Y034546D03*
X042237Y047236D03*
D38*
X042237Y040606D02*
X042240Y040603D01*
X043293Y040603D01*
X043293Y040103D02*
X043893Y040103D01*
X044337Y040546D01*
X045656Y040546D01*
X045713Y040603D01*
X044307Y039316D02*
X044307Y038776D01*
X044307Y039316D02*
X044037Y039586D01*
X043310Y039586D01*
X043293Y039603D01*
X043293Y040103D01*
X043293Y039103D02*
X042683Y039103D01*
X042357Y038776D01*
X042357Y035866D01*
X041817Y035326D01*
X038787Y035326D01*
X038367Y034906D01*
X043437Y036436D02*
X044037Y035836D01*
X044066Y032204D01*
X044523Y031838D01*
X046273Y031838D01*
X046261Y032326D02*
X046273Y032338D01*
X046261Y032326D02*
X044727Y032326D01*
X044247Y037096D02*
X043970Y037103D01*
X043293Y037103D01*
X049043Y036226D02*
X049133Y036316D01*
X049133Y041236D01*
X049920Y041236D02*
X050490Y040666D01*
X050697Y040666D01*
X049830Y036226D02*
X050340Y035716D01*
X050697Y035716D01*
X050157Y035176D02*
X050637Y034696D01*
X050157Y035176D02*
X049890Y035176D01*
X034141Y027201D02*
X033167Y027201D01*
X033156Y027190D01*
X032142Y029176D02*
X031377Y029176D01*
X030927Y028726D01*
X030927Y026536D01*
X032142Y029176D02*
X032156Y029190D01*
X029556Y036057D02*
X026716Y036057D01*
X023337Y039436D01*
X023337Y040396D01*
X024027Y039556D02*
X024447Y039556D01*
X026997Y037006D01*
X029505Y037006D01*
X029556Y037057D01*
X022493Y037051D02*
X022493Y037070D01*
X022493Y037051D02*
X020964Y037051D01*
X020964Y036051D02*
X022493Y036051D01*
X022493Y036057D01*
X021387Y038896D02*
X021113Y039410D01*
X021117Y041412D01*
X021867Y042249D02*
X021627Y042856D01*
X022523Y030390D02*
X022523Y030340D01*
X020964Y030340D01*
X020964Y029340D02*
X022523Y029340D01*
X022523Y029376D01*
X022523Y023530D02*
X022523Y023510D01*
X020934Y023510D01*
X020934Y022510D02*
X022523Y022510D01*
X022523Y022516D01*
D39*
X032156Y031037D02*
X032517Y030676D01*
X033777Y030676D01*
X032156Y031037D02*
X032156Y031190D01*
X021867Y041423D02*
X021867Y041806D01*
X021837Y041836D01*
X021357Y041836D01*
X021117Y042076D01*
X021117Y042200D01*
X022287Y051736D02*
X022017Y052006D01*
X022047Y053926D01*
X021927Y054136D01*
X019317Y056746D01*
X019317Y058456D01*
X019647Y058876D01*
X023997Y058846D01*
X024627Y058216D01*
X024627Y054496D01*
X025047Y054076D01*
X025047Y054046D01*
X025527Y053566D01*
X025527Y051826D01*
X025407Y051706D01*
X022287Y051736D01*
X022249Y051774D02*
X025475Y051774D01*
X025527Y051933D02*
X022090Y051933D01*
X022018Y052091D02*
X025527Y052091D01*
X025527Y052250D02*
X022020Y052250D01*
X022023Y052408D02*
X025527Y052408D01*
X025527Y052567D02*
X022025Y052567D01*
X022028Y052725D02*
X025527Y052725D01*
X025527Y052884D02*
X022030Y052884D01*
X022033Y053042D02*
X025527Y053042D01*
X025527Y053201D02*
X022035Y053201D01*
X022038Y053359D02*
X025527Y053359D01*
X025527Y053518D02*
X022040Y053518D01*
X022043Y053676D02*
X025417Y053676D01*
X025258Y053835D02*
X022045Y053835D01*
X022008Y053993D02*
X025100Y053993D01*
X024971Y054152D02*
X021911Y054152D01*
X021753Y054310D02*
X024813Y054310D01*
X024654Y054469D02*
X021594Y054469D01*
X021436Y054627D02*
X024627Y054627D01*
X024627Y054786D02*
X021277Y054786D01*
X021119Y054944D02*
X024627Y054944D01*
X024627Y055103D02*
X020960Y055103D01*
X020967Y055187D02*
X022592Y055187D01*
X022592Y056340D01*
X022752Y056340D01*
X022752Y055187D01*
X024377Y055187D01*
X024422Y055200D01*
X024463Y055223D01*
X024497Y055257D01*
X024521Y055298D01*
X024533Y055344D01*
X024533Y056340D01*
X022752Y056340D01*
X022752Y056500D01*
X024533Y056500D01*
X024533Y057497D01*
X024521Y057543D01*
X024497Y057584D01*
X024463Y057618D01*
X024422Y057641D01*
X024377Y057654D01*
X022752Y057654D01*
X022752Y056500D01*
X022592Y056500D01*
X022592Y056340D01*
X020811Y056340D01*
X020811Y055344D01*
X020823Y055298D01*
X020847Y055257D01*
X020880Y055223D01*
X020921Y055200D01*
X020967Y055187D01*
X020844Y055261D02*
X020802Y055261D01*
X020811Y055420D02*
X020643Y055420D01*
X020485Y055578D02*
X020811Y055578D01*
X020811Y055737D02*
X020326Y055737D01*
X020168Y055895D02*
X020811Y055895D01*
X020811Y056054D02*
X020009Y056054D01*
X019851Y056212D02*
X020811Y056212D01*
X020811Y056500D02*
X022592Y056500D01*
X022592Y057654D01*
X020967Y057654D01*
X020921Y057641D01*
X020880Y057618D01*
X020847Y057584D01*
X020823Y057543D01*
X020811Y057497D01*
X020811Y056500D01*
X020811Y056529D02*
X019534Y056529D01*
X019692Y056371D02*
X022592Y056371D01*
X022592Y056529D02*
X022752Y056529D01*
X022752Y056371D02*
X024627Y056371D01*
X024627Y056529D02*
X024533Y056529D01*
X024533Y056688D02*
X024627Y056688D01*
X024627Y056846D02*
X024533Y056846D01*
X024533Y057005D02*
X024627Y057005D01*
X024627Y057163D02*
X024533Y057163D01*
X024533Y057322D02*
X024627Y057322D01*
X024627Y057480D02*
X024533Y057480D01*
X024627Y057639D02*
X024427Y057639D01*
X024627Y057797D02*
X019317Y057797D01*
X019317Y057639D02*
X020916Y057639D01*
X020811Y057480D02*
X019317Y057480D01*
X019317Y057322D02*
X020811Y057322D01*
X020811Y057163D02*
X019317Y057163D01*
X019317Y057005D02*
X020811Y057005D01*
X020811Y056846D02*
X019317Y056846D01*
X019375Y056688D02*
X020811Y056688D01*
X019317Y057956D02*
X024627Y057956D01*
X024627Y058114D02*
X019317Y058114D01*
X019317Y058273D02*
X024570Y058273D01*
X024412Y058431D02*
X019317Y058431D01*
X019422Y058590D02*
X024253Y058590D01*
X024095Y058748D02*
X019546Y058748D01*
X022592Y057639D02*
X022752Y057639D01*
X022752Y057480D02*
X022592Y057480D01*
X022592Y057322D02*
X022752Y057322D01*
X022752Y057163D02*
X022592Y057163D01*
X022592Y057005D02*
X022752Y057005D01*
X022752Y056846D02*
X022592Y056846D01*
X022592Y056688D02*
X022752Y056688D01*
X022752Y056212D02*
X022592Y056212D01*
X022592Y056054D02*
X022752Y056054D01*
X022752Y055895D02*
X022592Y055895D01*
X022592Y055737D02*
X022752Y055737D01*
X022752Y055578D02*
X022592Y055578D01*
X022592Y055420D02*
X022752Y055420D01*
X022752Y055261D02*
X022592Y055261D01*
X024499Y055261D02*
X024627Y055261D01*
X024627Y055420D02*
X024533Y055420D01*
X024533Y055578D02*
X024627Y055578D01*
X024627Y055737D02*
X024533Y055737D01*
X024533Y055895D02*
X024627Y055895D01*
X024627Y056054D02*
X024533Y056054D01*
X024533Y056212D02*
X024627Y056212D01*
X044937Y039616D02*
X044950Y039603D01*
X045713Y039603D01*
X050697Y040666D02*
X051627Y040666D01*
X052151Y041190D01*
X052156Y041190D01*
X052156Y036190D02*
X052156Y036185D01*
X051687Y035716D01*
X050697Y035716D01*
X050637Y034696D02*
X051662Y034696D01*
X052156Y035190D01*
X052156Y029190D02*
X051662Y028696D01*
X050667Y028696D01*
D40*
X050073Y049858D02*
X049870Y050061D01*
X047612Y050061D01*
X047477Y050196D01*
X047477Y052086D02*
X046476Y053086D01*
X034077Y053086D01*
X034077Y055096D01*
X034077Y053086D02*
X034077Y052651D01*
X032912Y051486D01*
X030717Y051826D02*
X030357Y051466D01*
X029389Y051466D01*
X029368Y051486D01*
X029269Y051586D01*
X028587Y051586D01*
X028132Y052041D01*
X028132Y053081D01*
X026732Y053081D01*
X026277Y053536D01*
X026297Y054826D01*
X026187Y054826D01*
X026577Y056326D02*
X026727Y056596D01*
X029277Y056596D01*
X029817Y056056D01*
X029817Y054586D01*
X029060Y053829D01*
X028132Y053829D01*
X030717Y051826D02*
X030717Y056476D01*
X029597Y057596D01*
X028091Y057596D01*
X026607Y057406D02*
X026570Y057369D01*
X022715Y056377D02*
X022672Y056420D01*
X019108Y056420D01*
X018645Y055957D01*
X038321Y055124D02*
X038351Y055094D01*
X042088Y055094D01*
X043467Y053716D01*
X047787Y053716D01*
X049164Y052339D01*
X050004Y052339D01*
X050198Y052533D01*
X050004Y052339D02*
X049870Y052205D01*
X049870Y051321D01*
X050959Y052546D02*
X051537Y052546D01*
X051777Y052546D01*
X051902Y052421D01*
X051902Y049858D01*
X050073Y049858D01*
X051596Y052605D02*
X051596Y056476D01*
X038321Y057607D02*
X038321Y055124D01*
D41*
X038351Y055094D02*
X038110Y055096D01*
X044113Y055096D02*
X044351Y055094D01*
X044321Y057607D02*
X044090Y057616D01*
X050946Y052533D02*
X050959Y052546D01*
X051537Y052546D02*
X051596Y052605D01*
X040797Y042316D02*
X041427Y041686D01*
X041427Y039402D01*
X040797Y042316D02*
X036297Y042316D01*
X035667Y042946D01*
X035667Y046936D01*
X035007Y047506D01*
X025767Y047506D01*
X024957Y048316D01*
X024957Y048346D01*
X021267Y051946D01*
X021267Y053866D01*
X020157Y054976D01*
X018664Y054976D01*
X018645Y054957D01*
X018645Y053957D02*
X020036Y053957D01*
X020547Y053446D01*
X020547Y051736D01*
X025467Y046816D01*
X034647Y046816D01*
X035037Y046426D01*
X035037Y039736D01*
X036717Y037666D01*
X037257Y037658D01*
X037257Y039260D01*
X037140Y039376D01*
X034857Y038956D02*
X034197Y039616D01*
X034197Y045706D01*
X033657Y046246D01*
X025017Y046246D01*
X019797Y051466D01*
X019797Y052546D01*
X019386Y052957D01*
X018645Y052957D01*
X018645Y051957D02*
X017318Y051957D01*
X016977Y051616D01*
X016977Y021916D01*
X018147Y020716D01*
X030417Y020686D01*
X034527Y020686D01*
X036237Y022516D01*
X035331Y024190D02*
X036327Y025186D01*
X036327Y029236D01*
X037107Y030016D01*
X046857Y030016D01*
X047487Y030646D01*
X047487Y031643D01*
X047474Y031655D01*
X039807Y034156D02*
X038164Y034156D01*
X037167Y033158D01*
X035331Y024190D02*
X033156Y024190D01*
X032156Y024190D01*
X022493Y038057D02*
X022493Y041212D01*
X022997Y041716D01*
X022715Y056377D02*
X025546Y056377D01*
X025546Y057369D02*
X026570Y057369D01*
D42*
X044090Y057616D02*
X044787Y057616D01*
X045927Y056476D01*
X046558Y056476D01*
X044113Y055096D02*
X049767Y055096D01*
X050218Y055397D01*
X050218Y056476D01*
M02*
