G75*
%MOIN*%
%OFA0B0*%
%FSLAX24Y24*%
%IPPOS*%
%LPD*%
%AMOC8*
5,1,8,0,0,1.08239X$1,22.5*
%
%ADD10R,0.1000X0.0270*%
%ADD11R,0.3000X0.1500*%
%ADD12C,0.1000*%
%ADD13R,0.0512X0.0591*%
%ADD14OC8,0.0630*%
%ADD15C,0.0630*%
%ADD16OC8,0.0600*%
%ADD17C,0.0550*%
%ADD18C,0.0900*%
%ADD19R,0.0591X0.0512*%
%ADD20C,0.0630*%
%ADD21R,0.0689X0.0256*%
%ADD22C,0.0200*%
%ADD23C,0.0160*%
%ADD24C,0.0360*%
%ADD25C,0.0100*%
D10*
X017430Y013610D03*
X017430Y014150D03*
X017430Y014690D03*
X017430Y015230D03*
X017430Y015770D03*
X017430Y016310D03*
X017430Y016850D03*
X020880Y021510D03*
X020880Y022050D03*
X020880Y022590D03*
X020880Y023130D03*
X020880Y023670D03*
X020880Y024210D03*
X020880Y024750D03*
X024930Y018650D03*
X024930Y018110D03*
X024930Y017570D03*
X024930Y017030D03*
X024930Y016490D03*
X024930Y015950D03*
X024930Y015410D03*
D11*
X021980Y017030D03*
X014480Y015230D03*
X017930Y023130D03*
D12*
X017830Y020060D02*
X016830Y020060D01*
X013430Y020060D02*
X012430Y020060D01*
X012430Y011200D02*
X013430Y011200D01*
X016830Y011200D02*
X017830Y011200D01*
D13*
X023325Y022190D03*
X023995Y022190D03*
X023905Y023620D03*
X023235Y023620D03*
X023295Y024530D03*
X023965Y024530D03*
D14*
X022290Y026350D03*
X027530Y018630D03*
X031330Y018710D03*
X032990Y016830D03*
X034530Y020980D03*
X026730Y013480D03*
D15*
X026730Y012080D03*
X032990Y015430D03*
X030330Y018710D03*
X026530Y018630D03*
X035930Y020980D03*
X021290Y026350D03*
D16*
X022360Y022740D03*
X028430Y016180D03*
X021766Y012994D03*
D17*
X021766Y013794D03*
X027630Y016180D03*
X022360Y021940D03*
D18*
X036080Y015180D02*
X036980Y015180D01*
X038080Y015180D02*
X038980Y015180D01*
X038980Y013180D02*
X038080Y013180D01*
X036980Y013180D02*
X036080Y013180D01*
X036080Y011180D02*
X036980Y011180D01*
X038080Y011180D02*
X038980Y011180D01*
X038980Y009180D02*
X038080Y009180D01*
X036980Y009180D02*
X036080Y009180D01*
X037752Y018006D02*
X038652Y018006D01*
X038652Y019506D02*
X037752Y019506D01*
X037752Y021006D02*
X038652Y021006D01*
X038652Y022506D02*
X037752Y022506D01*
X006980Y015080D02*
X006080Y015080D01*
X004980Y015080D02*
X004080Y015080D01*
X004080Y013080D02*
X004980Y013080D01*
X006080Y013080D02*
X006980Y013080D01*
X006980Y011080D02*
X006080Y011080D01*
X004980Y011080D02*
X004080Y011080D01*
X004080Y009080D02*
X004980Y009080D01*
X006080Y009080D02*
X006980Y009080D01*
D19*
X010780Y008184D03*
X010780Y007436D03*
X023430Y013595D03*
X023430Y014265D03*
X024940Y012585D03*
X024940Y011915D03*
X030680Y015495D03*
X030680Y016165D03*
X029680Y016145D03*
X029680Y016815D03*
X027780Y019656D03*
X027780Y020404D03*
D20*
X027930Y021865D02*
X027930Y022495D01*
X026930Y022495D02*
X026930Y021865D01*
X025930Y021865D02*
X025930Y022495D01*
X024930Y022495D02*
X024930Y021865D01*
X029430Y021865D02*
X029430Y022495D01*
X030430Y022495D02*
X030430Y021865D01*
X031430Y021865D02*
X031430Y022495D01*
X032430Y022495D02*
X032430Y021865D01*
X032880Y008995D02*
X032880Y008365D01*
X031880Y008365D02*
X031880Y008995D01*
X030880Y008995D02*
X030880Y008365D01*
X029880Y008365D02*
X029880Y008995D01*
X028180Y008995D02*
X028180Y008365D01*
X027180Y008365D02*
X027180Y008995D01*
X026180Y008995D02*
X026180Y008365D01*
X025180Y008365D02*
X025180Y008995D01*
X021930Y008995D02*
X021930Y008365D01*
X020930Y008365D02*
X020930Y008995D01*
X019930Y008995D02*
X019930Y008365D01*
X018930Y008365D02*
X018930Y008995D01*
X013230Y022415D02*
X013230Y023045D01*
X012230Y023045D02*
X012230Y022415D01*
X011230Y022415D02*
X011230Y023045D01*
X010230Y023045D02*
X010230Y022415D01*
D21*
X011180Y013680D03*
X011180Y013180D03*
X011180Y012680D03*
X011180Y012180D03*
X008975Y012180D03*
X008975Y012680D03*
X008975Y013180D03*
X008975Y013680D03*
D22*
X009780Y013680D01*
X010030Y013430D01*
X010030Y011830D01*
X009880Y011680D01*
X009230Y011680D01*
X008880Y011330D01*
X008880Y009580D01*
X009430Y009030D01*
X017980Y009030D01*
X018730Y009780D01*
X020680Y009780D01*
X020930Y009530D01*
X020930Y008680D01*
X024930Y012595D02*
X024940Y012585D01*
X024930Y012595D02*
X024930Y013680D01*
X024345Y014265D01*
X023430Y014265D01*
X023395Y014230D01*
X022630Y014230D01*
X022280Y014580D01*
X018930Y014580D01*
X018820Y014690D01*
X017430Y014690D01*
X017430Y014150D02*
X021410Y014150D01*
X021766Y013794D01*
X024930Y015950D02*
X027400Y015950D01*
X027630Y016180D01*
X027090Y016490D02*
X027380Y016780D01*
X028880Y016780D01*
X029030Y016630D01*
X029030Y016280D01*
X029230Y016080D01*
X029615Y016080D01*
X029680Y016145D01*
X027090Y016490D02*
X024930Y016490D01*
X020530Y020230D02*
X020130Y020630D01*
X020130Y021630D01*
X021975Y021653D01*
X022091Y021537D01*
X022266Y021465D01*
X022454Y021465D01*
X022629Y021537D01*
X022755Y021663D01*
X024130Y021680D01*
X024144Y021695D01*
X024333Y021695D01*
X024415Y021776D01*
X024415Y021763D01*
X024493Y021573D01*
X024638Y021428D01*
X024828Y021350D01*
X025032Y021350D01*
X025222Y021428D01*
X025367Y021573D01*
X025445Y021763D01*
X025445Y022597D01*
X025367Y022787D01*
X025323Y022830D01*
X026537Y022830D01*
X026493Y022787D01*
X026415Y022597D01*
X026415Y021763D01*
X026493Y021573D01*
X026638Y021428D01*
X026828Y021350D01*
X027032Y021350D01*
X027222Y021428D01*
X027367Y021573D01*
X027430Y021726D01*
X027493Y021573D01*
X027638Y021428D01*
X027828Y021350D01*
X028032Y021350D01*
X028222Y021428D01*
X028367Y021573D01*
X028445Y021763D01*
X028445Y022597D01*
X028367Y022787D01*
X028323Y022830D01*
X029037Y022830D01*
X028993Y022787D01*
X028915Y022597D01*
X028915Y021763D01*
X028993Y021573D01*
X029138Y021428D01*
X029328Y021350D01*
X029532Y021350D01*
X029722Y021428D01*
X029867Y021573D01*
X029945Y021763D01*
X029945Y022597D01*
X029867Y022787D01*
X029823Y022830D01*
X031037Y022830D01*
X030993Y022787D01*
X030915Y022597D01*
X030915Y021763D01*
X030993Y021573D01*
X031138Y021428D01*
X031328Y021350D01*
X031532Y021350D01*
X031722Y021428D01*
X031867Y021573D01*
X031930Y021726D01*
X031993Y021573D01*
X032138Y021428D01*
X032328Y021350D01*
X032532Y021350D01*
X032722Y021428D01*
X032867Y021573D01*
X032945Y021763D01*
X032945Y022597D01*
X032867Y022787D01*
X032823Y022830D01*
X034830Y022830D01*
X035880Y021780D01*
X038930Y021780D01*
X039530Y021180D01*
X039530Y020880D01*
X038880Y020230D01*
X020530Y020230D01*
X020413Y020347D02*
X038997Y020347D01*
X039195Y020545D02*
X034823Y020545D01*
X034743Y020465D02*
X035045Y020767D01*
X035045Y021193D01*
X034743Y021495D01*
X034317Y021495D01*
X034015Y021193D01*
X034015Y020767D01*
X034317Y020465D01*
X034743Y020465D01*
X035022Y020744D02*
X039394Y020744D01*
X039530Y020942D02*
X035045Y020942D01*
X035045Y021141D02*
X039530Y021141D01*
X039371Y021339D02*
X034899Y021339D01*
X034161Y021339D02*
X020130Y021339D01*
X020130Y021141D02*
X034015Y021141D01*
X034015Y020942D02*
X020130Y020942D01*
X020130Y020744D02*
X034038Y020744D01*
X034237Y020545D02*
X020215Y020545D01*
X020130Y021538D02*
X022091Y021538D01*
X022629Y021538D02*
X024529Y021538D01*
X024426Y021736D02*
X024375Y021736D01*
X023995Y022190D02*
X024920Y022190D01*
X024930Y022180D01*
X025445Y022133D02*
X026415Y022133D01*
X026415Y021935D02*
X025445Y021935D01*
X025434Y021736D02*
X026426Y021736D01*
X026529Y021538D02*
X025331Y021538D01*
X025930Y022180D02*
X025930Y023180D01*
X025490Y023620D01*
X023905Y023620D01*
X023325Y023530D02*
X023235Y023620D01*
X023325Y023530D02*
X023325Y022190D01*
X022435Y023670D02*
X020880Y023670D01*
X020380Y024730D02*
X020230Y024880D01*
X020230Y025080D01*
X019930Y025380D01*
X015930Y025380D01*
X015430Y024880D01*
X015480Y021080D01*
X015830Y020730D01*
X018330Y020730D01*
X018630Y020430D01*
X018630Y019980D01*
X018030Y019380D01*
X015330Y019380D01*
X013830Y020830D01*
X013780Y025980D01*
X014330Y026580D01*
X021530Y026580D01*
X021680Y026430D01*
X021680Y024930D01*
X021480Y024730D01*
X020380Y024730D01*
X020230Y024912D02*
X021662Y024912D01*
X021680Y025111D02*
X020199Y025111D01*
X020001Y025309D02*
X021680Y025309D01*
X021680Y025508D02*
X013785Y025508D01*
X013783Y025706D02*
X021680Y025706D01*
X021680Y025905D02*
X013781Y025905D01*
X013893Y026103D02*
X021680Y026103D01*
X021680Y026302D02*
X014075Y026302D01*
X014257Y026500D02*
X021610Y026500D01*
X022570Y025070D02*
X022755Y025070D01*
X023295Y024530D01*
X022435Y023670D01*
X022570Y025070D02*
X022740Y025070D01*
X025391Y022729D02*
X026469Y022729D01*
X026415Y022530D02*
X025445Y022530D01*
X025445Y022332D02*
X026415Y022332D01*
X026930Y022180D02*
X027930Y022180D01*
X028445Y022133D02*
X028915Y022133D01*
X028915Y021935D02*
X028445Y021935D01*
X028434Y021736D02*
X028926Y021736D01*
X029029Y021538D02*
X028331Y021538D01*
X027529Y021538D02*
X027331Y021538D01*
X028445Y022332D02*
X028915Y022332D01*
X028915Y022530D02*
X028445Y022530D01*
X028391Y022729D02*
X028969Y022729D01*
X029891Y022729D02*
X030969Y022729D01*
X030915Y022530D02*
X029945Y022530D01*
X029945Y022332D02*
X030915Y022332D01*
X030915Y022133D02*
X029945Y022133D01*
X029945Y021935D02*
X030915Y021935D01*
X030926Y021736D02*
X029934Y021736D01*
X029831Y021538D02*
X031029Y021538D01*
X031831Y021538D02*
X032029Y021538D01*
X032831Y021538D02*
X039172Y021538D01*
X038974Y021736D02*
X032934Y021736D01*
X032945Y021935D02*
X035725Y021935D01*
X035527Y022133D02*
X032945Y022133D01*
X032945Y022332D02*
X035328Y022332D01*
X035130Y022530D02*
X032945Y022530D01*
X032891Y022729D02*
X034931Y022729D01*
X018630Y020347D02*
X014330Y020347D01*
X014125Y020545D02*
X018515Y020545D01*
X018630Y020148D02*
X014535Y020148D01*
X014741Y019950D02*
X018600Y019950D01*
X018401Y019751D02*
X014946Y019751D01*
X015152Y019553D02*
X018203Y019553D01*
X015816Y020744D02*
X013919Y020744D01*
X013829Y020942D02*
X015618Y020942D01*
X015479Y021141D02*
X013827Y021141D01*
X013825Y021339D02*
X015477Y021339D01*
X015474Y021538D02*
X013823Y021538D01*
X013821Y021736D02*
X015471Y021736D01*
X015469Y021935D02*
X013819Y021935D01*
X013817Y022133D02*
X015466Y022133D01*
X015464Y022332D02*
X013815Y022332D01*
X013813Y022530D02*
X015461Y022530D01*
X015458Y022729D02*
X013812Y022729D01*
X013810Y022927D02*
X015456Y022927D01*
X015453Y023126D02*
X013808Y023126D01*
X013806Y023324D02*
X015450Y023324D01*
X015448Y023523D02*
X013804Y023523D01*
X013802Y023721D02*
X015445Y023721D01*
X015443Y023920D02*
X013800Y023920D01*
X013798Y024118D02*
X015440Y024118D01*
X015437Y024317D02*
X013796Y024317D01*
X013794Y024515D02*
X015435Y024515D01*
X015432Y024714D02*
X013792Y024714D01*
X013790Y024912D02*
X015462Y024912D01*
X015661Y025111D02*
X013788Y025111D01*
X013787Y025309D02*
X015859Y025309D01*
X011230Y022730D02*
X011180Y022680D01*
X009080Y017130D02*
X003180Y017180D01*
X007930Y012680D02*
X008430Y013180D01*
X008975Y013180D01*
X008975Y012680D02*
X008680Y012680D01*
X008180Y012180D01*
X008180Y009280D01*
X009276Y008184D01*
X010780Y008184D01*
X016680Y015180D02*
X017430Y015230D01*
X018180Y015180D02*
X016680Y015180D01*
X016680Y016180D02*
X017430Y016310D01*
X018180Y016180D02*
X016680Y016180D01*
X018180Y016180D02*
X018298Y016181D01*
X018305Y015181D02*
X018180Y015180D01*
X027155Y008655D02*
X027180Y008680D01*
X027155Y008655D02*
X027155Y007305D01*
X027530Y006930D01*
X031580Y006930D01*
X031880Y007230D01*
X031880Y008680D01*
X030880Y008680D02*
X029880Y008680D01*
D23*
X002660Y003160D02*
X002660Y027980D01*
X004352Y027980D01*
X003928Y027804D01*
X003538Y027544D01*
X003206Y027212D01*
X002946Y026822D01*
X002766Y026389D01*
X002675Y025929D01*
X002675Y025461D01*
X002766Y025001D01*
X002946Y024568D01*
X003206Y024178D01*
X003538Y023846D01*
X003928Y023586D01*
X004361Y023406D01*
X004821Y023315D01*
X005289Y023315D01*
X005749Y023406D01*
X006182Y023586D01*
X006572Y023846D01*
X006904Y024178D01*
X007164Y024568D01*
X007344Y025001D01*
X007355Y025060D01*
X007381Y025017D01*
X007587Y024811D01*
X007838Y024665D01*
X008120Y024590D01*
X008410Y024590D01*
X008692Y024665D01*
X008943Y024811D01*
X009149Y025017D01*
X009295Y025268D01*
X009370Y025550D01*
X009370Y025840D01*
X009295Y026122D01*
X009149Y026373D01*
X008943Y026579D01*
X008692Y026725D01*
X008410Y026800D01*
X008120Y026800D01*
X007838Y026725D01*
X007587Y026579D01*
X007381Y026373D01*
X007355Y026330D01*
X007344Y026389D01*
X007164Y026822D01*
X006904Y027212D01*
X006572Y027544D01*
X006182Y027804D01*
X005758Y027980D01*
X037647Y027980D01*
X037223Y027804D01*
X036833Y027544D01*
X036501Y027212D01*
X036241Y026822D01*
X036061Y026389D01*
X036050Y026330D01*
X036024Y026373D01*
X035818Y026579D01*
X035567Y026725D01*
X035285Y026800D01*
X034995Y026800D01*
X034713Y026725D01*
X034462Y026579D01*
X034256Y026373D01*
X034110Y026122D01*
X034035Y025840D01*
X034035Y025550D01*
X034110Y025268D01*
X034256Y025017D01*
X034462Y024811D01*
X034713Y024665D01*
X034995Y024590D01*
X035285Y024590D01*
X035567Y024665D01*
X035818Y024811D01*
X036024Y025017D01*
X036050Y025060D01*
X036061Y025001D01*
X036241Y024568D01*
X036501Y024178D01*
X036833Y023846D01*
X037223Y023586D01*
X037656Y023406D01*
X038116Y023315D01*
X038584Y023315D01*
X039044Y023406D01*
X039477Y023586D01*
X039867Y023846D01*
X040199Y024178D01*
X040459Y024568D01*
X040639Y025001D01*
X040700Y025310D01*
X040700Y005940D01*
X040639Y006249D01*
X040459Y006682D01*
X040199Y007072D01*
X039867Y007404D01*
X039477Y007664D01*
X039044Y007844D01*
X038584Y007935D01*
X038116Y007935D01*
X037656Y007844D01*
X037223Y007664D01*
X036833Y007404D01*
X036501Y007072D01*
X036241Y006682D01*
X036061Y006249D01*
X036050Y006190D01*
X036024Y006233D01*
X035818Y006439D01*
X035567Y006585D01*
X035285Y006660D01*
X034995Y006660D01*
X034713Y006585D01*
X034462Y006439D01*
X034256Y006233D01*
X034110Y005982D01*
X034035Y005700D01*
X034035Y005410D01*
X034110Y005128D01*
X034256Y004877D01*
X034462Y004671D01*
X034713Y004525D01*
X034995Y004450D01*
X035285Y004450D01*
X035567Y004525D01*
X035818Y004671D01*
X036024Y004877D01*
X036050Y004920D01*
X036061Y004861D01*
X036241Y004428D01*
X036501Y004038D01*
X036833Y003706D01*
X037223Y003446D01*
X037656Y003266D01*
X038116Y003175D01*
X038584Y003175D01*
X039044Y003266D01*
X039477Y003446D01*
X039867Y003706D01*
X040199Y004038D01*
X040459Y004428D01*
X040639Y004861D01*
X040700Y005170D01*
X040700Y003160D01*
X002660Y003160D01*
X002660Y003314D02*
X004246Y003314D01*
X004361Y003266D02*
X004821Y003175D01*
X005289Y003175D01*
X005749Y003266D01*
X006182Y003446D01*
X006572Y003706D01*
X006904Y004038D01*
X007164Y004428D01*
X007344Y004861D01*
X007355Y004920D01*
X007381Y004877D01*
X007587Y004671D01*
X007838Y004525D01*
X008120Y004450D01*
X008410Y004450D01*
X008692Y004525D01*
X008943Y004671D01*
X009149Y004877D01*
X009295Y005128D01*
X009370Y005410D01*
X009370Y005700D01*
X009295Y005982D01*
X009149Y006233D01*
X008943Y006439D01*
X008692Y006585D01*
X008410Y006660D01*
X008120Y006660D01*
X007838Y006585D01*
X007587Y006439D01*
X007381Y006233D01*
X007355Y006190D01*
X007344Y006249D01*
X007164Y006682D01*
X006904Y007072D01*
X006572Y007404D01*
X006182Y007664D01*
X005749Y007844D01*
X005289Y007935D01*
X004821Y007935D01*
X004361Y007844D01*
X003928Y007664D01*
X003538Y007404D01*
X003206Y007072D01*
X002946Y006682D01*
X002766Y006249D01*
X002675Y005789D01*
X002675Y005321D01*
X002766Y004861D01*
X002946Y004428D01*
X003206Y004038D01*
X003538Y003706D01*
X003928Y003446D01*
X004361Y003266D01*
X003888Y003473D02*
X002660Y003473D01*
X002660Y003631D02*
X003651Y003631D01*
X003455Y003790D02*
X002660Y003790D01*
X002660Y003948D02*
X003296Y003948D01*
X003160Y004107D02*
X002660Y004107D01*
X002660Y004265D02*
X003055Y004265D01*
X002949Y004424D02*
X002660Y004424D01*
X002660Y004582D02*
X002882Y004582D01*
X002816Y004741D02*
X002660Y004741D01*
X002660Y004899D02*
X002759Y004899D01*
X002727Y005058D02*
X002660Y005058D01*
X002660Y005216D02*
X002696Y005216D01*
X002675Y005375D02*
X002660Y005375D01*
X002660Y005533D02*
X002675Y005533D01*
X002660Y005692D02*
X002675Y005692D01*
X002660Y005850D02*
X002687Y005850D01*
X002660Y006009D02*
X002719Y006009D01*
X002750Y006167D02*
X002660Y006167D01*
X002660Y006326D02*
X002798Y006326D01*
X002864Y006484D02*
X002660Y006484D01*
X002660Y006643D02*
X002929Y006643D01*
X003025Y006801D02*
X002660Y006801D01*
X002660Y006960D02*
X003131Y006960D01*
X003252Y007118D02*
X002660Y007118D01*
X002660Y007277D02*
X003411Y007277D01*
X003585Y007435D02*
X002660Y007435D01*
X002660Y007594D02*
X003822Y007594D01*
X004140Y007752D02*
X002660Y007752D01*
X002660Y007911D02*
X004697Y007911D01*
X005413Y007911D02*
X009205Y007911D01*
X009220Y007904D02*
X010305Y007904D01*
X010305Y007854D01*
X010410Y007748D01*
X011150Y007748D01*
X011255Y007854D01*
X011255Y008514D01*
X011150Y008620D01*
X010410Y008620D01*
X010305Y008514D01*
X010305Y008464D01*
X009392Y008464D01*
X008460Y009396D01*
X008460Y012064D01*
X008768Y012372D01*
X009394Y012372D01*
X009500Y012477D01*
X009500Y012752D01*
X009750Y012755D01*
X009750Y011960D01*
X009174Y011960D01*
X009071Y011917D01*
X008721Y011567D01*
X008643Y011489D01*
X008600Y011386D01*
X008600Y009524D01*
X008643Y009421D01*
X009193Y008871D01*
X009271Y008793D01*
X009374Y008750D01*
X018036Y008750D01*
X018139Y008793D01*
X018435Y009089D01*
X018435Y008267D01*
X018510Y008085D01*
X018650Y007945D01*
X018832Y007870D01*
X019028Y007870D01*
X019210Y007945D01*
X019350Y008085D01*
X019425Y008267D01*
X019425Y009093D01*
X019350Y009275D01*
X019210Y009415D01*
X019028Y009490D01*
X018836Y009490D01*
X018846Y009500D01*
X020564Y009500D01*
X020649Y009415D01*
X020510Y009275D01*
X020435Y009093D01*
X020435Y008267D01*
X020510Y008085D01*
X020650Y007945D01*
X020832Y007870D01*
X021028Y007870D01*
X021210Y007945D01*
X021350Y008085D01*
X021425Y008267D01*
X021425Y009093D01*
X021350Y009275D01*
X021210Y009415D01*
X021210Y009586D01*
X021167Y009689D01*
X021089Y009767D01*
X020839Y010017D01*
X020736Y010060D01*
X018896Y010060D01*
X018939Y011638D01*
X018944Y011653D01*
X018940Y011689D01*
X018941Y011725D01*
X018935Y011740D01*
X018934Y011756D01*
X018917Y011788D01*
X018904Y011821D01*
X018893Y011833D01*
X018885Y011848D01*
X018858Y011870D01*
X018833Y011896D01*
X018818Y011903D01*
X017829Y012720D01*
X018822Y012720D01*
X020610Y010933D01*
X021060Y010483D01*
X021133Y010410D01*
X021228Y010370D01*
X039832Y010370D01*
X039927Y010410D01*
X040227Y010710D01*
X040300Y010783D01*
X040340Y010878D01*
X040340Y011732D01*
X040300Y011827D01*
X039900Y012227D01*
X039827Y012300D01*
X039732Y012340D01*
X027158Y012340D01*
X027150Y012360D01*
X027010Y012500D01*
X026828Y012575D01*
X026632Y012575D01*
X026450Y012500D01*
X026310Y012360D01*
X026302Y012340D01*
X025415Y012340D01*
X025415Y012915D01*
X025310Y013021D01*
X025210Y013021D01*
X025210Y013736D01*
X025167Y013839D01*
X025089Y013917D01*
X024886Y014120D01*
X039432Y014120D01*
X039527Y014160D01*
X039927Y014560D01*
X040000Y014633D01*
X040040Y014728D01*
X040040Y015395D01*
X040044Y015411D01*
X040040Y015446D01*
X040040Y015482D01*
X040034Y015497D01*
X040032Y015514D01*
X040014Y015544D01*
X040000Y015577D01*
X039989Y015589D01*
X039980Y015603D01*
X039952Y015625D01*
X039927Y015650D01*
X039912Y015657D01*
X039501Y015976D01*
X039475Y016002D01*
X039461Y016008D01*
X039449Y016017D01*
X039413Y016027D01*
X039379Y016041D01*
X039364Y016040D01*
X039349Y016044D01*
X039313Y016040D01*
X031155Y015958D01*
X031155Y016495D01*
X031050Y016601D01*
X030310Y016601D01*
X030205Y016495D01*
X030205Y016405D01*
X030155Y016405D01*
X030155Y016476D01*
X030050Y016581D01*
X029310Y016581D01*
X029310Y016686D01*
X029267Y016789D01*
X029189Y016867D01*
X029039Y017017D01*
X028936Y017060D01*
X027324Y017060D01*
X027221Y017017D01*
X027143Y016939D01*
X026974Y016770D01*
X025540Y016770D01*
X025505Y016805D01*
X024390Y016805D01*
X024390Y017255D01*
X025505Y017255D01*
X025570Y017320D01*
X026082Y017320D01*
X026177Y017360D01*
X026250Y017433D01*
X026338Y017520D01*
X029932Y017520D01*
X030027Y017560D01*
X030100Y017633D01*
X030214Y017746D01*
X037178Y017746D01*
X037218Y017650D01*
X037396Y017472D01*
X037627Y017376D01*
X038778Y017376D01*
X039009Y017472D01*
X039187Y017650D01*
X039282Y017881D01*
X039282Y018132D01*
X039187Y018363D01*
X039009Y018540D01*
X038778Y018636D01*
X037627Y018636D01*
X037396Y018540D01*
X037218Y018363D01*
X037178Y018266D01*
X030552Y018266D01*
X030610Y018290D01*
X030750Y018430D01*
X030825Y018612D01*
X030825Y018808D01*
X030750Y018990D01*
X030610Y019130D01*
X030428Y019205D01*
X030232Y019205D01*
X030050Y019130D01*
X029910Y018990D01*
X029902Y018970D01*
X029158Y018970D01*
X028800Y019327D01*
X028727Y019400D01*
X028632Y019440D01*
X027110Y019440D01*
X027110Y019467D01*
X027119Y019549D01*
X027110Y019561D01*
X027110Y019575D01*
X027052Y019634D01*
X026911Y019810D01*
X026911Y019824D01*
X026852Y019883D01*
X026800Y019948D01*
X026786Y019950D01*
X037305Y019950D01*
X037218Y019863D01*
X037122Y019632D01*
X037122Y019381D01*
X037218Y019150D01*
X037396Y018972D01*
X037627Y018876D01*
X038778Y018876D01*
X039009Y018972D01*
X039187Y019150D01*
X039282Y019381D01*
X039282Y019632D01*
X039187Y019863D01*
X039048Y020002D01*
X039117Y020071D01*
X039767Y020721D01*
X039810Y020824D01*
X039810Y021236D01*
X039767Y021339D01*
X039689Y021417D01*
X039089Y022017D01*
X040700Y022017D01*
X040700Y021859D02*
X039247Y021859D01*
X039089Y022017D02*
X039064Y022027D01*
X039187Y022150D01*
X039282Y022381D01*
X039282Y022632D01*
X039187Y022863D01*
X039009Y023040D01*
X038778Y023136D01*
X037627Y023136D01*
X037396Y023040D01*
X037218Y022863D01*
X037122Y022632D01*
X037122Y022381D01*
X037218Y022150D01*
X037308Y022060D01*
X035996Y022060D01*
X034989Y023067D01*
X034886Y023110D01*
X026210Y023110D01*
X026210Y023236D01*
X026167Y023339D01*
X026089Y023417D01*
X025649Y023857D01*
X025546Y023900D01*
X024341Y023900D01*
X024341Y023990D01*
X024235Y024095D01*
X023666Y024095D01*
X023731Y024160D01*
X023731Y024900D01*
X023626Y025005D01*
X023216Y025005D01*
X022914Y025307D01*
X022811Y025350D01*
X022799Y025350D01*
X022774Y025375D01*
X022642Y025430D01*
X022498Y025430D01*
X022366Y025375D01*
X022265Y025274D01*
X022210Y025142D01*
X022210Y024998D01*
X022265Y024866D01*
X022366Y024765D01*
X022498Y024710D01*
X022642Y024710D01*
X022697Y024733D01*
X022859Y024570D01*
X022859Y024490D01*
X022319Y023950D01*
X021490Y023950D01*
X021455Y023985D01*
X020305Y023985D01*
X020200Y023880D01*
X020200Y023460D01*
X020305Y023355D01*
X021455Y023355D01*
X021490Y023390D01*
X021722Y023390D01*
X021237Y022905D01*
X020305Y022905D01*
X020200Y022800D01*
X020200Y022380D01*
X020260Y022320D01*
X020200Y022260D01*
X020200Y021911D01*
X020128Y021910D01*
X020074Y021910D01*
X020073Y021909D01*
X020071Y021909D01*
X020021Y021888D01*
X019971Y021867D01*
X019970Y021866D01*
X019968Y021865D01*
X019931Y021827D01*
X019893Y021789D01*
X019892Y021787D01*
X019891Y021786D01*
X019871Y021736D01*
X019850Y021686D01*
X019850Y021684D01*
X019849Y021682D01*
X019850Y021628D01*
X019850Y020574D01*
X019893Y020471D01*
X019971Y020393D01*
X019971Y020393D01*
X020293Y020071D01*
X020363Y020001D01*
X018935Y020010D01*
X018910Y020011D01*
X018910Y020486D01*
X018867Y020589D01*
X018567Y020889D01*
X018489Y020967D01*
X018386Y021010D01*
X015946Y021010D01*
X015758Y021198D01*
X015712Y024766D01*
X016046Y025100D01*
X019814Y025100D01*
X019950Y024964D01*
X019950Y024824D01*
X019993Y024721D01*
X020143Y024571D01*
X020221Y024493D01*
X020266Y024474D01*
X020305Y024435D01*
X021455Y024435D01*
X021470Y024450D01*
X021536Y024450D01*
X021639Y024493D01*
X021839Y024693D01*
X021917Y024771D01*
X021960Y024874D01*
X021960Y026486D01*
X021917Y026589D01*
X021767Y026739D01*
X021689Y026817D01*
X021586Y026860D01*
X014379Y026860D01*
X014373Y026862D01*
X014324Y026860D01*
X014274Y026860D01*
X014268Y026858D01*
X014262Y026857D01*
X014217Y026836D01*
X014171Y026817D01*
X014167Y026813D01*
X014161Y026810D01*
X014128Y026774D01*
X014093Y026739D01*
X014090Y026733D01*
X013577Y026173D01*
X013541Y026136D01*
X013539Y026132D01*
X013536Y026128D01*
X013519Y026080D01*
X013499Y026033D01*
X013500Y026028D01*
X013498Y026023D01*
X013500Y025973D01*
X013525Y023450D01*
X013510Y023465D01*
X013328Y023540D01*
X013132Y023540D01*
X012950Y023465D01*
X012810Y023325D01*
X012735Y023143D01*
X012735Y022317D01*
X012810Y022135D01*
X012950Y021995D01*
X013132Y021920D01*
X013328Y021920D01*
X013510Y021995D01*
X013538Y022023D01*
X013548Y021060D01*
X013482Y021060D01*
X013388Y021061D01*
X013387Y021060D01*
X010537Y021060D01*
X010448Y021065D01*
X010443Y021060D01*
X010435Y021060D01*
X010372Y020997D01*
X009994Y020662D01*
X009989Y020662D01*
X009924Y020599D01*
X009856Y020539D01*
X009856Y020533D01*
X009852Y020530D01*
X009850Y020439D01*
X009845Y020348D01*
X009848Y020344D01*
X009802Y017927D01*
X009800Y017925D01*
X009800Y017832D01*
X009798Y017739D01*
X009800Y017737D01*
X009800Y017735D01*
X009866Y017669D01*
X009930Y017602D01*
X009933Y017602D01*
X010385Y017150D01*
X016235Y017150D01*
X016300Y017085D01*
X016300Y016785D01*
X016435Y016650D01*
X016735Y016350D01*
X018275Y016350D01*
X018410Y016485D01*
X018910Y016985D01*
X018910Y017885D01*
X019775Y018750D01*
X023953Y018750D01*
X024000Y018715D01*
X024000Y018335D01*
X024135Y018200D01*
X026275Y018200D01*
X026432Y018135D01*
X026628Y018135D01*
X026785Y018200D01*
X026975Y018200D01*
X027110Y018335D01*
X027110Y018842D01*
X027188Y018920D01*
X028472Y018920D01*
X028903Y018490D01*
X028998Y018450D01*
X029902Y018450D01*
X029910Y018430D01*
X030050Y018290D01*
X030108Y018266D01*
X030055Y018266D01*
X029959Y018227D01*
X029772Y018040D01*
X026178Y018040D01*
X026083Y018000D01*
X025922Y017840D01*
X025550Y017840D01*
X025505Y017885D01*
X024355Y017885D01*
X024300Y017830D01*
X024268Y017830D01*
X024173Y017790D01*
X023983Y017600D01*
X023910Y017527D01*
X023870Y017432D01*
X023870Y015338D01*
X023772Y015240D01*
X019188Y015240D01*
X018550Y015877D01*
X018477Y015950D01*
X018382Y015990D01*
X018100Y015990D01*
X018005Y016085D01*
X016855Y016085D01*
X016750Y015980D01*
X016750Y015560D01*
X016855Y015455D01*
X018005Y015455D01*
X018020Y015470D01*
X018222Y015470D01*
X018722Y014970D01*
X018040Y014970D01*
X018005Y015005D01*
X016855Y015005D01*
X016750Y014900D01*
X016750Y014480D01*
X016810Y014420D01*
X016750Y014360D01*
X016750Y014040D01*
X016528Y014040D01*
X016433Y014000D01*
X016360Y013927D01*
X016320Y013832D01*
X016320Y013028D01*
X016360Y012933D01*
X016394Y012898D01*
X011985Y012928D01*
X011991Y012942D01*
X012010Y012989D01*
X012010Y012990D01*
X012011Y012992D01*
X012010Y013042D01*
X012000Y015990D01*
X012000Y016040D01*
X012000Y016041D01*
X012000Y016043D01*
X011980Y016089D01*
X011961Y016136D01*
X011960Y016137D01*
X011960Y016138D01*
X011924Y016174D01*
X011889Y016209D01*
X011887Y016210D01*
X011887Y016211D01*
X011840Y016230D01*
X011793Y016250D01*
X011792Y016250D01*
X011791Y016250D01*
X011740Y016250D01*
X003682Y016300D01*
X003641Y016303D01*
X003631Y016300D01*
X003620Y016300D01*
X003582Y016285D01*
X003542Y016272D01*
X003534Y016265D01*
X003524Y016261D01*
X003495Y016232D01*
X003344Y016105D01*
X003333Y016101D01*
X003304Y016072D01*
X003273Y016046D01*
X003268Y016036D01*
X003260Y016028D01*
X003244Y015990D01*
X003225Y015954D01*
X003224Y015943D01*
X003220Y015932D01*
X003220Y015892D01*
X003217Y015851D01*
X003220Y015840D01*
X003210Y012466D01*
X003208Y012420D01*
X003210Y012415D01*
X003210Y012409D01*
X003227Y012366D01*
X003243Y012323D01*
X003247Y012319D01*
X003249Y012313D01*
X003282Y012281D01*
X003459Y012087D01*
X003462Y012080D01*
X003493Y012049D01*
X003523Y012016D01*
X003530Y012013D01*
X003536Y012007D01*
X003577Y011991D01*
X003617Y011973D01*
X003625Y011972D01*
X003632Y011969D01*
X003676Y011970D01*
X003720Y011968D01*
X003727Y011971D01*
X007085Y012019D01*
X007088Y012018D01*
X007137Y012020D01*
X007185Y012021D01*
X007188Y012022D01*
X007191Y012022D01*
X007236Y012042D01*
X007280Y012062D01*
X007283Y012064D01*
X007285Y012065D01*
X007318Y012101D01*
X007353Y012136D01*
X007354Y012139D01*
X007647Y012454D01*
X007726Y012375D01*
X007858Y012320D01*
X007935Y012320D01*
X007900Y012236D01*
X007900Y009224D01*
X007943Y009121D01*
X008021Y009043D01*
X008021Y009043D01*
X009117Y007947D01*
X009220Y007904D01*
X008995Y008069D02*
X002660Y008069D01*
X002660Y008228D02*
X008837Y008228D01*
X008678Y008386D02*
X002660Y008386D01*
X002660Y008545D02*
X008520Y008545D01*
X008361Y008703D02*
X002660Y008703D01*
X002660Y008862D02*
X008203Y008862D01*
X008044Y009020D02*
X002660Y009020D01*
X002660Y009179D02*
X007919Y009179D01*
X007900Y009337D02*
X002660Y009337D01*
X002660Y009496D02*
X007900Y009496D01*
X007900Y009654D02*
X002660Y009654D01*
X002660Y009813D02*
X007900Y009813D01*
X007900Y009971D02*
X002660Y009971D01*
X002660Y010130D02*
X007900Y010130D01*
X007900Y010288D02*
X002660Y010288D01*
X002660Y010447D02*
X007900Y010447D01*
X007900Y010605D02*
X002660Y010605D01*
X002660Y010764D02*
X007900Y010764D01*
X007900Y010922D02*
X002660Y010922D01*
X002660Y011081D02*
X007900Y011081D01*
X007900Y011239D02*
X002660Y011239D01*
X002660Y011398D02*
X007900Y011398D01*
X007900Y011556D02*
X002660Y011556D01*
X002660Y011715D02*
X007900Y011715D01*
X007900Y011873D02*
X002660Y011873D01*
X002660Y012032D02*
X003509Y012032D01*
X003364Y012190D02*
X002660Y012190D01*
X002660Y012349D02*
X003234Y012349D01*
X003210Y012507D02*
X002660Y012507D01*
X002660Y012666D02*
X003211Y012666D01*
X003211Y012824D02*
X002660Y012824D01*
X002660Y012983D02*
X003212Y012983D01*
X003212Y013141D02*
X002660Y013141D01*
X002660Y013300D02*
X003212Y013300D01*
X003213Y013458D02*
X002660Y013458D01*
X002660Y013617D02*
X003213Y013617D01*
X003214Y013775D02*
X002660Y013775D01*
X002660Y013934D02*
X003214Y013934D01*
X003215Y014092D02*
X002660Y014092D01*
X002660Y014251D02*
X003215Y014251D01*
X003216Y014409D02*
X002660Y014409D01*
X002660Y014568D02*
X003216Y014568D01*
X003217Y014726D02*
X002660Y014726D01*
X002660Y014885D02*
X003217Y014885D01*
X003218Y015043D02*
X002660Y015043D01*
X002660Y015202D02*
X003218Y015202D01*
X003218Y015360D02*
X002660Y015360D01*
X002660Y015519D02*
X003219Y015519D01*
X003219Y015677D02*
X002660Y015677D01*
X002660Y015836D02*
X003220Y015836D01*
X003246Y015994D02*
X002660Y015994D01*
X002660Y016153D02*
X003400Y016153D01*
X003615Y015994D02*
X011091Y015994D01*
X011740Y015990D02*
X011750Y013040D01*
X010310Y013022D01*
X010310Y013486D01*
X010267Y013589D01*
X010189Y013667D01*
X009939Y013917D01*
X009836Y013960D01*
X009422Y013960D01*
X009394Y013988D01*
X008556Y013988D01*
X008451Y013883D01*
X008451Y013477D01*
X008468Y013460D01*
X008374Y013460D01*
X008271Y013417D01*
X007894Y013040D01*
X007858Y013040D01*
X007726Y012985D01*
X007625Y012884D01*
X007571Y012755D01*
X007130Y012280D01*
X003680Y012230D01*
X003470Y012460D01*
X003480Y015880D01*
X003670Y016040D01*
X011740Y015990D01*
X011741Y015836D02*
X003480Y015836D01*
X003479Y015677D02*
X011741Y015677D01*
X011742Y015519D02*
X003479Y015519D01*
X003478Y015360D02*
X011742Y015360D01*
X011743Y015202D02*
X003478Y015202D01*
X003478Y015043D02*
X011743Y015043D01*
X011744Y014885D02*
X003477Y014885D01*
X003477Y014726D02*
X011744Y014726D01*
X011745Y014568D02*
X003476Y014568D01*
X003476Y014409D02*
X011745Y014409D01*
X011746Y014251D02*
X003475Y014251D01*
X003475Y014092D02*
X011746Y014092D01*
X011747Y013934D02*
X009900Y013934D01*
X010081Y013775D02*
X011748Y013775D01*
X011748Y013617D02*
X010239Y013617D01*
X010310Y013458D02*
X011749Y013458D01*
X011749Y013300D02*
X010310Y013300D01*
X010310Y013141D02*
X011750Y013141D01*
X012010Y013141D02*
X016320Y013141D01*
X016320Y013300D02*
X012009Y013300D01*
X012009Y013458D02*
X016320Y013458D01*
X016320Y013617D02*
X012008Y013617D01*
X012008Y013775D02*
X016320Y013775D01*
X016366Y013934D02*
X012007Y013934D01*
X012006Y014092D02*
X016750Y014092D01*
X016750Y014251D02*
X012006Y014251D01*
X012005Y014409D02*
X016799Y014409D01*
X016750Y014568D02*
X012005Y014568D01*
X012004Y014726D02*
X016750Y014726D01*
X016750Y014885D02*
X012004Y014885D01*
X012003Y015043D02*
X018649Y015043D01*
X018491Y015202D02*
X012003Y015202D01*
X012002Y015360D02*
X018332Y015360D01*
X018751Y015677D02*
X023870Y015677D01*
X023870Y015519D02*
X018909Y015519D01*
X019068Y015360D02*
X023870Y015360D01*
X024130Y015230D02*
X023880Y014980D01*
X019080Y014980D01*
X018330Y015730D01*
X017470Y015730D01*
X017430Y015770D01*
X016750Y015836D02*
X012001Y015836D01*
X012000Y015994D02*
X016764Y015994D01*
X016615Y016470D02*
X002660Y016470D01*
X002660Y016628D02*
X016457Y016628D01*
X016300Y016787D02*
X009191Y016787D01*
X009152Y016770D02*
X009284Y016825D01*
X009385Y016926D01*
X009440Y017058D01*
X009440Y017202D01*
X009385Y017334D01*
X009284Y017435D01*
X009152Y017490D01*
X009008Y017490D01*
X008876Y017435D01*
X008853Y017412D01*
X003411Y017458D01*
X003384Y017485D01*
X003252Y017540D01*
X003108Y017540D01*
X002976Y017485D01*
X002875Y017384D01*
X002820Y017252D01*
X002820Y017108D01*
X002875Y016976D01*
X002976Y016875D01*
X003108Y016820D01*
X003252Y016820D01*
X003384Y016875D01*
X003407Y016898D01*
X008849Y016852D01*
X008876Y016825D01*
X009008Y016770D01*
X009152Y016770D01*
X008969Y016787D02*
X002660Y016787D01*
X002660Y016945D02*
X002906Y016945D01*
X002822Y017104D02*
X002660Y017104D01*
X002660Y017262D02*
X002824Y017262D01*
X002911Y017421D02*
X002660Y017421D01*
X002660Y017579D02*
X009956Y017579D01*
X009800Y017738D02*
X002660Y017738D01*
X002660Y017896D02*
X009800Y017896D01*
X009804Y018055D02*
X002660Y018055D01*
X002660Y018213D02*
X009807Y018213D01*
X009810Y018372D02*
X002660Y018372D01*
X002660Y018530D02*
X009813Y018530D01*
X009816Y018689D02*
X002660Y018689D01*
X002660Y018847D02*
X009820Y018847D01*
X009823Y019006D02*
X002660Y019006D01*
X002660Y019164D02*
X009826Y019164D01*
X009829Y019323D02*
X002660Y019323D01*
X002660Y019481D02*
X009832Y019481D01*
X009835Y019640D02*
X002660Y019640D01*
X002660Y019798D02*
X009838Y019798D01*
X009841Y019957D02*
X002660Y019957D01*
X002660Y020115D02*
X009844Y020115D01*
X009847Y020274D02*
X002660Y020274D01*
X002660Y020432D02*
X009850Y020432D01*
X009914Y020591D02*
X002660Y020591D01*
X002660Y020749D02*
X010093Y020749D01*
X010271Y020908D02*
X002660Y020908D01*
X002660Y021066D02*
X013548Y021066D01*
X013546Y021225D02*
X002660Y021225D01*
X002660Y021383D02*
X013545Y021383D01*
X013543Y021542D02*
X002660Y021542D01*
X002660Y021700D02*
X013542Y021700D01*
X013540Y021859D02*
X002660Y021859D01*
X002660Y022017D02*
X010928Y022017D01*
X010950Y021995D02*
X011132Y021920D01*
X011328Y021920D01*
X011510Y021995D01*
X011650Y022135D01*
X011725Y022317D01*
X011725Y023143D01*
X011650Y023325D01*
X011510Y023465D01*
X011328Y023540D01*
X011132Y023540D01*
X010950Y023465D01*
X010810Y023325D01*
X010735Y023143D01*
X010735Y022317D01*
X010810Y022135D01*
X010950Y021995D01*
X010793Y022176D02*
X002660Y022176D01*
X002660Y022334D02*
X010735Y022334D01*
X010735Y022493D02*
X002660Y022493D01*
X002660Y022651D02*
X010735Y022651D01*
X010735Y022810D02*
X002660Y022810D01*
X002660Y022968D02*
X010735Y022968D01*
X010735Y023127D02*
X002660Y023127D01*
X002660Y023285D02*
X010794Y023285D01*
X010928Y023444D02*
X005839Y023444D01*
X006207Y023602D02*
X013523Y023602D01*
X013522Y023761D02*
X006444Y023761D01*
X006645Y023919D02*
X013520Y023919D01*
X013518Y024078D02*
X006803Y024078D01*
X006943Y024236D02*
X013517Y024236D01*
X013515Y024395D02*
X007048Y024395D01*
X007154Y024553D02*
X013514Y024553D01*
X013512Y024712D02*
X008772Y024712D01*
X009003Y024870D02*
X013511Y024870D01*
X013509Y025029D02*
X009156Y025029D01*
X009248Y025187D02*
X013508Y025187D01*
X013506Y025346D02*
X009315Y025346D01*
X009358Y025504D02*
X013505Y025504D01*
X013503Y025663D02*
X009370Y025663D01*
X009370Y025821D02*
X013502Y025821D01*
X013500Y025980D02*
X009333Y025980D01*
X009285Y026138D02*
X013543Y026138D01*
X013690Y026297D02*
X009194Y026297D01*
X009068Y026455D02*
X013836Y026455D01*
X013981Y026614D02*
X008884Y026614D01*
X008515Y026772D02*
X014126Y026772D01*
X015975Y025029D02*
X019885Y025029D01*
X019950Y024870D02*
X015816Y024870D01*
X015712Y024712D02*
X020002Y024712D01*
X020161Y024553D02*
X015714Y024553D01*
X015716Y024395D02*
X022764Y024395D01*
X022859Y024553D02*
X021699Y024553D01*
X021858Y024712D02*
X022495Y024712D01*
X022645Y024712D02*
X022718Y024712D01*
X022263Y024870D02*
X021958Y024870D01*
X021960Y025029D02*
X022210Y025029D01*
X022229Y025187D02*
X021960Y025187D01*
X021960Y025346D02*
X022336Y025346D01*
X021960Y025504D02*
X034047Y025504D01*
X034035Y025663D02*
X021960Y025663D01*
X021960Y025821D02*
X034035Y025821D01*
X034072Y025980D02*
X021960Y025980D01*
X021960Y026138D02*
X034120Y026138D01*
X034211Y026297D02*
X021960Y026297D01*
X021960Y026455D02*
X034337Y026455D01*
X034521Y026614D02*
X021892Y026614D01*
X021734Y026772D02*
X034890Y026772D01*
X035390Y026772D02*
X036220Y026772D01*
X036154Y026614D02*
X035759Y026614D01*
X035943Y026455D02*
X036089Y026455D01*
X036313Y026931D02*
X007092Y026931D01*
X007185Y026772D02*
X008015Y026772D01*
X007646Y026614D02*
X007251Y026614D01*
X007316Y026455D02*
X007462Y026455D01*
X006986Y027089D02*
X036419Y027089D01*
X036537Y027248D02*
X006868Y027248D01*
X006710Y027406D02*
X036695Y027406D01*
X036864Y027565D02*
X006541Y027565D01*
X006304Y027723D02*
X037101Y027723D01*
X037410Y027882D02*
X005995Y027882D01*
X004115Y027882D02*
X002660Y027882D01*
X002660Y027723D02*
X003806Y027723D01*
X003569Y027565D02*
X002660Y027565D01*
X002660Y027406D02*
X003400Y027406D01*
X003242Y027248D02*
X002660Y027248D01*
X002660Y027089D02*
X003124Y027089D01*
X003018Y026931D02*
X002660Y026931D01*
X002660Y026772D02*
X002925Y026772D01*
X002859Y026614D02*
X002660Y026614D01*
X002660Y026455D02*
X002794Y026455D01*
X002748Y026297D02*
X002660Y026297D01*
X002660Y026138D02*
X002716Y026138D01*
X002685Y025980D02*
X002660Y025980D01*
X002660Y025821D02*
X002675Y025821D01*
X002660Y025663D02*
X002675Y025663D01*
X002660Y025504D02*
X002675Y025504D01*
X002660Y025346D02*
X002698Y025346D01*
X002729Y025187D02*
X002660Y025187D01*
X002660Y025029D02*
X002761Y025029D01*
X002821Y024870D02*
X002660Y024870D01*
X002660Y024712D02*
X002886Y024712D01*
X002956Y024553D02*
X002660Y024553D01*
X002660Y024395D02*
X003062Y024395D01*
X003167Y024236D02*
X002660Y024236D01*
X002660Y024078D02*
X003307Y024078D01*
X003465Y023919D02*
X002660Y023919D01*
X002660Y023761D02*
X003666Y023761D01*
X003903Y023602D02*
X002660Y023602D01*
X002660Y023444D02*
X004271Y023444D01*
X007224Y024712D02*
X007758Y024712D01*
X007527Y024870D02*
X007289Y024870D01*
X007349Y025029D02*
X007374Y025029D01*
X011532Y023444D02*
X011928Y023444D01*
X011950Y023465D02*
X011810Y023325D01*
X011735Y023143D01*
X011735Y022317D01*
X011810Y022135D01*
X011950Y021995D01*
X012132Y021920D01*
X012328Y021920D01*
X012510Y021995D01*
X012650Y022135D01*
X012725Y022317D01*
X012725Y023143D01*
X012650Y023325D01*
X012510Y023465D01*
X012328Y023540D01*
X012132Y023540D01*
X011950Y023465D01*
X011794Y023285D02*
X011666Y023285D01*
X011725Y023127D02*
X011735Y023127D01*
X011725Y022968D02*
X011735Y022968D01*
X011725Y022810D02*
X011735Y022810D01*
X011725Y022651D02*
X011735Y022651D01*
X011725Y022493D02*
X011735Y022493D01*
X011725Y022334D02*
X011735Y022334D01*
X011793Y022176D02*
X011667Y022176D01*
X011532Y022017D02*
X011928Y022017D01*
X012532Y022017D02*
X012928Y022017D01*
X012793Y022176D02*
X012667Y022176D01*
X012725Y022334D02*
X012735Y022334D01*
X012725Y022493D02*
X012735Y022493D01*
X012725Y022651D02*
X012735Y022651D01*
X012725Y022810D02*
X012735Y022810D01*
X012725Y022968D02*
X012735Y022968D01*
X012725Y023127D02*
X012735Y023127D01*
X012794Y023285D02*
X012666Y023285D01*
X012532Y023444D02*
X012928Y023444D01*
X013532Y022017D02*
X013538Y022017D01*
X015741Y022493D02*
X020200Y022493D01*
X020200Y022651D02*
X015739Y022651D01*
X015737Y022810D02*
X020210Y022810D01*
X020246Y022334D02*
X015744Y022334D01*
X015746Y022176D02*
X020200Y022176D01*
X020200Y022017D02*
X015748Y022017D01*
X015750Y021859D02*
X019962Y021859D01*
X019856Y021700D02*
X015752Y021700D01*
X015754Y021542D02*
X019850Y021542D01*
X019850Y021383D02*
X015756Y021383D01*
X015758Y021225D02*
X019850Y021225D01*
X019850Y021066D02*
X015890Y021066D01*
X015735Y022968D02*
X021300Y022968D01*
X021459Y023127D02*
X015733Y023127D01*
X015731Y023285D02*
X021617Y023285D01*
X021980Y023280D02*
X022895Y023280D01*
X023235Y023620D01*
X023045Y023062D02*
X023045Y022665D01*
X022995Y022665D01*
X022889Y022560D01*
X022889Y021945D01*
X022815Y021944D01*
X022815Y022031D01*
X022746Y022198D01*
X022618Y022326D01*
X022451Y022395D01*
X022269Y022395D01*
X022102Y022326D01*
X022087Y022310D01*
X021510Y022310D01*
X021500Y022320D01*
X021560Y022380D01*
X021560Y022492D01*
X022088Y023020D01*
X022947Y023020D01*
X023043Y023060D01*
X023045Y023062D01*
X023045Y022968D02*
X022036Y022968D01*
X021877Y022810D02*
X023045Y022810D01*
X022981Y022651D02*
X021719Y022651D01*
X021560Y022493D02*
X022889Y022493D01*
X022889Y022334D02*
X022598Y022334D01*
X022755Y022176D02*
X022889Y022176D01*
X022889Y022017D02*
X022815Y022017D01*
X022360Y021940D02*
X022210Y022050D01*
X020880Y022050D01*
X021514Y022334D02*
X022122Y022334D01*
X021290Y022590D02*
X021980Y023280D01*
X022447Y024078D02*
X015721Y024078D01*
X015718Y024236D02*
X022605Y024236D01*
X023193Y025029D02*
X034249Y025029D01*
X034157Y025187D02*
X023034Y025187D01*
X022822Y025346D02*
X034090Y025346D01*
X034402Y024870D02*
X023731Y024870D01*
X023731Y024712D02*
X034633Y024712D01*
X035647Y024712D02*
X036181Y024712D01*
X036116Y024870D02*
X035878Y024870D01*
X036031Y025029D02*
X036056Y025029D01*
X036251Y024553D02*
X023731Y024553D01*
X023731Y024395D02*
X036357Y024395D01*
X036462Y024236D02*
X023731Y024236D01*
X024253Y024078D02*
X036602Y024078D01*
X036760Y023919D02*
X024341Y023919D01*
X024341Y023340D02*
X025374Y023340D01*
X025604Y023110D01*
X025282Y023110D01*
X025279Y023111D01*
X025227Y023110D01*
X025174Y023110D01*
X025171Y023109D01*
X025168Y023109D01*
X025120Y023087D01*
X025071Y023067D01*
X025069Y023065D01*
X025066Y023064D01*
X025030Y023026D01*
X024993Y022989D01*
X024991Y022986D01*
X024009Y021959D01*
X023761Y021955D01*
X023761Y022560D01*
X023656Y022665D01*
X023605Y022665D01*
X023605Y023145D01*
X024235Y023145D01*
X024341Y023250D01*
X024341Y023340D01*
X024341Y023285D02*
X025429Y023285D01*
X025587Y023127D02*
X023605Y023127D01*
X023605Y022968D02*
X024975Y022968D01*
X024823Y022810D02*
X023605Y022810D01*
X023670Y022651D02*
X024671Y022651D01*
X024520Y022493D02*
X023761Y022493D01*
X023761Y022334D02*
X024368Y022334D01*
X024217Y022176D02*
X023761Y022176D01*
X023761Y022017D02*
X024065Y022017D01*
X026062Y023444D02*
X037566Y023444D01*
X037603Y023127D02*
X026210Y023127D01*
X026190Y023285D02*
X040700Y023285D01*
X040700Y023127D02*
X038802Y023127D01*
X039082Y022968D02*
X040700Y022968D01*
X040700Y022810D02*
X039209Y022810D01*
X039274Y022651D02*
X040700Y022651D01*
X040700Y022493D02*
X039282Y022493D01*
X039263Y022334D02*
X040700Y022334D01*
X040700Y022176D02*
X039197Y022176D01*
X039406Y021700D02*
X040700Y021700D01*
X040700Y021542D02*
X039564Y021542D01*
X039723Y021383D02*
X040700Y021383D01*
X040700Y021225D02*
X039810Y021225D01*
X039810Y021066D02*
X040700Y021066D01*
X040700Y020908D02*
X039810Y020908D01*
X039779Y020749D02*
X040700Y020749D01*
X040700Y020591D02*
X039637Y020591D01*
X039478Y020432D02*
X040700Y020432D01*
X040700Y020274D02*
X039320Y020274D01*
X039161Y020115D02*
X040700Y020115D01*
X040700Y019957D02*
X039093Y019957D01*
X039214Y019798D02*
X040700Y019798D01*
X040700Y019640D02*
X039279Y019640D01*
X039282Y019481D02*
X040700Y019481D01*
X040700Y019323D02*
X039258Y019323D01*
X039193Y019164D02*
X040700Y019164D01*
X040700Y019006D02*
X039043Y019006D01*
X039020Y018530D02*
X040700Y018530D01*
X040700Y018372D02*
X039178Y018372D01*
X039249Y018213D02*
X040700Y018213D01*
X040700Y018055D02*
X039282Y018055D01*
X039282Y017896D02*
X040700Y017896D01*
X040700Y017738D02*
X039223Y017738D01*
X039116Y017579D02*
X040700Y017579D01*
X040700Y017421D02*
X038884Y017421D01*
X038202Y018006D02*
X030106Y018006D01*
X029880Y017780D01*
X026230Y017780D01*
X026030Y017580D01*
X024940Y017580D01*
X024930Y017570D01*
X024320Y017570D01*
X024130Y017380D01*
X024130Y015230D01*
X024311Y015043D02*
X039780Y015043D01*
X039780Y014885D02*
X024210Y014885D01*
X024183Y014916D02*
X024350Y015083D01*
X024390Y015178D01*
X024390Y015631D01*
X024830Y015635D01*
X025505Y015635D01*
X025511Y015642D01*
X039330Y015780D01*
X039780Y015430D01*
X039780Y014780D01*
X039380Y014380D01*
X024630Y014380D01*
X024183Y014916D01*
X024342Y014726D02*
X039726Y014726D01*
X039568Y014568D02*
X024474Y014568D01*
X024606Y014409D02*
X039409Y014409D01*
X039618Y014251D02*
X040700Y014251D01*
X040700Y014409D02*
X039777Y014409D01*
X039935Y014568D02*
X040700Y014568D01*
X040700Y014726D02*
X040039Y014726D01*
X040040Y014885D02*
X040700Y014885D01*
X040700Y015043D02*
X040040Y015043D01*
X040040Y015202D02*
X040700Y015202D01*
X040700Y015360D02*
X040040Y015360D01*
X040029Y015519D02*
X040700Y015519D01*
X040700Y015677D02*
X039886Y015677D01*
X039682Y015836D02*
X040700Y015836D01*
X040700Y015994D02*
X039483Y015994D01*
X039462Y015677D02*
X029032Y015677D01*
X028978Y015936D02*
X028018Y015927D01*
X028085Y016089D01*
X028085Y016271D01*
X028016Y016438D01*
X027953Y016500D01*
X028750Y016500D01*
X028750Y016224D01*
X028793Y016121D01*
X028978Y015936D01*
X028920Y015994D02*
X028045Y015994D01*
X028085Y016153D02*
X028780Y016153D01*
X028750Y016311D02*
X028068Y016311D01*
X027984Y016470D02*
X028750Y016470D01*
X029310Y016581D02*
X029310Y016581D01*
X029310Y016628D02*
X040700Y016628D01*
X040700Y016470D02*
X031155Y016470D01*
X031155Y016311D02*
X040700Y016311D01*
X040700Y016153D02*
X031155Y016153D01*
X031155Y015994D02*
X034731Y015994D01*
X037182Y017738D02*
X030205Y017738D01*
X030047Y017579D02*
X037289Y017579D01*
X037521Y017421D02*
X026238Y017421D01*
X025978Y017896D02*
X018921Y017896D01*
X018910Y017738D02*
X024120Y017738D01*
X023961Y017579D02*
X018910Y017579D01*
X018910Y017421D02*
X023870Y017421D01*
X023870Y017262D02*
X018910Y017262D01*
X018910Y017104D02*
X023870Y017104D01*
X023870Y016945D02*
X018870Y016945D01*
X018712Y016787D02*
X023870Y016787D01*
X023870Y016628D02*
X018553Y016628D01*
X018395Y016470D02*
X023870Y016470D01*
X023870Y016311D02*
X002660Y016311D01*
X003474Y013934D02*
X008502Y013934D01*
X008451Y013775D02*
X003474Y013775D01*
X003473Y013617D02*
X008451Y013617D01*
X008370Y013458D02*
X003473Y013458D01*
X003472Y013300D02*
X008154Y013300D01*
X007995Y013141D02*
X003472Y013141D01*
X003472Y012983D02*
X007723Y012983D01*
X007600Y012824D02*
X003471Y012824D01*
X003471Y012666D02*
X007488Y012666D01*
X007341Y012507D02*
X003470Y012507D01*
X003572Y012349D02*
X007194Y012349D01*
X007401Y012190D02*
X007900Y012190D01*
X007900Y012032D02*
X007212Y012032D01*
X007549Y012349D02*
X007790Y012349D01*
X008460Y012032D02*
X009750Y012032D01*
X009750Y012190D02*
X008586Y012190D01*
X008744Y012349D02*
X009750Y012349D01*
X009750Y012507D02*
X009500Y012507D01*
X009500Y012666D02*
X009750Y012666D01*
X010319Y012666D02*
X010756Y012666D01*
X010756Y012677D02*
X010756Y012536D01*
X010768Y012507D01*
X010790Y012484D01*
X010820Y012472D01*
X011180Y012472D01*
X011540Y012472D01*
X011570Y012484D01*
X011592Y012507D01*
X011604Y012536D01*
X011604Y012671D01*
X017530Y012630D01*
X018680Y011680D01*
X018636Y010044D01*
X018571Y010017D01*
X018493Y009939D01*
X017864Y009310D01*
X009546Y009310D01*
X009160Y009696D01*
X009160Y011214D01*
X009346Y011400D01*
X009936Y011400D01*
X010039Y011443D01*
X010117Y011521D01*
X010233Y011637D01*
X010280Y011640D01*
X010283Y011708D01*
X010310Y011774D01*
X010310Y012420D01*
X010320Y012680D01*
X010756Y012677D01*
X010768Y012507D02*
X010313Y012507D01*
X010310Y012349D02*
X010766Y012349D01*
X010768Y012353D02*
X010756Y012324D01*
X010756Y012180D01*
X010756Y012036D01*
X010768Y012007D01*
X010790Y011984D01*
X010820Y011972D01*
X011180Y011972D01*
X011540Y011972D01*
X011570Y011984D01*
X011592Y012007D01*
X011604Y012036D01*
X011604Y012180D01*
X011604Y012324D01*
X011592Y012353D01*
X011570Y012376D01*
X011540Y012388D01*
X011180Y012388D01*
X010820Y012388D01*
X010790Y012376D01*
X010768Y012353D01*
X010756Y012190D02*
X010310Y012190D01*
X010310Y012032D02*
X010757Y012032D01*
X010756Y012180D02*
X011180Y012180D01*
X011180Y012180D01*
X011180Y012388D01*
X011180Y012180D01*
X011604Y012180D01*
X011180Y012180D01*
X011180Y012180D01*
X011180Y012180D01*
X010756Y012180D01*
X011180Y012180D02*
X011180Y012180D01*
X011180Y011972D01*
X011180Y012180D01*
X011180Y012190D02*
X011180Y012190D01*
X011180Y012032D02*
X011180Y012032D01*
X011180Y012349D02*
X011180Y012349D01*
X011180Y012472D02*
X011180Y012674D01*
X011180Y012674D01*
X011180Y012472D01*
X011180Y012507D02*
X011180Y012507D01*
X011180Y012666D02*
X011180Y012666D01*
X011604Y012666D02*
X012409Y012666D01*
X012007Y012983D02*
X016339Y012983D01*
X016580Y013080D02*
X016680Y012980D01*
X018930Y012980D01*
X021280Y010630D01*
X039780Y010630D01*
X040080Y010930D01*
X040080Y011680D01*
X039680Y012080D01*
X021980Y012080D01*
X020280Y013780D01*
X016580Y013780D01*
X016580Y013080D01*
X016580Y013141D02*
X020919Y013141D01*
X021077Y012983D02*
X016677Y012983D01*
X016580Y013300D02*
X020760Y013300D01*
X020602Y013458D02*
X016580Y013458D01*
X016580Y013617D02*
X020443Y013617D01*
X020285Y013775D02*
X016580Y013775D01*
X017895Y012666D02*
X018877Y012666D01*
X019035Y012507D02*
X018087Y012507D01*
X018279Y012349D02*
X019194Y012349D01*
X019352Y012190D02*
X018471Y012190D01*
X018663Y012032D02*
X019511Y012032D01*
X019669Y011873D02*
X018855Y011873D01*
X018941Y011715D02*
X019828Y011715D01*
X019986Y011556D02*
X018937Y011556D01*
X018932Y011398D02*
X020145Y011398D01*
X020303Y011239D02*
X018928Y011239D01*
X018924Y011081D02*
X020462Y011081D01*
X020620Y010922D02*
X018920Y010922D01*
X018915Y010764D02*
X020779Y010764D01*
X020937Y010605D02*
X018911Y010605D01*
X018907Y010447D02*
X021096Y010447D01*
X021146Y010764D02*
X039914Y010764D01*
X040072Y010922D02*
X020988Y010922D01*
X020829Y011081D02*
X040080Y011081D01*
X040080Y011239D02*
X020671Y011239D01*
X020512Y011398D02*
X040080Y011398D01*
X040080Y011556D02*
X020354Y011556D01*
X020195Y011715D02*
X040045Y011715D01*
X039887Y011873D02*
X020037Y011873D01*
X019878Y012032D02*
X039728Y012032D01*
X039938Y012190D02*
X040700Y012190D01*
X040700Y012032D02*
X040096Y012032D01*
X040255Y011873D02*
X040700Y011873D01*
X040700Y011715D02*
X040340Y011715D01*
X040340Y011556D02*
X040700Y011556D01*
X040700Y011398D02*
X040340Y011398D01*
X040340Y011239D02*
X040700Y011239D01*
X040700Y011081D02*
X040340Y011081D01*
X040340Y010922D02*
X040700Y010922D01*
X040700Y010764D02*
X040281Y010764D01*
X040123Y010605D02*
X040700Y010605D01*
X040700Y010447D02*
X039964Y010447D01*
X040700Y010288D02*
X018902Y010288D01*
X018898Y010130D02*
X040700Y010130D01*
X040700Y009971D02*
X020885Y009971D01*
X021043Y009813D02*
X040700Y009813D01*
X040700Y009654D02*
X021182Y009654D01*
X021210Y009496D02*
X040700Y009496D01*
X040700Y009337D02*
X032238Y009337D01*
X032300Y009275D02*
X032160Y009415D01*
X031978Y009490D01*
X031782Y009490D01*
X031600Y009415D01*
X031460Y009275D01*
X031385Y009093D01*
X031385Y008267D01*
X031460Y008085D01*
X031600Y007945D01*
X031600Y007346D01*
X031464Y007210D01*
X027646Y007210D01*
X027435Y007421D01*
X027435Y007935D01*
X027460Y007945D01*
X027600Y008085D01*
X027675Y008267D01*
X027675Y009093D01*
X027600Y009275D01*
X027460Y009415D01*
X027278Y009490D01*
X027082Y009490D01*
X026900Y009415D01*
X026760Y009275D01*
X026685Y009093D01*
X026685Y008267D01*
X026760Y008085D01*
X026875Y007970D01*
X026875Y007249D01*
X026918Y007146D01*
X026996Y007068D01*
X027371Y006693D01*
X027474Y006650D01*
X031636Y006650D01*
X031739Y006693D01*
X031817Y006771D01*
X032117Y007071D01*
X032160Y007174D01*
X032160Y007945D01*
X032160Y007945D01*
X032300Y008085D01*
X032375Y008267D01*
X032375Y009093D01*
X032300Y009275D01*
X032340Y009179D02*
X040700Y009179D01*
X040700Y009020D02*
X032375Y009020D01*
X032375Y008862D02*
X040700Y008862D01*
X040700Y008703D02*
X032375Y008703D01*
X032375Y008545D02*
X040700Y008545D01*
X040700Y008386D02*
X032375Y008386D01*
X032359Y008228D02*
X040700Y008228D01*
X040700Y008069D02*
X032284Y008069D01*
X032160Y007911D02*
X037992Y007911D01*
X037435Y007752D02*
X032160Y007752D01*
X032160Y007594D02*
X037117Y007594D01*
X036880Y007435D02*
X032160Y007435D01*
X032160Y007277D02*
X036706Y007277D01*
X036547Y007118D02*
X032137Y007118D01*
X032005Y006960D02*
X036426Y006960D01*
X036320Y006801D02*
X031847Y006801D01*
X031531Y007277D02*
X027579Y007277D01*
X027435Y007435D02*
X031600Y007435D01*
X031600Y007594D02*
X027435Y007594D01*
X027435Y007752D02*
X031600Y007752D01*
X031600Y007911D02*
X031076Y007911D01*
X031160Y007945D02*
X031300Y008085D01*
X031375Y008267D01*
X031375Y009093D01*
X031300Y009275D01*
X031160Y009415D01*
X030978Y009490D01*
X030782Y009490D01*
X030600Y009415D01*
X030460Y009275D01*
X030385Y009093D01*
X030385Y008960D01*
X030375Y008960D01*
X030375Y009093D01*
X030300Y009275D01*
X030160Y009415D01*
X029978Y009490D01*
X029782Y009490D01*
X029600Y009415D01*
X029460Y009275D01*
X029385Y009093D01*
X029385Y008267D01*
X029460Y008085D01*
X029600Y007945D01*
X029782Y007870D01*
X029978Y007870D01*
X030160Y007945D01*
X030300Y008085D01*
X030375Y008267D01*
X030375Y008400D01*
X030385Y008400D01*
X030385Y008267D01*
X030460Y008085D01*
X030600Y007945D01*
X030782Y007870D01*
X030978Y007870D01*
X031160Y007945D01*
X031284Y008069D02*
X031476Y008069D01*
X031600Y007945D02*
X031600Y007945D01*
X031401Y008228D02*
X031359Y008228D01*
X031375Y008386D02*
X031385Y008386D01*
X031375Y008545D02*
X031385Y008545D01*
X031375Y008703D02*
X031385Y008703D01*
X031375Y008862D02*
X031385Y008862D01*
X031375Y009020D02*
X031385Y009020D01*
X031420Y009179D02*
X031340Y009179D01*
X031238Y009337D02*
X031522Y009337D01*
X030522Y009337D02*
X030238Y009337D01*
X030340Y009179D02*
X030420Y009179D01*
X030385Y009020D02*
X030375Y009020D01*
X030375Y008386D02*
X030385Y008386D01*
X030401Y008228D02*
X030359Y008228D01*
X030284Y008069D02*
X030476Y008069D01*
X030684Y007911D02*
X030076Y007911D01*
X029684Y007911D02*
X027435Y007911D01*
X027584Y008069D02*
X029476Y008069D01*
X029401Y008228D02*
X027659Y008228D01*
X027675Y008386D02*
X029385Y008386D01*
X029385Y008545D02*
X027675Y008545D01*
X027675Y008703D02*
X029385Y008703D01*
X029385Y008862D02*
X027675Y008862D01*
X027675Y009020D02*
X029385Y009020D01*
X029420Y009179D02*
X027640Y009179D01*
X027538Y009337D02*
X029522Y009337D01*
X026822Y009337D02*
X026538Y009337D01*
X026600Y009275D02*
X026460Y009415D01*
X026278Y009490D01*
X026082Y009490D01*
X025900Y009415D01*
X025760Y009275D01*
X025685Y009093D01*
X025685Y008267D01*
X025760Y008085D01*
X025900Y007945D01*
X026082Y007870D01*
X026278Y007870D01*
X026460Y007945D01*
X026600Y008085D01*
X026675Y008267D01*
X026675Y009093D01*
X026600Y009275D01*
X026640Y009179D02*
X026720Y009179D01*
X026685Y009020D02*
X026675Y009020D01*
X026675Y008862D02*
X026685Y008862D01*
X026675Y008703D02*
X026685Y008703D01*
X026675Y008545D02*
X026685Y008545D01*
X026675Y008386D02*
X026685Y008386D01*
X026701Y008228D02*
X026659Y008228D01*
X026584Y008069D02*
X026776Y008069D01*
X026875Y007911D02*
X026376Y007911D01*
X025984Y007911D02*
X025376Y007911D01*
X025460Y007945D02*
X025600Y008085D01*
X025675Y008267D01*
X025675Y009093D01*
X025600Y009275D01*
X025460Y009415D01*
X025278Y009490D01*
X025082Y009490D01*
X024900Y009415D01*
X024760Y009275D01*
X024685Y009093D01*
X024685Y008267D01*
X024760Y008085D01*
X024900Y007945D01*
X025082Y007870D01*
X025278Y007870D01*
X025460Y007945D01*
X025584Y008069D02*
X025776Y008069D01*
X025701Y008228D02*
X025659Y008228D01*
X025675Y008386D02*
X025685Y008386D01*
X025675Y008545D02*
X025685Y008545D01*
X025675Y008703D02*
X025685Y008703D01*
X025675Y008862D02*
X025685Y008862D01*
X025675Y009020D02*
X025685Y009020D01*
X025720Y009179D02*
X025640Y009179D01*
X025538Y009337D02*
X025822Y009337D01*
X024822Y009337D02*
X021288Y009337D01*
X021210Y009415D02*
X021210Y009415D01*
X021390Y009179D02*
X024720Y009179D01*
X024685Y009020D02*
X021425Y009020D01*
X021425Y008862D02*
X024685Y008862D01*
X024685Y008703D02*
X021425Y008703D01*
X021425Y008545D02*
X024685Y008545D01*
X024685Y008386D02*
X021425Y008386D01*
X021409Y008228D02*
X024701Y008228D01*
X024776Y008069D02*
X021334Y008069D01*
X021126Y007911D02*
X024984Y007911D01*
X026875Y007752D02*
X011154Y007752D01*
X011255Y007911D02*
X018734Y007911D01*
X018526Y008069D02*
X011255Y008069D01*
X011255Y008228D02*
X018451Y008228D01*
X018435Y008386D02*
X011255Y008386D01*
X011225Y008545D02*
X018435Y008545D01*
X018435Y008703D02*
X009153Y008703D01*
X009203Y008862D02*
X008994Y008862D01*
X009044Y009020D02*
X008836Y009020D01*
X008886Y009179D02*
X008677Y009179D01*
X008727Y009337D02*
X008519Y009337D01*
X008460Y009496D02*
X008612Y009496D01*
X008600Y009654D02*
X008460Y009654D01*
X008460Y009813D02*
X008600Y009813D01*
X008600Y009971D02*
X008460Y009971D01*
X008460Y010130D02*
X008600Y010130D01*
X008600Y010288D02*
X008460Y010288D01*
X008460Y010447D02*
X008600Y010447D01*
X008600Y010605D02*
X008460Y010605D01*
X008460Y010764D02*
X008600Y010764D01*
X008600Y010922D02*
X008460Y010922D01*
X008460Y011081D02*
X008600Y011081D01*
X008600Y011239D02*
X008460Y011239D01*
X008460Y011398D02*
X008605Y011398D01*
X008710Y011556D02*
X008460Y011556D01*
X008460Y011715D02*
X008869Y011715D01*
X009027Y011873D02*
X008460Y011873D01*
X009185Y011239D02*
X012860Y011239D01*
X012860Y011270D02*
X012860Y011130D01*
X013000Y011130D01*
X013000Y011270D01*
X012860Y011270D01*
X012860Y011780D01*
X012384Y011780D01*
X012294Y011766D01*
X012207Y011738D01*
X012126Y011696D01*
X012052Y011642D01*
X011988Y011578D01*
X011934Y011504D01*
X011892Y011423D01*
X011864Y011336D01*
X011854Y011270D01*
X012860Y011270D01*
X012860Y011398D02*
X013000Y011398D01*
X013000Y011270D02*
X013000Y011780D01*
X013476Y011780D01*
X013566Y011766D01*
X013653Y011738D01*
X013734Y011696D01*
X013808Y011642D01*
X013872Y011578D01*
X013926Y011504D01*
X013968Y011423D01*
X013996Y011336D01*
X014006Y011270D01*
X013000Y011270D01*
X013000Y011239D02*
X017260Y011239D01*
X017260Y011270D02*
X017260Y011130D01*
X017400Y011130D01*
X017400Y011270D01*
X017260Y011270D01*
X017260Y011780D01*
X016784Y011780D01*
X016694Y011766D01*
X016607Y011738D01*
X016526Y011696D01*
X016452Y011642D01*
X016388Y011578D01*
X016334Y011504D01*
X016292Y011423D01*
X016264Y011336D01*
X016254Y011270D01*
X017260Y011270D01*
X017260Y011398D02*
X017400Y011398D01*
X017400Y011270D02*
X017400Y011780D01*
X017876Y011780D01*
X017966Y011766D01*
X018053Y011738D01*
X018134Y011696D01*
X018208Y011642D01*
X018272Y011578D01*
X018326Y011504D01*
X018368Y011423D01*
X018396Y011336D01*
X018406Y011270D01*
X017400Y011270D01*
X017400Y011239D02*
X018668Y011239D01*
X018664Y011081D02*
X018398Y011081D01*
X018396Y011064D02*
X018406Y011130D01*
X017400Y011130D01*
X017400Y010620D01*
X017876Y010620D01*
X017966Y010634D01*
X018053Y010662D01*
X018134Y010704D01*
X018208Y010758D01*
X018272Y010822D01*
X018326Y010896D01*
X018368Y010977D01*
X018396Y011064D01*
X018339Y010922D02*
X018660Y010922D01*
X018655Y010764D02*
X018214Y010764D01*
X018651Y010605D02*
X009160Y010605D01*
X009160Y010447D02*
X018647Y010447D01*
X018642Y010288D02*
X009160Y010288D01*
X009160Y010130D02*
X018638Y010130D01*
X018525Y009971D02*
X009160Y009971D01*
X009160Y009813D02*
X018367Y009813D01*
X018208Y009654D02*
X009202Y009654D01*
X009360Y009496D02*
X018050Y009496D01*
X017891Y009337D02*
X009519Y009337D01*
X009311Y008545D02*
X010335Y008545D01*
X010406Y007752D02*
X005970Y007752D01*
X006288Y007594D02*
X026875Y007594D01*
X026875Y007435D02*
X006525Y007435D01*
X006699Y007277D02*
X026875Y007277D01*
X026946Y007118D02*
X006858Y007118D01*
X006979Y006960D02*
X027105Y006960D01*
X027263Y006801D02*
X007085Y006801D01*
X007181Y006643D02*
X008054Y006643D01*
X007664Y006484D02*
X007246Y006484D01*
X007312Y006326D02*
X007473Y006326D01*
X008476Y006643D02*
X034929Y006643D01*
X034539Y006484D02*
X008866Y006484D01*
X009057Y006326D02*
X034348Y006326D01*
X034217Y006167D02*
X009188Y006167D01*
X009279Y006009D02*
X034126Y006009D01*
X034075Y005850D02*
X009330Y005850D01*
X009370Y005692D02*
X034035Y005692D01*
X034035Y005533D02*
X009370Y005533D01*
X009361Y005375D02*
X034044Y005375D01*
X034087Y005216D02*
X009318Y005216D01*
X009254Y005058D02*
X034151Y005058D01*
X034243Y004899D02*
X009162Y004899D01*
X009013Y004741D02*
X034392Y004741D01*
X034615Y004582D02*
X008790Y004582D01*
X007740Y004582D02*
X007228Y004582D01*
X007294Y004741D02*
X007517Y004741D01*
X007368Y004899D02*
X007351Y004899D01*
X007161Y004424D02*
X036244Y004424D01*
X036177Y004582D02*
X035665Y004582D01*
X035888Y004741D02*
X036111Y004741D01*
X036054Y004899D02*
X036037Y004899D01*
X036350Y004265D02*
X007055Y004265D01*
X006950Y004107D02*
X036455Y004107D01*
X036591Y003948D02*
X006814Y003948D01*
X006655Y003790D02*
X036750Y003790D01*
X036946Y003631D02*
X006459Y003631D01*
X006222Y003473D02*
X037183Y003473D01*
X037541Y003314D02*
X005864Y003314D01*
X012207Y010662D02*
X012294Y010634D01*
X012384Y010620D01*
X012860Y010620D01*
X012860Y011130D01*
X011854Y011130D01*
X011864Y011064D01*
X011892Y010977D01*
X011934Y010896D01*
X011988Y010822D01*
X012052Y010758D01*
X012126Y010704D01*
X012207Y010662D01*
X012046Y010764D02*
X009160Y010764D01*
X009160Y010922D02*
X011921Y010922D01*
X011862Y011081D02*
X009160Y011081D01*
X009343Y011398D02*
X011884Y011398D01*
X011972Y011556D02*
X010152Y011556D01*
X010285Y011715D02*
X012162Y011715D01*
X012860Y011715D02*
X013000Y011715D01*
X013000Y011556D02*
X012860Y011556D01*
X013000Y011130D02*
X014006Y011130D01*
X013996Y011064D01*
X013968Y010977D01*
X013926Y010896D01*
X013872Y010822D01*
X013808Y010758D01*
X013734Y010704D01*
X013653Y010662D01*
X013566Y010634D01*
X013476Y010620D01*
X013000Y010620D01*
X013000Y011130D01*
X013000Y011081D02*
X012860Y011081D01*
X012860Y010922D02*
X013000Y010922D01*
X013000Y010764D02*
X012860Y010764D01*
X013814Y010764D02*
X016446Y010764D01*
X016452Y010758D02*
X016526Y010704D01*
X016607Y010662D01*
X016694Y010634D01*
X016784Y010620D01*
X017260Y010620D01*
X017260Y011130D01*
X016254Y011130D01*
X016264Y011064D01*
X016292Y010977D01*
X016334Y010896D01*
X016388Y010822D01*
X016452Y010758D01*
X016321Y010922D02*
X013939Y010922D01*
X013998Y011081D02*
X016262Y011081D01*
X016284Y011398D02*
X013976Y011398D01*
X013888Y011556D02*
X016372Y011556D01*
X016562Y011715D02*
X013698Y011715D01*
X011603Y012032D02*
X018254Y012032D01*
X018063Y012190D02*
X011604Y012190D01*
X011594Y012349D02*
X017871Y012349D01*
X017679Y012507D02*
X011592Y012507D01*
X010310Y011873D02*
X018446Y011873D01*
X018638Y011715D02*
X018098Y011715D01*
X018288Y011556D02*
X018677Y011556D01*
X018672Y011398D02*
X018376Y011398D01*
X017400Y011556D02*
X017260Y011556D01*
X017260Y011715D02*
X017400Y011715D01*
X017400Y011081D02*
X017260Y011081D01*
X017260Y010922D02*
X017400Y010922D01*
X017400Y010764D02*
X017260Y010764D01*
X018841Y009496D02*
X020569Y009496D01*
X020572Y009337D02*
X020288Y009337D01*
X020350Y009275D02*
X020210Y009415D01*
X020028Y009490D01*
X019832Y009490D01*
X019650Y009415D01*
X019510Y009275D01*
X019435Y009093D01*
X019435Y008267D01*
X019510Y008085D01*
X019650Y007945D01*
X019832Y007870D01*
X020028Y007870D01*
X020210Y007945D01*
X020350Y008085D01*
X020425Y008267D01*
X020425Y009093D01*
X020350Y009275D01*
X020390Y009179D02*
X020470Y009179D01*
X020435Y009020D02*
X020425Y009020D01*
X020425Y008862D02*
X020435Y008862D01*
X020425Y008703D02*
X020435Y008703D01*
X020425Y008545D02*
X020435Y008545D01*
X020425Y008386D02*
X020435Y008386D01*
X020451Y008228D02*
X020409Y008228D01*
X020334Y008069D02*
X020526Y008069D01*
X020734Y007911D02*
X020126Y007911D01*
X019734Y007911D02*
X019126Y007911D01*
X019334Y008069D02*
X019526Y008069D01*
X019451Y008228D02*
X019409Y008228D01*
X019425Y008386D02*
X019435Y008386D01*
X019425Y008545D02*
X019435Y008545D01*
X019425Y008703D02*
X019435Y008703D01*
X019425Y008862D02*
X019435Y008862D01*
X019425Y009020D02*
X019435Y009020D01*
X019470Y009179D02*
X019390Y009179D01*
X019288Y009337D02*
X019572Y009337D01*
X018435Y009020D02*
X018366Y009020D01*
X018435Y008862D02*
X018207Y008862D01*
X019720Y012190D02*
X021870Y012190D01*
X021711Y012349D02*
X019561Y012349D01*
X019403Y012507D02*
X021553Y012507D01*
X021394Y012666D02*
X019244Y012666D01*
X019086Y012824D02*
X021236Y012824D01*
X021445Y012983D02*
X024532Y012983D01*
X024570Y013021D02*
X024650Y013021D01*
X024650Y013564D01*
X024229Y013985D01*
X023905Y013985D01*
X023905Y013934D01*
X023800Y013829D01*
X023060Y013829D01*
X022955Y013934D01*
X022955Y013950D01*
X022574Y013950D01*
X022471Y013993D01*
X022393Y014071D01*
X022164Y014300D01*
X021656Y014300D01*
X021707Y014249D01*
X021856Y014249D01*
X022023Y014180D01*
X022151Y014052D01*
X022221Y013885D01*
X022221Y013704D01*
X022151Y013536D01*
X022023Y013408D01*
X021856Y013339D01*
X021675Y013339D01*
X021508Y013408D01*
X021380Y013536D01*
X021311Y013704D01*
X021311Y013853D01*
X021294Y013870D01*
X020558Y013870D01*
X022088Y012340D01*
X024465Y012340D01*
X024465Y012915D01*
X024570Y013021D01*
X024650Y013141D02*
X021287Y013141D01*
X021128Y013300D02*
X024650Y013300D01*
X024650Y013458D02*
X022073Y013458D01*
X022185Y013617D02*
X024598Y013617D01*
X024439Y013775D02*
X022221Y013775D01*
X022200Y013934D02*
X022955Y013934D01*
X022372Y014092D02*
X022111Y014092D01*
X022214Y014251D02*
X021705Y014251D01*
X021311Y013775D02*
X020653Y013775D01*
X020811Y013617D02*
X021347Y013617D01*
X021458Y013458D02*
X020970Y013458D01*
X021604Y012824D02*
X024465Y012824D01*
X024465Y012666D02*
X021762Y012666D01*
X021921Y012507D02*
X024465Y012507D01*
X024465Y012349D02*
X022079Y012349D01*
X023905Y013934D02*
X024281Y013934D01*
X024914Y014092D02*
X040700Y014092D01*
X040700Y013934D02*
X025072Y013934D01*
X025194Y013775D02*
X040700Y013775D01*
X040700Y013617D02*
X025210Y013617D01*
X025210Y013458D02*
X040700Y013458D01*
X040700Y013300D02*
X025210Y013300D01*
X025210Y013141D02*
X040700Y013141D01*
X040700Y012983D02*
X025348Y012983D01*
X025415Y012824D02*
X040700Y012824D01*
X040700Y012666D02*
X025415Y012666D01*
X025415Y012507D02*
X026467Y012507D01*
X026305Y012349D02*
X025415Y012349D01*
X026993Y012507D02*
X040700Y012507D01*
X040700Y012349D02*
X027155Y012349D01*
X024390Y015202D02*
X039780Y015202D01*
X039780Y015360D02*
X024390Y015360D01*
X024390Y015519D02*
X039666Y015519D01*
X040700Y016787D02*
X029268Y016787D01*
X029111Y016945D02*
X040700Y016945D01*
X040700Y017104D02*
X024390Y017104D01*
X024390Y016945D02*
X027149Y016945D01*
X026991Y016787D02*
X025523Y016787D01*
X025512Y017262D02*
X040700Y017262D01*
X040700Y018689D02*
X030825Y018689D01*
X030809Y018847D02*
X040700Y018847D01*
X037385Y018530D02*
X030791Y018530D01*
X030692Y018372D02*
X037227Y018372D01*
X037362Y019006D02*
X030735Y019006D01*
X030527Y019164D02*
X037212Y019164D01*
X037147Y019323D02*
X028805Y019323D01*
X028964Y019164D02*
X030133Y019164D01*
X029925Y019006D02*
X029122Y019006D01*
X029050Y018710D02*
X028580Y019180D01*
X027080Y019180D01*
X026530Y018630D01*
X026988Y018213D02*
X029945Y018213D01*
X029968Y018372D02*
X027110Y018372D01*
X027110Y018530D02*
X028862Y018530D01*
X028704Y018689D02*
X027110Y018689D01*
X027115Y018847D02*
X028545Y018847D01*
X029050Y018710D02*
X030330Y018710D01*
X029787Y018055D02*
X019080Y018055D01*
X019238Y018213D02*
X024122Y018213D01*
X024000Y018372D02*
X019397Y018372D01*
X019555Y018530D02*
X024000Y018530D01*
X024000Y018689D02*
X019714Y018689D01*
X020293Y020071D02*
X020293Y020071D01*
X020249Y020115D02*
X018910Y020115D01*
X018910Y020274D02*
X020090Y020274D01*
X019932Y020432D02*
X018910Y020432D01*
X018865Y020591D02*
X019850Y020591D01*
X019850Y020749D02*
X018707Y020749D01*
X018548Y020908D02*
X019850Y020908D01*
X020880Y022590D02*
X021290Y022590D01*
X020217Y023444D02*
X015729Y023444D01*
X015727Y023602D02*
X020200Y023602D01*
X020200Y023761D02*
X015725Y023761D01*
X015723Y023919D02*
X020239Y023919D01*
X025745Y023761D02*
X036961Y023761D01*
X037198Y023602D02*
X025904Y023602D01*
X026786Y019950D02*
X026786Y019950D01*
X026920Y019798D02*
X037191Y019798D01*
X037126Y019640D02*
X027047Y019640D01*
X027112Y019481D02*
X037122Y019481D01*
X037208Y022176D02*
X035880Y022176D01*
X035722Y022334D02*
X037142Y022334D01*
X037122Y022493D02*
X035563Y022493D01*
X035405Y022651D02*
X037130Y022651D01*
X037196Y022810D02*
X035246Y022810D01*
X035088Y022968D02*
X037323Y022968D01*
X039134Y023444D02*
X040700Y023444D01*
X040700Y023602D02*
X039502Y023602D01*
X039739Y023761D02*
X040700Y023761D01*
X040700Y023919D02*
X039940Y023919D01*
X040098Y024078D02*
X040700Y024078D01*
X040700Y024236D02*
X040238Y024236D01*
X040343Y024395D02*
X040700Y024395D01*
X040700Y024553D02*
X040449Y024553D01*
X040519Y024712D02*
X040700Y024712D01*
X040700Y024870D02*
X040584Y024870D01*
X040644Y025029D02*
X040700Y025029D01*
X040700Y025187D02*
X040676Y025187D01*
X030205Y016470D02*
X030155Y016470D01*
X029680Y016145D02*
X030661Y016145D01*
X030680Y016165D01*
X023870Y016153D02*
X011945Y016153D01*
X012001Y015677D02*
X016750Y015677D01*
X016792Y015519D02*
X012002Y015519D01*
X010273Y017262D02*
X009415Y017262D01*
X009440Y017104D02*
X016281Y017104D01*
X016300Y016945D02*
X009393Y016945D01*
X009299Y017421D02*
X010114Y017421D01*
X008861Y017421D02*
X007839Y017421D01*
X018096Y015994D02*
X023870Y015994D01*
X023870Y015836D02*
X018592Y015836D01*
X035351Y006643D02*
X036224Y006643D01*
X036159Y006484D02*
X035741Y006484D01*
X035932Y006326D02*
X036093Y006326D01*
X038708Y007911D02*
X040700Y007911D01*
X040700Y007752D02*
X039265Y007752D01*
X039583Y007594D02*
X040700Y007594D01*
X040700Y007435D02*
X039820Y007435D01*
X039994Y007277D02*
X040700Y007277D01*
X040700Y007118D02*
X040153Y007118D01*
X040274Y006960D02*
X040700Y006960D01*
X040700Y006801D02*
X040380Y006801D01*
X040476Y006643D02*
X040700Y006643D01*
X040700Y006484D02*
X040541Y006484D01*
X040607Y006326D02*
X040700Y006326D01*
X040700Y006167D02*
X040655Y006167D01*
X040686Y006009D02*
X040700Y006009D01*
X040678Y005058D02*
X040700Y005058D01*
X040700Y004899D02*
X040646Y004899D01*
X040700Y004741D02*
X040589Y004741D01*
X040523Y004582D02*
X040700Y004582D01*
X040700Y004424D02*
X040456Y004424D01*
X040350Y004265D02*
X040700Y004265D01*
X040700Y004107D02*
X040245Y004107D01*
X040109Y003948D02*
X040700Y003948D01*
X040700Y003790D02*
X039950Y003790D01*
X039754Y003631D02*
X040700Y003631D01*
X040700Y003473D02*
X039517Y003473D01*
X039159Y003314D02*
X040700Y003314D01*
D24*
X022570Y025070D03*
X009080Y017130D03*
X003180Y017180D03*
X007930Y012680D03*
D25*
X010480Y017380D02*
X010030Y017830D01*
X010080Y020430D01*
X010530Y020830D01*
X013480Y020830D01*
X015180Y019080D01*
X018180Y019080D01*
X018930Y019780D01*
X026680Y019730D01*
X026880Y019480D01*
X026880Y018430D01*
X024230Y018430D01*
X024230Y018830D01*
X024030Y018980D01*
X019680Y018980D01*
X018680Y017980D01*
X018680Y017080D01*
X018180Y016580D01*
X018007Y016580D01*
X017992Y016595D01*
X016868Y016595D01*
X016853Y016580D01*
X016830Y016580D01*
X016530Y016880D01*
X016530Y017180D01*
X016330Y017380D01*
X010480Y017380D01*
X010405Y017455D02*
X018680Y017455D01*
X018680Y017357D02*
X016353Y017357D01*
X016452Y017258D02*
X018680Y017258D01*
X018680Y017160D02*
X016530Y017160D01*
X016530Y017061D02*
X018661Y017061D01*
X018563Y016963D02*
X016530Y016963D01*
X016546Y016864D02*
X018464Y016864D01*
X018366Y016766D02*
X016644Y016766D01*
X016743Y016667D02*
X018267Y016667D01*
X018680Y017554D02*
X010306Y017554D01*
X010208Y017652D02*
X018680Y017652D01*
X018680Y017751D02*
X010109Y017751D01*
X010030Y017849D02*
X018680Y017849D01*
X018680Y017948D02*
X010032Y017948D01*
X010034Y018046D02*
X018746Y018046D01*
X018845Y018145D02*
X010036Y018145D01*
X010038Y018243D02*
X018943Y018243D01*
X019042Y018342D02*
X010040Y018342D01*
X010042Y018440D02*
X019140Y018440D01*
X019239Y018539D02*
X010044Y018539D01*
X010046Y018637D02*
X019337Y018637D01*
X019436Y018736D02*
X010047Y018736D01*
X010049Y018834D02*
X019534Y018834D01*
X019633Y018933D02*
X010051Y018933D01*
X010053Y019031D02*
X026880Y019031D01*
X026880Y018933D02*
X024093Y018933D01*
X024225Y018834D02*
X026880Y018834D01*
X026880Y018736D02*
X024230Y018736D01*
X024230Y018637D02*
X026880Y018637D01*
X026880Y018539D02*
X024230Y018539D01*
X024230Y018440D02*
X026880Y018440D01*
X026880Y019130D02*
X018233Y019130D01*
X018339Y019228D02*
X026880Y019228D01*
X026880Y019327D02*
X018444Y019327D01*
X018550Y019425D02*
X026880Y019425D01*
X026845Y019524D02*
X018655Y019524D01*
X018761Y019622D02*
X026766Y019622D01*
X026688Y019721D02*
X018866Y019721D01*
X015132Y019130D02*
X010055Y019130D01*
X010057Y019228D02*
X015036Y019228D01*
X014941Y019327D02*
X010059Y019327D01*
X010061Y019425D02*
X014845Y019425D01*
X014749Y019524D02*
X010063Y019524D01*
X010064Y019622D02*
X014653Y019622D01*
X014558Y019721D02*
X010066Y019721D01*
X010068Y019819D02*
X014462Y019819D01*
X014366Y019918D02*
X010070Y019918D01*
X010072Y020016D02*
X014271Y020016D01*
X014175Y020115D02*
X010074Y020115D01*
X010076Y020213D02*
X014079Y020213D01*
X013984Y020312D02*
X010078Y020312D01*
X010080Y020410D02*
X013888Y020410D01*
X013792Y020509D02*
X010168Y020509D01*
X010279Y020607D02*
X013697Y020607D01*
X013601Y020706D02*
X010390Y020706D01*
X010501Y020804D02*
X013505Y020804D01*
M02*
