%
M48
M72
T01C0.0200
T02C0.0350
T03C0.0420
T04C0.0600
T05C0.1250
T06C0.3800
%
T01
X7930Y12680
X9080Y17130
X3180Y17180
X22570Y25070
T02
X22290Y26350
X21290Y26350
X22360Y22740
X22360Y21940
X26530Y18630
X27530Y18630
X30330Y18710
X31330Y18710
X32990Y16830
X32990Y15430
X28430Y16180
X27630Y16180
X26730Y13480
X26730Y12080
X21766Y12994
X21766Y13794
X34530Y20980
X35930Y20980
T03
X32430Y22180
X31430Y22180
X30430Y22180
X29430Y22180
X27930Y22180
X26930Y22180
X25930Y22180
X24930Y22180
X13230Y22730
X12230Y22730
X11230Y22730
X10230Y22730
X18930Y8680
X19930Y8680
X20930Y8680
X21930Y8680
X25180Y8680
X26180Y8680
X27180Y8680
X28180Y8680
X29880Y8680
X30880Y8680
X31880Y8680
X32880Y8680
T04
X36530Y9180
X38530Y9180
X38530Y11180
X36530Y11180
X36530Y13180
X38530Y13180
X38530Y15180
X36530Y15180
X38202Y18006
X38202Y19506
X38202Y21006
X38202Y22506
X17330Y20060
X12930Y20060
X6530Y15080
X4530Y15080
X4530Y13080
X6530Y13080
X6530Y11080
X4530Y11080
X4530Y9080
X6530Y9080
X12930Y11200
X17330Y11200
T05
X8265Y5555
X35140Y5555
X35140Y25695
X8265Y25695
T06
X5055Y5555
X5055Y25695
X38350Y25695
X38350Y5555
M30
