G75*
%MOIN*%
%OFA0B0*%
%FSLAX24Y24*%
%IPPOS*%
%LPD*%
%AMOC8*
5,1,8,0,0,1.08239X$1,22.5*
%
%ADD10C,0.3880*%
%ADD11C,0.1330*%
%ADD12C,0.1080*%
%ADD13OC8,0.0710*%
%ADD14C,0.0710*%
%ADD15OC8,0.0680*%
%ADD16C,0.0630*%
%ADD17C,0.0980*%
%ADD18R,0.0592X0.0671*%
%ADD19R,0.0336X0.0769*%
%ADD20R,0.0671X0.0592*%
%ADD21R,0.0710X0.0592*%
%ADD22C,0.0710*%
%ADD23C,0.0440*%
D10*
X005055Y005555D03*
X005055Y025695D03*
X038350Y025695D03*
X038350Y005555D03*
D11*
X035140Y005555D03*
X008265Y005555D03*
X008265Y025695D03*
X035140Y025695D03*
D12*
X017830Y020060D02*
X016830Y020060D01*
X013430Y020060D02*
X012430Y020060D01*
X012430Y011200D02*
X013430Y011200D01*
X016830Y011200D02*
X017830Y011200D01*
D13*
X026730Y013480D03*
X032990Y016830D03*
X031330Y018710D03*
X034530Y020980D03*
X027530Y018630D03*
X022290Y026350D03*
D14*
X021290Y026350D03*
X026530Y018630D03*
X030330Y018710D03*
X032990Y015430D03*
X026730Y012080D03*
X035930Y020980D03*
D15*
X028430Y016180D03*
X021766Y012994D03*
X022360Y022740D03*
D16*
X022360Y021940D03*
X027630Y016180D03*
X021766Y013794D03*
D17*
X036080Y013180D02*
X036980Y013180D01*
X038080Y013180D02*
X038980Y013180D01*
X038980Y015180D02*
X038080Y015180D01*
X036980Y015180D02*
X036080Y015180D01*
X037752Y018006D02*
X038652Y018006D01*
X038652Y019506D02*
X037752Y019506D01*
X037752Y021006D02*
X038652Y021006D01*
X038652Y022506D02*
X037752Y022506D01*
X038080Y011180D02*
X038980Y011180D01*
X036980Y011180D02*
X036080Y011180D01*
X036080Y009180D02*
X036980Y009180D01*
X038080Y009180D02*
X038980Y009180D01*
X006980Y009080D02*
X006080Y009080D01*
X004980Y009080D02*
X004080Y009080D01*
X004080Y011080D02*
X004980Y011080D01*
X006080Y011080D02*
X006980Y011080D01*
X006980Y013080D02*
X006080Y013080D01*
X004980Y013080D02*
X004080Y013080D01*
X004080Y015080D02*
X004980Y015080D01*
X006080Y015080D02*
X006980Y015080D01*
D18*
X006945Y018825D03*
X006275Y018825D03*
X008346Y020790D03*
X009094Y020790D03*
D19*
X009080Y017885D03*
X008580Y017885D03*
X009580Y017885D03*
X010080Y017885D03*
X010080Y015680D03*
X009580Y015680D03*
X009080Y015680D03*
X008580Y015680D03*
D20*
X009580Y019056D03*
X009580Y019804D03*
D21*
X007310Y021676D03*
X007310Y022424D03*
X006320Y021924D03*
X006320Y021176D03*
X005030Y020934D03*
X005030Y020186D03*
D22*
X010230Y022415D02*
X010230Y023045D01*
X011230Y023045D02*
X011230Y022415D01*
X012230Y022415D02*
X012230Y023045D01*
X013230Y023045D02*
X013230Y022415D01*
X024930Y022495D02*
X024930Y021865D01*
X025930Y021865D02*
X025930Y022495D01*
X026930Y022495D02*
X026930Y021865D01*
X027930Y021865D02*
X027930Y022495D01*
X029430Y022495D02*
X029430Y021865D01*
X030430Y021865D02*
X030430Y022495D01*
X031430Y022495D02*
X031430Y021865D01*
X032430Y021865D02*
X032430Y022495D01*
X032880Y008995D02*
X032880Y008365D01*
X031880Y008365D02*
X031880Y008995D01*
X030880Y008995D02*
X030880Y008365D01*
X029880Y008365D02*
X029880Y008995D01*
X028180Y008995D02*
X028180Y008365D01*
X027180Y008365D02*
X027180Y008995D01*
X026180Y008995D02*
X026180Y008365D01*
X025180Y008365D02*
X025180Y008995D01*
X021930Y008995D02*
X021930Y008365D01*
X020930Y008365D02*
X020930Y008995D01*
X019930Y008995D02*
X019930Y008365D01*
X018930Y008365D02*
X018930Y008995D01*
D23*
X007930Y012680D03*
X009080Y017130D03*
X003180Y017180D03*
X022570Y025070D03*
M02*
