G75*
%MOIN*%
%OFA0B0*%
%FSLAX24Y24*%
%IPPOS*%
%LPD*%
%AMOC8*
5,1,8,0,0,1.08239X$1,22.5*
%
%ADD10C,0.1000*%
%ADD11OC8,0.0630*%
%ADD12C,0.0630*%
%ADD13OC8,0.0600*%
%ADD14C,0.0550*%
%ADD15C,0.0900*%
%ADD16R,0.0512X0.0591*%
%ADD17R,0.0256X0.0689*%
%ADD18R,0.0591X0.0512*%
%ADD19R,0.0630X0.0512*%
%ADD20C,0.0630*%
%ADD21C,0.0160*%
%ADD22C,0.0360*%
%ADD23C,0.0200*%
D10*
X012430Y011200D02*
X013430Y011200D01*
X016830Y011200D02*
X017830Y011200D01*
X017830Y020060D02*
X016830Y020060D01*
X013430Y020060D02*
X012430Y020060D01*
D11*
X022290Y026350D03*
X027530Y018630D03*
X031330Y018710D03*
X032990Y016830D03*
X034530Y020980D03*
X026730Y013480D03*
D12*
X026730Y012080D03*
X032990Y015430D03*
X030330Y018710D03*
X026530Y018630D03*
X035930Y020980D03*
X021290Y026350D03*
D13*
X022360Y022740D03*
X028430Y016180D03*
X021766Y012994D03*
D14*
X021766Y013794D03*
X027630Y016180D03*
X022360Y021940D03*
D15*
X036080Y015180D02*
X036980Y015180D01*
X038080Y015180D02*
X038980Y015180D01*
X038980Y013180D02*
X038080Y013180D01*
X036980Y013180D02*
X036080Y013180D01*
X036080Y011180D02*
X036980Y011180D01*
X038080Y011180D02*
X038980Y011180D01*
X038980Y009180D02*
X038080Y009180D01*
X036980Y009180D02*
X036080Y009180D01*
X037752Y018006D02*
X038652Y018006D01*
X038652Y019506D02*
X037752Y019506D01*
X037752Y021006D02*
X038652Y021006D01*
X038652Y022506D02*
X037752Y022506D01*
X006980Y015080D02*
X006080Y015080D01*
X004980Y015080D02*
X004080Y015080D01*
X004080Y013080D02*
X004980Y013080D01*
X006080Y013080D02*
X006980Y013080D01*
X006980Y011080D02*
X006080Y011080D01*
X004980Y011080D02*
X004080Y011080D01*
X004080Y009080D02*
X004980Y009080D01*
X006080Y009080D02*
X006980Y009080D01*
D16*
X006945Y018825D03*
X006275Y018825D03*
X008346Y020790D03*
X009094Y020790D03*
D17*
X009080Y017885D03*
X008580Y017885D03*
X009580Y017885D03*
X010080Y017885D03*
X010080Y015680D03*
X009580Y015680D03*
X009080Y015680D03*
X008580Y015680D03*
D18*
X009580Y019056D03*
X009580Y019804D03*
D19*
X007310Y021676D03*
X007310Y022424D03*
X006320Y021924D03*
X006320Y021176D03*
X005030Y020934D03*
X005030Y020186D03*
D20*
X010230Y022415D02*
X010230Y023045D01*
X011230Y023045D02*
X011230Y022415D01*
X012230Y022415D02*
X012230Y023045D01*
X013230Y023045D02*
X013230Y022415D01*
X024930Y022495D02*
X024930Y021865D01*
X025930Y021865D02*
X025930Y022495D01*
X026930Y022495D02*
X026930Y021865D01*
X027930Y021865D02*
X027930Y022495D01*
X029430Y022495D02*
X029430Y021865D01*
X030430Y021865D02*
X030430Y022495D01*
X031430Y022495D02*
X031430Y021865D01*
X032430Y021865D02*
X032430Y022495D01*
X032880Y008995D02*
X032880Y008365D01*
X031880Y008365D02*
X031880Y008995D01*
X030880Y008995D02*
X030880Y008365D01*
X029880Y008365D02*
X029880Y008995D01*
X028180Y008995D02*
X028180Y008365D01*
X027180Y008365D02*
X027180Y008995D01*
X026180Y008995D02*
X026180Y008365D01*
X025180Y008365D02*
X025180Y008995D01*
X021930Y008995D02*
X021930Y008365D01*
X020930Y008365D02*
X020930Y008995D01*
X019930Y008995D02*
X019930Y008365D01*
X018930Y008365D02*
X018930Y008995D01*
D21*
X002660Y003160D02*
X002660Y017350D01*
X002693Y017271D01*
X002771Y017193D01*
X002820Y017144D01*
X002820Y017108D01*
X002875Y016976D01*
X002900Y016951D01*
X002900Y012324D01*
X002943Y012221D01*
X003021Y012143D01*
X003021Y012143D01*
X003243Y011921D01*
X003321Y011843D01*
X003424Y011800D01*
X007436Y011800D01*
X007539Y011843D01*
X007617Y011921D01*
X008026Y012330D01*
X008134Y012375D01*
X008235Y012476D01*
X008290Y012608D01*
X008290Y012752D01*
X008235Y012884D01*
X008134Y012985D01*
X008002Y013040D01*
X007858Y013040D01*
X007726Y012985D01*
X007722Y012981D01*
X007731Y013101D01*
X007879Y013224D01*
X008969Y013269D01*
X008999Y013266D01*
X009020Y013271D01*
X009042Y013272D01*
X009070Y013285D01*
X009098Y013293D01*
X009116Y013306D01*
X009136Y013316D01*
X009157Y013338D01*
X009180Y013356D01*
X009191Y013376D01*
X009206Y013392D01*
X009217Y013420D01*
X009220Y013426D01*
X009220Y009728D01*
X009260Y009633D01*
X009333Y009560D01*
X009683Y009210D01*
X009778Y009170D01*
X017676Y009170D01*
X017725Y009169D01*
X017728Y009170D01*
X017732Y009170D01*
X017776Y009188D01*
X017821Y009206D01*
X017824Y009208D01*
X017827Y009210D01*
X017861Y009244D01*
X018774Y010108D01*
X018777Y010110D01*
X018811Y010144D01*
X018846Y010177D01*
X018848Y010180D01*
X018900Y010233D01*
X018940Y010328D01*
X018940Y011782D01*
X018900Y011877D01*
X018827Y011950D01*
X018327Y012450D01*
X018232Y012490D01*
X016238Y012490D01*
X011877Y016850D01*
X011782Y016890D01*
X009816Y016890D01*
X009789Y016917D01*
X009686Y016960D01*
X009399Y016960D01*
X009440Y017058D01*
X009440Y017202D01*
X009385Y017334D01*
X009360Y017359D01*
X009360Y017378D01*
X009377Y017360D01*
X009783Y017360D01*
X009888Y017466D01*
X009888Y018304D01*
X009860Y018332D01*
X009860Y018620D01*
X009950Y018620D01*
X010055Y018726D01*
X010055Y019386D01*
X009950Y019492D01*
X009210Y019492D01*
X009105Y019386D01*
X009105Y018726D01*
X009210Y018620D01*
X009300Y018620D01*
X009300Y018392D01*
X009283Y018409D01*
X008877Y018409D01*
X008860Y018392D01*
X008860Y018736D01*
X008817Y018839D01*
X008620Y019036D01*
X008620Y020315D01*
X008676Y020315D01*
X008782Y020420D01*
X008782Y021160D01*
X008676Y021265D01*
X008661Y021265D01*
X008696Y021300D01*
X010536Y021300D01*
X010639Y021343D01*
X010839Y021543D01*
X010917Y021621D01*
X010960Y021724D01*
X010960Y021864D01*
X011050Y021954D01*
X011132Y021920D01*
X011328Y021920D01*
X011510Y021995D01*
X011650Y022135D01*
X011725Y022317D01*
X011725Y023143D01*
X011650Y023325D01*
X011510Y023465D01*
X011491Y023473D01*
X011538Y023520D01*
X012083Y023520D01*
X011950Y023465D01*
X011810Y023325D01*
X011735Y023143D01*
X011735Y022317D01*
X011810Y022135D01*
X011950Y021995D01*
X012132Y021920D01*
X012328Y021920D01*
X012510Y021995D01*
X012650Y022135D01*
X012725Y022317D01*
X012725Y022450D01*
X012735Y022450D01*
X012735Y022317D01*
X012810Y022135D01*
X012950Y021995D01*
X013132Y021920D01*
X013328Y021920D01*
X013510Y021995D01*
X013650Y022135D01*
X013725Y022317D01*
X013725Y023143D01*
X013650Y023325D01*
X013510Y023465D01*
X013377Y023520D01*
X025670Y023520D01*
X025670Y022923D01*
X025650Y022915D01*
X025510Y022775D01*
X025435Y022593D01*
X025435Y021767D01*
X025510Y021585D01*
X025650Y021445D01*
X025832Y021370D01*
X026028Y021370D01*
X026210Y021445D01*
X026350Y021585D01*
X026425Y021767D01*
X026425Y022593D01*
X026350Y022775D01*
X026210Y022915D01*
X026190Y022923D01*
X026190Y023682D01*
X026150Y023777D01*
X026077Y023850D01*
X025927Y024000D01*
X025832Y024040D01*
X011378Y024040D01*
X011283Y024000D01*
X011210Y023927D01*
X011083Y023800D01*
X011010Y023727D01*
X010970Y023632D01*
X010970Y023473D01*
X010950Y023465D01*
X010810Y023325D01*
X010735Y023143D01*
X010735Y022431D01*
X010443Y022139D01*
X010400Y022036D01*
X010400Y021896D01*
X010364Y021860D01*
X008524Y021860D01*
X008421Y021817D01*
X008343Y021739D01*
X008109Y021505D01*
X008066Y021402D01*
X008066Y021265D01*
X008016Y021265D01*
X007910Y021160D01*
X007910Y020420D01*
X008016Y020315D01*
X008060Y020315D01*
X008060Y018864D01*
X008103Y018761D01*
X008300Y018564D01*
X008300Y018332D01*
X008272Y018304D01*
X008272Y017466D01*
X008377Y017360D01*
X008783Y017360D01*
X008800Y017378D01*
X008800Y017359D01*
X008775Y017334D01*
X008720Y017202D01*
X008720Y017058D01*
X008728Y017038D01*
X008074Y017032D01*
X007221Y017885D01*
X007223Y018350D01*
X007275Y018350D01*
X007381Y018455D01*
X007381Y019195D01*
X007275Y019300D01*
X007210Y019300D01*
X007210Y019636D01*
X007167Y019739D01*
X007089Y019817D01*
X006483Y020423D01*
X006380Y020466D01*
X005525Y020466D01*
X005525Y020516D01*
X005481Y020560D01*
X005525Y020604D01*
X005525Y020650D01*
X005565Y020650D01*
X005620Y020650D01*
X005621Y020650D01*
X005736Y020650D01*
X005839Y020693D01*
X005908Y020762D01*
X005930Y020740D01*
X006710Y020740D01*
X006815Y020846D01*
X006815Y021506D01*
X006771Y021550D01*
X006815Y021594D01*
X006815Y022144D01*
X006815Y022094D01*
X006920Y021988D01*
X007700Y021988D01*
X007805Y022094D01*
X007805Y022144D01*
X008030Y022144D01*
X008133Y022187D01*
X010296Y024350D01*
X022114Y024350D01*
X022171Y024293D01*
X022274Y024250D01*
X023386Y024250D01*
X023489Y024293D01*
X023596Y024400D01*
X031064Y024400D01*
X031843Y023621D01*
X031921Y023543D01*
X032024Y023500D01*
X035064Y023500D01*
X036143Y022421D01*
X036221Y022343D01*
X036324Y022300D01*
X037156Y022300D01*
X037218Y022150D01*
X037396Y021972D01*
X037627Y021876D01*
X038778Y021876D01*
X039009Y021972D01*
X039187Y022150D01*
X039282Y022381D01*
X039282Y022632D01*
X039187Y022863D01*
X039150Y022900D01*
X039514Y022900D01*
X039700Y022714D01*
X039700Y019946D01*
X039564Y019810D01*
X039209Y019810D01*
X039187Y019863D01*
X039009Y020040D01*
X038778Y020136D01*
X037627Y020136D01*
X037396Y020040D01*
X037218Y019863D01*
X037122Y019632D01*
X037122Y019381D01*
X037218Y019150D01*
X037396Y018972D01*
X037627Y018876D01*
X038778Y018876D01*
X039009Y018972D01*
X039187Y019150D01*
X039228Y019250D01*
X039736Y019250D01*
X039839Y019293D01*
X039917Y019371D01*
X040217Y019671D01*
X040260Y019774D01*
X040260Y022886D01*
X040217Y022989D01*
X040139Y023067D01*
X039789Y023417D01*
X039686Y023460D01*
X039173Y023460D01*
X039477Y023586D01*
X039867Y023846D01*
X040199Y024178D01*
X040459Y024568D01*
X040639Y025001D01*
X040700Y025310D01*
X040700Y005940D01*
X040639Y006249D01*
X040459Y006682D01*
X040199Y007072D01*
X039867Y007404D01*
X039477Y007664D01*
X039149Y007800D01*
X039836Y007800D01*
X039939Y007843D01*
X040489Y008393D01*
X040567Y008471D01*
X040610Y008574D01*
X040610Y016336D01*
X040567Y016439D01*
X040017Y016989D01*
X039939Y017067D01*
X039836Y017110D01*
X037096Y017110D01*
X036210Y017996D01*
X036210Y019814D01*
X037096Y020700D01*
X037197Y020700D01*
X037218Y020650D01*
X037396Y020472D01*
X037627Y020376D01*
X038778Y020376D01*
X039009Y020472D01*
X039187Y020650D01*
X039282Y020881D01*
X039282Y021132D01*
X039187Y021363D01*
X039009Y021540D01*
X038778Y021636D01*
X037627Y021636D01*
X037396Y021540D01*
X037218Y021363D01*
X037176Y021260D01*
X036924Y021260D01*
X036821Y021217D01*
X036743Y021139D01*
X036382Y020778D01*
X036425Y020882D01*
X036425Y021078D01*
X036350Y021260D01*
X036210Y021400D01*
X036028Y021475D01*
X035832Y021475D01*
X035650Y021400D01*
X035510Y021260D01*
X035435Y021078D01*
X035435Y020882D01*
X035510Y020700D01*
X035650Y020560D01*
X035832Y020485D01*
X036028Y020485D01*
X036132Y020528D01*
X035693Y020089D01*
X035650Y019986D01*
X035650Y017824D01*
X035693Y017721D01*
X035771Y017643D01*
X036821Y016593D01*
X036924Y016550D01*
X039664Y016550D01*
X040050Y016164D01*
X040050Y008746D01*
X039664Y008360D01*
X036924Y008360D01*
X036821Y008317D01*
X036743Y008239D01*
X035764Y007260D01*
X032296Y007260D01*
X032160Y007396D01*
X032160Y007945D01*
X032160Y007945D01*
X032300Y008085D01*
X032375Y008267D01*
X032375Y009093D01*
X032300Y009275D01*
X032160Y009415D01*
X031978Y009490D01*
X031782Y009490D01*
X031600Y009415D01*
X031460Y009275D01*
X031385Y009093D01*
X031385Y008267D01*
X031460Y008085D01*
X031600Y007945D01*
X031600Y007224D01*
X031643Y007121D01*
X031943Y006821D01*
X032021Y006743D01*
X032124Y006700D01*
X035936Y006700D01*
X036039Y006743D01*
X037096Y007800D01*
X037551Y007800D01*
X037223Y007664D01*
X036833Y007404D01*
X036501Y007072D01*
X036241Y006682D01*
X036061Y006249D01*
X036050Y006190D01*
X036024Y006233D01*
X035818Y006439D01*
X035567Y006585D01*
X035285Y006660D01*
X034995Y006660D01*
X034713Y006585D01*
X034462Y006439D01*
X034256Y006233D01*
X034110Y005982D01*
X034035Y005700D01*
X034035Y005410D01*
X034110Y005128D01*
X034256Y004877D01*
X034462Y004671D01*
X034713Y004525D01*
X034995Y004450D01*
X035285Y004450D01*
X035567Y004525D01*
X035818Y004671D01*
X036024Y004877D01*
X036050Y004920D01*
X036061Y004861D01*
X036241Y004428D01*
X036501Y004038D01*
X036833Y003706D01*
X037223Y003446D01*
X037656Y003266D01*
X038116Y003175D01*
X038584Y003175D01*
X039044Y003266D01*
X039477Y003446D01*
X039867Y003706D01*
X040199Y004038D01*
X040459Y004428D01*
X040639Y004861D01*
X040700Y005170D01*
X040700Y003160D01*
X002660Y003160D01*
X002660Y003314D02*
X004246Y003314D01*
X004361Y003266D02*
X004821Y003175D01*
X005289Y003175D01*
X005749Y003266D01*
X006182Y003446D01*
X006572Y003706D01*
X006904Y004038D01*
X007164Y004428D01*
X007344Y004861D01*
X007355Y004920D01*
X007381Y004877D01*
X007587Y004671D01*
X007838Y004525D01*
X008120Y004450D01*
X008410Y004450D01*
X008692Y004525D01*
X008943Y004671D01*
X009149Y004877D01*
X009295Y005128D01*
X009370Y005410D01*
X009370Y005700D01*
X009295Y005982D01*
X009149Y006233D01*
X008943Y006439D01*
X008692Y006585D01*
X008410Y006660D01*
X008120Y006660D01*
X007838Y006585D01*
X007587Y006439D01*
X007381Y006233D01*
X007355Y006190D01*
X007344Y006249D01*
X007164Y006682D01*
X006904Y007072D01*
X006572Y007404D01*
X006182Y007664D01*
X005749Y007844D01*
X005289Y007935D01*
X004821Y007935D01*
X004361Y007844D01*
X003928Y007664D01*
X003538Y007404D01*
X003206Y007072D01*
X002946Y006682D01*
X002766Y006249D01*
X002675Y005789D01*
X002675Y005321D01*
X002766Y004861D01*
X002946Y004428D01*
X003206Y004038D01*
X003538Y003706D01*
X003928Y003446D01*
X004361Y003266D01*
X003888Y003473D02*
X002660Y003473D01*
X002660Y003631D02*
X003651Y003631D01*
X003455Y003790D02*
X002660Y003790D01*
X002660Y003948D02*
X003296Y003948D01*
X003160Y004107D02*
X002660Y004107D01*
X002660Y004265D02*
X003055Y004265D01*
X002949Y004424D02*
X002660Y004424D01*
X002660Y004582D02*
X002882Y004582D01*
X002816Y004741D02*
X002660Y004741D01*
X002660Y004899D02*
X002759Y004899D01*
X002727Y005058D02*
X002660Y005058D01*
X002660Y005216D02*
X002696Y005216D01*
X002675Y005375D02*
X002660Y005375D01*
X002660Y005533D02*
X002675Y005533D01*
X002660Y005692D02*
X002675Y005692D01*
X002660Y005850D02*
X002687Y005850D01*
X002660Y006009D02*
X002719Y006009D01*
X002750Y006167D02*
X002660Y006167D01*
X002660Y006326D02*
X002798Y006326D01*
X002864Y006484D02*
X002660Y006484D01*
X002660Y006643D02*
X002929Y006643D01*
X003025Y006801D02*
X002660Y006801D01*
X002660Y006960D02*
X003131Y006960D01*
X003252Y007118D02*
X002660Y007118D01*
X002660Y007277D02*
X003411Y007277D01*
X003585Y007435D02*
X002660Y007435D01*
X002660Y007594D02*
X003822Y007594D01*
X004140Y007752D02*
X002660Y007752D01*
X002660Y007911D02*
X004697Y007911D01*
X005413Y007911D02*
X018734Y007911D01*
X018650Y007945D02*
X018832Y007870D01*
X019028Y007870D01*
X019210Y007945D01*
X019350Y008085D01*
X019425Y008267D01*
X019425Y008400D01*
X019435Y008400D01*
X019435Y008267D01*
X019510Y008085D01*
X019650Y007945D01*
X019832Y007870D01*
X020028Y007870D01*
X020210Y007945D01*
X020350Y008085D01*
X020425Y008267D01*
X020425Y009093D01*
X020350Y009275D01*
X020210Y009415D01*
X020028Y009490D01*
X019832Y009490D01*
X019650Y009415D01*
X019510Y009275D01*
X019435Y009093D01*
X019435Y008960D01*
X019425Y008960D01*
X019425Y009093D01*
X019350Y009275D01*
X019210Y009415D01*
X019028Y009490D01*
X018832Y009490D01*
X018650Y009415D01*
X018510Y009275D01*
X018435Y009093D01*
X018435Y008267D01*
X018510Y008085D01*
X018650Y007945D01*
X018526Y008069D02*
X002660Y008069D01*
X002660Y008228D02*
X018451Y008228D01*
X018435Y008386D02*
X002660Y008386D01*
X002660Y008545D02*
X018435Y008545D01*
X018435Y008703D02*
X002660Y008703D01*
X002660Y008862D02*
X018435Y008862D01*
X018435Y009020D02*
X002660Y009020D01*
X002660Y009179D02*
X009758Y009179D01*
X009555Y009337D02*
X002660Y009337D01*
X002660Y009496D02*
X009397Y009496D01*
X009251Y009654D02*
X002660Y009654D01*
X002660Y009813D02*
X009220Y009813D01*
X009220Y009971D02*
X002660Y009971D01*
X002660Y010130D02*
X009220Y010130D01*
X009220Y010288D02*
X002660Y010288D01*
X002660Y010447D02*
X009220Y010447D01*
X009220Y010605D02*
X002660Y010605D01*
X002660Y010764D02*
X009220Y010764D01*
X009220Y010922D02*
X002660Y010922D01*
X002660Y011081D02*
X009220Y011081D01*
X009220Y011239D02*
X002660Y011239D01*
X002660Y011398D02*
X009220Y011398D01*
X009220Y011556D02*
X002660Y011556D01*
X002660Y011715D02*
X009220Y011715D01*
X009220Y011873D02*
X007569Y011873D01*
X007727Y012032D02*
X009220Y012032D01*
X009220Y012190D02*
X007886Y012190D01*
X008070Y012349D02*
X009220Y012349D01*
X009220Y012507D02*
X008248Y012507D01*
X008290Y012666D02*
X009220Y012666D01*
X009220Y012824D02*
X008260Y012824D01*
X008137Y012983D02*
X009220Y012983D01*
X009220Y013141D02*
X007779Y013141D01*
X007722Y012983D02*
X007723Y012983D01*
X007461Y012983D02*
X003460Y012983D01*
X003460Y013141D02*
X007473Y013141D01*
X007480Y013230D02*
X007430Y012580D01*
X007237Y012360D01*
X003596Y012360D01*
X003460Y012496D01*
X003460Y016490D01*
X003780Y016730D01*
X007547Y016767D01*
X007793Y016521D01*
X007871Y016443D01*
X007974Y016400D01*
X009180Y016400D01*
X009180Y013880D01*
X008980Y013530D01*
X007780Y013480D01*
X007480Y013230D01*
X007563Y013300D02*
X003460Y013300D01*
X003460Y013458D02*
X007754Y013458D01*
X007449Y012824D02*
X003460Y012824D01*
X003460Y012666D02*
X007437Y012666D01*
X007366Y012507D02*
X003460Y012507D01*
X002900Y012507D02*
X002660Y012507D01*
X002660Y012349D02*
X002900Y012349D01*
X002974Y012190D02*
X002660Y012190D01*
X002660Y012032D02*
X003133Y012032D01*
X003243Y011921D02*
X003243Y011921D01*
X003291Y011873D02*
X002660Y011873D01*
X002660Y012666D02*
X002900Y012666D01*
X002900Y012824D02*
X002660Y012824D01*
X002660Y012983D02*
X002900Y012983D01*
X002900Y013141D02*
X002660Y013141D01*
X002660Y013300D02*
X002900Y013300D01*
X002900Y013458D02*
X002660Y013458D01*
X002660Y013617D02*
X002900Y013617D01*
X002900Y013775D02*
X002660Y013775D01*
X002660Y013934D02*
X002900Y013934D01*
X002900Y014092D02*
X002660Y014092D01*
X002660Y014251D02*
X002900Y014251D01*
X002900Y014409D02*
X002660Y014409D01*
X002660Y014568D02*
X002900Y014568D01*
X002900Y014726D02*
X002660Y014726D01*
X002660Y014885D02*
X002900Y014885D01*
X002900Y015043D02*
X002660Y015043D01*
X002660Y015202D02*
X002900Y015202D01*
X002900Y015360D02*
X002660Y015360D01*
X002660Y015519D02*
X002900Y015519D01*
X002900Y015677D02*
X002660Y015677D01*
X002660Y015836D02*
X002900Y015836D01*
X002900Y015994D02*
X002660Y015994D01*
X002660Y016153D02*
X002900Y016153D01*
X002900Y016311D02*
X002660Y016311D01*
X002660Y016470D02*
X002900Y016470D01*
X002900Y016628D02*
X002660Y016628D01*
X002660Y016787D02*
X002900Y016787D01*
X002900Y016945D02*
X002660Y016945D01*
X002660Y017104D02*
X002822Y017104D01*
X002702Y017262D02*
X002660Y017262D01*
X003460Y016470D02*
X007844Y016470D01*
X007686Y016628D02*
X003644Y016628D01*
X003460Y016311D02*
X009180Y016311D01*
X009180Y016153D02*
X003460Y016153D01*
X003460Y015994D02*
X009180Y015994D01*
X009180Y015836D02*
X003460Y015836D01*
X003460Y015677D02*
X009180Y015677D01*
X009180Y015519D02*
X003460Y015519D01*
X003460Y015360D02*
X009180Y015360D01*
X009180Y015202D02*
X003460Y015202D01*
X003460Y015043D02*
X009180Y015043D01*
X009180Y014885D02*
X003460Y014885D01*
X003460Y014726D02*
X009180Y014726D01*
X009180Y014568D02*
X003460Y014568D01*
X003460Y014409D02*
X009180Y014409D01*
X009180Y014251D02*
X003460Y014251D01*
X003460Y014092D02*
X009180Y014092D01*
X009180Y013934D02*
X003460Y013934D01*
X003460Y013775D02*
X009120Y013775D01*
X009029Y013617D02*
X003460Y013617D01*
X008002Y017104D02*
X008720Y017104D01*
X008745Y017262D02*
X007844Y017262D01*
X007685Y017421D02*
X008317Y017421D01*
X008272Y017579D02*
X007527Y017579D01*
X007368Y017738D02*
X008272Y017738D01*
X008272Y017896D02*
X007221Y017896D01*
X007221Y018055D02*
X008272Y018055D01*
X008272Y018213D02*
X007222Y018213D01*
X007297Y018372D02*
X008300Y018372D01*
X008300Y018530D02*
X007381Y018530D01*
X007381Y018689D02*
X008175Y018689D01*
X008067Y018847D02*
X007381Y018847D01*
X007381Y019006D02*
X008060Y019006D01*
X008060Y019164D02*
X007381Y019164D01*
X007210Y019323D02*
X008060Y019323D01*
X008060Y019481D02*
X007210Y019481D01*
X007208Y019640D02*
X008060Y019640D01*
X008060Y019798D02*
X007108Y019798D01*
X006949Y019957D02*
X008060Y019957D01*
X008060Y020115D02*
X006791Y020115D01*
X006632Y020274D02*
X008060Y020274D01*
X007910Y020432D02*
X006462Y020432D01*
X006718Y020749D02*
X007910Y020749D01*
X007910Y020591D02*
X005512Y020591D01*
X005895Y020749D02*
X005922Y020749D01*
X006815Y020908D02*
X007910Y020908D01*
X007910Y021066D02*
X006815Y021066D01*
X006815Y021225D02*
X007975Y021225D01*
X008066Y021383D02*
X006815Y021383D01*
X006780Y021542D02*
X008146Y021542D01*
X008304Y021700D02*
X006815Y021700D01*
X006815Y021859D02*
X008521Y021859D01*
X008106Y022176D02*
X010480Y022176D01*
X010400Y022017D02*
X007728Y022017D01*
X008280Y022334D02*
X010638Y022334D01*
X010735Y022493D02*
X008439Y022493D01*
X008597Y022651D02*
X010735Y022651D01*
X010735Y022810D02*
X008756Y022810D01*
X008914Y022968D02*
X010735Y022968D01*
X010735Y023127D02*
X009073Y023127D01*
X009231Y023285D02*
X010794Y023285D01*
X010928Y023444D02*
X009390Y023444D01*
X009548Y023602D02*
X010970Y023602D01*
X011043Y023761D02*
X009707Y023761D01*
X009865Y023919D02*
X011201Y023919D01*
X011210Y023927D02*
X011210Y023927D01*
X011083Y023800D02*
X011083Y023800D01*
X011230Y023580D02*
X011430Y023780D01*
X025780Y023780D01*
X025930Y023630D01*
X025930Y022180D01*
X026425Y022176D02*
X026435Y022176D01*
X026425Y022334D02*
X026435Y022334D01*
X026425Y022493D02*
X026435Y022493D01*
X026435Y022593D02*
X026435Y021767D01*
X026510Y021585D01*
X026650Y021445D01*
X026832Y021370D01*
X027028Y021370D01*
X027210Y021445D01*
X027350Y021585D01*
X027425Y021767D01*
X027425Y022593D01*
X027350Y022775D01*
X027210Y022915D01*
X027028Y022990D01*
X026832Y022990D01*
X026650Y022915D01*
X026510Y022775D01*
X026435Y022593D01*
X026459Y022651D02*
X026401Y022651D01*
X026316Y022810D02*
X026544Y022810D01*
X026779Y022968D02*
X026190Y022968D01*
X026190Y023127D02*
X035437Y023127D01*
X035279Y023285D02*
X026190Y023285D01*
X026190Y023444D02*
X035120Y023444D01*
X035596Y022968D02*
X032581Y022968D01*
X032528Y022990D02*
X032332Y022990D01*
X032150Y022915D01*
X032010Y022775D01*
X031935Y022593D01*
X031935Y022460D01*
X031925Y022460D01*
X031925Y022593D01*
X031850Y022775D01*
X031710Y022915D01*
X031528Y022990D01*
X031332Y022990D01*
X031150Y022915D01*
X031010Y022775D01*
X030935Y022593D01*
X030935Y021767D01*
X031010Y021585D01*
X031150Y021445D01*
X031332Y021370D01*
X031528Y021370D01*
X031710Y021445D01*
X031850Y021585D01*
X031925Y021767D01*
X031925Y021900D01*
X031935Y021900D01*
X031935Y021767D01*
X032010Y021585D01*
X032150Y021445D01*
X032332Y021370D01*
X032528Y021370D01*
X032710Y021445D01*
X032850Y021585D01*
X032925Y021767D01*
X032925Y022593D01*
X032850Y022775D01*
X032710Y022915D01*
X032528Y022990D01*
X032279Y022968D02*
X031581Y022968D01*
X031816Y022810D02*
X032044Y022810D01*
X031959Y022651D02*
X031901Y022651D01*
X031925Y022493D02*
X031935Y022493D01*
X031044Y022810D02*
X030816Y022810D01*
X030850Y022775D02*
X030710Y022915D01*
X030528Y022990D01*
X030332Y022990D01*
X030150Y022915D01*
X030010Y022775D01*
X029935Y022593D01*
X029935Y021767D01*
X030010Y021585D01*
X030150Y021445D01*
X030332Y021370D01*
X030528Y021370D01*
X030710Y021445D01*
X030850Y021585D01*
X030925Y021767D01*
X030925Y022593D01*
X030850Y022775D01*
X030901Y022651D02*
X030959Y022651D01*
X030935Y022493D02*
X030925Y022493D01*
X030925Y022334D02*
X030935Y022334D01*
X030925Y022176D02*
X030935Y022176D01*
X030925Y022017D02*
X030935Y022017D01*
X030925Y021859D02*
X030935Y021859D01*
X030963Y021700D02*
X030897Y021700D01*
X030807Y021542D02*
X031053Y021542D01*
X031300Y021383D02*
X030560Y021383D01*
X030300Y021383D02*
X028060Y021383D01*
X028028Y021370D02*
X028210Y021445D01*
X028350Y021585D01*
X028425Y021767D01*
X028425Y022593D01*
X028350Y022775D01*
X028210Y022915D01*
X028028Y022990D01*
X027832Y022990D01*
X027650Y022915D01*
X027510Y022775D01*
X027435Y022593D01*
X027435Y021767D01*
X027510Y021585D01*
X027650Y021445D01*
X027832Y021370D01*
X028028Y021370D01*
X027800Y021383D02*
X027060Y021383D01*
X026800Y021383D02*
X026060Y021383D01*
X025800Y021383D02*
X010679Y021383D01*
X010838Y021542D02*
X022133Y021542D01*
X022102Y021554D02*
X022269Y021485D01*
X022451Y021485D01*
X022618Y021554D01*
X022746Y021682D01*
X022815Y021849D01*
X022815Y022031D01*
X022746Y022198D01*
X022618Y022326D01*
X022451Y022395D01*
X022269Y022395D01*
X022102Y022326D01*
X021974Y022198D01*
X021905Y022031D01*
X021905Y021849D01*
X021974Y021682D01*
X022102Y021554D01*
X021967Y021700D02*
X010950Y021700D01*
X010960Y021859D02*
X021905Y021859D01*
X021905Y022017D02*
X013532Y022017D01*
X013667Y022176D02*
X021965Y022176D01*
X022122Y022334D02*
X013725Y022334D01*
X013725Y022493D02*
X025435Y022493D01*
X025435Y022334D02*
X022598Y022334D01*
X022755Y022176D02*
X025435Y022176D01*
X025435Y022017D02*
X022815Y022017D01*
X022815Y021859D02*
X025435Y021859D01*
X025463Y021700D02*
X022753Y021700D01*
X022587Y021542D02*
X025553Y021542D01*
X026307Y021542D02*
X026553Y021542D01*
X026463Y021700D02*
X026397Y021700D01*
X026425Y021859D02*
X026435Y021859D01*
X026425Y022017D02*
X026435Y022017D01*
X027425Y022017D02*
X027435Y022017D01*
X027425Y021859D02*
X027435Y021859D01*
X027463Y021700D02*
X027397Y021700D01*
X027307Y021542D02*
X027553Y021542D01*
X028307Y021542D02*
X030053Y021542D01*
X029963Y021700D02*
X028397Y021700D01*
X028425Y021859D02*
X029935Y021859D01*
X029935Y022017D02*
X028425Y022017D01*
X028425Y022176D02*
X029935Y022176D01*
X029935Y022334D02*
X028425Y022334D01*
X028425Y022493D02*
X029935Y022493D01*
X029959Y022651D02*
X028401Y022651D01*
X028316Y022810D02*
X030044Y022810D01*
X030279Y022968D02*
X028081Y022968D01*
X027779Y022968D02*
X027081Y022968D01*
X027316Y022810D02*
X027544Y022810D01*
X027459Y022651D02*
X027401Y022651D01*
X027425Y022493D02*
X027435Y022493D01*
X027425Y022334D02*
X027435Y022334D01*
X027425Y022176D02*
X027435Y022176D01*
X025670Y022968D02*
X013725Y022968D01*
X013725Y022810D02*
X025544Y022810D01*
X025459Y022651D02*
X013725Y022651D01*
X013725Y023127D02*
X025670Y023127D01*
X025670Y023285D02*
X013666Y023285D01*
X013532Y023444D02*
X025670Y023444D01*
X026190Y023602D02*
X031862Y023602D01*
X031703Y023761D02*
X026157Y023761D01*
X026077Y023850D02*
X026077Y023850D01*
X026009Y023919D02*
X031545Y023919D01*
X031386Y024078D02*
X010024Y024078D01*
X010182Y024236D02*
X031228Y024236D01*
X031069Y024395D02*
X023591Y024395D01*
X023746Y025460D02*
X023367Y025839D01*
X023289Y025917D01*
X023186Y025960D01*
X021600Y025960D01*
X021710Y026070D01*
X021785Y026252D01*
X021785Y026448D01*
X021710Y026630D01*
X021570Y026770D01*
X021388Y026845D01*
X021192Y026845D01*
X021010Y026770D01*
X020870Y026630D01*
X020795Y026448D01*
X020795Y026252D01*
X020870Y026070D01*
X020980Y025960D01*
X009984Y025960D01*
X009881Y025917D01*
X009317Y025353D01*
X009370Y025550D01*
X009370Y025840D01*
X009295Y026122D01*
X009149Y026373D01*
X008943Y026579D01*
X008692Y026725D01*
X008410Y026800D01*
X008120Y026800D01*
X007838Y026725D01*
X007587Y026579D01*
X007381Y026373D01*
X007355Y026330D01*
X007344Y026389D01*
X007164Y026822D01*
X006904Y027212D01*
X006572Y027544D01*
X006182Y027804D01*
X005758Y027980D01*
X037647Y027980D01*
X037223Y027804D01*
X036833Y027544D01*
X036501Y027212D01*
X036241Y026822D01*
X036061Y026389D01*
X036050Y026330D01*
X036024Y026373D01*
X035818Y026579D01*
X035567Y026725D01*
X035285Y026800D01*
X034995Y026800D01*
X034713Y026725D01*
X034462Y026579D01*
X034256Y026373D01*
X034110Y026122D01*
X034035Y025840D01*
X034035Y025550D01*
X034110Y025268D01*
X034256Y025017D01*
X034462Y024811D01*
X034713Y024665D01*
X034995Y024590D01*
X035285Y024590D01*
X035567Y024665D01*
X035818Y024811D01*
X036024Y025017D01*
X036050Y025060D01*
X036061Y025001D01*
X036241Y024568D01*
X036501Y024178D01*
X036833Y023846D01*
X037223Y023586D01*
X037527Y023460D01*
X036596Y023460D01*
X035639Y024417D01*
X035536Y024460D01*
X032546Y024460D01*
X031667Y025339D01*
X031589Y025417D01*
X031486Y025460D01*
X023746Y025460D01*
X023702Y025504D02*
X034047Y025504D01*
X034035Y025663D02*
X023543Y025663D01*
X023385Y025821D02*
X034035Y025821D01*
X034072Y025980D02*
X021620Y025980D01*
X021738Y026138D02*
X034120Y026138D01*
X034211Y026297D02*
X021785Y026297D01*
X021782Y026455D02*
X034337Y026455D01*
X034521Y026614D02*
X021717Y026614D01*
X021565Y026772D02*
X034890Y026772D01*
X035390Y026772D02*
X036220Y026772D01*
X036154Y026614D02*
X035759Y026614D01*
X035943Y026455D02*
X036089Y026455D01*
X036313Y026931D02*
X007092Y026931D01*
X007185Y026772D02*
X008015Y026772D01*
X007646Y026614D02*
X007251Y026614D01*
X007316Y026455D02*
X007462Y026455D01*
X006986Y027089D02*
X036419Y027089D01*
X036537Y027248D02*
X006868Y027248D01*
X006710Y027406D02*
X036695Y027406D01*
X036864Y027565D02*
X006541Y027565D01*
X006304Y027723D02*
X037101Y027723D01*
X037410Y027882D02*
X005995Y027882D01*
X008515Y026772D02*
X021015Y026772D01*
X020863Y026614D02*
X008884Y026614D01*
X009068Y026455D02*
X020798Y026455D01*
X020795Y026297D02*
X009194Y026297D01*
X009285Y026138D02*
X020842Y026138D01*
X020960Y025980D02*
X009333Y025980D01*
X009370Y025821D02*
X009785Y025821D01*
X009627Y025663D02*
X009370Y025663D01*
X009358Y025504D02*
X009468Y025504D01*
X011230Y023580D02*
X011230Y022730D01*
X011725Y022651D02*
X011735Y022651D01*
X011725Y022493D02*
X011735Y022493D01*
X011725Y022334D02*
X011735Y022334D01*
X011793Y022176D02*
X011667Y022176D01*
X011532Y022017D02*
X011928Y022017D01*
X012532Y022017D02*
X012928Y022017D01*
X012793Y022176D02*
X012667Y022176D01*
X012725Y022334D02*
X012735Y022334D01*
X011735Y022810D02*
X011725Y022810D01*
X011725Y022968D02*
X011735Y022968D01*
X011725Y023127D02*
X011735Y023127D01*
X011794Y023285D02*
X011666Y023285D01*
X011532Y023444D02*
X011928Y023444D01*
X008717Y021225D02*
X035496Y021225D01*
X035435Y021066D02*
X008782Y021066D01*
X008782Y020908D02*
X035435Y020908D01*
X035490Y020749D02*
X008782Y020749D01*
X008782Y020591D02*
X011999Y020591D01*
X012045Y020636D02*
X011854Y020445D01*
X011750Y020195D01*
X011750Y019925D01*
X011854Y019675D01*
X012045Y019484D01*
X012295Y019380D01*
X013565Y019380D01*
X013815Y019484D01*
X014006Y019675D01*
X014110Y019925D01*
X014110Y020195D01*
X014006Y020445D01*
X013815Y020636D01*
X013565Y020740D01*
X012295Y020740D01*
X012045Y020636D01*
X011848Y020432D02*
X008782Y020432D01*
X008620Y020274D02*
X011782Y020274D01*
X011750Y020115D02*
X008620Y020115D01*
X008620Y019957D02*
X011750Y019957D01*
X011802Y019798D02*
X008620Y019798D01*
X008620Y019640D02*
X011889Y019640D01*
X012051Y019481D02*
X009961Y019481D01*
X010055Y019323D02*
X035650Y019323D01*
X035650Y019481D02*
X018209Y019481D01*
X018215Y019484D02*
X018406Y019675D01*
X018510Y019925D01*
X018510Y020195D01*
X018406Y020445D01*
X018215Y020636D01*
X017965Y020740D01*
X016695Y020740D01*
X016445Y020636D01*
X016254Y020445D01*
X016150Y020195D01*
X016150Y019925D01*
X016254Y019675D01*
X016445Y019484D01*
X016695Y019380D01*
X017965Y019380D01*
X018215Y019484D01*
X018371Y019640D02*
X035650Y019640D01*
X035650Y019798D02*
X018458Y019798D01*
X018510Y019957D02*
X035650Y019957D01*
X035719Y020115D02*
X018510Y020115D01*
X018478Y020274D02*
X035878Y020274D01*
X036036Y020432D02*
X018412Y020432D01*
X018261Y020591D02*
X035619Y020591D01*
X036425Y020908D02*
X036512Y020908D01*
X036425Y021066D02*
X036670Y021066D01*
X036839Y021225D02*
X036364Y021225D01*
X036227Y021383D02*
X037238Y021383D01*
X037398Y021542D02*
X032807Y021542D01*
X032897Y021700D02*
X039700Y021700D01*
X039700Y021542D02*
X039007Y021542D01*
X039167Y021383D02*
X039700Y021383D01*
X039700Y021225D02*
X039244Y021225D01*
X039282Y021066D02*
X039700Y021066D01*
X039700Y020908D02*
X039282Y020908D01*
X039228Y020749D02*
X039700Y020749D01*
X039700Y020591D02*
X039128Y020591D01*
X038912Y020432D02*
X039700Y020432D01*
X039700Y020274D02*
X036670Y020274D01*
X036828Y020432D02*
X037493Y020432D01*
X037277Y020591D02*
X036987Y020591D01*
X036511Y020115D02*
X037576Y020115D01*
X037312Y019957D02*
X036353Y019957D01*
X036210Y019798D02*
X037191Y019798D01*
X037126Y019640D02*
X036210Y019640D01*
X036210Y019481D02*
X037122Y019481D01*
X037147Y019323D02*
X036210Y019323D01*
X036210Y019164D02*
X037212Y019164D01*
X037362Y019006D02*
X036210Y019006D01*
X036210Y018847D02*
X040700Y018847D01*
X040700Y018689D02*
X036210Y018689D01*
X036210Y018530D02*
X037385Y018530D01*
X037396Y018540D02*
X037218Y018363D01*
X037122Y018132D01*
X037122Y017881D01*
X037218Y017650D01*
X037396Y017472D01*
X037627Y017376D01*
X038778Y017376D01*
X039009Y017472D01*
X039187Y017650D01*
X039282Y017881D01*
X039282Y018132D01*
X039187Y018363D01*
X039009Y018540D01*
X038778Y018636D01*
X037627Y018636D01*
X037396Y018540D01*
X037227Y018372D02*
X036210Y018372D01*
X036210Y018213D02*
X037156Y018213D01*
X037122Y018055D02*
X036210Y018055D01*
X036310Y017896D02*
X037122Y017896D01*
X037182Y017738D02*
X036468Y017738D01*
X036627Y017579D02*
X037289Y017579D01*
X037521Y017421D02*
X036785Y017421D01*
X036944Y017262D02*
X040700Y017262D01*
X040700Y017104D02*
X039851Y017104D01*
X040061Y016945D02*
X040700Y016945D01*
X040700Y016787D02*
X040219Y016787D01*
X040378Y016628D02*
X040700Y016628D01*
X040700Y016470D02*
X040536Y016470D01*
X040610Y016311D02*
X040700Y016311D01*
X040700Y016153D02*
X040610Y016153D01*
X040610Y015994D02*
X040700Y015994D01*
X040700Y015836D02*
X040610Y015836D01*
X040610Y015677D02*
X040700Y015677D01*
X040700Y015519D02*
X040610Y015519D01*
X040610Y015360D02*
X040700Y015360D01*
X040700Y015202D02*
X040610Y015202D01*
X040610Y015043D02*
X040700Y015043D01*
X040700Y014885D02*
X040610Y014885D01*
X040610Y014726D02*
X040700Y014726D01*
X040700Y014568D02*
X040610Y014568D01*
X040610Y014409D02*
X040700Y014409D01*
X040700Y014251D02*
X040610Y014251D01*
X040610Y014092D02*
X040700Y014092D01*
X040700Y013934D02*
X040610Y013934D01*
X040610Y013775D02*
X040700Y013775D01*
X040700Y013617D02*
X040610Y013617D01*
X040610Y013458D02*
X040700Y013458D01*
X040700Y013300D02*
X040610Y013300D01*
X040610Y013141D02*
X040700Y013141D01*
X040700Y012983D02*
X040610Y012983D01*
X040610Y012824D02*
X040700Y012824D01*
X040700Y012666D02*
X040610Y012666D01*
X040610Y012507D02*
X040700Y012507D01*
X040700Y012349D02*
X040610Y012349D01*
X040610Y012190D02*
X040700Y012190D01*
X040700Y012032D02*
X040610Y012032D01*
X040610Y011873D02*
X040700Y011873D01*
X040700Y011715D02*
X040610Y011715D01*
X040610Y011556D02*
X040700Y011556D01*
X040700Y011398D02*
X040610Y011398D01*
X040610Y011239D02*
X040700Y011239D01*
X040700Y011081D02*
X040610Y011081D01*
X040610Y010922D02*
X040700Y010922D01*
X040700Y010764D02*
X040610Y010764D01*
X040610Y010605D02*
X040700Y010605D01*
X040700Y010447D02*
X040610Y010447D01*
X040610Y010288D02*
X040700Y010288D01*
X040700Y010130D02*
X040610Y010130D01*
X040610Y009971D02*
X040700Y009971D01*
X040700Y009813D02*
X040610Y009813D01*
X040610Y009654D02*
X040700Y009654D01*
X040700Y009496D02*
X040610Y009496D01*
X040610Y009337D02*
X040700Y009337D01*
X040700Y009179D02*
X040610Y009179D01*
X040610Y009020D02*
X040700Y009020D01*
X040700Y008862D02*
X040610Y008862D01*
X040610Y008703D02*
X040700Y008703D01*
X040700Y008545D02*
X040598Y008545D01*
X040700Y008386D02*
X040482Y008386D01*
X040323Y008228D02*
X040700Y008228D01*
X040700Y008069D02*
X040165Y008069D01*
X040006Y007911D02*
X040700Y007911D01*
X040700Y007752D02*
X039265Y007752D01*
X039583Y007594D02*
X040700Y007594D01*
X040700Y007435D02*
X039820Y007435D01*
X039994Y007277D02*
X040700Y007277D01*
X040700Y007118D02*
X040153Y007118D01*
X040274Y006960D02*
X040700Y006960D01*
X040700Y006801D02*
X040380Y006801D01*
X040476Y006643D02*
X040700Y006643D01*
X040700Y006484D02*
X040541Y006484D01*
X040607Y006326D02*
X040700Y006326D01*
X040700Y006167D02*
X040655Y006167D01*
X040686Y006009D02*
X040700Y006009D01*
X040678Y005058D02*
X040700Y005058D01*
X040700Y004899D02*
X040646Y004899D01*
X040700Y004741D02*
X040589Y004741D01*
X040523Y004582D02*
X040700Y004582D01*
X040700Y004424D02*
X040456Y004424D01*
X040350Y004265D02*
X040700Y004265D01*
X040700Y004107D02*
X040245Y004107D01*
X040109Y003948D02*
X040700Y003948D01*
X040700Y003790D02*
X039950Y003790D01*
X039754Y003631D02*
X040700Y003631D01*
X040700Y003473D02*
X039517Y003473D01*
X039159Y003314D02*
X040700Y003314D01*
X037541Y003314D02*
X005864Y003314D01*
X006222Y003473D02*
X037183Y003473D01*
X036946Y003631D02*
X006459Y003631D01*
X006655Y003790D02*
X036750Y003790D01*
X036591Y003948D02*
X006814Y003948D01*
X006950Y004107D02*
X036455Y004107D01*
X036350Y004265D02*
X007055Y004265D01*
X007161Y004424D02*
X036244Y004424D01*
X036177Y004582D02*
X035665Y004582D01*
X035888Y004741D02*
X036111Y004741D01*
X036054Y004899D02*
X036037Y004899D01*
X034615Y004582D02*
X008790Y004582D01*
X009013Y004741D02*
X034392Y004741D01*
X034243Y004899D02*
X009162Y004899D01*
X009254Y005058D02*
X034151Y005058D01*
X034087Y005216D02*
X009318Y005216D01*
X009361Y005375D02*
X034044Y005375D01*
X034035Y005533D02*
X009370Y005533D01*
X009370Y005692D02*
X034035Y005692D01*
X034075Y005850D02*
X009330Y005850D01*
X009279Y006009D02*
X034126Y006009D01*
X034217Y006167D02*
X009188Y006167D01*
X009057Y006326D02*
X034348Y006326D01*
X034539Y006484D02*
X008866Y006484D01*
X008476Y006643D02*
X034929Y006643D01*
X035351Y006643D02*
X036224Y006643D01*
X036159Y006484D02*
X035741Y006484D01*
X035932Y006326D02*
X036093Y006326D01*
X036097Y006801D02*
X036320Y006801D01*
X036255Y006960D02*
X036426Y006960D01*
X036414Y007118D02*
X036547Y007118D01*
X036572Y007277D02*
X036706Y007277D01*
X036731Y007435D02*
X036880Y007435D01*
X036889Y007594D02*
X037117Y007594D01*
X037048Y007752D02*
X037435Y007752D01*
X036732Y008228D02*
X032359Y008228D01*
X032375Y008386D02*
X039690Y008386D01*
X039849Y008545D02*
X032375Y008545D01*
X032375Y008703D02*
X040007Y008703D01*
X040050Y008862D02*
X032375Y008862D01*
X032375Y009020D02*
X040050Y009020D01*
X040050Y009179D02*
X032340Y009179D01*
X032238Y009337D02*
X040050Y009337D01*
X040050Y009496D02*
X018127Y009496D01*
X018295Y009654D02*
X040050Y009654D01*
X040050Y009813D02*
X018462Y009813D01*
X018629Y009971D02*
X040050Y009971D01*
X040050Y010130D02*
X018797Y010130D01*
X018923Y010288D02*
X040050Y010288D01*
X040050Y010447D02*
X018940Y010447D01*
X018940Y010605D02*
X035822Y010605D01*
X035723Y010646D02*
X035955Y010550D01*
X037105Y010550D01*
X037337Y010646D01*
X037514Y010823D01*
X037530Y010862D01*
X037546Y010823D01*
X037723Y010646D01*
X037955Y010550D01*
X039105Y010550D01*
X039337Y010646D01*
X039514Y010823D01*
X039610Y011055D01*
X039610Y011305D01*
X039514Y011537D01*
X039337Y011714D01*
X039105Y011810D01*
X037955Y011810D01*
X037723Y011714D01*
X037546Y011537D01*
X037530Y011498D01*
X037514Y011537D01*
X037337Y011714D01*
X037105Y011810D01*
X035955Y011810D01*
X035723Y011714D01*
X035546Y011537D01*
X035450Y011305D01*
X035450Y011055D01*
X035546Y010823D01*
X035723Y010646D01*
X035606Y010764D02*
X018940Y010764D01*
X018940Y010922D02*
X035505Y010922D01*
X035450Y011081D02*
X018940Y011081D01*
X018940Y011239D02*
X035450Y011239D01*
X035488Y011398D02*
X018940Y011398D01*
X018940Y011556D02*
X035565Y011556D01*
X035724Y011715D02*
X027065Y011715D01*
X027010Y011660D02*
X027150Y011800D01*
X027225Y011982D01*
X027225Y012178D01*
X027150Y012360D01*
X027010Y012500D01*
X026828Y012575D01*
X026632Y012575D01*
X026450Y012500D01*
X026310Y012360D01*
X026235Y012178D01*
X026235Y011982D01*
X026310Y011800D01*
X026450Y011660D01*
X026632Y011585D01*
X026828Y011585D01*
X027010Y011660D01*
X027180Y011873D02*
X040050Y011873D01*
X040050Y011715D02*
X039336Y011715D01*
X039495Y011556D02*
X040050Y011556D01*
X040050Y011398D02*
X039572Y011398D01*
X039610Y011239D02*
X040050Y011239D01*
X040050Y011081D02*
X039610Y011081D01*
X039555Y010922D02*
X040050Y010922D01*
X040050Y010764D02*
X039454Y010764D01*
X039238Y010605D02*
X040050Y010605D01*
X040050Y012032D02*
X027225Y012032D01*
X027220Y012190D02*
X040050Y012190D01*
X040050Y012349D02*
X027155Y012349D01*
X026993Y012507D02*
X040050Y012507D01*
X040050Y012666D02*
X016062Y012666D01*
X015904Y012824D02*
X040050Y012824D01*
X040050Y012983D02*
X015745Y012983D01*
X015587Y013141D02*
X040050Y013141D01*
X040050Y013300D02*
X015428Y013300D01*
X015270Y013458D02*
X021458Y013458D01*
X021508Y013408D02*
X021675Y013339D01*
X021856Y013339D01*
X022023Y013408D01*
X022151Y013536D01*
X022221Y013704D01*
X022221Y013885D01*
X022151Y014052D01*
X022023Y014180D01*
X021856Y014249D01*
X021675Y014249D01*
X021508Y014180D01*
X021380Y014052D01*
X021311Y013885D01*
X021311Y013704D01*
X021380Y013536D01*
X021508Y013408D01*
X021347Y013617D02*
X015111Y013617D01*
X014953Y013775D02*
X021311Y013775D01*
X021331Y013934D02*
X014794Y013934D01*
X014636Y014092D02*
X021420Y014092D01*
X022111Y014092D02*
X040050Y014092D01*
X040050Y013934D02*
X022200Y013934D01*
X022221Y013775D02*
X040050Y013775D01*
X040050Y013617D02*
X022185Y013617D01*
X022073Y013458D02*
X040050Y013458D01*
X040050Y014251D02*
X014477Y014251D01*
X014319Y014409D02*
X040050Y014409D01*
X040050Y014568D02*
X039148Y014568D01*
X039105Y014550D02*
X039337Y014646D01*
X039514Y014823D01*
X039610Y015055D01*
X039610Y015305D01*
X039514Y015537D01*
X039337Y015714D01*
X039105Y015810D01*
X037955Y015810D01*
X037723Y015714D01*
X037546Y015537D01*
X037530Y015498D01*
X037514Y015537D01*
X037337Y015714D01*
X037105Y015810D01*
X035955Y015810D01*
X035723Y015714D01*
X035546Y015537D01*
X035450Y015305D01*
X035450Y015055D01*
X035546Y014823D01*
X035723Y014646D01*
X035955Y014550D01*
X037105Y014550D01*
X037337Y014646D01*
X037514Y014823D01*
X037530Y014862D01*
X037546Y014823D01*
X037723Y014646D01*
X037955Y014550D01*
X039105Y014550D01*
X039417Y014726D02*
X040050Y014726D01*
X040050Y014885D02*
X039540Y014885D01*
X039605Y015043D02*
X040050Y015043D01*
X040050Y015202D02*
X039610Y015202D01*
X039587Y015360D02*
X040050Y015360D01*
X040050Y015519D02*
X039522Y015519D01*
X039374Y015677D02*
X040050Y015677D01*
X040050Y015836D02*
X033285Y015836D01*
X033270Y015850D02*
X033088Y015925D01*
X032892Y015925D01*
X032710Y015850D01*
X032570Y015710D01*
X032495Y015528D01*
X032495Y015332D01*
X032570Y015150D01*
X032710Y015010D01*
X032892Y014935D01*
X033088Y014935D01*
X033270Y015010D01*
X033410Y015150D01*
X033485Y015332D01*
X033485Y015528D01*
X033410Y015710D01*
X033270Y015850D01*
X033423Y015677D02*
X035686Y015677D01*
X035538Y015519D02*
X033485Y015519D01*
X033485Y015360D02*
X035473Y015360D01*
X035450Y015202D02*
X033431Y015202D01*
X033303Y015043D02*
X035455Y015043D01*
X035520Y014885D02*
X013843Y014885D01*
X013685Y015043D02*
X032677Y015043D01*
X032549Y015202D02*
X013526Y015202D01*
X013368Y015360D02*
X032495Y015360D01*
X032495Y015519D02*
X013209Y015519D01*
X013051Y015677D02*
X032557Y015677D01*
X032695Y015836D02*
X027929Y015836D01*
X027888Y015794D02*
X028016Y015922D01*
X028085Y016089D01*
X028085Y016271D01*
X028016Y016438D01*
X027888Y016566D01*
X027721Y016635D01*
X027539Y016635D01*
X027372Y016566D01*
X027244Y016438D01*
X027175Y016271D01*
X027175Y016089D01*
X027244Y015922D01*
X027372Y015794D01*
X027539Y015725D01*
X027721Y015725D01*
X027888Y015794D01*
X028045Y015994D02*
X040050Y015994D01*
X040050Y016153D02*
X028085Y016153D01*
X028068Y016311D02*
X039903Y016311D01*
X039744Y016470D02*
X027984Y016470D01*
X027737Y016628D02*
X036786Y016628D01*
X036627Y016787D02*
X011941Y016787D01*
X012100Y016628D02*
X027523Y016628D01*
X027276Y016470D02*
X012258Y016470D01*
X012417Y016311D02*
X027192Y016311D01*
X027175Y016153D02*
X012575Y016153D01*
X012734Y015994D02*
X027215Y015994D01*
X027331Y015836D02*
X012892Y015836D01*
X012683Y015677D02*
X009480Y015677D01*
X009480Y015519D02*
X012841Y015519D01*
X013000Y015360D02*
X009480Y015360D01*
X009480Y015202D02*
X013158Y015202D01*
X013317Y015043D02*
X009480Y015043D01*
X009480Y014885D02*
X013475Y014885D01*
X013634Y014726D02*
X009480Y014726D01*
X009480Y014568D02*
X013792Y014568D01*
X013951Y014409D02*
X009480Y014409D01*
X009480Y014251D02*
X014109Y014251D01*
X014268Y014092D02*
X009480Y014092D01*
X009480Y013934D02*
X014426Y013934D01*
X014585Y013775D02*
X009480Y013775D01*
X009480Y013617D02*
X014743Y013617D01*
X014902Y013458D02*
X009480Y013458D01*
X009480Y013300D02*
X015060Y013300D01*
X015219Y013141D02*
X009480Y013141D01*
X009480Y012983D02*
X015377Y012983D01*
X015536Y012824D02*
X009480Y012824D01*
X009480Y012666D02*
X015694Y012666D01*
X015853Y012507D02*
X009480Y012507D01*
X009480Y012349D02*
X016011Y012349D01*
X016130Y012230D02*
X018180Y012230D01*
X018680Y011730D01*
X018680Y010380D01*
X018630Y010330D01*
X017680Y009430D01*
X009830Y009430D01*
X009480Y009780D01*
X009480Y016630D01*
X011730Y016630D01*
X016130Y012230D01*
X016221Y012507D02*
X026467Y012507D01*
X026305Y012349D02*
X018429Y012349D01*
X018588Y012190D02*
X026240Y012190D01*
X026235Y012032D02*
X018746Y012032D01*
X018902Y011873D02*
X026280Y011873D01*
X026395Y011715D02*
X018940Y011715D01*
X018680Y011715D02*
X009480Y011715D01*
X009480Y011873D02*
X018537Y011873D01*
X018378Y012032D02*
X009480Y012032D01*
X009480Y012190D02*
X018220Y012190D01*
X018680Y011556D02*
X009480Y011556D01*
X009480Y011398D02*
X018680Y011398D01*
X018680Y011239D02*
X009480Y011239D01*
X009480Y011081D02*
X018680Y011081D01*
X018680Y010922D02*
X009480Y010922D01*
X009480Y010764D02*
X018680Y010764D01*
X018680Y010605D02*
X009480Y010605D01*
X009480Y010447D02*
X018680Y010447D01*
X018586Y010288D02*
X009480Y010288D01*
X009480Y010130D02*
X018418Y010130D01*
X018251Y009971D02*
X009480Y009971D01*
X009480Y009813D02*
X018084Y009813D01*
X017916Y009654D02*
X009606Y009654D01*
X009764Y009496D02*
X017749Y009496D01*
X017960Y009337D02*
X018572Y009337D01*
X018470Y009179D02*
X017752Y009179D01*
X019288Y009337D02*
X019572Y009337D01*
X019470Y009179D02*
X019390Y009179D01*
X019425Y009020D02*
X019435Y009020D01*
X019425Y008386D02*
X019435Y008386D01*
X019451Y008228D02*
X019409Y008228D01*
X019334Y008069D02*
X019526Y008069D01*
X019734Y007911D02*
X019126Y007911D01*
X020126Y007911D02*
X020650Y007911D01*
X020650Y007945D02*
X020650Y007224D01*
X020693Y007121D01*
X020993Y006821D01*
X021071Y006743D01*
X021174Y006700D01*
X026886Y006700D01*
X026989Y006743D01*
X027339Y007093D01*
X027417Y007171D01*
X027460Y007274D01*
X027460Y007945D01*
X027460Y007945D01*
X027600Y008085D01*
X027675Y008267D01*
X027675Y009093D01*
X027600Y009275D01*
X027460Y009415D01*
X027278Y009490D01*
X027082Y009490D01*
X026900Y009415D01*
X026760Y009275D01*
X026685Y009093D01*
X026685Y008267D01*
X026760Y008085D01*
X026900Y007945D01*
X026900Y007446D01*
X026714Y007260D01*
X021346Y007260D01*
X021210Y007396D01*
X021210Y007945D01*
X021210Y007945D01*
X021350Y008085D01*
X021425Y008267D01*
X021425Y009093D01*
X021350Y009275D01*
X021210Y009415D01*
X021028Y009490D01*
X020832Y009490D01*
X020650Y009415D01*
X020510Y009275D01*
X020435Y009093D01*
X020435Y008267D01*
X020510Y008085D01*
X020650Y007945D01*
X020650Y007945D01*
X020526Y008069D02*
X020334Y008069D01*
X020409Y008228D02*
X020451Y008228D01*
X020435Y008386D02*
X020425Y008386D01*
X020425Y008545D02*
X020435Y008545D01*
X020425Y008703D02*
X020435Y008703D01*
X020425Y008862D02*
X020435Y008862D01*
X020425Y009020D02*
X020435Y009020D01*
X020470Y009179D02*
X020390Y009179D01*
X020288Y009337D02*
X020572Y009337D01*
X021288Y009337D02*
X024822Y009337D01*
X024760Y009275D02*
X024685Y009093D01*
X024685Y008267D01*
X024760Y008085D01*
X024900Y007945D01*
X025082Y007870D01*
X025278Y007870D01*
X025460Y007945D01*
X025600Y008085D01*
X025675Y008267D01*
X025675Y008400D01*
X025685Y008400D01*
X025685Y008267D01*
X025760Y008085D01*
X025900Y007945D01*
X026082Y007870D01*
X026278Y007870D01*
X026460Y007945D01*
X026600Y008085D01*
X026675Y008267D01*
X026675Y009093D01*
X026600Y009275D01*
X026460Y009415D01*
X026278Y009490D01*
X026082Y009490D01*
X025900Y009415D01*
X025760Y009275D01*
X025685Y009093D01*
X025685Y008960D01*
X025675Y008960D01*
X025675Y009093D01*
X025600Y009275D01*
X025460Y009415D01*
X025278Y009490D01*
X025082Y009490D01*
X024900Y009415D01*
X024760Y009275D01*
X024720Y009179D02*
X021390Y009179D01*
X021425Y009020D02*
X024685Y009020D01*
X024685Y008862D02*
X021425Y008862D01*
X021425Y008703D02*
X024685Y008703D01*
X024685Y008545D02*
X021425Y008545D01*
X021425Y008386D02*
X024685Y008386D01*
X024701Y008228D02*
X021409Y008228D01*
X021334Y008069D02*
X024776Y008069D01*
X024984Y007911D02*
X021210Y007911D01*
X021210Y007752D02*
X026900Y007752D01*
X026900Y007594D02*
X021210Y007594D01*
X021210Y007435D02*
X026889Y007435D01*
X026731Y007277D02*
X021329Y007277D01*
X020855Y006960D02*
X006979Y006960D01*
X007085Y006801D02*
X021013Y006801D01*
X020696Y007118D02*
X006858Y007118D01*
X006699Y007277D02*
X020650Y007277D01*
X020650Y007435D02*
X006525Y007435D01*
X006288Y007594D02*
X020650Y007594D01*
X020650Y007752D02*
X005970Y007752D01*
X007181Y006643D02*
X008054Y006643D01*
X007664Y006484D02*
X007246Y006484D01*
X007312Y006326D02*
X007473Y006326D01*
X007368Y004899D02*
X007351Y004899D01*
X007294Y004741D02*
X007517Y004741D01*
X007740Y004582D02*
X007228Y004582D01*
X009107Y013300D02*
X009220Y013300D01*
X009480Y015836D02*
X012524Y015836D01*
X012366Y015994D02*
X009480Y015994D01*
X009480Y016153D02*
X012207Y016153D01*
X012049Y016311D02*
X009480Y016311D01*
X009480Y016470D02*
X011890Y016470D01*
X011732Y016628D02*
X009480Y016628D01*
X009722Y016945D02*
X036469Y016945D01*
X036310Y017104D02*
X009440Y017104D01*
X009415Y017262D02*
X036152Y017262D01*
X035993Y017421D02*
X009843Y017421D01*
X009888Y017579D02*
X035835Y017579D01*
X035686Y017738D02*
X009888Y017738D01*
X009888Y017896D02*
X035650Y017896D01*
X035650Y018055D02*
X009888Y018055D01*
X009888Y018213D02*
X026247Y018213D01*
X026250Y018210D02*
X026432Y018135D01*
X026628Y018135D01*
X026810Y018210D01*
X026950Y018350D01*
X027025Y018532D01*
X027025Y018728D01*
X026950Y018910D01*
X026810Y019050D01*
X026628Y019125D01*
X026432Y019125D01*
X026250Y019050D01*
X026110Y018910D01*
X026035Y018728D01*
X026035Y018532D01*
X026110Y018350D01*
X026250Y018210D01*
X026101Y018372D02*
X009860Y018372D01*
X009860Y018530D02*
X026036Y018530D01*
X026035Y018689D02*
X010018Y018689D01*
X010055Y018847D02*
X026084Y018847D01*
X026205Y019006D02*
X010055Y019006D01*
X010055Y019164D02*
X030133Y019164D01*
X030050Y019130D02*
X029910Y018990D01*
X029835Y018808D01*
X029835Y018612D01*
X029910Y018430D01*
X030050Y018290D01*
X030232Y018215D01*
X030428Y018215D01*
X030610Y018290D01*
X030750Y018430D01*
X030825Y018612D01*
X030825Y018808D01*
X030750Y018990D01*
X030610Y019130D01*
X030428Y019205D01*
X030232Y019205D01*
X030050Y019130D01*
X029925Y019006D02*
X026855Y019006D01*
X026976Y018847D02*
X029851Y018847D01*
X029835Y018689D02*
X027025Y018689D01*
X027024Y018530D02*
X029869Y018530D01*
X029968Y018372D02*
X026959Y018372D01*
X026813Y018213D02*
X035650Y018213D01*
X035650Y018372D02*
X030692Y018372D01*
X030791Y018530D02*
X035650Y018530D01*
X035650Y018689D02*
X030825Y018689D01*
X030809Y018847D02*
X035650Y018847D01*
X035650Y019006D02*
X030735Y019006D01*
X030527Y019164D02*
X035650Y019164D01*
X035633Y021383D02*
X032560Y021383D01*
X032300Y021383D02*
X031560Y021383D01*
X031807Y021542D02*
X032053Y021542D01*
X031963Y021700D02*
X031897Y021700D01*
X031925Y021859D02*
X031935Y021859D01*
X032925Y021859D02*
X039700Y021859D01*
X039700Y022017D02*
X039054Y022017D01*
X039197Y022176D02*
X039700Y022176D01*
X039700Y022334D02*
X039263Y022334D01*
X039282Y022493D02*
X039700Y022493D01*
X039700Y022651D02*
X039274Y022651D01*
X039209Y022810D02*
X039604Y022810D01*
X040079Y023127D02*
X040700Y023127D01*
X040700Y023285D02*
X039921Y023285D01*
X039725Y023444D02*
X040700Y023444D01*
X040700Y023602D02*
X039502Y023602D01*
X039739Y023761D02*
X040700Y023761D01*
X040700Y023919D02*
X039940Y023919D01*
X040098Y024078D02*
X040700Y024078D01*
X040700Y024236D02*
X040238Y024236D01*
X040343Y024395D02*
X040700Y024395D01*
X040700Y024553D02*
X040449Y024553D01*
X040519Y024712D02*
X040700Y024712D01*
X040700Y024870D02*
X040584Y024870D01*
X040644Y025029D02*
X040700Y025029D01*
X040700Y025187D02*
X040676Y025187D01*
X040700Y022968D02*
X040226Y022968D01*
X040260Y022810D02*
X040700Y022810D01*
X040700Y022651D02*
X040260Y022651D01*
X040260Y022493D02*
X040700Y022493D01*
X040700Y022334D02*
X040260Y022334D01*
X040260Y022176D02*
X040700Y022176D01*
X040700Y022017D02*
X040260Y022017D01*
X040260Y021859D02*
X040700Y021859D01*
X040700Y021700D02*
X040260Y021700D01*
X040260Y021542D02*
X040700Y021542D01*
X040700Y021383D02*
X040260Y021383D01*
X040260Y021225D02*
X040700Y021225D01*
X040700Y021066D02*
X040260Y021066D01*
X040260Y020908D02*
X040700Y020908D01*
X040700Y020749D02*
X040260Y020749D01*
X040260Y020591D02*
X040700Y020591D01*
X040700Y020432D02*
X040260Y020432D01*
X040260Y020274D02*
X040700Y020274D01*
X040700Y020115D02*
X040260Y020115D01*
X040260Y019957D02*
X040700Y019957D01*
X040700Y019798D02*
X040260Y019798D01*
X040186Y019640D02*
X040700Y019640D01*
X040700Y019481D02*
X040027Y019481D01*
X039869Y019323D02*
X040700Y019323D01*
X040700Y019164D02*
X039193Y019164D01*
X039043Y019006D02*
X040700Y019006D01*
X040700Y018530D02*
X039020Y018530D01*
X039178Y018372D02*
X040700Y018372D01*
X040700Y018213D02*
X039249Y018213D01*
X039282Y018055D02*
X040700Y018055D01*
X040700Y017896D02*
X039282Y017896D01*
X039223Y017738D02*
X040700Y017738D01*
X040700Y017579D02*
X039116Y017579D01*
X038884Y017421D02*
X040700Y017421D01*
X037686Y015677D02*
X037374Y015677D01*
X037522Y015519D02*
X037538Y015519D01*
X037643Y014726D02*
X037417Y014726D01*
X037148Y014568D02*
X037912Y014568D01*
X035912Y014568D02*
X014160Y014568D01*
X014002Y014726D02*
X035643Y014726D01*
X037336Y011715D02*
X037724Y011715D01*
X037565Y011556D02*
X037495Y011556D01*
X037454Y010764D02*
X037606Y010764D01*
X037822Y010605D02*
X037238Y010605D01*
X036573Y008069D02*
X032284Y008069D01*
X032160Y007911D02*
X036415Y007911D01*
X036256Y007752D02*
X032160Y007752D01*
X032160Y007594D02*
X036098Y007594D01*
X035939Y007435D02*
X032160Y007435D01*
X032279Y007277D02*
X035781Y007277D01*
X031963Y006801D02*
X027047Y006801D01*
X027205Y006960D02*
X031805Y006960D01*
X031646Y007118D02*
X027364Y007118D01*
X027460Y007277D02*
X031600Y007277D01*
X031600Y007435D02*
X027460Y007435D01*
X027460Y007594D02*
X031600Y007594D01*
X031600Y007752D02*
X027460Y007752D01*
X027460Y007911D02*
X029684Y007911D01*
X029600Y007945D02*
X029782Y007870D01*
X029978Y007870D01*
X030160Y007945D01*
X030300Y008085D01*
X030375Y008267D01*
X030375Y009093D01*
X030300Y009275D01*
X030160Y009415D01*
X029978Y009490D01*
X029782Y009490D01*
X029600Y009415D01*
X029460Y009275D01*
X029385Y009093D01*
X029385Y008267D01*
X029460Y008085D01*
X029600Y007945D01*
X029476Y008069D02*
X027584Y008069D01*
X027659Y008228D02*
X029401Y008228D01*
X029385Y008386D02*
X027675Y008386D01*
X027675Y008545D02*
X029385Y008545D01*
X029385Y008703D02*
X027675Y008703D01*
X027675Y008862D02*
X029385Y008862D01*
X029385Y009020D02*
X027675Y009020D01*
X027640Y009179D02*
X029420Y009179D01*
X029522Y009337D02*
X027538Y009337D01*
X026822Y009337D02*
X026538Y009337D01*
X026640Y009179D02*
X026720Y009179D01*
X026685Y009020D02*
X026675Y009020D01*
X026675Y008862D02*
X026685Y008862D01*
X026675Y008703D02*
X026685Y008703D01*
X026675Y008545D02*
X026685Y008545D01*
X026675Y008386D02*
X026685Y008386D01*
X026701Y008228D02*
X026659Y008228D01*
X026584Y008069D02*
X026776Y008069D01*
X026900Y007945D02*
X026900Y007945D01*
X026900Y007911D02*
X026376Y007911D01*
X025984Y007911D02*
X025376Y007911D01*
X025584Y008069D02*
X025776Y008069D01*
X025701Y008228D02*
X025659Y008228D01*
X025675Y008386D02*
X025685Y008386D01*
X025675Y009020D02*
X025685Y009020D01*
X025720Y009179D02*
X025640Y009179D01*
X025538Y009337D02*
X025822Y009337D01*
X030076Y007911D02*
X030684Y007911D01*
X030600Y007945D02*
X030782Y007870D01*
X030978Y007870D01*
X031160Y007945D01*
X031300Y008085D01*
X031375Y008267D01*
X031375Y009093D01*
X031300Y009275D01*
X031160Y009415D01*
X030978Y009490D01*
X030782Y009490D01*
X030600Y009415D01*
X030460Y009275D01*
X030385Y009093D01*
X030385Y008267D01*
X030460Y008085D01*
X030600Y007945D01*
X030476Y008069D02*
X030284Y008069D01*
X030359Y008228D02*
X030401Y008228D01*
X030385Y008386D02*
X030375Y008386D01*
X030375Y008545D02*
X030385Y008545D01*
X030375Y008703D02*
X030385Y008703D01*
X030375Y008862D02*
X030385Y008862D01*
X030375Y009020D02*
X030385Y009020D01*
X030420Y009179D02*
X030340Y009179D01*
X030238Y009337D02*
X030522Y009337D01*
X031238Y009337D02*
X031522Y009337D01*
X031420Y009179D02*
X031340Y009179D01*
X031375Y009020D02*
X031385Y009020D01*
X031375Y008862D02*
X031385Y008862D01*
X031375Y008703D02*
X031385Y008703D01*
X031375Y008545D02*
X031385Y008545D01*
X031375Y008386D02*
X031385Y008386D01*
X031401Y008228D02*
X031359Y008228D01*
X031284Y008069D02*
X031476Y008069D01*
X031600Y007945D02*
X031600Y007945D01*
X031600Y007911D02*
X031076Y007911D01*
X016451Y019481D02*
X013809Y019481D01*
X013971Y019640D02*
X016289Y019640D01*
X016202Y019798D02*
X014058Y019798D01*
X014110Y019957D02*
X016150Y019957D01*
X016150Y020115D02*
X014110Y020115D01*
X014078Y020274D02*
X016182Y020274D01*
X016248Y020432D02*
X014012Y020432D01*
X013861Y020591D02*
X016399Y020591D01*
X009199Y019481D02*
X008620Y019481D01*
X008620Y019323D02*
X009105Y019323D01*
X009105Y019164D02*
X008620Y019164D01*
X008650Y019006D02*
X009105Y019006D01*
X009105Y018847D02*
X008809Y018847D01*
X008860Y018689D02*
X009142Y018689D01*
X009300Y018530D02*
X008860Y018530D01*
X006892Y022017D02*
X006815Y022017D01*
X006815Y022144D02*
X006815Y022144D01*
X023367Y025839D02*
X023367Y025839D01*
X030581Y022968D02*
X031279Y022968D01*
X032816Y022810D02*
X035754Y022810D01*
X035913Y022651D02*
X032901Y022651D01*
X032925Y022493D02*
X036071Y022493D01*
X036242Y022334D02*
X032925Y022334D01*
X032925Y022176D02*
X037208Y022176D01*
X037351Y022017D02*
X032925Y022017D01*
X035978Y024078D02*
X036602Y024078D01*
X036462Y024236D02*
X035820Y024236D01*
X035661Y024395D02*
X036357Y024395D01*
X036251Y024553D02*
X032453Y024553D01*
X032294Y024712D02*
X034633Y024712D01*
X034402Y024870D02*
X032136Y024870D01*
X031977Y025029D02*
X034249Y025029D01*
X034157Y025187D02*
X031819Y025187D01*
X031660Y025346D02*
X034090Y025346D01*
X035647Y024712D02*
X036181Y024712D01*
X036116Y024870D02*
X035878Y024870D01*
X036031Y025029D02*
X036056Y025029D01*
X036137Y023919D02*
X036760Y023919D01*
X036961Y023761D02*
X036295Y023761D01*
X036454Y023602D02*
X037198Y023602D01*
X038829Y020115D02*
X039700Y020115D01*
X039700Y019957D02*
X039093Y019957D01*
D22*
X022570Y025070D03*
X009080Y017130D03*
X003180Y017180D03*
X007930Y012680D03*
D23*
X007930Y012630D01*
X007380Y012080D01*
X003480Y012080D01*
X003180Y012380D01*
X003180Y017180D01*
X002930Y017430D01*
X002930Y021800D01*
X003450Y022320D01*
X005070Y022320D01*
X005930Y023180D01*
X006380Y023180D01*
X006890Y023690D01*
X008050Y023690D01*
X010040Y025680D01*
X023130Y025680D01*
X023630Y025180D01*
X031430Y025180D01*
X032430Y024180D01*
X035480Y024180D01*
X036480Y023180D01*
X039630Y023180D01*
X039980Y022830D01*
X039980Y019830D01*
X039680Y019530D01*
X038226Y019530D01*
X038202Y019506D01*
X038176Y020980D02*
X036980Y020980D01*
X035930Y019930D01*
X035930Y017880D01*
X036980Y016830D01*
X039780Y016830D01*
X040330Y016280D01*
X040330Y008630D01*
X039780Y008080D01*
X036980Y008080D01*
X035880Y006980D01*
X032180Y006980D01*
X031880Y007280D01*
X031880Y008680D01*
X027180Y008680D02*
X027180Y007330D01*
X026830Y006980D01*
X021230Y006980D01*
X020930Y007280D01*
X020930Y008680D01*
X019930Y008680D02*
X018930Y008680D01*
X025180Y008680D02*
X026180Y008680D01*
X010080Y015680D02*
X010030Y015730D01*
X010030Y016280D01*
X009630Y016680D01*
X008030Y016680D01*
X006940Y017770D01*
X006945Y018825D01*
X006930Y018840D01*
X006930Y019580D01*
X006324Y020186D01*
X005030Y020186D01*
X005030Y020934D02*
X005566Y020930D01*
X005680Y020930D01*
X005930Y021180D01*
X006320Y021176D01*
X006320Y021924D02*
X006320Y022250D01*
X006494Y022424D01*
X007310Y022424D01*
X007974Y022424D01*
X010180Y024630D01*
X022230Y024630D01*
X022330Y024530D01*
X023330Y024530D01*
X023480Y024680D01*
X031180Y024680D01*
X032080Y023780D01*
X035180Y023780D01*
X036380Y022580D01*
X038129Y022580D01*
X038202Y022506D01*
X038202Y021006D02*
X038176Y020980D01*
X032430Y022180D02*
X031430Y022180D01*
X022570Y025070D02*
X009880Y025070D01*
X008170Y023360D01*
X008170Y023350D01*
X007100Y023350D01*
X006550Y022800D01*
X006120Y022800D01*
X005030Y021710D01*
X004210Y021710D01*
X003680Y021180D01*
X003680Y019580D01*
X004435Y018825D01*
X006275Y018825D01*
X008340Y018920D02*
X008580Y018680D01*
X008580Y017885D01*
X009080Y017885D02*
X009080Y017130D01*
X009580Y017885D02*
X009580Y019056D01*
X008340Y018920D02*
X008340Y020784D01*
X008346Y020790D01*
X008346Y021346D01*
X008580Y021580D01*
X010480Y021580D01*
X010680Y021780D01*
X010680Y021980D01*
X011080Y022380D01*
X011080Y022580D01*
X011230Y022730D01*
X011180Y022680D01*
X012230Y022730D02*
X013230Y022730D01*
M02*
